# Brazo_Base  -  origen en el pivote de la pieza
# pivote en coordenadas del modelo: 1.7012 4.4817 -12.9332
mtllib rover.mtl
o Brazo_Base
v 0.256902 0.996365 0.500000
v -0.256900 0.700001 0.500000
v 0.256902 0.700001 0.500000
v 0.500001 0.996365 -0.256901
v 0.500001 0.700001 0.256901
v 0.500001 0.700001 -0.256901
v -0.256900 0.996365 -0.500000
v -0.428797 0.996365 0.428799
v 0.500001 0.996365 0.256901
v -0.499999 0.996365 0.256901
v -0.499999 0.700001 -0.256901
v -0.499999 0.700001 0.256901
v 0.256902 0.700001 -0.500000
v -0.256900 0.700001 -0.500000
v -0.256900 0.996365 0.500000
v -0.428797 0.700001 0.428799
v -0.428797 0.996365 -0.428797
v -0.428797 0.700001 -0.428797
v -0.499999 0.996365 -0.256901
v 0.428798 0.996365 -0.428797
v 0.428798 0.700001 -0.428797
v 0.256902 0.996365 -0.500000
v 0.428798 0.996365 0.428799
v 0.428798 0.700001 0.428799
v 0.000001 0.700001 -0.299999
v 0.114806 0.500001 -0.277164
v 0.000001 0.500001 -0.299999
v 0.114806 0.700001 -0.277164
v 0.212133 0.500001 -0.212132
v 0.212133 0.700001 -0.212132
v 0.277165 0.500001 -0.114805
v 0.277165 0.700001 -0.114805
v 0.300000 0.500001 0.000000
v 0.300000 0.700001 0.000000
v 0.277165 0.500001 0.114805
v 0.277165 0.700001 0.114805
v 0.212133 0.500001 0.212132
v 0.212133 0.700001 0.212132
v 0.114806 0.500001 0.277164
v 0.114806 0.700001 0.277164
v 0.000001 0.500001 0.300000
v 0.000001 0.700001 0.300000
v -0.114804 0.500001 0.277164
v -0.114804 0.700001 0.277164
v -0.212131 0.500001 0.212132
v -0.212131 0.700001 0.212132
v -0.277163 0.500001 0.114805
v -0.277163 0.700001 0.114805
v -0.299999 0.500001 0.000000
v -0.299999 0.700001 0.000000
v -0.277163 0.500001 -0.114805
v -0.277163 0.700001 -0.114805
v -0.212131 0.500001 -0.212132
v -0.212131 0.700001 -0.212132
v -0.114804 0.500001 -0.277164
v -0.114804 0.700001 -0.277164
v -0.114804 0.500001 -0.277164
v 0.000001 0.175001 -0.299999
v -0.114804 0.175001 -0.277164
v -0.212131 0.500001 -0.212132
v -0.212131 0.175001 -0.212132
v 0.277165 0.500001 0.114805
v 0.415747 0.222002 0.172207
v 0.277165 0.175001 0.114805
v -0.299999 0.500001 0.000000
v -0.277163 0.175001 -0.114805
v -0.299999 0.175001 0.000000
v -0.277163 0.500001 0.114805
v -0.277163 0.175001 0.114805
v -0.212131 0.500001 0.212132
v -0.212131 0.175001 0.212132
v 0.114806 0.500001 -0.277164
v 0.318199 0.625001 -0.318197
v 0.172208 0.625001 -0.415745
v 0.000001 0.500001 0.300000
v -0.114804 0.175001 0.277164
v 0.000001 0.175001 0.300000
v 0.114806 0.500001 0.277164
v 0.114806 0.175001 0.277164
v 0.212133 0.500001 0.212132
v 0.212133 0.175001 0.212132
v 0.172208 0.222002 -0.415745
v 0.114806 0.175001 -0.277164
v 0.300000 0.500001 0.000000
v 0.300000 0.175001 0.000000
v 0.277165 0.500001 -0.114805
v 0.277165 0.175001 -0.114805
v 0.212133 0.500001 -0.212132
v 0.212133 0.175001 -0.212132
v -0.172207 0.625001 0.415747
v -0.114804 0.500001 0.277164
v 0.000001 0.500001 -0.299999
v -0.415745 0.222002 -0.172207
v -0.623618 0.620001 -0.258312
v -0.623618 0.217001 -0.258312
v -0.172207 0.222002 0.415747
v -0.277163 0.500001 -0.114805
v -0.318197 0.625001 -0.318197
v -0.415745 0.625001 -0.172207
v 0.415747 0.625001 0.172207
v -0.477296 0.217001 -0.477297
v -0.258310 0.620001 0.623619
v -0.477296 0.217001 0.477297
v -0.258310 0.217001 0.623619
v 0.623618 0.620001 0.258311
v 0.477298 0.217001 0.477297
v 0.623618 0.217001 0.258311
v 0.258312 0.620001 -0.623619
v 0.477298 0.217001 -0.477297
v 0.258312 0.217001 -0.623619
v -0.318197 0.625001 0.318198
v 0.318199 0.625001 0.318198
v -0.318197 0.222002 0.318198
v -0.477296 0.620001 0.477297
v 0.318199 0.222002 0.318198
v 0.477298 0.620001 0.477297
v -0.318197 0.222002 -0.318197
v -0.477296 0.620001 -0.477297
v 0.318199 0.222002 -0.318197
v 0.477298 0.620001 -0.477297
v 0.172208 0.005002 -0.415745
v 0.114806 0.000000 -0.277164
v 0.318199 0.005002 -0.318197
v 0.318199 0.005002 0.318198
v -0.318197 0.005002 0.318198
v -0.318197 0.005002 -0.318197
v 0.258312 0.000001 -0.623619
v -0.172207 0.005002 0.415747
v -0.258310 0.000001 0.623619
v 0.415747 0.005002 0.172207
v 0.623618 0.000001 0.258311
v 0.477298 0.000001 -0.477297
v 0.477298 0.000001 0.477297
v -0.477296 0.000001 0.477297
v -0.477296 0.000001 -0.477297
v -0.623618 0.000001 -0.258310
v -0.415745 0.005002 -0.172207
v -0.277163 0.000000 -0.114805
v -0.114804 0.000000 0.277164
v 0.000001 0.000000 -0.299999
v 0.277165 0.000000 -0.114805
v 0.212133 0.000000 -0.212132
v 0.300000 0.000000 0.000000
v 0.277165 0.000000 0.114805
v 0.114806 0.000000 0.277164
v 0.212133 0.000000 0.212132
v 0.000001 0.000000 0.300000
v -0.277163 0.000000 0.114805
v -0.212131 0.000000 0.212132
v -0.299999 0.000000 0.000000
v -0.114804 0.000000 -0.277164
v -0.212131 0.000000 -0.212132
vn 0.090971 0.713164 0.695069
vn -0.090971 -0.713164 0.695069
vn 0.245799 -0.321155 0.914572
vn 0.939018 0.321155 -0.122901
vn 0.939018 -0.321155 0.122900
vn 0.676973 -0.713164 -0.181945
vn -0.065926 0.861359 -0.503701
vn -0.389283 0.872660 0.294827
vn 0.490589 0.861358 0.131850
vn -0.939018 0.321155 0.122900
vn -0.939018 -0.321155 -0.122901
vn -0.490589 -0.861358 0.131850
vn 0.065926 -0.861359 -0.503701
vn -0.245805 -0.321155 -0.914571
vn -0.245799 0.321155 0.914572
vn -0.568526 -0.336557 0.750671
vn -0.568530 0.336556 -0.750669
vn -0.543713 -0.731306 -0.411786
vn -0.676973 0.713164 -0.181945
vn 0.543713 0.731306 -0.411786
vn 0.568530 -0.336556 -0.750669
vn 0.245805 0.321155 -0.914571
vn 0.568526 0.336557 0.750671
vn 0.389283 -0.872660 0.294827
vn 0.066155 0.000000 -0.997809
vn 0.320717 0.000000 -0.947175
vn -0.066155 0.000000 -0.997809
vn 0.442969 0.000000 -0.896537
vn 0.658779 0.000000 -0.752336
vn 0.752339 0.000000 -0.658777
vn 0.896536 0.000000 -0.442970
vn 0.947173 0.000000 -0.320723
vn 0.997809 0.000000 -0.066158
vn 0.997809 0.000000 0.066158
vn 0.947174 0.000000 0.320721
vn 0.896538 0.000000 0.442967
vn 0.752339 0.000000 0.658776
vn 0.658777 0.000000 0.752338
vn 0.442968 0.000000 0.896538
vn 0.320720 0.000000 0.947174
vn 0.066158 0.000000 0.997809
vn -0.066158 0.000000 0.997809
vn -0.320720 0.000000 0.947174
vn -0.442968 0.000000 0.896538
vn -0.658777 0.000000 0.752338
vn -0.752339 0.000000 0.658776
vn -0.896538 0.000000 0.442967
vn -0.947174 0.000000 0.320721
vn -0.997809 0.000000 0.066158
vn -0.997809 0.000000 -0.066158
vn -0.947173 0.000000 -0.320723
vn -0.896536 0.000000 -0.442970
vn -0.752339 0.000000 -0.658777
vn -0.658779 0.000000 -0.752336
vn -0.442969 0.000000 -0.896537
vn -0.320717 0.000000 -0.947175
vn -0.320717 0.000000 -0.947175
vn 0.000000 0.000000 -1.000000
vn -0.382682 0.000000 -0.923880
vn 0.285714 0.258766 -0.922718
vn 0.098013 0.000000 -0.995185
vn 0.489443 0.308825 -0.815520
vn 0.382683 0.000000 -0.923880
vn 0.881920 0.000000 -0.471400
vn -0.997809 0.000000 -0.066158
vn -0.881920 0.000000 0.471400
vn -1.000000 0.000000 0.000000
vn -0.947174 0.000000 0.320721
vn -0.923880 0.000000 0.382683
vn -0.753690 0.487226 -0.441092
vn -0.995185 0.000000 -0.098018
vn -0.818558 0.525933 -0.230992
vn 0.165365 0.809379 0.563525
vn -0.776891 0.623595 -0.087009
vn -0.066158 0.000000 0.997809
vn 0.471397 0.000000 0.881921
vn -0.000000 0.000000 1.000000
vn 0.320720 0.000000 0.947174
vn 0.382682 0.000000 0.923880
vn -0.441092 0.487225 0.753691
vn -0.098016 0.000000 0.995185
vn -0.923880 0.000000 -0.382683
vn -0.471401 0.000000 -0.881919
vn 0.997809 0.000000 0.066158
vn 1.000000 0.000000 -0.000000
vn 0.947173 0.000000 -0.320723
vn 0.923879 0.000000 -0.382685
vn 0.922717 0.258766 0.285717
vn 0.995185 0.000000 0.098015
vn 0.709028 0.700491 -0.081195
vn 0.815516 0.308825 0.489449
vn 0.066155 0.000000 -0.997809
vn -0.382684 0.000000 0.923879
vn -0.757951 0.614568 0.218670
vn -0.956941 0.000001 0.290282
vn 0.923880 0.000000 0.382683
vn -0.230989 0.525935 0.818558
vn 0.563525 0.809379 -0.165365
vn -0.087010 0.623595 0.776890
vn -0.081197 0.700490 -0.709028
vn -0.098014 0.000000 -0.995185
vn 0.218674 0.614570 0.757948
vn -0.995185 0.000000 0.098016
vn 0.290285 0.000000 0.956940
vn 0.757950 0.614567 -0.218673
vn 0.098019 0.000000 0.995185
vn 0.956941 0.000000 -0.290284
vn -0.218674 0.614569 -0.757949
vn 0.995185 0.000000 -0.098017
vn -0.290285 0.000000 -0.956940
vn -0.305875 0.782378 -0.542518
vn -0.542517 0.782377 0.305877
vn -0.707106 0.000000 -0.707108
vn -0.865401 0.436437 -0.246176
vn -0.707106 0.000000 0.707108
vn -0.246174 0.436438 0.865402
vn 0.707107 0.000000 -0.707107
vn 0.246177 0.436437 -0.865401
vn 0.707107 0.000000 0.707107
vn 0.865402 0.436437 0.246174
vn -0.923880 0.000000 -0.382683
vn -0.221991 0.000000 -0.975049
vn 0.707107 0.000000 0.707107
vn -0.707106 0.000000 0.707108
vn -0.707106 0.000000 -0.707108
vn 0.707107 0.000000 -0.707107
vn -0.290285 0.000000 -0.956940
vn 0.923880 0.000000 0.382683
vn 0.290285 0.000000 0.956940
vn 0.382683 0.000000 -0.923880
vn 0.956941 0.000000 -0.290284
vn 0.885147 0.000000 -0.465311
vn 0.465314 0.000000 0.885146
vn -0.885148 0.000000 0.465310
vn -0.465310 -0.000002 -0.885148
vn -0.956940 0.000003 0.290285
vn -0.382682 0.000002 0.923880
vn -0.975050 0.000000 0.221985
vn 0.221985 0.000000 0.975050
vn -0.066155 0.000000 -0.997809
vn 0.896536 0.000000 -0.442970
vn 0.995185 0.000000 0.098015
vn 0.997809 0.000000 -0.066158
vn 0.975050 0.000000 -0.221985
vn 0.442968 0.000000 0.896538
vn -0.098016 0.000000 0.995185
vn 0.066158 0.000000 0.997809
vn -0.896538 0.000000 0.442967
vn -0.995185 0.000000 -0.098018
vn -0.997809 0.000000 0.066158
vn -0.442969 0.000000 -0.896537
vn 0.098013 0.000000 -0.995185
vt 0.137046 0.774263
vt 0.174826 0.707327
vt 0.175448 0.773904
vt 0.133831 0.429874
vt 0.171612 0.362938
vt 0.172233 0.429515
vt 0.103558 0.561683
vt 0.126956 0.681827
vt 0.006396 0.660676
vt 0.135974 0.659467
vt 0.173755 0.592530
vt 0.174376 0.659108
vt 0.134902 0.544670
vt 0.172683 0.477734
vt 0.173305 0.544312
vt 0.136424 0.707685
vt 0.174601 0.683218
vt 0.174826 0.707327
vt 0.136199 0.683576
vt 0.174376 0.659108
vt 0.174601 0.683218
vt 0.173305 0.544312
vt 0.135127 0.568780
vt 0.134902 0.544670
vt 0.173530 0.568421
vt 0.135353 0.592889
vt 0.135127 0.568780
vt 0.172233 0.429515
vt 0.134056 0.453983
vt 0.133831 0.429874
vt 0.172458 0.453625
vt 0.134281 0.478093
vt 0.134056 0.453983
vt 0.175448 0.773904
vt 0.137271 0.798372
vt 0.137046 0.774263
vt 0.175673 0.798014
vt 0.137496 0.822482
vt 0.137271 0.798372
vt 0.271539 0.560115
vt 0.294936 0.680259
vt 0.174376 0.659108
vt 0.206120 0.265816
vt 0.190699 0.283868
vt 0.190699 0.265816
vt 0.206120 0.283868
vt 0.190699 0.301919
vt 0.190699 0.283868
vt 0.206120 0.301919
vt 0.190699 0.319971
vt 0.190699 0.301919
vt 0.206120 0.319971
vt 0.190699 0.338023
vt 0.190699 0.319971
vt 0.206120 0.338023
vt 0.190699 0.356074
vt 0.190699 0.338023
vt 0.206120 0.356074
vt 0.190699 0.374126
vt 0.190699 0.356074
vt 0.206120 0.374126
vt 0.190699 0.392177
vt 0.190699 0.374126
vt 0.206120 0.392177
vt 0.190699 0.410229
vt 0.190699 0.392177
vt 0.206120 0.410229
vt 0.190699 0.428280
vt 0.190699 0.410229
vt 0.206120 0.428280
vt 0.190699 0.446332
vt 0.190699 0.428280
vt 0.206120 0.446332
vt 0.190699 0.464384
vt 0.190699 0.446332
vt 0.206120 0.464384
vt 0.190699 0.482435
vt 0.190699 0.464384
vt 0.206120 0.482435
vt 0.190699 0.500487
vt 0.190699 0.482435
vt 0.206120 0.500487
vt 0.190699 0.518538
vt 0.190699 0.500487
vt 0.206120 0.518538
vt 0.190699 0.536590
vt 0.190699 0.518538
vt 0.206120 0.536590
vt 0.190699 0.554642
vt 0.190699 0.536590
vt 0.300277 0.221770
vt 0.270920 0.140260
vt 0.300277 0.140260
vt 0.329634 0.221770
vt 0.300277 0.140260
vt 0.329634 0.140260
vt 0.232095 0.197909
vt 0.199160 0.136912
vt 0.232075 0.126588
vt 0.178839 0.028623
vt 0.260349 -0.000735
vt 0.260349 0.028623
vt 0.178839 0.057980
vt 0.260349 0.028623
vt 0.260349 0.057980
vt 0.178839 0.087337
vt 0.260349 0.057980
vt 0.260349 0.087337
vt 0.135972 0.316915
vt 0.103851 0.274559
vt 0.142382 0.274548
vt 0.301090 0.057980
vt 0.219580 0.087337
vt 0.219580 0.057980
vt 0.301090 0.028623
vt 0.219580 0.057980
vt 0.219580 0.028623
vt 0.301090 -0.000735
vt 0.219580 0.028623
vt 0.219580 -0.000735
vt 0.234287 0.199748
vt 0.201352 0.138751
vt 0.234266 0.128427
vt 0.270138 0.221403
vt 0.240781 0.139894
vt 0.270138 0.139893
vt 0.299496 0.221403
vt 0.270138 0.139893
vt 0.299496 0.139893
vt 0.328853 0.221403
vt 0.299496 0.139893
vt 0.328853 0.139893
vt 0.109535 0.317816
vt 0.141632 0.275441
vt 0.135223 0.317808
vt 0.270920 0.221770
vt 0.241563 0.140260
vt 0.270920 0.140260
vt 0.198411 0.137805
vt 0.149060 0.225160
vt 0.149034 0.136722
vt 0.233537 0.200641
vt 0.200603 0.139644
vt 0.233517 0.129320
vt 0.231346 0.198802
vt 0.198411 0.137805
vt 0.231325 0.127481
vt 0.133031 0.315969
vt 0.100910 0.273613
vt 0.139441 0.273602
vt 0.108093 0.315083
vt 0.140190 0.272709
vt 0.133780 0.315076
vt 0.149060 0.225160
vt 0.091238 0.136738
vt 0.149034 0.136722
vt 0.151251 0.226999
vt 0.093429 0.138577
vt 0.151226 0.138561
vt 0.149809 0.224267
vt 0.091987 0.135845
vt 0.149784 0.135829
vt 0.152001 0.226106
vt 0.094179 0.137684
vt 0.151975 0.137668
vt 0.199160 0.136912
vt 0.149809 0.224267
vt 0.149784 0.135829
vt 0.100910 0.273613
vt 0.149060 0.225160
vt 0.139441 0.273602
vt 0.103101 0.275452
vt 0.151251 0.226999
vt 0.141632 0.275441
vt 0.200603 0.139644
vt 0.151251 0.226999
vt 0.151226 0.138561
vt 0.101659 0.272720
vt 0.149809 0.224267
vt 0.140190 0.272709
vt 0.201352 0.138751
vt 0.152001 0.226106
vt 0.151975 0.137668
vt 0.103851 0.274559
vt 0.152001 0.226106
vt 0.142382 0.274548
vt 0.044054 0.139689
vt 0.093455 0.227015
vt 0.044079 0.228127
vt 0.042611 0.136956
vt 0.092012 0.224283
vt 0.042636 0.225395
vt 0.041862 0.137850
vt 0.091263 0.225176
vt 0.041887 0.226288
vt 0.008962 0.198866
vt 0.041862 0.137850
vt 0.041887 0.226288
vt 0.011154 0.200705
vt 0.044054 0.139689
vt 0.044079 0.228127
vt 0.009711 0.197973
vt 0.042611 0.136956
vt 0.042636 0.225395
vt 0.011903 0.199812
vt 0.044803 0.138796
vt 0.044828 0.227234
vt 0.044803 0.138796
vt 0.094204 0.226122
vt 0.044828 0.227234
vt 0.234266 0.128427
vt 0.201338 0.091130
vt 0.234255 0.090023
vt 0.137046 0.774263
vt 0.136424 0.707685
vt 0.174826 0.707327
vt 0.133831 0.429874
vt 0.133209 0.363296
vt 0.171612 0.362938
vt 0.006396 0.660676
vt 0.005774 0.594099
vt 0.014792 0.571738
vt 0.014792 0.571738
vt 0.036981 0.562304
vt 0.103558 0.561683
vt 0.103558 0.561683
vt 0.125918 0.570701
vt 0.135353 0.592889
vt 0.135353 0.592889
vt 0.135974 0.659467
vt 0.126956 0.681827
vt 0.126956 0.681827
vt 0.104768 0.691261
vt 0.038190 0.691882
vt 0.038190 0.691882
vt 0.015830 0.682864
vt 0.006396 0.660676
vt 0.006396 0.660676
vt 0.014792 0.571738
vt 0.103558 0.561683
vt 0.103558 0.561683
vt 0.135353 0.592889
vt 0.126956 0.681827
vt 0.126956 0.681827
vt 0.038190 0.691882
vt 0.006396 0.660676
vt 0.135974 0.659467
vt 0.135353 0.592889
vt 0.173755 0.592530
vt 0.134902 0.544670
vt 0.134281 0.478093
vt 0.172683 0.477734
vt 0.136424 0.707685
vt 0.136199 0.683576
vt 0.174601 0.683218
vt 0.136199 0.683576
vt 0.135974 0.659467
vt 0.174376 0.659108
vt 0.173305 0.544312
vt 0.173530 0.568421
vt 0.135127 0.568780
vt 0.173530 0.568421
vt 0.173755 0.592530
vt 0.135353 0.592889
vt 0.172233 0.429515
vt 0.172458 0.453625
vt 0.134056 0.453983
vt 0.172458 0.453625
vt 0.172683 0.477734
vt 0.134281 0.478093
vt 0.175448 0.773904
vt 0.175673 0.798014
vt 0.137271 0.798372
vt 0.175673 0.798014
vt 0.175898 0.822123
vt 0.137496 0.822482
vt 0.174376 0.659108
vt 0.173755 0.592530
vt 0.182773 0.570170
vt 0.182773 0.570170
vt 0.204961 0.560736
vt 0.271539 0.560115
vt 0.271539 0.560115
vt 0.293899 0.569133
vt 0.303333 0.591321
vt 0.303333 0.591321
vt 0.303955 0.657898
vt 0.294936 0.680259
vt 0.294936 0.680259
vt 0.272748 0.689693
vt 0.206171 0.690315
vt 0.206171 0.690315
vt 0.183811 0.681296
vt 0.174376 0.659108
vt 0.174376 0.659108
vt 0.182773 0.570170
vt 0.271539 0.560115
vt 0.271539 0.560115
vt 0.303333 0.591321
vt 0.294936 0.680259
vt 0.294936 0.680259
vt 0.206171 0.690315
vt 0.174376 0.659108
vt 0.206120 0.265816
vt 0.206120 0.283868
vt 0.190699 0.283868
vt 0.206120 0.283868
vt 0.206120 0.301919
vt 0.190699 0.301919
vt 0.206120 0.301919
vt 0.206120 0.319971
vt 0.190699 0.319971
vt 0.206120 0.319971
vt 0.206120 0.338023
vt 0.190699 0.338023
vt 0.206120 0.338023
vt 0.206120 0.356074
vt 0.190699 0.356074
vt 0.206120 0.356074
vt 0.206120 0.374126
vt 0.190699 0.374126
vt 0.206120 0.374126
vt 0.206120 0.392177
vt 0.190699 0.392177
vt 0.206120 0.392177
vt 0.206120 0.410229
vt 0.190699 0.410229
vt 0.206120 0.410229
vt 0.206120 0.428280
vt 0.190699 0.428280
vt 0.206120 0.428280
vt 0.206120 0.446332
vt 0.190699 0.446332
vt 0.206120 0.446332
vt 0.206120 0.464384
vt 0.190699 0.464384
vt 0.206120 0.464384
vt 0.206120 0.482435
vt 0.190699 0.482435
vt 0.206120 0.482435
vt 0.206120 0.500487
vt 0.190699 0.500487
vt 0.206120 0.500487
vt 0.206120 0.518538
vt 0.190699 0.518538
vt 0.206120 0.518538
vt 0.206120 0.536590
vt 0.190699 0.536590
vt 0.206120 0.536590
vt 0.206120 0.554642
vt 0.190699 0.554642
vt 0.300277 0.221770
vt 0.270920 0.221770
vt 0.270920 0.140260
vt 0.329634 0.221770
vt 0.300277 0.221770
vt 0.300277 0.140260
vt 0.232095 0.197909
vt 0.199186 0.225350
vt 0.199160 0.136912
vt 0.178839 0.028623
vt 0.178839 -0.000735
vt 0.260349 -0.000735
vt 0.178839 0.057980
vt 0.178839 0.028623
vt 0.260349 0.028623
vt 0.178839 0.087337
vt 0.178839 0.057980
vt 0.260349 0.057980
vt 0.135972 0.316915
vt 0.110285 0.316922
vt 0.103851 0.274559
vt 0.301090 0.057980
vt 0.301090 0.087337
vt 0.219580 0.087337
vt 0.301090 0.028623
vt 0.301090 0.057980
vt 0.219580 0.057980
vt 0.301090 -0.000735
vt 0.301090 0.028623
vt 0.219580 0.028623
vt 0.234287 0.199748
vt 0.201377 0.227189
vt 0.201352 0.138751
vt 0.270138 0.221403
vt 0.240781 0.221403
vt 0.240781 0.139894
vt 0.299496 0.221403
vt 0.270138 0.221403
vt 0.270138 0.139893
vt 0.328853 0.221403
vt 0.299496 0.221403
vt 0.299496 0.139893
vt 0.109535 0.317816
vt 0.103101 0.275452
vt 0.141632 0.275441
vt 0.270920 0.221770
vt 0.241563 0.221770
vt 0.241563 0.140260
vt 0.198411 0.137805
vt 0.198436 0.226243
vt 0.149060 0.225160
vt 0.233537 0.200641
vt 0.200628 0.228082
vt 0.200603 0.139644
vt 0.231346 0.198802
vt 0.198436 0.226243
vt 0.198411 0.137805
vt 0.133031 0.315969
vt 0.107344 0.315976
vt 0.100910 0.273613
vt 0.108093 0.315083
vt 0.101659 0.272720
vt 0.140190 0.272709
vt 0.149060 0.225160
vt 0.091263 0.225176
vt 0.091238 0.136738
vt 0.151251 0.226999
vt 0.093455 0.227015
vt 0.093429 0.138577
vt 0.149809 0.224267
vt 0.092012 0.224283
vt 0.091987 0.135845
vt 0.152001 0.226106
vt 0.094204 0.226122
vt 0.094179 0.137684
vt 0.199160 0.136912
vt 0.199186 0.225350
vt 0.149809 0.224267
vt 0.100910 0.273613
vt 0.091263 0.225176
vt 0.149060 0.225160
vt 0.103101 0.275452
vt 0.093455 0.227015
vt 0.151251 0.226999
vt 0.200603 0.139644
vt 0.200628 0.228082
vt 0.151251 0.226999
vt 0.101659 0.272720
vt 0.092012 0.224283
vt 0.149809 0.224267
vt 0.201352 0.138751
vt 0.201377 0.227189
vt 0.152001 0.226106
vt 0.103851 0.274559
vt 0.094204 0.226122
vt 0.152001 0.226106
vt 0.044054 0.139689
vt 0.093429 0.138577
vt 0.093455 0.227015
vt 0.042611 0.136956
vt 0.091987 0.135845
vt 0.092012 0.224283
vt 0.041862 0.137850
vt 0.091238 0.136738
vt 0.091263 0.225176
vt 0.008962 0.198866
vt 0.008941 0.127545
vt 0.041862 0.137850
vt 0.011154 0.200705
vt 0.011133 0.129384
vt 0.044054 0.139689
vt 0.009711 0.197973
vt 0.009691 0.126652
vt 0.042611 0.136956
vt 0.011903 0.199812
vt 0.011883 0.128491
vt 0.044803 0.138796
vt 0.044803 0.138796
vt 0.094179 0.137684
vt 0.094204 0.226122
vt 0.234266 0.128427
vt 0.201352 0.138751
vt 0.201338 0.091130
vt 0.044789 0.091175
vt 0.094179 0.137684
vt 0.044803 0.138796
vt 0.011883 0.128491
vt 0.044789 0.091175
vt 0.044803 0.138796
vt 0.009691 0.126652
vt 0.042598 0.089336
vt 0.042611 0.136956
vt 0.011133 0.129384
vt 0.044040 0.092068
vt 0.044054 0.139689
vt 0.008941 0.127545
vt 0.041848 0.090229
vt 0.041862 0.137850
vt 0.041848 0.090229
vt 0.091238 0.136738
vt 0.041862 0.137850
vt 0.042598 0.089336
vt 0.091987 0.135845
vt 0.042611 0.136956
vt 0.044040 0.092068
vt 0.093429 0.138577
vt 0.044054 0.139689
vt 0.201338 0.091130
vt 0.151975 0.137668
vt 0.151962 0.090047
vt 0.200589 0.092023
vt 0.151226 0.138561
vt 0.151213 0.090940
vt 0.199147 0.089291
vt 0.149784 0.135829
vt 0.149770 0.088208
vt 0.151975 0.137668
vt 0.094165 0.090064
vt 0.151962 0.090047
vt 0.149784 0.135829
vt 0.091973 0.088225
vt 0.149770 0.088208
vt 0.151226 0.138561
vt 0.093416 0.090957
vt 0.151213 0.090940
vt 0.149034 0.136722
vt 0.091224 0.089118
vt 0.149021 0.089101
vt 0.231325 0.127481
vt 0.198397 0.090184
vt 0.231314 0.089077
vt 0.233517 0.129320
vt 0.200589 0.092023
vt 0.233506 0.090917
vt 0.198397 0.090184
vt 0.149034 0.136722
vt 0.149021 0.089101
vt 0.270920 0.140260
vt 0.241563 0.096370
vt 0.270920 0.096370
vt 0.328853 0.139893
vt 0.299496 0.096004
vt 0.328853 0.096004
vt 0.299496 0.139893
vt 0.270138 0.096004
vt 0.299496 0.096004
vt 0.270138 0.139893
vt 0.240781 0.096004
vt 0.270138 0.096004
vt 0.219580 -0.000735
vt 0.175690 0.028623
vt 0.175690 -0.000735
vt 0.219580 0.028623
vt 0.175690 0.057980
vt 0.175690 0.028623
vt 0.219580 0.057980
vt 0.175690 0.087337
vt 0.175690 0.057980
vt 0.260349 0.087337
vt 0.304239 0.057980
vt 0.304239 0.087337
vt 0.260349 0.057980
vt 0.304239 0.028623
vt 0.304239 0.057980
vt 0.260349 0.028623
vt 0.304239 -0.000735
vt 0.304239 0.028623
vt 0.232075 0.126588
vt 0.199147 0.089291
vt 0.232064 0.088184
vt 0.329634 0.140260
vt 0.300277 0.096370
vt 0.329634 0.096370
vt 0.300277 0.140260
vt 0.270920 0.096370
vt 0.300277 0.096370
vt 0.044789 0.091175
vt 0.094165 0.090064
vt 0.094179 0.137684
vt 0.011883 0.128491
vt 0.011872 0.090087
vt 0.044789 0.091175
vt 0.009691 0.126652
vt 0.009680 0.088248
vt 0.042598 0.089336
vt 0.011133 0.129384
vt 0.011122 0.090980
vt 0.044040 0.092068
vt 0.008941 0.127545
vt 0.008930 0.089141
vt 0.041848 0.090229
vt 0.041848 0.090229
vt 0.091224 0.089118
vt 0.091238 0.136738
vt 0.042598 0.089336
vt 0.091973 0.088225
vt 0.091987 0.135845
vt 0.044040 0.092068
vt 0.093416 0.090957
vt 0.093429 0.138577
vt 0.201338 0.091130
vt 0.201352 0.138751
vt 0.151975 0.137668
vt 0.200589 0.092023
vt 0.200603 0.139644
vt 0.151226 0.138561
vt 0.199147 0.089291
vt 0.199160 0.136912
vt 0.149784 0.135829
vt 0.151975 0.137668
vt 0.094179 0.137684
vt 0.094165 0.090064
vt 0.149784 0.135829
vt 0.091987 0.135845
vt 0.091973 0.088225
vt 0.151226 0.138561
vt 0.093429 0.138577
vt 0.093416 0.090957
vt 0.149034 0.136722
vt 0.091238 0.136738
vt 0.091224 0.089118
vt 0.231325 0.127481
vt 0.198411 0.137805
vt 0.198397 0.090184
vt 0.233517 0.129320
vt 0.200603 0.139644
vt 0.200589 0.092023
vt 0.198397 0.090184
vt 0.198411 0.137805
vt 0.149034 0.136722
vt 0.270920 0.140260
vt 0.241563 0.140260
vt 0.241563 0.096370
vt 0.328853 0.139893
vt 0.299496 0.139893
vt 0.299496 0.096004
vt 0.299496 0.139893
vt 0.270138 0.139893
vt 0.270138 0.096004
vt 0.270138 0.139893
vt 0.240781 0.139894
vt 0.240781 0.096004
vt 0.219580 -0.000735
vt 0.219580 0.028623
vt 0.175690 0.028623
vt 0.219580 0.028623
vt 0.219580 0.057980
vt 0.175690 0.057980
vt 0.219580 0.057980
vt 0.219580 0.087337
vt 0.175690 0.087337
vt 0.260349 0.087337
vt 0.260349 0.057980
vt 0.304239 0.057980
vt 0.260349 0.057980
vt 0.260349 0.028623
vt 0.304239 0.028623
vt 0.260349 0.028623
vt 0.260349 -0.000735
vt 0.304239 -0.000735
vt 0.232075 0.126588
vt 0.199160 0.136912
vt 0.199147 0.089291
vt 0.329634 0.140260
vt 0.300277 0.140260
vt 0.300277 0.096370
vt 0.300277 0.140260
vt 0.270920 0.140260
vt 0.270920 0.096370
usemtl Material
f 1/1/1 2/2/2 3/3/3
f 4/4/4 5/5/5 6/6/6
f 7/7/7 8/8/8 9/9/9
f 10/10/10 11/11/11 12/12/12
f 7/13/7 13/14/13 14/15/14
f 15/16/15 16/17/16 2/18/2
f 8/19/8 12/20/12 16/21/16
f 14/22/14 17/23/17 7/24/7
f 18/25/18 19/26/19 17/27/17
f 6/28/6 20/29/20 4/30/4
f 21/31/21 22/32/22 20/33/20
f 3/34/3 23/35/23 1/36/1
f 24/37/24 9/38/9 23/39/23
f 13/40/13 24/41/24 12/42/12
f 25/43/25 26/44/26 27/45/27
f 28/46/28 29/47/29 26/48/26
f 30/49/30 31/50/31 29/51/29
f 32/52/32 33/53/33 31/54/31
f 34/55/34 35/56/35 33/57/33
f 36/58/36 37/59/37 35/60/35
f 38/61/38 39/62/39 37/63/37
f 40/64/40 41/65/41 39/66/39
f 42/67/42 43/68/43 41/69/41
f 44/70/44 45/71/45 43/72/43
f 46/73/46 47/74/47 45/75/45
f 48/76/48 49/77/49 47/78/47
f 50/79/50 51/80/51 49/81/49
f 52/82/52 53/83/53 51/84/51
f 54/85/54 55/86/55 53/87/53
f 56/88/56 27/89/27 55/90/55
f 57/91/57 58/92/58 59/93/59
f 60/94/60 59/95/59 61/96/61
f 62/97/62 63/98/63 64/99/64
f 65/100/65 66/101/66 67/102/67
f 68/103/68 67/104/67 69/105/69
f 70/106/70 69/107/69 71/108/71
f 72/109/72 73/110/73 74/111/74
f 75/112/75 76/113/76 77/114/77
f 78/115/78 77/116/77 79/117/79
f 80/118/80 79/119/79 81/120/81
f 72/121/72 82/122/82 83/123/83
f 84/124/84 64/125/64 85/126/85
f 86/127/86 85/128/85 87/129/87
f 88/130/88 87/131/87 89/132/89
f 70/133/70 90/134/90 91/135/91
f 92/136/92 83/137/83 58/138/58
f 93/139/93 94/140/94 95/141/95
f 91/142/91 96/143/96 76/144/76
f 97/145/97 93/146/93 66/147/66
f 97/148/97 98/149/98 99/150/99
f 80/151/80 100/152/100 62/153/62
f 94/154/94 101/155/101 95/156/95
f 102/157/102 103/158/103 104/159/104
f 105/160/105 106/161/106 107/162/107
f 108/163/108 109/164/109 110/165/110
f 63/166/63 105/167/105 107/168/107
f 98/169/98 94/170/94 99/171/99
f 111/172/111 102/173/102 90/174/90
f 96/175/96 102/176/102 104/177/104
f 112/178/112 105/179/105 100/180/100
f 82/181/82 108/182/108 110/183/110
f 73/184/73 108/185/108 74/186/74
f 113/187/113 114/188/114 111/189/111
f 115/190/115 116/191/116 112/192/112
f 117/193/117 118/194/118 98/195/98
f 60/196/60 117/197/117 98/198/98
f 70/199/70 113/200/113 111/201/111
f 80/202/80 115/203/115 112/204/112
f 88/205/88 119/206/119 73/207/73
f 119/208/119 120/209/120 73/210/73
f 83/211/83 121/212/121 122/213/122
f 1/214/1 15/215/15 2/216/2
f 4/217/4 9/218/9 5/219/5
f 9/220/9 4/221/4 20/222/20
f 20/223/20 22/224/22 7/225/7
f 7/226/7 17/227/17 19/228/19
f 19/229/19 10/230/10 8/231/8
f 8/232/8 15/233/15 1/234/1
f 1/235/1 23/236/23 9/237/9
f 9/238/9 20/239/20 7/240/7
f 7/241/7 19/242/19 8/243/8
f 8/244/8 1/245/1 9/246/9
f 10/247/10 19/248/19 11/249/11
f 7/250/7 22/251/22 13/252/13
f 15/253/15 8/254/8 16/255/16
f 8/256/8 10/257/10 12/258/12
f 14/259/14 18/260/18 17/261/17
f 18/262/18 11/263/11 19/264/19
f 6/265/6 21/266/21 20/267/20
f 21/268/21 13/269/13 22/270/22
f 3/271/3 24/272/24 23/273/23
f 24/274/24 5/275/5 9/276/9
f 12/277/12 11/278/11 18/279/18
f 18/280/18 14/281/14 13/282/13
f 13/283/13 21/284/21 6/285/6
f 6/286/6 5/287/5 24/288/24
f 24/289/24 3/290/3 2/291/2
f 2/292/2 16/293/16 12/294/12
f 12/295/12 18/296/18 13/297/13
f 13/298/13 6/299/6 24/300/24
f 24/301/24 2/302/2 12/303/12
f 25/304/25 28/305/28 26/306/26
f 28/307/28 30/308/30 29/309/29
f 30/310/30 32/311/32 31/312/31
f 32/313/32 34/314/34 33/315/33
f 34/316/34 36/317/36 35/318/35
f 36/319/36 38/320/38 37/321/37
f 38/322/38 40/323/40 39/324/39
f 40/325/40 42/326/42 41/327/41
f 42/328/42 44/329/44 43/330/43
f 44/331/44 46/332/46 45/333/45
f 46/334/46 48/335/48 47/336/47
f 48/337/48 50/338/50 49/339/49
f 50/340/50 52/341/52 51/342/51
f 52/343/52 54/344/54 53/345/53
f 54/346/54 56/347/56 55/348/55
f 56/349/56 25/350/25 27/351/27
f 57/352/57 92/353/92 58/354/58
f 60/355/60 57/356/57 59/357/59
f 62/358/62 100/359/100 63/360/63
f 65/361/65 97/362/97 66/363/66
f 68/364/68 65/365/65 67/366/67
f 70/367/70 68/368/68 69/369/69
f 72/370/72 88/371/88 73/372/73
f 75/373/75 91/374/91 76/375/76
f 78/376/78 75/377/75 77/378/77
f 80/379/80 78/380/78 79/381/79
f 72/382/72 74/383/74 82/384/82
f 84/385/84 62/386/62 64/387/64
f 86/388/86 84/389/84 85/390/85
f 88/391/88 86/392/86 87/393/87
f 70/394/70 111/395/111 90/396/90
f 92/397/92 72/398/72 83/399/83
f 93/400/93 99/401/99 94/402/94
f 91/403/91 90/404/90 96/405/96
f 97/406/97 99/407/99 93/408/93
f 97/409/97 60/410/60 98/411/98
f 80/412/80 112/413/112 100/414/100
f 94/415/94 118/416/118 101/417/101
f 102/418/102 114/419/114 103/420/103
f 105/421/105 116/422/116 106/423/106
f 108/424/108 120/425/120 109/426/109
f 63/427/63 100/428/100 105/429/105
f 98/430/98 118/431/118 94/432/94
f 111/433/111 114/434/114 102/435/102
f 96/436/96 90/437/90 102/438/102
f 112/439/112 116/440/116 105/441/105
f 82/442/82 74/443/74 108/444/108
f 73/445/73 120/446/120 108/447/108
f 113/448/113 103/449/103 114/450/114
f 115/451/115 106/452/106 116/453/116
f 117/454/117 101/455/101 118/456/118
f 60/457/60 61/458/61 117/459/117
f 70/460/70 71/461/71 113/462/113
f 80/463/80 81/464/81 115/465/115
f 88/466/88 89/467/89 119/468/119
f 119/469/119 109/470/109 120/471/120
f 83/472/83 82/473/82 121/474/121
usemtl alumBlack
f 123/475/123 109/476/109 119/477/119
f 89/478/89 123/479/123 119/480/119
f 81/481/81 124/482/124 115/483/115
f 71/484/71 125/485/125 113/486/113
f 61/487/61 126/488/126 117/489/117
f 126/490/126 101/491/101 117/492/117
f 124/493/124 106/494/106 115/495/115
f 125/496/125 103/497/103 113/498/113
f 121/499/121 110/500/110 127/501/127
f 128/502/128 104/503/104 129/504/129
f 130/505/130 107/506/107 131/507/131
f 110/508/110 132/509/132 127/510/127
f 107/511/107 133/512/133 131/513/131
f 104/514/104 134/515/134 129/516/129
f 95/517/95 135/518/135 136/519/136
f 66/520/66 137/521/137 138/522/138
f 76/523/76 128/524/128 139/525/139
f 137/526/137 95/527/95 136/528/136
f 58/529/58 122/530/122 140/531/140
f 89/532/89 141/533/141 142/534/142
f 87/535/87 143/536/143 141/537/141
f 85/538/85 144/539/144 143/540/143
f 81/541/81 145/542/145 146/543/146
f 79/544/79 147/545/147 145/546/145
f 77/547/77 139/548/139 147/549/147
f 71/550/71 148/551/148 149/552/149
f 69/553/69 150/554/150 148/555/148
f 67/556/67 138/557/138 150/558/150
f 64/559/64 130/560/130 144/561/144
f 61/562/61 151/563/151 152/564/152
f 59/565/59 140/566/140 151/567/151
f 123/568/123 132/569/132 109/570/109
f 89/571/89 142/572/142 123/573/123
f 81/574/81 146/575/146 124/576/124
f 71/577/71 149/578/149 125/579/125
f 61/580/61 152/581/152 126/582/126
f 126/583/126 135/584/135 101/585/101
f 124/586/124 133/587/133 106/588/106
f 125/589/125 134/590/134 103/591/103
f 121/592/121 82/593/82 110/594/110
f 128/595/128 96/596/96 104/597/104
f 130/598/130 63/599/63 107/600/107
f 110/601/110 109/602/109 132/603/132
f 107/604/107 106/605/106 133/606/133
f 104/607/104 103/608/103 134/609/134
f 95/610/95 101/611/101 135/612/135
f 66/613/66 93/614/93 137/615/137
f 76/616/76 96/617/96 128/618/128
f 137/619/137 93/620/93 95/621/95
f 58/622/58 83/623/83 122/624/122
f 89/625/89 87/626/87 141/627/141
f 87/628/87 85/629/85 143/630/143
f 85/631/85 64/632/64 144/633/144
f 81/634/81 79/635/79 145/636/145
f 79/637/79 77/638/77 147/639/147
f 77/640/77 76/641/76 139/642/139
f 71/643/71 69/644/69 148/645/148
f 69/646/69 67/647/67 150/648/150
f 67/649/67 66/650/66 138/651/138
f 64/652/64 63/653/63 130/654/130
f 61/655/61 59/656/59 151/657/151
f 59/658/59 58/659/58 140/660/140
