# Brazo_Seg1  -  origen en el pivote de la pieza
# pivote en coordenadas del modelo: 1.4917 5.5473 -12.4467
mtllib rover.mtl
o Brazo_Seg1
v 0.047450 0.069329 -0.818318
v 3.107608 3.155986 -0.814218
v 2.764619 3.355215 -0.814218
v -0.154728 0.410586 -0.154639
v 2.764619 3.355215 -0.009418
v 2.764619 3.355215 -0.150537
v 3.108217 3.014565 -0.150537
v 0.188870 0.069937 -0.013520
v 0.188870 0.069937 -0.154639
v 0.047450 0.069329 -0.959439
v -0.154120 0.269165 -0.818318
v -0.154118 0.269165 -0.959439
v 0.188870 0.069937 -0.959439
v 3.108217 3.014565 -0.814218
v 0.188870 0.069937 -0.818318
v -0.154728 0.410586 -0.959439
v 2.764619 3.355215 -0.955337
v 2.906039 3.355823 -0.955337
v 2.906039 3.355823 -0.814218
v -0.154120 0.269165 -0.154639
v 0.047450 0.069329 -0.154639
v -0.154120 0.269165 -0.013520
v 2.906039 3.355823 -0.150537
v 3.107608 3.155986 -0.955337
v 3.107608 3.155986 -0.009418
v 3.108217 3.014565 -0.009418
v 2.906039 3.355823 -0.009418
v 0.362843 0.282233 -0.140880
v 0.292970 0.235108 -0.832080
v 0.362843 0.282233 -0.832080
v 0.292970 0.235108 -0.140880
v 0.210383 0.218312 -0.832080
v 0.210383 0.218312 -0.140880
v 0.127652 0.234396 -0.832080
v 0.127652 0.234396 -0.140880
v 0.057375 0.280915 -0.832080
v 0.057375 0.280915 -0.140880
v 0.010251 0.350788 -0.832080
v 0.010251 0.350788 -0.140880
v -0.006546 0.433378 -0.832080
v -0.006546 0.433378 -0.140882
v 0.009538 0.516106 -0.832080
v 0.009538 0.516106 -0.140882
v 0.056060 0.586383 -0.832080
v 0.056060 0.586384 -0.140882
v 0.125932 0.633508 -0.832080
v 0.125932 0.633508 -0.140882
v 0.208520 0.650306 -0.832080
v 0.208520 0.650306 -0.140882
v 0.291249 0.634220 -0.832080
v 0.291249 0.634220 -0.140882
v 0.361527 0.587701 -0.832080
v 0.361527 0.587701 -0.140882
v 0.408650 0.517826 -0.832080
v 0.408650 0.517826 -0.140882
v 0.425448 0.435240 -0.832080
v 0.425448 0.435240 -0.140882
v 0.409363 0.352510 -0.832080
v 0.409363 0.352510 -0.140880
v 2.871864 2.864114 0.057623
v 2.744814 2.810844 -0.009418
v 2.871864 2.864114 -0.009418
v 2.871864 2.864114 -0.782376
v 2.744814 2.810844 -0.814218
v 2.871864 2.864114 -0.814218
v 2.744814 2.810844 -1.022376
v 2.871864 2.864114 -0.955337
v 2.744814 2.810844 -0.955337
v 2.744814 2.810844 0.057623
v 2.617309 2.863017 -0.009418
v 2.744814 2.810844 -0.150537
v 2.617309 2.863017 -0.182377
v 2.744814 2.810844 -0.182377
v 2.617309 2.863017 -0.955337
v 2.617309 2.863017 -1.022376
v 2.617309 2.863017 0.057623
v 2.564039 2.990067 -0.009418
v 2.564039 2.990067 -0.150537
v 2.617309 2.863017 -0.150537
v 2.564039 2.990067 -0.955337
v 2.564039 2.990067 -1.022376
v 2.616211 3.117572 0.057623
v 2.564039 2.990067 0.057623
v 2.616211 3.117572 -0.150537
v 2.564039 2.990067 -0.182377
v 2.616211 3.117572 -0.955337
v 2.616211 3.117572 -1.022376
v 2.743261 3.170841 0.057623
v 2.616211 3.117572 -0.009418
v 2.743261 3.170841 -0.955337
v 2.743261 3.170841 -1.022376
v 2.870768 3.118669 -0.009418
v 2.743261 3.170841 -0.009418
v 2.743261 3.170841 -0.782376
v 2.870768 3.118669 -0.814218
v 2.743261 3.170841 -0.814218
v 2.870768 3.118669 -0.955337
v 2.870768 3.118669 -1.022376
v 2.924037 2.991620 0.057623
v 2.870768 3.118669 0.057623
v 2.924037 2.991620 -0.009418
v 2.870768 3.118669 -0.782376
v 2.924037 2.991620 -0.814218
v 2.924037 2.991620 -0.955337
v 2.924037 2.991620 -1.022376
v 2.871864 2.864114 -0.182377
v 2.924037 2.991620 -0.150537
v 2.871864 2.864114 -0.150537
v 2.871864 2.864114 -1.022376
v -0.154728 0.410586 -0.818318
v -0.183713 0.339751 -0.959439
v -0.183713 0.339751 -0.818318
v 0.118285 0.040344 -0.013520
v 0.118285 0.040344 -0.154639
v 0.047450 0.069329 -0.013520
v 0.118287 0.040344 -0.959439
v 0.118285 0.040344 -0.818318
v -0.154728 0.410586 -0.013520
v -0.183713 0.339751 -0.154639
v -0.183713 0.339751 -0.013520
v 2.991036 2.782916 -0.804210
v 2.873251 2.612628 -0.163331
v 2.873251 2.612628 -0.804210
v 2.686101 2.524046 -0.804210
v 2.686101 2.524046 -0.163331
v 2.479734 2.540906 -0.804210
v 2.225615 2.835800 -0.163331
v 2.223840 2.839551 -0.163331
v 2.220862 2.845841 -0.804210
v 2.237722 3.052209 -0.163332
v 2.237722 3.052209 -0.804210
v 2.355508 3.222499 -0.804210
v 2.355508 3.222499 -0.163332
v 2.542658 3.311081 -0.804210
v 2.466382 3.104452 -0.804210
v 2.744814 2.810844 -0.782376
v 2.617309 2.863017 -0.814218
v 2.742745 3.290840 -0.163331
v 2.542658 3.311081 -0.163331
v 2.628038 3.267509 -0.163331
v 2.924037 2.991620 -0.782376
v 2.564039 2.990067 -0.782376
v 2.617309 2.863017 -0.782376
v 2.743261 3.170841 -0.182377
v 2.870768 3.118669 -0.150537
v 2.870768 3.118669 -0.182377
v 2.616211 3.117572 -0.782376
v 2.564039 2.990067 -0.814218
v 2.616211 3.117572 -0.814218
v 2.530994 3.202059 -0.804210
v 2.628038 3.267509 -0.804210
v 2.924037 2.991620 -0.182377
v 2.532823 2.777798 -0.804210
v 2.309444 2.658692 -0.804210
v 2.630428 2.713187 -0.804210
v 2.745330 2.690846 -0.804210
v 2.860037 2.714178 -0.804210
v 2.957082 2.779628 -0.804210
v 2.467372 2.874844 -0.804210
v 2.444041 2.989549 -0.804210
v 2.742745 3.290840 -0.804210
v 2.467372 2.874844 -0.163331
v 2.444041 2.989549 -0.163331
v 2.309444 2.658692 -0.163331
v 2.532823 2.777798 -0.163331
v 2.479734 2.540906 -0.163331
v 2.630428 2.713187 -0.163331
v 2.745330 2.690846 -0.163331
v 2.860037 2.714178 -0.163332
v 2.957082 2.779628 -0.163332
v 2.530994 3.202059 -0.163331
v 2.466382 3.104452 -0.163331
v 2.220862 2.845841 -0.163331
v 2.749025 3.294220 -0.163331
v 2.749025 3.294220 -0.804210
v 2.991036 2.782916 -0.163331
v 3.108217 3.014565 -0.955337
v 3.107608 3.155986 -0.150537
v 2.616211 3.117572 -0.182377
v 2.743261 3.170841 -0.150537
v 0.209451 0.717808 -0.174632
v 0.317943 0.696227 -0.380555
v 0.209451 0.717808 -0.380555
v 0.317943 0.696227 -0.174632
v 0.409916 0.634773 -0.380555
v 0.409916 0.634773 -0.174632
v 0.471371 0.542798 -0.380555
v 0.471371 0.542797 -0.174632
v 0.492951 0.434307 -0.380555
v 0.492951 0.434307 -0.174632
v 0.471371 0.230701 -0.380555
v 0.100961 0.230701 -0.380555
v 0.008987 -0.069299 -0.380555
v 0.008987 0.230701 -0.380555
v 0.209451 0.218308 -0.798329
v 0.100961 -0.069299 -0.798329
v 0.100961 0.230701 -0.798329
v 0.209451 0.218308 -0.592404
v 0.100961 -0.069299 -0.592404
v 0.209451 -0.069299 -0.592404
v -0.052468 -0.069299 -0.380555
v -0.052468 0.230701 -0.380555
v 0.471371 0.230701 -0.592404
v 0.471371 -0.069299 -0.798329
v 0.471371 0.230701 -0.798329
v 0.209451 0.218308 -0.174629
v 0.317943 -0.069299 -0.174629
v 0.317943 0.230701 -0.174629
v -0.052468 0.230701 -0.174629
v -0.074048 0.434307 -0.380555
v -0.074048 0.434307 -0.174632
v -0.052468 0.542798 -0.380555
v -0.052468 0.542798 -0.174632
v 0.008987 0.634773 -0.380555
v 0.008987 0.634773 -0.174632
v 0.126792 0.633868 -0.174632
v 0.008987 0.230701 -0.174629
v 0.009893 0.351650 -0.174629
v -0.006548 0.434307 -0.174632
v 0.100961 0.696227 -0.380555
v 0.100961 0.696227 -0.174632
v 0.471371 0.542798 -0.798329
v 0.409916 0.230701 -0.798329
v 0.425451 0.434307 -0.798329
v -0.052468 0.542798 -0.798329
v 0.100961 0.696227 -0.798329
v 0.056717 0.587044 -0.798329
v 0.209451 0.717808 -0.592404
v 0.317943 0.696227 -0.798329
v 0.209451 0.717808 -0.798329
v 0.317943 0.696227 -0.592404
v 0.409916 0.634773 -0.798329
v 0.471371 0.542798 -0.592404
v 0.492951 0.434307 -0.798329
v 0.492951 0.434307 -0.592404
v 0.317943 -0.069299 -0.592404
v 0.317943 0.230701 -0.592404
v 0.317943 -0.069299 -0.798329
v 0.209451 -0.069299 -0.798329
v 0.409916 -0.069299 -0.592404
v 0.409916 0.230701 -0.592404
v 0.409916 -0.069299 -0.174629
v 0.409916 0.230701 -0.174629
v 0.471371 -0.069299 -0.592404
v 0.317943 0.230701 -0.798329
v -0.052468 0.230701 -0.798329
v -0.074048 0.434307 -0.592404
v -0.074048 0.434307 -0.798329
v -0.052468 0.542798 -0.592404
v 0.008987 0.634773 -0.798329
v 0.008987 0.634773 -0.592404
v 0.100961 0.696227 -0.592404
v 0.292111 0.234750 -0.592404
v 0.209451 0.650308 -0.592404
v 0.292111 0.633867 -0.592404
v 0.126792 0.633868 -0.592404
v 0.409916 0.634773 -0.592404
v 0.362186 0.587044 -0.592404
v 0.409010 0.516968 -0.592404
v 0.056717 0.587044 -0.592404
v 0.009893 0.516968 -0.592404
v 0.425451 0.434307 -0.592404
v -0.006548 0.434307 -0.592404
v 0.409010 0.351650 -0.592404
v 0.009893 0.351650 -0.592404
v -0.052468 0.230701 -0.592404
v 0.362186 0.281574 -0.592404
v 0.056717 0.281574 -0.592404
v 0.008987 0.230701 -0.592404
v 0.126792 0.234750 -0.592404
v 0.100961 0.230701 -0.592404
v 0.008987 0.230701 -0.798329
v 0.009893 0.351650 -0.798329
v 0.317943 0.230701 -0.380555
v 0.209451 0.218308 -0.380555
v 0.292111 0.234750 -0.380555
v 0.126792 0.234750 -0.380555
v 0.409916 0.230701 -0.380555
v 0.362186 0.281574 -0.380555
v 0.056717 0.281574 -0.380555
v 0.126792 0.633868 -0.380555
v 0.056717 0.587044 -0.380555
v 0.409010 0.351650 -0.380555
v 0.009893 0.351650 -0.380555
v 0.425451 0.434307 -0.380555
v -0.006548 0.434307 -0.380555
v 0.409010 0.516968 -0.380555
v 0.009893 0.516968 -0.380555
v 0.362186 0.587044 -0.380555
v 0.292111 0.633867 -0.380555
v 0.209451 0.650308 -0.380555
v 0.100961 -0.069299 -0.174629
v 0.209451 -0.069299 -0.174629
v 0.100961 -0.069299 -0.380555
v -0.052468 -0.069299 -0.174629
v 0.008987 -0.069299 -0.592404
v 0.008987 -0.069299 -0.798329
v 0.317943 -0.069299 -0.380555
v 0.209451 -0.069299 -0.380555
v 0.100961 0.230701 -0.174629
v -0.052468 -0.069299 -0.798329
v 0.409916 -0.069299 -0.380555
v -0.052468 -0.069299 -0.592404
v 0.008987 -0.069299 -0.174629
v 0.471371 0.230701 -0.174629
v 0.471371 -0.069299 -0.380555
v 0.409916 -0.069299 -0.798329
v 0.471371 -0.069299 -0.174629
v 0.409010 0.516968 -0.174632
v 0.425451 0.434307 -0.174632
v 0.209451 0.650308 -0.174632
v 0.056717 0.587044 -0.174632
v 0.009893 0.516968 -0.174632
v 0.126792 0.234750 -0.174629
v 0.056717 0.281574 -0.174629
v 0.209451 0.650308 -0.798329
v 0.126792 0.633868 -0.798329
v 0.292111 0.633867 -0.798329
v 0.292111 0.234750 -0.798329
v 0.362186 0.281574 -0.798329
v 0.362186 0.587044 -0.798329
v 0.409010 0.351650 -0.798329
v 0.409010 0.516968 -0.798329
v 0.009893 0.516968 -0.798329
v 0.126792 0.234750 -0.798329
v 0.056717 0.281574 -0.798329
v -0.006548 0.434307 -0.798329
v 0.292111 0.234750 -0.174629
v 0.362186 0.281574 -0.174629
v 0.292111 0.633867 -0.174632
v 0.409010 0.351650 -0.174629
v 0.362186 0.587044 -0.174632
v 3.636893 2.896923 -0.080092
v 3.726360 2.844828 -0.682574
v 3.659892 2.941071 -0.678025
v 3.703363 2.800679 -0.084643
v 3.750938 2.730629 -0.690063
v 3.727940 2.686478 -0.092130
v 3.729882 2.615859 -0.699346
v 3.706884 2.571708 -0.101415
v 3.666400 2.517991 -0.709014
v 3.643402 2.473840 -0.111083
v 3.570152 2.451926 -0.717593
v 3.547154 2.407775 -0.119662
v 3.455796 2.427719 -0.723781
v 3.432797 2.383569 -0.125849
v 3.340738 2.449057 -0.726630
v 3.317740 2.404907 -0.128699
v 3.242497 2.512693 -0.725709
v 3.219499 2.468543 -0.127779
v 3.176027 2.608936 -0.721160
v 3.153030 2.564786 -0.123229
v 3.151451 2.723136 -0.713674
v 3.128451 2.678986 -0.115743
v 3.172505 2.837907 -0.704389
v 3.149507 2.793755 -0.106457
v 3.235989 2.935774 -0.694720
v 3.212990 2.891623 -0.096789
v 3.332235 3.001839 -0.686139
v 3.309237 2.957689 -0.088208
v 3.446592 3.026046 -0.679954
v 3.423594 2.981895 -0.082023
v 3.561649 3.004706 -0.677104
v 3.538652 2.960557 -0.079173
vn -0.201779 -0.304997 0.930732
vn 0.493089 0.291488 0.819694
vn -0.263020 0.625654 0.734424
vn -0.471652 0.359966 -0.804965
vn -0.263021 0.625653 0.734423
vn -0.339872 0.811290 -0.475706
vn 0.550376 -0.224500 -0.804168
vn 0.429207 -0.554268 0.713140
vn 0.476475 -0.818334 -0.321405
vn -0.534880 -0.808019 -0.247002
vn -0.748396 -0.580315 0.321152
vn -0.512575 -0.298435 -0.805111
vn 0.580435 -0.748197 -0.321398
vn 0.893315 -0.365673 0.261288
vn 0.352296 -0.606104 0.713110
vn -0.471653 0.359964 -0.804966
vn -0.339872 0.811290 -0.475706
vn 0.294094 0.718713 -0.630047
vn 0.333054 0.813963 0.475962
vn -0.512576 -0.298436 -0.805110
vn -0.573840 -0.753371 -0.321154
vn -0.748395 -0.580315 0.321155
vn 0.294094 0.718713 -0.630047
vn 0.910061 0.241904 -0.336557
vn 0.625673 0.262071 0.734746
vn 0.813737 -0.333236 0.476220
vn 0.333054 0.813963 0.475962
vn 0.662017 -0.749489 0.000000
vn 0.446823 -0.894622 0.000000
vn 0.755176 -0.655522 0.000000
vn 0.324788 -0.945787 0.000000
vn 0.070449 -0.997515 0.000000
vn -0.061854 -0.998085 0.000000
vn -0.316623 -0.948551 0.000000
vn -0.439089 -0.898444 0.000000
vn -0.655524 -0.755175 0.000000
vn -0.749492 -0.662013 0.000000
vn -0.894622 -0.446824 0.000000
vn -0.945784 -0.324797 0.000000
vn -0.997515 -0.070457 0.000000
vn -0.998085 0.061855 0.000000
vn -0.948547 0.316636 0.000000
vn -0.898438 0.439101 -0.000000
vn -0.755173 0.655525 -0.000001
vn -0.662020 0.749487 -0.000001
vn -0.446832 0.894618 -0.000000
vn -0.324795 0.945784 0.000000
vn -0.070450 0.997515 0.000000
vn 0.061860 0.998085 0.000000
vn 0.316631 0.948549 0.000000
vn 0.439092 0.898442 0.000000
vn 0.655526 0.755173 0.000000
vn 0.749497 0.662008 0.000000
vn 0.894624 0.446820 0.000000
vn 0.945783 0.324798 0.000000
vn 0.997514 0.070462 0.000000
vn 0.998085 -0.061853 0.000000
vn 0.948549 -0.316630 0.000000
vn 0.898442 -0.439092 0.000000
vn 0.571761 -0.748211 0.336556
vn 0.141044 -0.990003 0.000000
vn 0.799771 -0.600305 0.000000
vn 0.710150 -0.704051 0.000000
vn 0.141044 -0.990003 0.000000
vn 0.710150 -0.704051 0.000000
vn 0.004161 -0.965275 -0.261204
vn 0.607181 -0.794563 0.000000
vn 0.004311 -0.999991 0.000000
vn -0.075949 -0.568123 0.819431
vn -0.600308 -0.799769 0.000000
vn 0.004311 -0.999991 0.000000
vn -0.704053 -0.710148 0.000000
vn 0.004311 -0.999991 0.000000
vn -0.600308 -0.799769 0.000000
vn -0.455428 -0.348022 -0.819430
vn -0.748212 -0.571759 0.336556
vn -0.999991 -0.004309 0.000000
vn -0.990003 -0.141043 0.000000
vn -0.704053 -0.710148 0.000000
vn -0.990003 -0.141043 0.000000
vn -0.933360 0.124775 -0.336557
vn -0.753113 0.565288 0.336556
vn -0.524422 -0.002260 0.851455
vn -0.925518 0.378703 0.000000
vn -0.991182 0.132505 0.000000
vn -0.799769 0.600308 0.000000
vn -0.414127 0.541932 -0.731306
vn -0.002928 0.678592 0.734510
vn -0.607180 0.794564 0.000000
vn -0.141047 0.990003 0.000000
vn 0.124770 0.933361 -0.336557
vn 0.600304 0.799772 0.000000
vn -0.004314 0.999991 0.000000
vn -0.004314 0.999991 0.000000
vn 0.600304 0.799772 0.000000
vn -0.004314 0.999991 0.000000
vn 0.600304 0.799772 0.000000
vn 0.455426 0.348023 -0.819431
vn 0.676035 -0.090373 0.731307
vn 0.748211 0.571760 0.336557
vn 0.990003 0.141045 0.000000
vn 0.794563 0.607181 0.000000
vn 0.999991 0.004312 0.000000
vn 0.999991 0.004312 0.000000
vn 0.879457 0.003792 -0.475963
vn 0.710150 -0.704051 0.000000
vn 0.999991 0.004312 0.000000
vn 0.710150 -0.704051 0.000000
vn 0.545483 -0.409438 -0.731306
vn -0.822663 0.469305 0.320902
vn -0.933358 0.124780 -0.336561
vn -0.675655 -0.096060 0.730933
vn 0.132811 -0.932250 0.336557
vn -0.090515 -0.675614 -0.731678
vn -0.251913 -0.441586 0.861128
vn 0.096158 -0.674821 -0.731690
vn -0.124778 -0.933359 0.336557
vn -0.822661 0.469308 0.320903
vn -0.933359 0.124784 -0.336557
vn -0.675653 -0.096059 0.730935
vn 0.741390 0.435497 -0.510572
vn 0.449621 -0.529630 0.719259
vn 0.350387 -0.412737 -0.840760
vn 0.185261 -0.671070 -0.717874
vn 0.063403 -0.693280 0.717874
vn -0.175094 -0.673794 -0.717874
vn -0.639138 -0.302493 0.707107
vn -0.501386 -0.237286 0.832050
vn -0.856772 -0.236513 -0.458260
vn -0.743764 0.265878 0.613289
vn -0.509813 0.182245 -0.840760
vn -0.495976 0.488534 -0.717874
vn -0.401550 0.568698 0.717872
vn -0.109635 0.601545 -0.791280
vn 0.000000 0.000000 -1.000000
vn -0.132504 -0.991182 0.000000
vn -0.704053 -0.710148 0.000000
vn 0.335070 -0.622678 0.707107
vn -0.077980 0.427850 0.900480
vn 0.000000 0.000000 1.000000
vn 0.999991 0.004312 0.000000
vn -0.990003 -0.141043 0.000000
vn -0.704053 -0.710148 0.000000
vn 0.378695 0.925521 0.000000
vn 0.600304 0.799772 0.000000
vn 0.794563 0.607181 0.000000
vn -0.799769 0.600308 0.000000
vn -0.991182 0.132505 0.000000
vn -0.607180 0.794564 0.000000
vn 0.000000 0.000000 -1.000000
vn 0.000000 0.000000 -1.000000
vn 0.999991 0.004312 0.000000
vn 0.000000 0.000000 -1.000000
vn -0.488535 -0.495975 -0.717874
vn 0.000000 0.000000 -1.000000
vn 0.000000 0.000000 -1.000000
vn 0.000000 0.000000 -1.000000
vn -0.043108 0.445131 -0.894427
vn 0.000000 0.000000 -1.000000
vn 0.000000 0.000000 -1.000000
vn 0.211917 -0.393816 -0.894427
vn 0.000000 0.000000 1.000000
vn -0.000002 0.000001 1.000000
vn -0.568697 -0.401548 0.717873
vn 0.000000 0.000000 1.000000
vn -0.291733 -0.632098 0.717874
vn 0.000000 0.000000 1.000000
vn 0.000002 0.000003 1.000000
vn 0.000000 0.000009 1.000000
vn -0.068173 0.703819 0.707101
vn -0.000003 0.000001 1.000000
vn -0.000005 0.000003 1.000000
vn -0.683492 -0.124558 0.719252
vn 0.391607 0.684382 0.615033
vn 0.632963 -0.470205 -0.615033
vn 0.555356 0.326249 0.764945
vn 0.321143 -0.130587 -0.937984
vn 0.811062 0.340055 -0.475964
vn -0.925518 0.378703 0.000000
vn 0.378695 0.925521 0.000000
vn 0.039258 0.592088 0.804917
vn 0.190311 0.562042 -0.804916
vn -0.046377 0.699461 -0.713164
vn 0.262849 0.531996 0.804916
vn 0.461798 0.527389 -0.713165
vn 0.712487 0.623876 0.321156
vn 0.628473 0.310515 -0.713164
vn 0.367709 0.124512 0.921568
vn 0.700265 0.067463 -0.710688
vn 0.829426 -0.004382 0.558599
vn 0.512753 -0.036163 -0.857774
vn 0.000000 0.000000 -1.000000
vn 0.000000 0.000000 -1.000000
vn 0.000000 0.000000 -1.000000
vn 0.000000 0.000000 -1.000000
vn 0.000000 0.000000 -1.000000
vn 0.000000 0.000000 -1.000000
vn 0.000000 0.000000 1.000000
vn 0.000000 0.000000 1.000000
vn 0.000000 0.000000 1.000000
vn -0.447214 0.000000 -0.894427
vn -0.599153 -0.021089 -0.800357
vn 0.599153 -0.021089 0.800357
vn 0.894427 0.000000 -0.447214
vn 0.598039 -0.042178 -0.800357
vn 0.000000 0.000000 1.000000
vn 0.000000 0.000000 1.000000
vn 0.000000 0.000000 1.000000
vn -0.704918 -0.049713 0.707545
vn -0.703497 -0.003721 -0.710688
vn -0.508304 0.048974 0.859784
vn -0.663966 0.224823 -0.713164
vn -0.849047 0.419498 0.321155
vn -0.527387 0.461799 -0.713165
vn -0.290570 0.331841 0.897469
vn 0.000000 0.000000 1.000000
vn -0.000019 0.000003 1.000000
vn -0.000084 0.000001 1.000000
vn -0.000056 0.000005 1.000000
vn -0.310515 0.628472 -0.713164
vn -0.303730 0.896999 0.321155
vn 0.220015 0.091132 -0.971230
vn 0.000000 0.000000 -1.000000
vn 0.000000 0.000000 -1.000000
vn -0.367711 0.124509 -0.921567
vn -0.195381 0.395445 -0.897468
vn 0.000000 0.000000 -1.000000
vn 0.039258 0.592088 0.804917
vn 0.162925 0.481163 -0.861358
vn -0.062654 0.944952 -0.321155
vn 0.310515 0.628472 0.713164
vn 0.685197 0.685198 -0.247000
vn 0.733897 0.303986 0.607444
vn 0.943344 0.090881 -0.319128
vn 0.703497 -0.003721 0.710688
vn 0.000000 0.000000 1.000000
vn 0.000000 0.000000 1.000000
vn 0.000000 0.000000 -1.000000
vn 0.000000 0.000000 -1.000000
vn 0.000000 0.000000 1.000000
vn 0.000000 0.000000 1.000000
vn 0.000000 0.000000 1.000000
vn 0.000015 0.000004 1.000000
vn 0.447214 0.000000 0.894427
vn 0.000000 0.000000 -1.000000
vn -0.892932 -0.047188 -0.447713
vn -0.795868 0.036139 0.604391
vn -0.702327 0.031891 -0.711140
vn -0.628472 0.310516 0.713164
vn -0.712486 0.623878 -0.321155
vn -0.461798 0.527389 0.713165
vn -0.224823 0.663966 0.713164
vn 0.000000 0.000000 1.000000
vn 0.000000 0.000000 1.000000
vn 0.000000 0.000000 1.000000
vn 0.000000 0.000000 1.000000
vn 0.386967 0.386968 0.836966
vn 0.000000 0.000000 1.000000
vn 0.000000 0.000000 1.000000
vn 0.000000 0.000000 1.000000
vn 0.000000 0.000000 1.000000
vn 0.000000 0.000000 1.000000
vn 0.000000 0.000000 1.000000
vn 0.000000 0.000000 1.000000
vn 0.000000 0.000000 1.000000
vn -0.370428 -0.019576 0.928655
vn 0.000000 0.000000 1.000000
vn 0.000000 0.000000 1.000000
vn 0.000000 0.000000 1.000000
vn 0.000000 0.000000 1.000000
vn 0.000000 0.000000 1.000000
vn 0.000000 0.000000 -1.000000
vn 0.000000 0.000000 -1.000000
vn 0.000000 0.000000 -1.000000
vn 0.000000 0.000000 -1.000000
vn 0.000000 0.000000 -1.000000
vn 0.000000 0.000000 -1.000000
vn 0.000000 0.000000 -1.000000
vn 0.000000 0.000000 -1.000000
vn 0.000000 0.000000 -1.000000
vn 0.000000 0.000000 -1.000000
vn 0.000000 0.000000 -1.000000
vn 0.000000 0.000000 -1.000000
vn 0.000000 0.000000 -1.000000
vn 0.000000 0.000000 -1.000000
vn 0.000000 0.000000 -1.000000
vn 0.000000 0.000000 -1.000000
vn 0.000000 0.000000 -1.000000
vn 0.000000 0.000000 -1.000000
vn 0.000000 0.000000 -1.000000
vn 0.000000 0.000000 -1.000000
vn 0.000000 0.000000 1.000000
vn 0.000000 0.000000 1.000000
vn 0.000000 0.000000 -1.000000
vn -0.894427 0.000000 0.447214
vn 0.000000 0.000000 1.000000
vn 0.000000 0.000000 -1.000000
vn 0.000000 0.000000 -1.000000
vn 0.000000 0.000000 -1.000000
vn 0.000000 0.000000 1.000000
vn -0.447214 0.000000 -0.894427
vn 0.000000 0.000000 -1.000000
vn -0.894427 0.000000 0.447214
vn 0.000000 0.000000 1.000000
vn 0.831218 -0.029253 0.555176
vn 0.894427 0.000000 -0.447214
vn 0.000000 0.000000 -1.000000
vn 0.447214 0.000000 0.894427
vn 0.000000 0.000000 1.000000
vn 0.000042 0.000006 1.000000
vn 0.000000 0.000000 1.000000
vn 0.000000 0.000000 1.000000
vn 0.000000 0.000000 1.000000
vn 0.000000 0.000000 1.000000
vn 0.000000 0.000000 1.000000
vn 0.000000 0.000000 -1.000000
vn 0.000000 0.000000 -1.000000
vn 0.000000 0.000000 -1.000000
vn 0.000000 0.000000 -1.000000
vn 0.000000 0.000000 -1.000000
vn 0.000000 0.000000 -1.000000
vn 0.000000 0.000000 -1.000000
vn 0.000000 0.000000 -1.000000
vn 0.000000 0.000000 -1.000000
vn 0.000000 0.000000 -1.000000
vn 0.000000 0.000000 -1.000000
vn 0.000000 0.000000 -1.000000
vn 0.000000 0.000000 1.000000
vn 0.000000 0.000000 1.000000
vn 0.000000 0.000000 1.000000
vn 0.000084 0.000001 1.000000
vn 0.000000 0.000000 1.000000
vn 0.492523 0.414625 0.765185
vn 0.650496 0.369976 -0.663305
vn 0.624722 0.741923 -0.243461
vn 0.879267 0.290453 0.377528
vn 0.955494 0.097910 -0.278291
vn 0.405789 -0.089645 0.909560
vn 0.516258 -0.093080 -0.851360
vn 0.842448 -0.431359 0.322817
vn 0.733758 -0.589608 -0.337582
vn 0.442161 -0.572625 0.690358
vn 0.347230 -0.570356 -0.744396
vn 0.304923 -0.914335 0.266483
vn 0.089413 -0.917900 -0.386608
vn -0.058822 -0.569272 0.820043
vn -0.100535 -0.352339 -0.930457
vn -0.418433 -0.875547 0.241521
vn -0.600112 -0.694655 -0.396636
vn -0.547189 -0.519576 0.656221
vn -0.595835 -0.265029 -0.758117
vn -0.903885 -0.337715 0.262565
vn -0.930874 -0.050648 -0.361813
vn -0.474578 -0.042440 0.879190
vn -0.450229 0.219845 -0.865426
vn -0.867065 0.384097 0.317282
vn -0.709136 0.636875 -0.302517
vn -0.496825 0.467665 0.731063
vn -0.292557 0.675317 -0.677021
vn -0.329544 0.867070 0.373617
vn -0.064786 0.965166 -0.253492
vn -0.007210 0.442506 0.896737
vn 0.169329 0.484416 -0.858294
vn 0.393805 0.828288 0.398569
vt 0.046828 0.461009
vt 0.046828 0.157667
vt 0.073616 0.164646
vt 0.083291 0.454278
vt 0.073442 0.164895
vt 0.083291 0.164895
vt 0.117058 0.164895
vt 0.126907 0.454278
vt 0.117058 0.454278
vt 0.083465 0.484522
vt 0.073616 0.464713
vt 0.083465 0.464713
vt 0.117232 0.454030
vt 0.127081 0.164646
vt 0.127081 0.454030
vt 0.083465 0.454030
vt 0.073616 0.164646
vt 0.083465 0.164646
vt 0.127081 0.154776
vt 0.117232 0.134967
vt 0.127081 0.134967
vt 0.117058 0.164895
vt 0.090269 0.461257
vt 0.083291 0.454278
vt 0.083291 0.484771
vt 0.073442 0.464961
vt 0.083291 0.464961
vt 0.126907 0.125347
vt 0.117058 0.135216
vt 0.117058 0.125347
vt 0.127081 0.164646
vt 0.117232 0.154777
vt 0.127081 0.154776
vt 0.127081 0.125097
vt 0.117232 0.134967
vt 0.117232 0.125097
vt 0.117058 0.164895
vt 0.126907 0.155025
vt 0.126907 0.164895
vt 0.126907 0.155025
vt 0.117058 0.135216
vt 0.126907 0.135216
vt 0.087145 0.484830
vt 0.122878 0.480473
vt 0.122878 0.484830
vt 0.087145 0.480473
vt 0.122878 0.476116
vt 0.122878 0.480473
vt 0.087145 0.476116
vt 0.122878 0.471759
vt 0.122878 0.476116
vt 0.087145 0.471759
vt 0.122878 0.467402
vt 0.122878 0.471759
vt 0.087145 0.467402
vt 0.122878 0.463045
vt 0.122878 0.467402
vt 0.087145 0.532756
vt 0.122878 0.528399
vt 0.122878 0.532756
vt 0.087145 0.528399
vt 0.122878 0.524042
vt 0.122878 0.528399
vt 0.087145 0.524042
vt 0.122878 0.519686
vt 0.122878 0.524042
vt 0.087145 0.519685
vt 0.122878 0.515329
vt 0.122878 0.519686
vt 0.087145 0.515329
vt 0.122878 0.510972
vt 0.122878 0.515329
vt 0.087145 0.510972
vt 0.122878 0.506615
vt 0.122878 0.510972
vt 0.087145 0.506615
vt 0.122878 0.502258
vt 0.122878 0.506615
vt 0.087145 0.502258
vt 0.122878 0.497901
vt 0.122878 0.502258
vt 0.087145 0.497901
vt 0.122878 0.493544
vt 0.122878 0.497901
vt 0.087145 0.493544
vt 0.122878 0.489187
vt 0.122878 0.493544
vt 0.087145 0.489187
vt 0.122878 0.484830
vt 0.122878 0.489187
vt 0.057061 0.038700
vt 0.068931 0.044477
vt 0.057061 0.044477
vt 0.103538 0.052377
vt 0.091668 0.049633
vt 0.103538 0.049633
vt 0.091931 0.038640
vt 0.103801 0.044417
vt 0.091931 0.044417
vt 0.068931 0.038700
vt 0.080801 0.044477
vt 0.068931 0.044477
vt 0.072826 0.049802
vt 0.084696 0.052546
vt 0.072826 0.052546
vt 0.091931 0.038640
vt 0.080061 0.044417
vt 0.080061 0.038640
vt 0.080801 0.038700
vt 0.092671 0.044477
vt 0.080801 0.044477
vt 0.096566 0.049802
vt 0.084696 0.052546
vt 0.084696 0.049802
vt 0.080061 0.038640
vt 0.068191 0.044417
vt 0.068191 0.038640
vt 0.104541 0.038700
vt 0.092671 0.044477
vt 0.092671 0.038700
vt 0.108436 0.049802
vt 0.096566 0.052546
vt 0.096566 0.049802
vt 0.068191 0.038640
vt 0.056321 0.044417
vt 0.056321 0.038640
vt 0.116411 0.038700
vt 0.104541 0.044477
vt 0.104541 0.038700
vt 0.056321 0.038640
vt 0.044451 0.044417
vt 0.044451 0.038640
vt 0.116411 0.038700
vt 0.128281 0.044477
vt 0.116411 0.044477
vt 0.044188 0.052377
vt 0.032318 0.049633
vt 0.044188 0.049633
vt 0.044451 0.038640
vt 0.032581 0.044417
vt 0.032581 0.038640
vt 0.084172 0.130312
vt 0.073261 0.103970
vt 0.099603 0.093058
vt 0.033321 0.038700
vt 0.045191 0.044477
vt 0.033321 0.044477
vt 0.127278 0.052377
vt 0.115408 0.049633
vt 0.127278 0.049633
vt 0.127541 0.038640
vt 0.115671 0.044417
vt 0.115671 0.038640
vt 0.045191 0.038700
vt 0.057061 0.044477
vt 0.045191 0.044477
vt 0.060956 0.052546
vt 0.049086 0.049802
vt 0.060956 0.049802
vt 0.103801 0.038640
vt 0.115671 0.044417
vt 0.103801 0.044417
vt 0.099740 0.129955
vt 0.073398 0.119043
vt 0.084309 0.092701
vt 0.073616 0.454030
vt 0.083465 0.459371
vt 0.073616 0.459371
vt 0.073616 0.459371
vt 0.083465 0.464713
vt 0.073616 0.464713
vt 0.083291 0.495454
vt 0.073442 0.490112
vt 0.083291 0.490112
vt 0.083291 0.490112
vt 0.073442 0.484771
vt 0.083291 0.484771
vt 0.073616 0.495205
vt 0.083465 0.489863
vt 0.083465 0.495205
vt 0.073616 0.489864
vt 0.083465 0.484522
vt 0.083465 0.489863
vt 0.073442 0.454278
vt 0.083291 0.459620
vt 0.073442 0.459620
vt 0.073442 0.459620
vt 0.083291 0.464961
vt 0.073442 0.464961
vt -0.002734 0.058292
vt 0.036350 0.070598
vt -0.002640 0.070889
vt 0.036350 0.070598
vt -0.002546 0.083486
vt -0.002640 0.070889
vt 0.036444 0.083195
vt -0.002452 0.096083
vt -0.002546 0.083486
vt 0.036720 0.120310
vt 0.036725 0.120895
vt -0.002264 0.121276
vt -0.002264 0.121276
vt 0.036599 0.134238
vt -0.002382 0.133870
vt 0.036599 0.134238
vt -0.002501 0.146465
vt -0.002382 0.133870
vt 0.036480 0.146832
vt -0.002620 0.159059
vt -0.002501 0.146465
vt 0.089189 0.070066
vt 0.072594 0.086322
vt 0.067351 0.070066
vt 0.091668 0.052377
vt 0.079798 0.049633
vt 0.091668 0.049633
vt 0.109182 0.142560
vt 0.090087 0.153675
vt 0.096666 0.145432
vt 0.103538 0.052377
vt 0.115408 0.049633
vt 0.115408 0.052377
vt 0.067928 0.052377
vt 0.079798 0.049633
vt 0.079798 0.052377
vt 0.078837 0.043236
vt 0.093081 0.039944
vt 0.093081 0.043236
vt 0.056058 0.052377
vt 0.067928 0.049633
vt 0.067928 0.052377
vt 0.060956 0.052546
vt 0.072826 0.049802
vt 0.072826 0.052546
vt 0.044188 0.052377
vt 0.056058 0.049633
vt 0.056058 0.052377
vt 0.083158 0.079933
vt 0.089189 0.070066
vt 0.095363 0.078072
vt 0.037216 0.052546
vt 0.049086 0.049802
vt 0.049086 0.052546
vt 0.037519 0.099898
vt 0.064188 0.120461
vt 0.037519 0.121736
vt 0.037519 0.121736
vt 0.070578 0.131025
vt 0.048438 0.140649
vt 0.048438 0.140649
vt 0.080524 0.138340
vt 0.067351 0.151569
vt 0.067351 0.151569
vt 0.092512 0.141291
vt 0.089189 0.151569
vt 0.089189 0.151569
vt 0.104717 0.139431
vt 0.108102 0.140649
vt 0.104717 0.139431
vt 0.089189 0.151569
vt 0.092512 0.141291
vt 0.092512 0.141291
vt 0.067351 0.151569
vt 0.080524 0.138340
vt 0.080524 0.138340
vt 0.048438 0.140649
vt 0.070578 0.131025
vt 0.070578 0.131025
vt 0.037519 0.121736
vt 0.064188 0.120461
vt 0.064188 0.120461
vt 0.037519 0.099898
vt 0.062328 0.108256
vt 0.067351 0.070066
vt 0.072594 0.086322
vt 0.065280 0.096268
vt 0.065280 0.096268
vt 0.062328 0.108256
vt 0.048438 0.080985
vt 0.062328 0.108256
vt 0.037519 0.099898
vt 0.048438 0.080985
vt 0.048438 0.080985
vt 0.067351 0.070066
vt 0.065280 0.096268
vt 0.072594 0.086322
vt 0.089189 0.070066
vt 0.083158 0.079933
vt 0.089189 0.070066
vt 0.107348 0.081034
vt 0.095363 0.078072
vt 0.036725 0.120895
vt 0.062737 0.113373
vt 0.065606 0.125928
vt 0.062737 0.113373
vt 0.037181 0.098770
vt 0.064948 0.100694
vt 0.064948 0.100694
vt 0.048982 0.079302
vt 0.071843 0.089826
vt 0.071843 0.089826
vt 0.048982 0.079302
vt 0.068937 0.068343
vt 0.068937 0.068343
vt 0.091698 0.068830
vt 0.082372 0.082424
vt 0.082372 0.082424
vt 0.091698 0.068830
vt 0.094932 0.079615
vt 0.094932 0.079615
vt 0.091698 0.068830
vt 0.107611 0.081826
vt 0.082372 0.082424
vt 0.071843 0.089826
vt 0.068937 0.068343
vt 0.048982 0.079302
vt 0.064948 0.100694
vt 0.037181 0.098770
vt 0.037181 0.098770
vt 0.062737 0.113373
vt 0.036720 0.120310
vt 0.096666 0.145432
vt 0.090087 0.153675
vt 0.083968 0.143279
vt 0.083968 0.143279
vt 0.090087 0.153675
vt 0.067309 0.153294
vt 0.067309 0.153294
vt 0.047773 0.141575
vt 0.073061 0.136430
vt 0.036718 0.121644
vt 0.065606 0.125928
vt 0.047773 0.141575
vt 0.065606 0.125928
vt 0.073061 0.136430
vt 0.047773 0.141575
vt 0.073061 0.136430
vt 0.083968 0.143279
vt 0.067309 0.153294
vt -0.002620 0.159059
vt 0.036242 0.172021
vt -0.002739 0.171653
vt -0.002734 0.058292
vt 0.036240 0.055926
vt 0.036256 0.058001
vt 0.036232 0.172701
vt -0.002739 0.171653
vt 0.036242 0.172021
vt 0.107611 0.081826
vt 0.091698 0.068830
vt 0.111166 0.080631
vt 0.036538 0.095792
vt -0.002358 0.108680
vt -0.002452 0.096083
vt 0.073616 0.164646
vt 0.073616 0.454030
vt 0.071572 0.458965
vt 0.071572 0.458965
vt 0.066637 0.461009
vt 0.046828 0.461009
vt 0.046828 0.461009
vt 0.041893 0.458965
vt 0.039849 0.454030
vt 0.039849 0.454030
vt 0.039849 0.164646
vt 0.046828 0.157667
vt 0.046828 0.157667
vt 0.066637 0.157667
vt 0.073616 0.164646
vt 0.073616 0.164646
vt 0.071572 0.458965
vt 0.046828 0.461009
vt 0.046828 0.461009
vt 0.039849 0.454030
vt 0.046828 0.157667
vt 0.083291 0.454278
vt 0.073442 0.454278
vt 0.073442 0.164895
vt 0.117058 0.164895
vt 0.126907 0.164895
vt 0.126907 0.454278
vt 0.083465 0.484522
vt 0.073616 0.484522
vt 0.073616 0.464713
vt 0.117232 0.454030
vt 0.117232 0.164646
vt 0.127081 0.164646
vt 0.083465 0.454030
vt 0.073616 0.454030
vt 0.073616 0.164646
vt 0.127081 0.154776
vt 0.117232 0.154777
vt 0.117232 0.134967
vt 0.083291 0.454278
vt 0.083291 0.164895
vt 0.090270 0.157916
vt 0.090270 0.157916
vt 0.110079 0.157916
vt 0.117058 0.164895
vt 0.117058 0.164895
vt 0.117058 0.454278
vt 0.115013 0.459213
vt 0.115013 0.459213
vt 0.110079 0.461257
vt 0.090269 0.461257
vt 0.090269 0.461257
vt 0.085335 0.459213
vt 0.083291 0.454278
vt 0.083291 0.454278
vt 0.090270 0.157916
vt 0.117058 0.164895
vt 0.117058 0.164895
vt 0.115013 0.459213
vt 0.090269 0.461257
vt 0.083291 0.484771
vt 0.073442 0.484771
vt 0.073442 0.464961
vt 0.126907 0.125347
vt 0.126907 0.135216
vt 0.117058 0.135216
vt 0.127081 0.164646
vt 0.117232 0.164646
vt 0.117232 0.154777
vt 0.127081 0.125097
vt 0.127081 0.134967
vt 0.117232 0.134967
vt 0.117058 0.164895
vt 0.117058 0.155025
vt 0.126907 0.155025
vt 0.126907 0.155025
vt 0.117058 0.155025
vt 0.117058 0.135216
vt 0.087145 0.484830
vt 0.087145 0.480473
vt 0.122878 0.480473
vt 0.087145 0.480473
vt 0.087145 0.476116
vt 0.122878 0.476116
vt 0.087145 0.476116
vt 0.087145 0.471759
vt 0.122878 0.471759
vt 0.087145 0.471759
vt 0.087145 0.467402
vt 0.122878 0.467402
vt 0.087145 0.467402
vt 0.087145 0.463046
vt 0.122878 0.463045
vt 0.087145 0.532756
vt 0.087145 0.528399
vt 0.122878 0.528399
vt 0.087145 0.528399
vt 0.087145 0.524042
vt 0.122878 0.524042
vt 0.087145 0.524042
vt 0.087145 0.519685
vt 0.122878 0.519686
vt 0.087145 0.519685
vt 0.087145 0.515329
vt 0.122878 0.515329
vt 0.087145 0.515329
vt 0.087145 0.510972
vt 0.122878 0.510972
vt 0.087145 0.510972
vt 0.087145 0.506615
vt 0.122878 0.506615
vt 0.087145 0.506615
vt 0.087145 0.502258
vt 0.122878 0.502258
vt 0.087145 0.502258
vt 0.087145 0.497901
vt 0.122878 0.497901
vt 0.087145 0.497901
vt 0.087145 0.493544
vt 0.122878 0.493544
vt 0.087145 0.493544
vt 0.087145 0.489187
vt 0.122878 0.489187
vt 0.087145 0.489187
vt 0.087145 0.484830
vt 0.122878 0.484830
vt 0.057061 0.038700
vt 0.068931 0.038700
vt 0.068931 0.044477
vt 0.103538 0.052377
vt 0.091668 0.052377
vt 0.091668 0.049633
vt 0.091931 0.038640
vt 0.103801 0.038640
vt 0.103801 0.044417
vt 0.068931 0.038700
vt 0.080801 0.038700
vt 0.080801 0.044477
vt 0.072826 0.049802
vt 0.084696 0.049802
vt 0.084696 0.052546
vt 0.091931 0.038640
vt 0.091931 0.044417
vt 0.080061 0.044417
vt 0.080801 0.038700
vt 0.092671 0.038700
vt 0.092671 0.044477
vt 0.096566 0.049802
vt 0.096566 0.052546
vt 0.084696 0.052546
vt 0.080061 0.038640
vt 0.080061 0.044417
vt 0.068191 0.044417
vt 0.104541 0.038700
vt 0.104541 0.044477
vt 0.092671 0.044477
vt 0.108436 0.049802
vt 0.108436 0.052546
vt 0.096566 0.052546
vt 0.068191 0.038640
vt 0.068191 0.044417
vt 0.056321 0.044417
vt 0.116411 0.038700
vt 0.116411 0.044477
vt 0.104541 0.044477
vt 0.056321 0.038640
vt 0.056321 0.044417
vt 0.044451 0.044417
vt 0.116411 0.038700
vt 0.128281 0.038700
vt 0.128281 0.044477
vt 0.044188 0.052377
vt 0.032318 0.052377
vt 0.032318 0.049633
vt 0.044451 0.038640
vt 0.044451 0.044417
vt 0.032581 0.044417
vt 0.099603 0.093058
vt 0.110514 0.103970
vt 0.110514 0.119401
vt 0.110514 0.119401
vt 0.099603 0.130312
vt 0.084172 0.130312
vt 0.084172 0.130312
vt 0.073261 0.119401
vt 0.073261 0.103970
vt 0.073261 0.103970
vt 0.084172 0.093058
vt 0.099603 0.093058
vt 0.099603 0.093058
vt 0.110514 0.119401
vt 0.084172 0.130312
vt 0.033321 0.038700
vt 0.045191 0.038700
vt 0.045191 0.044477
vt 0.127278 0.052377
vt 0.115408 0.052377
vt 0.115408 0.049633
vt 0.127541 0.038640
vt 0.127541 0.044417
vt 0.115671 0.044417
vt 0.045191 0.038700
vt 0.057061 0.038700
vt 0.057061 0.044477
vt 0.060956 0.052546
vt 0.049086 0.052546
vt 0.049086 0.049802
vt 0.103801 0.038640
vt 0.115671 0.038640
vt 0.115671 0.044417
vt 0.084309 0.092701
vt 0.099740 0.092701
vt 0.110652 0.103612
vt 0.110652 0.103612
vt 0.110652 0.119043
vt 0.099740 0.129955
vt 0.099740 0.129955
vt 0.084309 0.129955
vt 0.073398 0.119043
vt 0.073398 0.119043
vt 0.073398 0.103612
vt 0.084309 0.092701
vt 0.084309 0.092701
vt 0.110652 0.103612
vt 0.099740 0.129955
vt 0.073616 0.454030
vt 0.083465 0.454030
vt 0.083465 0.459371
vt 0.073616 0.459371
vt 0.083465 0.459371
vt 0.083465 0.464713
vt 0.083291 0.495454
vt 0.073442 0.495454
vt 0.073442 0.490112
vt 0.083291 0.490112
vt 0.073442 0.490112
vt 0.073442 0.484771
vt 0.073616 0.495205
vt 0.073616 0.489864
vt 0.083465 0.489863
vt 0.073616 0.489864
vt 0.073616 0.484522
vt 0.083465 0.484522
vt 0.073442 0.454278
vt 0.083291 0.454278
vt 0.083291 0.459620
vt 0.073442 0.459620
vt 0.083291 0.459620
vt 0.083291 0.464961
vt -0.002734 0.058292
vt 0.036256 0.058001
vt 0.036350 0.070598
vt 0.036350 0.070598
vt 0.036444 0.083195
vt -0.002546 0.083486
vt 0.036444 0.083195
vt 0.036538 0.095792
vt -0.002452 0.096083
vt -0.002264 0.121276
vt -0.002358 0.108680
vt 0.036632 0.108389
vt -0.002264 0.121276
vt 0.036632 0.108389
vt 0.036720 0.120310
vt 0.036725 0.120895
vt 0.036718 0.121644
vt -0.002264 0.121276
vt -0.002264 0.121276
vt 0.036718 0.121644
vt 0.036599 0.134238
vt 0.036599 0.134238
vt 0.036480 0.146832
vt -0.002501 0.146465
vt 0.036480 0.146832
vt 0.036361 0.159427
vt -0.002620 0.159059
vt 0.091668 0.052377
vt 0.079798 0.052377
vt 0.079798 0.049633
vt 0.109182 0.142560
vt 0.110004 0.142616
vt 0.090087 0.153675
vt 0.103538 0.052377
vt 0.103538 0.049633
vt 0.115408 0.049633
vt 0.067928 0.052377
vt 0.067928 0.049633
vt 0.079798 0.049633
vt 0.078837 0.043236
vt 0.078837 0.039944
vt 0.093081 0.039944
vt 0.056058 0.052377
vt 0.056058 0.049633
vt 0.067928 0.049633
vt 0.060956 0.052546
vt 0.060956 0.049802
vt 0.072826 0.049802
vt 0.044188 0.052377
vt 0.044188 0.049633
vt 0.056058 0.049633
vt 0.037216 0.052546
vt 0.037216 0.049802
vt 0.049086 0.049802
vt 0.089189 0.070066
vt 0.108102 0.080985
vt 0.107348 0.081034
vt 0.036725 0.120895
vt 0.036720 0.120310
vt 0.062737 0.113373
vt 0.036718 0.121644
vt 0.036725 0.120895
vt 0.065606 0.125928
vt -0.002620 0.159059
vt 0.036361 0.159427
vt 0.036242 0.172021
vt -0.002734 0.058292
vt -0.002750 0.056217
vt 0.036240 0.055926
vt 0.036232 0.172701
vt -0.002750 0.172333
vt -0.002739 0.171653
vt 0.036538 0.095792
vt 0.036632 0.108389
vt -0.002358 0.108680
vt 0.215273 0.397490
vt 0.242840 0.382682
vt 0.242840 0.397490
vt 0.215273 0.382682
vt 0.242840 0.367874
vt 0.242840 0.382682
vt 0.215273 0.367874
vt 0.242840 0.353066
vt 0.242840 0.367874
vt 0.215273 0.353066
vt 0.242840 0.338258
vt 0.242840 0.353066
vt 0.215273 0.338258
vt 0.242840 0.310849
vt 0.242840 0.338258
vt 0.082749 0.751077
vt 0.097524 0.702885
vt 0.097524 0.751077
vt 0.094401 0.920835
vt 0.017398 0.891788
vt 0.097719 0.891788
vt 0.065510 0.748880
vt 0.047270 0.699360
vt 0.065946 0.699129
vt 0.097524 0.751077
vt 0.107397 0.702885
vt 0.107396 0.751077
vt 0.096997 0.375052
vt 0.019051 0.342924
vt 0.019051 0.375052
vt 0.092912 0.920835
vt 0.015909 0.891788
vt 0.096229 0.891788
vt 0.215273 0.484131
vt 0.242840 0.456721
vt 0.242840 0.484131
vt 0.215273 0.456721
vt 0.242840 0.441913
vt 0.242840 0.456721
vt 0.215273 0.441913
vt 0.242840 0.427105
vt 0.242840 0.441913
vt 0.226645 0.920835
vt 0.204414 0.974506
vt 0.204171 0.942966
vt 0.096229 0.974506
vt 0.128612 0.974264
vt 0.150742 0.978666
vt 0.215273 0.427105
vt 0.242840 0.412298
vt 0.242840 0.427105
vt 0.215273 0.412298
vt 0.242840 0.397490
vt 0.242840 0.412298
vt 0.181278 0.990960
vt 0.097719 0.974507
vt 0.152232 0.978666
vt 0.181278 0.850710
vt 0.222357 0.891788
vt 0.193124 0.879942
vt 0.096997 0.444365
vt 0.019051 0.432518
vt 0.019051 0.444365
vt 0.096997 0.432518
vt 0.019051 0.420672
vt 0.019051 0.432518
vt 0.019051 0.420672
vt 0.096997 0.408825
vt 0.019051 0.408825
vt 0.096997 0.408825
vt 0.019051 0.396979
vt 0.019051 0.408825
vt 0.096997 0.396979
vt 0.019051 0.375052
vt 0.019051 0.396979
vt 0.065510 0.748880
vt 0.085027 0.698933
vt 0.084278 0.750914
vt 0.094401 0.920835
vt 0.017398 0.949882
vt 0.017398 0.920835
vt 0.084278 0.750914
vt 0.101299 0.698952
vt 0.098986 0.750931
vt 0.096229 0.891788
vt 0.015909 0.867163
vt 0.096229 0.867163
vt 0.098986 0.750931
vt 0.109196 0.698933
vt 0.110572 0.751919
vt 0.097719 0.974507
vt 0.017398 0.949882
vt 0.097719 0.949882
vt 0.019051 0.513677
vt 0.096997 0.491750
vt 0.019051 0.491750
vt 0.096997 0.491750
vt 0.019051 0.479904
vt 0.019051 0.491750
vt 0.096997 0.479904
vt 0.019051 0.468057
vt 0.019051 0.479904
vt 0.096997 0.468057
vt 0.019051 0.456211
vt 0.019051 0.468057
vt 0.096997 0.456211
vt 0.019051 0.444365
vt 0.019051 0.456211
vt 0.079580 0.751590
vt 0.065510 0.748880
vt 0.084278 0.750914
vt 0.055251 0.815956
vt 0.066445 0.815483
vt 0.053974 0.824672
vt 0.044816 0.812409
vt 0.055251 0.815956
vt 0.053974 0.824672
vt 0.082195 0.818889
vt 0.077076 0.810921
vt 0.085794 0.802407
vt 0.066445 0.815483
vt 0.068339 0.824334
vt 0.053974 0.824672
vt 0.040570 0.820096
vt 0.029537 0.811135
vt 0.036313 0.805365
vt 0.082195 0.818889
vt 0.068339 0.824334
vt 0.077076 0.810921
vt 0.044816 0.812409
vt 0.040570 0.820096
vt 0.036313 0.805365
vt 0.068339 0.824334
vt 0.066445 0.815483
vt 0.077076 0.810921
vt 0.029537 0.811135
vt 0.022103 0.798647
vt 0.030807 0.795544
vt 0.093983 0.808435
vt 0.082195 0.818889
vt 0.085794 0.802407
vt 0.036313 0.805365
vt 0.029537 0.811135
vt 0.030807 0.795544
vt 0.085794 0.802407
vt 0.091191 0.790388
vt 0.093983 0.808435
vt 0.022103 0.798647
vt 0.029214 0.783856
vt 0.030807 0.795544
vt 0.022103 0.798647
vt 0.019234 0.783620
vt 0.029214 0.783856
vt 0.091191 0.790388
vt 0.102150 0.793236
vt 0.093983 0.808435
vt 0.091191 0.790388
vt 0.091793 0.775964
vt 0.102150 0.793236
vt 0.019234 0.783620
vt 0.032028 0.770640
vt 0.029214 0.783856
vt 0.091793 0.775964
vt 0.110572 0.751919
vt 0.102150 0.793236
vt 0.019234 0.783620
vt 0.021598 0.750802
vt 0.032028 0.770640
vt 0.091793 0.775964
vt 0.087012 0.761615
vt 0.110572 0.751919
vt 0.021598 0.750802
vt 0.039857 0.759217
vt 0.032028 0.770640
vt 0.039857 0.759217
vt 0.021598 0.750802
vt 0.031889 0.750746
vt 0.110572 0.751919
vt 0.087012 0.761615
vt 0.098986 0.750931
vt 0.051609 0.751543
vt 0.039857 0.759217
vt 0.031889 0.750746
vt 0.087012 0.761615
vt 0.080104 0.751932
vt 0.098986 0.750931
vt 0.031889 0.750746
vt 0.047284 0.750838
vt 0.051609 0.751543
vt 0.090932 0.751038
vt 0.079580 0.751590
vt 0.084278 0.750914
vt 0.047284 0.750838
vt 0.065510 0.748880
vt 0.051609 0.751543
vt 0.097719 0.867163
vt 0.181278 0.850710
vt 0.130101 0.867406
vt 0.040570 0.820096
vt 0.044816 0.812409
vt 0.053974 0.824672
vt 0.047893 0.751077
vt 0.065321 0.749086
vt 0.052043 0.751728
vt 0.097524 0.751077
vt 0.078600 0.751728
vt 0.082749 0.751077
vt 0.033118 0.751077
vt 0.047893 0.751077
vt 0.052043 0.751728
vt 0.040786 0.759249
vt 0.023246 0.751077
vt 0.033118 0.751077
vt 0.052043 0.751728
vt 0.040786 0.759249
vt 0.033118 0.751077
vt 0.107396 0.751077
vt 0.089857 0.759250
vt 0.097524 0.751077
vt 0.089857 0.759250
vt 0.078600 0.751728
vt 0.097524 0.751077
vt 0.082749 0.825860
vt 0.078600 0.815842
vt 0.089857 0.808321
vt 0.023246 0.751077
vt 0.040786 0.759249
vt 0.033264 0.770506
vt 0.097379 0.770507
vt 0.089857 0.759250
vt 0.107396 0.751077
vt 0.097379 0.770507
vt 0.107396 0.751077
vt 0.110863 0.783785
vt 0.019779 0.783785
vt 0.023246 0.751077
vt 0.033264 0.770506
vt 0.019779 0.783785
vt 0.033264 0.770506
vt 0.030623 0.783785
vt 0.100020 0.783785
vt 0.097379 0.770507
vt 0.110863 0.783785
vt 0.023246 0.801213
vt 0.019779 0.783785
vt 0.030623 0.783785
vt 0.100020 0.783785
vt 0.110863 0.783785
vt 0.107396 0.801213
vt 0.023246 0.801213
vt 0.030623 0.783785
vt 0.033264 0.797064
vt 0.097379 0.797064
vt 0.100020 0.783785
vt 0.107396 0.801213
vt 0.040786 0.808321
vt 0.033118 0.815988
vt 0.033264 0.797064
vt 0.107396 0.801213
vt 0.097524 0.815988
vt 0.097379 0.797064
vt 0.097524 0.815988
vt 0.089857 0.808321
vt 0.097379 0.797064
vt 0.047893 0.825860
vt 0.033118 0.815988
vt 0.040786 0.808321
vt 0.052043 0.815842
vt 0.047893 0.825860
vt 0.040786 0.808321
vt 0.097524 0.815988
vt 0.082749 0.825860
vt 0.089857 0.808321
vt 0.065321 0.818484
vt 0.047893 0.825860
vt 0.052043 0.815842
vt 0.078600 0.815842
vt 0.082749 0.825860
vt 0.065321 0.829327
vt 0.033118 0.815988
vt 0.023246 0.801213
vt 0.033264 0.797064
vt 0.065321 0.818484
vt 0.078600 0.815842
vt 0.065321 0.829327
vt 0.078600 0.751728
vt 0.065321 0.749086
vt 0.082749 0.751077
vt 0.065321 0.829327
vt 0.047893 0.825860
vt 0.065321 0.818484
vt 0.031889 0.750746
vt 0.047270 0.699360
vt 0.047284 0.750838
vt 0.092912 0.920835
vt 0.015909 0.949882
vt 0.015909 0.920835
vt 0.065321 0.749086
vt 0.082749 0.702885
vt 0.082749 0.751077
vt 0.242840 0.484131
vt 0.215273 0.524291
vt 0.215273 0.484131
vt 0.021598 0.750802
vt 0.031538 0.699549
vt 0.031889 0.750746
vt 0.097719 0.891788
vt 0.017398 0.867163
vt 0.097719 0.867163
vt 0.065321 0.749086
vt 0.047893 0.702885
vt 0.065321 0.702885
vt 0.096229 0.974506
vt 0.015909 0.949882
vt 0.096229 0.949882
vt 0.033118 0.751077
vt 0.047893 0.702885
vt 0.047893 0.751077
vt 0.097719 0.867163
vt 0.017398 0.850710
vt 0.097719 0.850710
vt 0.023246 0.751077
vt 0.033118 0.702885
vt 0.033118 0.751077
vt 0.019051 0.513677
vt 0.096997 0.545806
vt 0.096997 0.513677
vt 0.096229 0.990960
vt 0.015909 0.974506
vt 0.096229 0.974506
vt 0.215273 0.310849
vt 0.242840 0.270688
vt 0.242840 0.310849
vt 0.097719 0.990960
vt 0.017398 0.974506
vt 0.097719 0.974507
vt 0.096229 0.867163
vt 0.015909 0.850710
vt 0.096229 0.850710
vt 0.179789 0.850710
vt 0.172873 0.867406
vt 0.150742 0.863004
vt 0.215273 0.397490
vt 0.215273 0.382682
vt 0.242840 0.382682
vt 0.215273 0.382682
vt 0.215273 0.367874
vt 0.242840 0.367874
vt 0.215273 0.367874
vt 0.215273 0.353066
vt 0.242840 0.353066
vt 0.215273 0.353066
vt 0.215273 0.338258
vt 0.242840 0.338258
vt 0.215273 0.338258
vt 0.215273 0.310849
vt 0.242840 0.310849
vt 0.082749 0.751077
vt 0.082749 0.702885
vt 0.097524 0.702885
vt 0.094401 0.920835
vt 0.017398 0.920835
vt 0.017398 0.891788
vt 0.065510 0.748880
vt 0.047284 0.750838
vt 0.047270 0.699360
vt 0.097524 0.751077
vt 0.097524 0.702885
vt 0.107397 0.702885
vt 0.096997 0.375052
vt 0.096997 0.342924
vt 0.019051 0.342924
vt 0.092912 0.920835
vt 0.015909 0.920835
vt 0.015909 0.891788
vt 0.215273 0.484131
vt 0.215273 0.456721
vt 0.242840 0.456721
vt 0.215273 0.456721
vt 0.215273 0.441913
vt 0.242840 0.441913
vt 0.215273 0.441913
vt 0.215273 0.427105
vt 0.242840 0.427105
vt 0.204171 0.942966
vt 0.208573 0.920835
vt 0.226645 0.920835
vt 0.226645 0.920835
vt 0.220868 0.949882
vt 0.204414 0.974506
vt 0.204414 0.974506
vt 0.191635 0.961727
vt 0.204171 0.942966
vt 0.172873 0.974264
vt 0.191635 0.961727
vt 0.204414 0.974506
vt 0.204414 0.974506
vt 0.179789 0.990960
vt 0.150742 0.996738
vt 0.150742 0.996738
vt 0.096229 0.990960
vt 0.096229 0.974506
vt 0.096229 0.949882
vt 0.092912 0.920835
vt 0.097314 0.942966
vt 0.172873 0.974264
vt 0.204414 0.974506
vt 0.150742 0.996738
vt 0.150742 0.978666
vt 0.172873 0.974264
vt 0.150742 0.996738
vt 0.096229 0.974506
vt 0.096229 0.949882
vt 0.097314 0.942966
vt 0.096229 0.974506
vt 0.097314 0.942966
vt 0.109850 0.961727
vt 0.150742 0.978666
vt 0.150742 0.996738
vt 0.096229 0.974506
vt 0.096229 0.974506
vt 0.109850 0.961727
vt 0.128612 0.974264
vt 0.215273 0.427105
vt 0.215273 0.412298
vt 0.242840 0.412298
vt 0.215273 0.412298
vt 0.215273 0.397490
vt 0.242840 0.397490
vt 0.210063 0.920835
vt 0.205660 0.898704
vt 0.222357 0.891788
vt 0.222357 0.891788
vt 0.228135 0.920835
vt 0.222357 0.949882
vt 0.222357 0.949882
vt 0.205903 0.974506
vt 0.181278 0.990960
vt 0.181278 0.990960
vt 0.152231 0.996738
vt 0.097719 0.990960
vt 0.181278 0.990960
vt 0.097719 0.990960
vt 0.097719 0.974507
vt 0.210063 0.920835
vt 0.222357 0.891788
vt 0.222357 0.949882
vt 0.205660 0.942966
vt 0.210063 0.920835
vt 0.222357 0.949882
vt 0.097719 0.949882
vt 0.094401 0.920835
vt 0.098803 0.942966
vt 0.097719 0.949882
vt 0.098803 0.942966
vt 0.111339 0.961727
vt 0.205660 0.942966
vt 0.222357 0.949882
vt 0.181278 0.990960
vt 0.193124 0.961727
vt 0.205660 0.942966
vt 0.181278 0.990960
vt 0.097719 0.974507
vt 0.097719 0.949882
vt 0.111339 0.961727
vt 0.097719 0.974507
vt 0.111339 0.961727
vt 0.130101 0.974264
vt 0.174362 0.974264
vt 0.193124 0.961727
vt 0.181278 0.990960
vt 0.097719 0.974507
vt 0.130101 0.974264
vt 0.152232 0.978666
vt 0.152232 0.978666
vt 0.174362 0.974264
vt 0.181278 0.990960
vt 0.193124 0.879942
vt 0.174362 0.867406
vt 0.181278 0.850710
vt 0.181278 0.850710
vt 0.205903 0.867163
vt 0.222357 0.891788
vt 0.222357 0.891788
vt 0.205660 0.898704
vt 0.193124 0.879942
vt 0.096997 0.444365
vt 0.096997 0.432518
vt 0.019051 0.432518
vt 0.096997 0.432518
vt 0.096997 0.420672
vt 0.019051 0.420672
vt 0.019051 0.420672
vt 0.096997 0.420672
vt 0.096997 0.408825
vt 0.096997 0.408825
vt 0.096997 0.396979
vt 0.019051 0.396979
vt 0.096997 0.396979
vt 0.096997 0.375052
vt 0.019051 0.375052
vt 0.065510 0.748880
vt 0.065946 0.699129
vt 0.085027 0.698933
vt 0.094401 0.920835
vt 0.097719 0.949882
vt 0.017398 0.949882
vt 0.084278 0.750914
vt 0.085027 0.698933
vt 0.101299 0.698952
vt 0.096229 0.891788
vt 0.015909 0.891788
vt 0.015909 0.867163
vt 0.098986 0.750931
vt 0.101299 0.698952
vt 0.109196 0.698933
vt 0.097719 0.974507
vt 0.017398 0.974506
vt 0.017398 0.949882
vt 0.019051 0.513677
vt 0.096997 0.513677
vt 0.096997 0.491750
vt 0.096997 0.491750
vt 0.096997 0.479904
vt 0.019051 0.479904
vt 0.096997 0.479904
vt 0.096997 0.468057
vt 0.019051 0.468057
vt 0.096997 0.468057
vt 0.096997 0.456211
vt 0.019051 0.456211
vt 0.096997 0.456211
vt 0.096997 0.444365
vt 0.019051 0.444365
vt 0.098803 0.898704
vt 0.094401 0.920835
vt 0.097719 0.891788
vt 0.097719 0.867163
vt 0.097719 0.850710
vt 0.152231 0.844932
vt 0.098803 0.898704
vt 0.097719 0.891788
vt 0.097719 0.867163
vt 0.111339 0.879942
vt 0.098803 0.898704
vt 0.097719 0.867163
vt 0.097719 0.867163
vt 0.152231 0.844932
vt 0.181278 0.850710
vt 0.181278 0.850710
vt 0.174362 0.867406
vt 0.152232 0.863004
vt 0.130101 0.867406
vt 0.111339 0.879942
vt 0.097719 0.867163
vt 0.181278 0.850710
vt 0.152232 0.863004
vt 0.130101 0.867406
vt 0.031889 0.750746
vt 0.031538 0.699549
vt 0.047270 0.699360
vt 0.092912 0.920835
vt 0.096229 0.949882
vt 0.015909 0.949882
vt 0.065321 0.749086
vt 0.065321 0.702885
vt 0.082749 0.702885
vt 0.242840 0.484131
vt 0.242840 0.524291
vt 0.215273 0.524291
vt 0.021598 0.750802
vt 0.021061 0.699659
vt 0.031538 0.699549
vt 0.097719 0.891788
vt 0.017398 0.891788
vt 0.017398 0.867163
vt 0.065321 0.749086
vt 0.047893 0.751077
vt 0.047893 0.702885
vt 0.096229 0.974506
vt 0.015909 0.974506
vt 0.015909 0.949882
vt 0.033118 0.751077
vt 0.033118 0.702885
vt 0.047893 0.702885
vt 0.097719 0.867163
vt 0.017398 0.867163
vt 0.017398 0.850710
vt 0.023246 0.751077
vt 0.023246 0.702885
vt 0.033118 0.702885
vt 0.019051 0.513677
vt 0.019051 0.545806
vt 0.096997 0.545806
vt 0.096229 0.990960
vt 0.015909 0.990960
vt 0.015909 0.974506
vt 0.215273 0.310849
vt 0.215273 0.270688
vt 0.242840 0.270688
vt 0.097719 0.990960
vt 0.017398 0.990960
vt 0.017398 0.974506
vt 0.096229 0.867163
vt 0.015909 0.867163
vt 0.015909 0.850710
vt 0.097314 0.898704
vt 0.092912 0.920835
vt 0.096229 0.891788
vt 0.096229 0.867163
vt 0.096229 0.850710
vt 0.150742 0.844932
vt 0.097314 0.898704
vt 0.096229 0.891788
vt 0.096229 0.867163
vt 0.109850 0.879942
vt 0.097314 0.898704
vt 0.096229 0.867163
vt 0.096229 0.867163
vt 0.150742 0.844932
vt 0.179789 0.850710
vt 0.179789 0.850710
vt 0.204414 0.867163
vt 0.220868 0.891788
vt 0.220868 0.891788
vt 0.226645 0.920835
vt 0.208573 0.920835
vt 0.220868 0.891788
vt 0.208573 0.920835
vt 0.204171 0.898704
vt 0.128611 0.867406
vt 0.109850 0.879942
vt 0.096229 0.867163
vt 0.150742 0.863004
vt 0.128611 0.867406
vt 0.096229 0.867163
vt 0.179789 0.850710
vt 0.220868 0.891788
vt 0.204171 0.898704
vt 0.179789 0.850710
vt 0.204171 0.898704
vt 0.191635 0.879942
vt 0.150742 0.863004
vt 0.096229 0.867163
vt 0.179789 0.850710
vt 0.179789 0.850710
vt 0.191635 0.879942
vt 0.172873 0.867406
vt 0.607413 0.036614
vt 0.603145 0.014733
vt 0.607413 0.014733
vt 0.603145 0.036614
vt 0.598876 0.014733
vt 0.603145 0.014733
vt 0.598876 0.036614
vt 0.594607 0.014733
vt 0.598876 0.014733
vt 0.594607 0.036614
vt 0.590339 0.014733
vt 0.594607 0.014733
vt 0.590339 0.036614
vt 0.586070 0.014733
vt 0.590339 0.014733
vt 0.586070 0.036614
vt 0.581802 0.014733
vt 0.586070 0.014733
vt 0.581802 0.036614
vt 0.577533 0.014733
vt 0.581802 0.014733
vt 0.577533 0.036614
vt 0.573264 0.014733
vt 0.577533 0.014733
vt 0.573264 0.036614
vt 0.568996 0.014733
vt 0.573264 0.014733
vt 0.637294 0.036614
vt 0.633025 0.014733
vt 0.637294 0.014733
vt 0.633025 0.036614
vt 0.628757 0.014733
vt 0.633025 0.014733
vt 0.628757 0.036614
vt 0.624488 0.014733
vt 0.628757 0.014733
vt 0.624488 0.036614
vt 0.620219 0.014733
vt 0.624488 0.014733
vt 0.620219 0.036614
vt 0.615951 0.014733
vt 0.620219 0.014733
vt 0.615951 0.036614
vt 0.611682 0.014733
vt 0.615951 0.014733
vt 0.611682 0.036614
vt 0.607413 0.014733
vt 0.611682 0.014733
vt 0.607413 0.036614
vt 0.603145 0.036614
vt 0.603145 0.014733
vt 0.603145 0.036614
vt 0.598876 0.036614
vt 0.598876 0.014733
vt 0.598876 0.036614
vt 0.594607 0.036614
vt 0.594607 0.014733
vt 0.594607 0.036614
vt 0.590339 0.036614
vt 0.590339 0.014733
vt 0.590339 0.036614
vt 0.586070 0.036614
vt 0.586070 0.014733
vt 0.586070 0.036614
vt 0.581802 0.036614
vt 0.581802 0.014733
vt 0.581802 0.036614
vt 0.577533 0.036614
vt 0.577533 0.014733
vt 0.577533 0.036614
vt 0.573264 0.036614
vt 0.573264 0.014733
vt 0.573264 0.036614
vt 0.568996 0.036614
vt 0.568996 0.014733
vt 0.637294 0.036614
vt 0.633025 0.036614
vt 0.633025 0.014733
vt 0.633025 0.036614
vt 0.628757 0.036614
vt 0.628757 0.014733
vt 0.628757 0.036614
vt 0.624488 0.036614
vt 0.624488 0.014733
vt 0.624488 0.036614
vt 0.620219 0.036614
vt 0.620219 0.014733
vt 0.620219 0.036614
vt 0.615951 0.036614
vt 0.615951 0.014733
vt 0.615951 0.036614
vt 0.611682 0.036614
vt 0.611682 0.014733
vt 0.611682 0.036614
vt 0.607413 0.036614
vt 0.607413 0.014733
vt 0.945445 0.148636
vt 0.879277 0.880651
vt 0.862039 0.863413
vt 0.759513 0.880651
vt 0.759513 0.131398
vt 0.825680 0.148636
vt 0.862039 0.863413
vt 0.862040 0.148636
vt 0.879278 0.131398
vt 0.879278 0.131398
vt 0.928207 0.131398
vt 0.945445 0.148636
vt 0.945445 0.148636
vt 0.945444 0.863413
vt 0.940395 0.875602
vt 0.940395 0.875602
vt 0.928206 0.880651
vt 0.879277 0.880651
vt 0.879277 0.880651
vt 0.867088 0.875602
vt 0.862039 0.863413
vt 0.862039 0.863413
vt 0.879278 0.131398
vt 0.945445 0.148636
vt 0.945445 0.148636
vt 0.940395 0.875602
vt 0.879277 0.880651
vt 0.825680 0.148636
vt 0.825680 0.863413
vt 0.820631 0.875602
vt 0.820631 0.875602
vt 0.808442 0.880651
vt 0.759513 0.880651
vt 0.759513 0.880651
vt 0.747324 0.875602
vt 0.742275 0.863413
vt 0.742275 0.863413
vt 0.742275 0.148636
vt 0.759513 0.131398
vt 0.759513 0.131398
vt 0.808442 0.131398
vt 0.825680 0.148636
vt 0.825680 0.148636
vt 0.820631 0.875602
vt 0.759513 0.880651
vt 0.759513 0.880651
vt 0.742275 0.863413
vt 0.759513 0.131398
vt 0.629694 0.112102
vt 0.643987 0.102551
vt 0.653538 0.116845
vt 0.630084 0.112301
vt 0.644378 0.102750
vt 0.653929 0.117044
vt 0.653538 0.116845
vt 0.651723 0.121227
vt 0.648369 0.124581
vt 0.648369 0.124581
vt 0.643987 0.126396
vt 0.639244 0.126396
vt 0.639244 0.126396
vt 0.634862 0.124581
vt 0.631509 0.121227
vt 0.631509 0.121227
vt 0.629694 0.116845
vt 0.629694 0.112102
vt 0.629694 0.112102
vt 0.631509 0.107720
vt 0.634862 0.104366
vt 0.634862 0.104366
vt 0.639244 0.102551
vt 0.643987 0.102551
vt 0.643987 0.102551
vt 0.648369 0.104366
vt 0.651723 0.107720
vt 0.651723 0.107720
vt 0.653538 0.112102
vt 0.653538 0.116845
vt 0.653538 0.116845
vt 0.648369 0.124581
vt 0.639244 0.126396
vt 0.639244 0.126396
vt 0.631509 0.121227
vt 0.629694 0.112102
vt 0.629694 0.112102
vt 0.634862 0.104366
vt 0.643987 0.102551
vt 0.643987 0.102551
vt 0.651723 0.107720
vt 0.653538 0.116845
vt 0.653538 0.116845
vt 0.639244 0.126396
vt 0.629694 0.112102
vt 0.653929 0.117044
vt 0.652114 0.121425
vt 0.648760 0.124779
vt 0.648760 0.124779
vt 0.644378 0.126594
vt 0.639635 0.126594
vt 0.639635 0.126594
vt 0.635253 0.124779
vt 0.631899 0.121425
vt 0.631899 0.121425
vt 0.630084 0.117044
vt 0.630084 0.112301
vt 0.630084 0.112301
vt 0.631899 0.107919
vt 0.635253 0.104565
vt 0.635253 0.104565
vt 0.639635 0.102750
vt 0.644378 0.102750
vt 0.644378 0.102750
vt 0.648760 0.104565
vt 0.652114 0.107919
vt 0.652114 0.107919
vt 0.653929 0.112301
vt 0.653929 0.117044
vt 0.653929 0.117044
vt 0.648760 0.124779
vt 0.639635 0.126594
vt 0.639635 0.126594
vt 0.631899 0.121425
vt 0.630084 0.112301
vt 0.630084 0.112301
vt 0.635253 0.104565
vt 0.644378 0.102750
vt 0.644378 0.102750
vt 0.652114 0.107919
vt 0.653929 0.117044
vt 0.653929 0.117044
vt 0.639635 0.126594
vt 0.630084 0.112301
usemtl Material
f 1/1/1 2/2/2 3/3/3
f 4/4/4 5/5/5 6/6/6
f 7/7/7 8/8/8 9/9/9
f 10/10/10 11/11/11 12/12/12
f 13/13/13 14/14/14 15/15/15
f 16/16/16 3/17/3 17/18/17
f 2/19/2 18/20/18 19/21/19
f 7/22/7 20/23/20 4/24/4
f 21/25/21 22/26/22 20/27/20
f 5/28/5 23/29/23 6/30/6
f 14/31/14 24/32/24 2/33/2
f 3/34/3 18/35/18 17/36/17
f 7/37/7 25/38/25 26/39/26
f 25/40/25 23/41/23 27/42/27
f 28/43/28 29/44/29 30/45/30
f 31/46/31 32/47/32 29/48/29
f 33/49/33 34/50/34 32/51/32
f 35/52/35 36/53/36 34/54/34
f 37/55/37 38/56/38 36/57/36
f 39/58/39 40/59/40 38/60/38
f 41/61/41 42/62/42 40/63/40
f 43/64/43 44/65/44 42/66/42
f 45/67/45 46/68/46 44/69/44
f 47/70/47 48/71/48 46/72/46
f 49/73/49 50/74/50 48/75/48
f 51/76/51 52/77/52 50/78/50
f 53/79/53 54/80/54 52/81/52
f 55/82/55 56/83/56 54/84/54
f 57/85/57 58/86/58 56/87/56
f 59/88/59 30/89/30 58/90/58
f 60/91/60 61/92/61 62/93/62
f 63/94/63 64/95/64 65/96/65
f 66/97/66 67/98/67 68/99/68
f 69/100/69 70/101/70 61/102/61
f 71/103/71 72/104/72 73/105/73
f 66/106/66 74/107/74 75/108/75
f 76/109/76 77/110/77 70/111/70
f 78/112/78 72/113/72 79/114/79
f 75/115/75 80/116/80 81/117/81
f 82/118/82 77/119/77 83/120/83
f 84/121/84 85/122/85 78/123/78
f 81/124/81 86/125/86 87/126/87
f 88/127/88 89/128/89 82/129/82
f 87/130/87 90/131/90 91/132/91
f 88/133/88 92/134/92 93/135/93
f 94/136/94 95/137/95 96/138/96
f 91/139/91 97/140/97 98/141/98
f 69/142/69 99/143/99 88/144/88
f 100/145/100 101/146/101 92/147/92
f 102/148/102 103/149/103 95/150/95
f 98/151/98 104/152/104 105/153/105
f 99/154/99 62/155/62 101/156/101
f 106/157/106 107/158/107 108/159/108
f 109/160/109 104/161/104 67/162/67
f 75/163/75 87/164/87 98/165/98
f 110/166/110 111/167/111 112/168/112
f 112/169/112 12/170/12 11/171/11
f 9/172/9 113/173/113 114/174/114
f 114/175/114 115/176/115 21/177/21
f 15/178/15 116/179/116 13/180/13
f 117/181/117 10/182/10 116/183/116
f 118/184/118 119/185/119 120/186/120
f 120/187/120 20/188/20 22/189/22
f 121/190/121 122/191/122 123/192/123
f 122/193/122 124/194/124 123/195/123
f 125/196/125 126/197/126 124/198/124
f 127/199/127 128/200/128 129/201/129
f 129/202/129 130/203/130 131/204/131
f 130/205/130 132/206/132 131/207/131
f 133/208/133 134/209/134 132/210/132
f 134/211/134 135/212/135 132/213/132
f 136/214/136 137/215/137 64/216/64
f 138/217/138 139/218/139 140/219/140
f 63/220/63 103/221/103 141/222/141
f 142/223/142 137/224/137 143/225/143
f 144/226/144 145/227/145 146/228/146
f 147/229/147 148/230/148 142/231/142
f 106/232/106 71/233/71 73/234/73
f 94/235/94 149/236/149 147/237/147
f 150/238/150 134/239/134 151/240/151
f 146/241/146 107/242/107 152/243/152
f 129/244/129 153/245/153 154/246/154
f 154/247/154 155/248/155 126/249/126
f 126/250/126 156/251/156 124/252/124
f 124/253/124 157/254/157 123/255/123
f 123/256/123 158/257/158 121/258/121
f 158/259/158 123/260/123 157/261/157
f 157/262/157 124/263/124 156/264/156
f 156/265/156 126/266/126 155/267/155
f 155/268/155 154/269/154 153/270/153
f 153/271/153 129/272/129 159/273/159
f 132/274/132 135/275/135 160/276/160
f 160/277/160 159/278/159 131/279/131
f 159/280/159 129/281/129 131/282/131
f 131/283/131 132/284/132 160/285/160
f 135/286/135 134/287/134 150/288/150
f 134/289/134 161/290/161 151/291/151
f 128/292/128 162/293/162 163/294/163
f 162/295/162 164/296/164 165/297/165
f 165/298/165 166/299/166 167/300/167
f 167/301/167 166/302/166 125/303/125
f 125/304/125 122/305/122 168/306/168
f 168/307/168 122/308/122 169/309/169
f 169/310/169 122/311/122 170/312/170
f 168/313/168 167/314/167 125/315/125
f 166/316/166 165/317/165 164/318/164
f 164/319/164 162/320/162 127/321/127
f 140/322/140 139/323/139 171/324/171
f 171/325/171 139/326/139 133/327/133
f 133/328/133 130/329/130 172/330/172
f 173/331/173 163/332/163 130/333/130
f 163/334/163 172/335/172 130/336/130
f 172/337/172 171/338/171 133/339/133
f 134/340/134 174/341/174 175/342/175
f 121/343/121 170/344/170 176/345/176
f 138/346/138 175/347/175 174/348/174
f 170/349/170 122/350/122 176/351/176
f 166/352/166 154/353/154 126/354/126
f 3/355/3 110/356/110 112/357/112
f 112/358/112 11/359/11 1/360/1
f 1/361/1 117/362/117 15/363/15
f 15/364/15 14/365/14 2/366/2
f 2/367/2 19/368/19 3/369/3
f 3/370/3 112/371/112 1/372/1
f 1/373/1 15/374/15 2/375/2
f 4/376/4 118/377/118 5/378/5
f 7/379/7 26/380/26 8/381/8
f 10/382/10 1/383/1 11/384/11
f 13/385/13 177/386/177 14/387/14
f 16/388/16 110/389/110 3/390/3
f 2/391/2 24/392/24 18/393/18
f 4/394/4 6/395/6 23/396/23
f 23/397/23 178/398/178 7/399/7
f 7/400/7 9/401/9 114/402/114
f 114/403/114 21/404/21 20/405/20
f 20/406/20 119/407/119 4/408/4
f 4/409/4 23/410/23 7/411/7
f 7/412/7 114/413/114 20/414/20
f 21/415/21 115/416/115 22/417/22
f 5/418/5 27/419/27 23/420/23
f 14/421/14 177/422/177 24/423/24
f 3/424/3 19/425/19 18/426/18
f 7/427/7 178/428/178 25/429/25
f 25/430/25 178/431/178 23/432/23
f 28/433/28 31/434/31 29/435/29
f 31/436/31 33/437/33 32/438/32
f 33/439/33 35/440/35 34/441/34
f 35/442/35 37/443/37 36/444/36
f 37/445/37 39/446/39 38/447/38
f 39/448/39 41/449/41 40/450/40
f 41/451/41 43/452/43 42/453/42
f 43/454/43 45/455/45 44/456/44
f 45/457/45 47/458/47 46/459/46
f 47/460/47 49/461/49 48/462/48
f 49/463/49 51/464/51 50/465/50
f 51/466/51 53/467/53 52/468/52
f 53/469/53 55/470/55 54/471/54
f 55/472/55 57/473/57 56/474/56
f 57/475/57 59/476/59 58/477/58
f 59/478/59 28/479/28 30/480/30
f 60/481/60 69/482/69 61/483/61
f 63/484/63 136/485/136 64/486/64
f 66/487/66 109/488/109 67/489/67
f 69/490/69 76/491/76 70/492/70
f 71/493/71 79/494/79 72/495/72
f 66/496/66 68/497/68 74/498/74
f 76/499/76 83/500/83 77/501/77
f 78/502/78 85/503/85 72/504/72
f 75/505/75 74/506/74 80/507/80
f 82/508/82 89/509/89 77/510/77
f 84/511/84 179/512/179 85/513/85
f 81/514/81 80/515/80 86/516/86
f 88/517/88 93/518/93 89/519/89
f 87/520/87 86/521/86 90/522/90
f 88/523/88 100/524/100 92/525/92
f 94/526/94 102/527/102 95/528/95
f 91/529/91 90/530/90 97/531/97
f 88/532/88 82/533/82 83/534/83
f 83/535/83 76/536/76 69/537/69
f 69/538/69 60/539/60 99/540/99
f 99/541/99 100/542/100 88/543/88
f 88/544/88 83/545/83 69/546/69
f 100/547/100 99/548/99 101/549/101
f 102/550/102 141/551/141 103/552/103
f 98/553/98 97/554/97 104/555/104
f 99/556/99 60/557/60 62/558/62
f 106/559/106 152/560/152 107/561/107
f 109/562/109 105/563/105 104/564/104
f 98/565/98 105/566/105 109/567/109
f 109/568/109 66/569/66 75/570/75
f 75/571/75 81/572/81 87/573/87
f 87/574/87 91/575/91 98/576/98
f 98/577/98 109/578/109 75/579/75
f 110/580/110 16/581/16 111/582/111
f 112/583/112 111/584/111 12/585/12
f 9/586/9 8/587/8 113/588/113
f 114/589/114 113/590/113 115/591/115
f 15/592/15 117/593/117 116/594/116
f 117/595/117 1/596/1 10/597/10
f 118/598/118 4/599/4 119/600/119
f 120/601/120 119/602/119 20/603/20
f 121/604/121 176/605/176 122/606/122
f 122/607/122 125/608/125 124/609/124
f 125/610/125 166/611/166 126/612/126
f 129/613/129 154/614/154 164/615/164
f 129/616/129 164/617/164 127/618/127
f 128/619/128 173/620/173 129/621/129
f 129/622/129 173/623/173 130/624/130
f 130/625/130 133/626/133 132/627/132
f 133/628/133 139/629/139 134/630/134
f 136/631/136 143/632/143 137/633/137
f 138/634/138 174/635/174 139/636/139
f 63/637/63 65/638/65 103/639/103
f 142/640/142 148/641/148 137/642/137
f 144/643/144 180/644/180 145/645/145
f 147/646/147 149/647/149 148/648/148
f 106/649/106 108/650/108 71/651/71
f 94/652/94 96/653/96 149/654/149
f 146/655/146 145/656/145 107/657/107
f 134/658/134 175/659/175 161/660/161
f 128/661/128 127/662/127 162/663/162
f 173/664/173 128/665/128 163/666/163
f 134/667/134 139/668/139 174/669/174
f 121/670/121 158/671/158 170/672/170
f 138/673/138 161/674/161 175/675/175
f 166/676/166 164/677/164 154/678/154
usemtl alumArm
f 181/679/181 182/680/182 183/681/183
f 184/682/184 185/683/185 182/684/182
f 186/685/186 187/686/187 185/687/185
f 188/688/188 189/689/189 187/690/187
f 190/691/190 191/692/191 189/693/189
f 192/694/192 193/695/193 194/696/194
f 195/697/195 196/698/196 197/699/197
f 198/700/198 199/701/199 200/702/200
f 194/703/194 201/704/201 202/705/202
f 203/706/203 204/707/204 205/708/205
f 206/709/206 207/710/207 208/711/208
f 209/712/209 210/713/210 202/714/202
f 211/715/211 212/716/212 210/717/210
f 213/718/213 214/719/214 212/720/212
f 181/721/181 215/722/215 216/723/216
f 217/724/217 218/725/218 219/726/219
f 215/727/215 220/728/220 214/729/214
f 221/730/221 183/731/183 220/732/220
f 222/733/222 223/734/223 224/735/224
f 225/736/225 226/737/226 227/738/227
f 228/739/228 229/740/229 230/741/230
f 231/742/231 232/743/232 229/744/229
f 232/745/232 233/746/233 222/747/222
f 233/748/233 234/749/234 222/750/222
f 235/751/235 205/752/205 234/753/234
f 198/754/198 236/755/236 237/756/237
f 195/757/195 238/758/238 239/759/239
f 237/760/237 240/761/240 241/762/241
f 208/763/208 242/764/242 243/765/243
f 241/766/241 244/767/244 203/768/203
f 223/769/223 238/770/238 245/771/245
f 246/772/246 247/773/247 248/774/248
f 247/775/247 225/776/225 248/777/248
f 249/778/249 250/779/250 225/780/225
f 251/781/251 226/782/226 250/783/250
f 252/784/252 230/785/230 226/786/226
f 253/787/253 198/788/198 237/789/237
f 254/790/254 255/791/255 228/792/228
f 256/793/256 254/794/254 228/795/228
f 257/796/257 258/797/258 259/798/259
f 255/799/255 231/800/231 228/801/228
f 252/802/252 251/803/251 260/804/260
f 257/805/257 231/806/231 258/807/258
f 256/808/256 252/809/252 260/810/260
f 231/811/231 255/812/255 258/813/258
f 251/814/251 249/815/249 261/816/261
f 233/817/233 257/818/257 259/819/259
f 260/820/260 251/821/251 261/822/261
f 259/823/259 262/824/262 233/825/233
f 249/826/249 263/827/263 261/828/261
f 249/829/249 247/830/247 263/831/263
f 262/832/262 235/833/235 233/834/233
f 262/835/262 264/836/264 235/837/235
f 247/838/247 265/839/265 263/840/263
f 264/841/264 203/842/203 235/843/235
f 247/844/247 266/845/266 265/846/265
f 264/847/264 267/848/267 203/849/203
f 266/850/266 268/851/268 265/852/265
f 268/853/268 266/854/266 269/855/269
f 203/856/203 267/857/267 241/858/241
f 270/859/270 268/860/268 269/861/269
f 267/862/267 253/863/253 241/864/241
f 269/865/269 271/866/271 270/867/270
f 241/868/241 253/869/253 237/870/237
f 271/871/271 198/872/198 270/873/270
f 272/874/272 225/875/225 273/876/273
f 252/877/252 256/878/256 228/879/228
f 274/880/274 275/881/275 276/882/276
f 194/883/194 277/884/277 192/885/192
f 278/886/278 274/887/274 276/888/276
f 279/889/279 191/890/191 278/891/278
f 276/892/276 279/893/279 278/894/278
f 202/895/202 280/896/280 194/897/194
f 280/898/280 277/899/277 194/900/194
f 220/901/220 281/902/281 282/903/282
f 191/904/191 279/905/279 283/906/283
f 284/907/284 280/908/280 202/909/202
f 284/910/284 202/911/202 210/912/210
f 189/913/189 191/914/191 283/915/283
f 189/916/189 283/917/283 285/918/285
f 286/919/286 284/920/284 210/921/210
f 187/922/187 189/923/189 285/924/285
f 286/925/286 210/926/210 212/927/212
f 187/928/187 285/929/285 287/930/287
f 288/931/288 286/932/286 212/933/212
f 289/934/289 185/935/185 287/936/287
f 212/937/212 214/938/214 288/939/288
f 214/940/214 282/941/282 288/942/288
f 182/943/182 185/944/185 289/945/289
f 290/946/290 182/947/182 289/948/289
f 214/949/214 220/950/220 282/951/282
f 291/952/291 182/953/182 290/954/290
f 281/955/281 220/956/220 183/957/183
f 185/958/185 187/959/187 287/960/287
f 291/961/291 281/962/281 183/963/183
f 277/964/277 275/965/275 192/966/192
f 183/967/183 182/968/182 291/969/291
f 269/970/269 199/971/199 271/972/271
f 206/973/206 292/974/292 293/975/293
f 275/976/275 294/977/294 192/978/192
f 202/979/202 295/980/295 209/981/209
f 266/982/266 296/983/296 269/984/269
f 197/985/197 297/986/297 272/987/272
f 275/988/275 298/989/298 299/990/299
f 217/991/217 292/992/292 300/993/300
f 278/994/278 298/995/298 274/996/274
f 272/997/272 301/998/301 246/999/246
f 191/1000/191 302/1001/302 278/1002/278
f 246/1003/246 303/1004/303 266/1005/266
f 209/1006/209 304/1007/304 217/1008/217
f 305/1009/305 306/1010/306 191/1011/191
f 205/1012/205 307/1013/307 223/1014/223
f 243/1015/243 308/1016/308 305/1017/305
f 188/1018/188 309/1019/309 310/1020/310
f 181/1021/181 184/1022/184 182/1023/182
f 184/1024/184 186/1025/186 185/1026/185
f 186/1027/186 188/1028/188 187/1029/187
f 188/1030/188 190/1031/190 189/1032/189
f 190/1033/190 305/1034/305 191/1035/191
f 192/1036/192 294/1037/294 193/1038/193
f 195/1039/195 239/1040/239 196/1041/196
f 198/1042/198 271/1043/271 199/1044/199
f 194/1045/194 193/1046/193 201/1047/201
f 203/1048/203 244/1049/244 204/1050/204
f 206/1051/206 293/1052/293 207/1053/207
f 209/1054/209 211/1055/211 210/1056/210
f 211/1057/211 213/1058/213 212/1059/212
f 213/1060/213 215/1061/215 214/1062/214
f 216/1063/216 311/1064/311 181/1065/181
f 181/1066/181 221/1067/221 215/1068/215
f 215/1069/215 312/1070/312 216/1071/216
f 313/1072/313 312/1073/312 215/1074/215
f 215/1075/215 213/1076/213 211/1077/211
f 211/1078/211 209/1079/209 217/1080/217
f 300/1081/300 206/1082/206 314/1083/314
f 313/1084/313 215/1085/215 211/1086/211
f 219/1087/219 313/1088/313 211/1089/211
f 217/1090/217 300/1091/300 314/1092/314
f 217/1093/217 314/1094/314 315/1095/315
f 219/1096/219 211/1097/211 217/1098/217
f 217/1099/217 315/1100/315 218/1101/218
f 215/1102/215 221/1103/221 220/1104/220
f 221/1105/221 181/1106/181 183/1107/183
f 316/1108/316 317/1109/317 226/1110/226
f 226/1111/226 230/1112/230 229/1113/229
f 229/1114/229 232/1115/232 222/1116/222
f 222/1117/222 234/1118/234 205/1119/205
f 222/1120/222 205/1121/205 223/1122/223
f 316/1123/316 226/1124/226 229/1125/229
f 318/1126/318 316/1127/316 229/1128/229
f 245/1129/245 195/1130/195 319/1131/319
f 245/1132/245 319/1133/319 320/1134/320
f 318/1135/318 229/1136/229 222/1137/222
f 321/1138/321 318/1139/318 222/1140/222
f 223/1141/223 245/1142/245 320/1143/320
f 223/1144/223 320/1145/320 322/1146/322
f 323/1147/323 321/1148/321 222/1149/222
f 223/1150/223 322/1151/322 224/1152/224
f 224/1153/224 323/1154/323 222/1155/222
f 227/1156/227 324/1157/324 225/1158/225
f 225/1159/225 250/1160/250 226/1161/226
f 226/1162/226 317/1163/317 227/1164/227
f 228/1165/228 231/1166/231 229/1167/229
f 231/1168/231 257/1169/257 232/1170/232
f 232/1171/232 257/1172/257 233/1173/233
f 233/1174/233 235/1175/235 234/1176/234
f 235/1177/235 203/1178/203 205/1179/205
f 198/1180/198 200/1181/200 236/1182/236
f 195/1183/195 245/1184/245 238/1185/238
f 237/1186/237 236/1187/236 240/1188/240
f 208/1189/208 207/1190/207 242/1191/242
f 241/1192/241 240/1193/240 244/1194/244
f 223/1195/223 307/1196/307 238/1197/238
f 246/1198/246 266/1199/266 247/1200/247
f 247/1201/247 249/1202/249 225/1203/225
f 249/1204/249 251/1205/251 250/1206/250
f 251/1207/251 252/1208/252 226/1209/226
f 252/1210/252 228/1211/228 230/1212/230
f 325/1213/325 195/1214/195 197/1215/197
f 272/1216/272 246/1217/246 248/1218/248
f 325/1219/325 197/1220/197 272/1221/272
f 326/1222/326 325/1223/325 272/1224/272
f 272/1225/272 248/1226/248 225/1227/225
f 225/1228/225 324/1229/324 327/1230/327
f 273/1231/273 326/1232/326 272/1233/272
f 225/1234/225 327/1235/327 273/1236/273
f 269/1237/269 296/1238/296 199/1239/199
f 206/1240/206 300/1241/300 292/1242/292
f 275/1243/275 299/1244/299 294/1245/294
f 202/1246/202 201/1247/201 295/1248/295
f 266/1249/266 303/1250/303 296/1251/296
f 197/1252/197 196/1253/196 297/1254/297
f 275/1255/275 274/1256/274 298/1257/298
f 217/1258/217 304/1259/304 292/1260/292
f 278/1261/278 302/1262/302 298/1263/298
f 272/1264/272 297/1265/297 301/1266/301
f 191/1267/191 306/1268/306 302/1269/302
f 246/1270/246 301/1271/301 303/1272/303
f 209/1273/209 295/1274/295 304/1275/304
f 305/1276/305 308/1277/308 306/1278/306
f 205/1279/205 204/1280/204 307/1281/307
f 243/1282/243 242/1283/242 308/1284/308
f 328/1285/328 206/1286/206 208/1287/208
f 243/1288/243 305/1289/305 190/1290/190
f 328/1291/328 208/1292/208 243/1293/243
f 329/1294/329 328/1295/328 243/1296/243
f 243/1297/243 190/1298/190 188/1299/188
f 188/1300/188 186/1301/186 184/1302/184
f 184/1303/184 181/1304/181 311/1305/311
f 184/1306/184 311/1307/311 330/1308/330
f 331/1309/331 329/1310/329 243/1311/243
f 310/1312/310 331/1313/331 243/1314/243
f 188/1315/188 184/1316/184 330/1317/330
f 188/1318/188 330/1319/330 332/1320/332
f 310/1321/310 243/1322/243 188/1323/188
f 188/1324/188 332/1325/332 309/1326/309
f 333/1327/333 334/1328/334 335/1329/335
f 336/1330/336 337/1331/337 334/1332/334
f 338/1333/338 339/1334/339 337/1335/337
f 340/1336/340 341/1337/341 339/1338/339
f 342/1339/342 343/1340/343 341/1341/341
f 344/1342/344 345/1343/345 343/1344/343
f 346/1345/346 347/1346/347 345/1347/345
f 348/1348/348 349/1349/349 347/1350/347
f 350/1351/350 351/1352/351 349/1353/349
f 352/1354/352 353/1355/353 351/1356/351
f 354/1357/354 355/1358/355 353/1359/353
f 356/1360/356 357/1361/357 355/1362/355
f 358/1363/358 359/1364/359 357/1365/357
f 360/1366/360 361/1367/361 359/1368/359
f 362/1369/362 363/1370/363 361/1371/361
f 364/1372/364 335/1373/335 363/1374/363
f 333/1375/333 336/1376/336 334/1377/334
f 336/1378/336 338/1379/338 337/1380/337
f 338/1381/338 340/1382/340 339/1383/339
f 340/1384/340 342/1385/342 341/1386/341
f 342/1387/342 344/1388/344 343/1389/343
f 344/1390/344 346/1391/346 345/1392/345
f 346/1393/346 348/1394/348 347/1395/347
f 348/1396/348 350/1397/350 349/1398/349
f 350/1399/350 352/1400/352 351/1401/351
f 352/1402/352 354/1403/354 353/1404/353
f 354/1405/354 356/1406/356 355/1407/355
f 356/1408/356 358/1409/358 357/1410/357
f 358/1411/358 360/1412/360 359/1413/359
f 360/1414/360 362/1415/362 361/1416/361
f 362/1417/362 364/1418/364 363/1419/363
f 364/1420/364 333/1421/333 335/1422/335
usemtl alumWhite
f 177/1423/177 12/1424/12 16/1425/16
f 115/1426/115 25/1427/25 5/1428/5
f 16/1429/16 17/1430/17 18/1431/18
f 18/1432/18 24/1433/24 177/1434/177
f 177/1435/177 13/1436/13 116/1437/116
f 116/1438/116 10/1439/10 12/1440/12
f 12/1441/12 111/1442/111 16/1443/16
f 16/1444/16 18/1445/18 177/1446/177
f 177/1447/177 116/1448/116 12/1449/12
f 5/1450/5 118/1451/118 120/1452/120
f 120/1453/120 22/1454/22 115/1455/115
f 115/1456/115 113/1457/113 8/1458/8
f 8/1459/8 26/1460/26 25/1461/25
f 25/1462/25 27/1463/27 5/1464/5
f 5/1465/5 120/1466/120 115/1467/115
f 115/1468/115 8/1469/8 25/1470/25
f 354/1471/354 346/1472/346 338/1473/338
f 347/1474/347 355/1475/355 363/1476/363
f 338/1477/338 336/1478/336 333/1479/333
f 333/1480/333 364/1481/364 362/1482/362
f 362/1483/362 360/1484/360 358/1485/358
f 358/1486/358 356/1487/356 354/1488/354
f 354/1489/354 352/1490/352 350/1491/350
f 350/1492/350 348/1493/348 346/1494/346
f 346/1495/346 344/1496/344 342/1497/342
f 342/1498/342 340/1499/340 338/1500/338
f 338/1501/338 333/1502/333 362/1503/362
f 362/1504/362 358/1505/358 354/1506/354
f 354/1507/354 350/1508/350 346/1509/346
f 346/1510/346 342/1511/342 338/1512/338
f 338/1513/338 362/1514/362 354/1515/354
f 363/1516/363 335/1517/335 334/1518/334
f 334/1519/334 337/1520/337 339/1521/339
f 339/1522/339 341/1523/341 343/1524/343
f 343/1525/343 345/1526/345 347/1527/347
f 347/1528/347 349/1529/349 351/1530/351
f 351/1531/351 353/1532/353 355/1533/355
f 355/1534/355 357/1535/357 359/1536/359
f 359/1537/359 361/1538/361 363/1539/363
f 363/1540/363 334/1541/334 339/1542/339
f 339/1543/339 343/1544/343 347/1545/347
f 347/1546/347 351/1547/351 355/1548/355
f 355/1549/355 359/1550/359 363/1551/363
f 363/1552/363 339/1553/339 347/1554/347
