# Brazo_Seg2  -  origen en el pivote de la pieza
# pivote en coordenadas del modelo: 4.9378 8.5724 -13.1132
mtllib rover.mtl
o Brazo_Seg2
v -2.510233 1.804315 0.050244
v -0.114876 -0.025201 0.007289
v -0.211121 -0.091267 -0.001292
v -2.179055 2.139375 0.229331
v -0.280014 -0.199519 0.129674
v -0.216531 -0.101651 0.139340
v -2.525749 1.774528 0.453649
v -0.130391 -0.054988 0.410692
v -0.226637 -0.121054 0.402112
v -2.555063 1.753521 0.168155
v -2.824808 1.982115 0.475696
v -2.813309 2.004190 0.176732
v -2.259266 2.041692 0.652368
v -2.726209 2.078172 0.637100
v -2.467963 1.827502 0.628524
v -2.517512 2.292361 0.660943
v -2.422413 2.409007 0.115224
v -2.494514 2.336513 0.063012
v -2.444965 1.871653 0.030593
v -2.703211 2.122323 0.039168
v -2.395915 2.432569 0.224416
v -2.149168 2.159823 0.514806
v -2.137668 2.181899 0.215840
v -2.189163 2.119972 0.492103
v 0.031259 -0.050941 0.558816
v 0.036668 -0.040556 0.418183
v -2.173646 2.149758 0.088696
v 0.046775 -0.021153 0.155412
v 0.052184 -0.010770 0.014779
v -2.515642 1.793930 0.190877
v -0.284402 -0.356214 -0.023675
v -0.289811 -0.366598 0.116960
v -2.531158 1.764142 0.594282
v -0.299918 -0.386001 0.379730
v -0.305327 -0.396384 0.520364
v -0.232046 -0.131438 0.542745
v -0.135800 -0.065372 0.551326
v -2.194572 2.109588 0.632735
v -2.407414 2.410494 0.523381
v -2.183796 2.120652 0.617014
v -2.442043 2.371322 0.625590
v -2.540065 1.755008 0.576312
v -2.798311 2.005677 0.584888
v -2.164166 2.158337 0.106648
v -2.520434 1.792694 0.065946
v -2.778681 2.043363 0.074523
v -2.236267 2.085843 0.054437
v -2.566562 1.731445 0.467120
v -0.295660 -0.303905 -0.020246
v -0.000519 -0.000995 0.013473
v -0.274606 -0.189135 -0.010961
v -0.005927 -0.011379 0.154107
v -0.301069 -0.314288 0.120389
v -0.120284 -0.035584 0.147922
v -0.311177 -0.333692 0.383159
v -0.016034 -0.030782 0.416879
v -0.290121 -0.218921 0.392444
v -0.316585 -0.344075 0.523793
v -0.295531 -0.229305 0.533077
v -0.021443 -0.041166 0.557511
vn -0.253389 0.162452 -0.953627
vn 0.038326 0.073578 -0.996553
vn 0.038334 0.073588 -0.996552
vn -0.137081 0.216577 0.966594
vn -0.038328 -0.073582 0.996552
vn -0.038327 -0.073582 0.996552
vn -0.253397 0.162441 -0.953626
vn 0.038333 0.073587 -0.996552
vn 0.038331 0.073585 -0.996552
vn -0.418142 -0.885003 -0.204760
vn -0.845582 -0.520473 0.118743
vn -0.954124 0.259207 -0.149865
vn 0.272267 -0.106949 0.956260
vn -0.345126 -0.032919 0.937979
vn 0.505552 -0.698504 0.506467
vn -0.631964 0.672717 0.384802
vn -0.492961 0.846172 -0.202440
vn -0.009243 0.376892 -0.926211
vn 0.082103 -0.237028 -0.968027
vn -0.654097 0.546051 -0.523436
vn 0.491212 0.864446 -0.106975
vn 0.878905 0.437760 0.189454
vn 0.977877 -0.191716 -0.083678
vn 0.290793 0.897256 -0.332222
vn 0.464803 0.452822 0.760861
vn 0.345385 0.385101 -0.855807
vn 0.290793 0.897254 -0.332227
vn 0.605075 0.605684 0.516750
vn 0.345401 0.385125 -0.855790
vn -0.876507 -0.328725 0.351675
vn -0.605072 -0.605681 -0.516757
vn -0.345391 -0.385110 0.855801
vn -0.323463 -0.169653 0.930908
vn -0.605075 -0.605684 -0.516751
vn -0.519006 -0.556880 0.648473
vn -0.038331 -0.073585 0.996552
vn -0.038332 -0.073586 0.996552
vn -0.317362 0.829962 0.458742
vn -0.047617 0.966527 0.252106
vn 0.885510 -0.351398 0.303960
vn 0.125296 0.585018 0.801283
vn -0.313616 -0.719425 0.619735
vn -0.882975 0.300826 0.360361
vn 0.688364 0.355670 -0.632182
vn 0.162151 -0.867104 -0.470997
vn -0.608159 -0.116328 -0.785245
vn 0.731094 -0.570981 -0.373474
vn 0.415886 -0.909189 0.020358
vn 0.038332 0.073587 -0.996552
vn 0.038338 0.073596 -0.996551
vn 0.038333 0.073587 -0.996552
vn -0.038321 -0.073575 0.996553
vn -0.038333 -0.073586 0.996552
vn -0.038332 -0.073586 0.996552
vn 0.038321 0.073575 -0.996553
vn 0.038323 0.073574 -0.996553
vn 0.038333 0.073587 -0.996552
vn -0.038329 -0.073583 0.996552
vn -0.038327 -0.073581 0.996553
vn -0.038320 -0.073570 0.996554
vt 0.580852 0.146243
vt 0.654403 0.833258
vt 0.628151 0.827709
vt 0.556250 0.098026
vt 0.676256 0.087072
vt 0.675217 0.091635
vt 0.557193 0.073165
vt 0.675612 0.059977
vt 0.674674 0.064508
vt 0.545290 0.056720
vt 0.536160 0.045764
vt 0.545290 0.045764
vt 0.520640 0.032070
vt 0.531595 0.041199
vt 0.520640 0.041199
vt 0.531595 0.032070
vt 0.548517 0.028842
vt 0.545290 0.045764
vt 0.549855 0.032070
vt 0.560810 0.041199
vt 0.549855 0.041199
vt 0.549855 0.025082
vt 0.560810 0.015953
vt 0.560810 0.025082
vt 0.557340 0.054040
vt 0.679987 0.048462
vt 0.679987 0.054040
vt 0.557124 0.053931
vt 0.679770 0.048875
vt 0.679746 0.054452
vt 0.556784 0.078691
vt 0.680912 0.075517
vt 0.680800 0.081157
vt 0.557105 0.078806
vt 0.681243 0.075104
vt 0.681154 0.080745
vt 0.532927 0.141943
vt 0.460758 0.829304
vt 0.434016 0.833977
vt 0.551144 0.078535
vt 0.556250 0.098026
vt 0.550610 0.097870
vt 0.557193 0.073165
vt 0.551762 0.053997
vt 0.557340 0.054040
vt 0.531595 0.025082
vt 0.520640 0.028576
vt 0.520640 0.025082
vt 0.531595 0.028576
vt 0.520640 0.032070
vt 0.520640 0.028576
vt 0.536160 0.045764
vt 0.532666 0.056720
vt 0.532666 0.045764
vt 0.532666 0.056720
vt 0.529173 0.045764
vt 0.532666 0.045764
vt 0.549855 0.025082
vt 0.560810 0.028576
vt 0.549855 0.028576
vt 0.560810 0.028576
vt 0.549855 0.032070
vt 0.549855 0.028576
vt 0.545290 0.045764
vt 0.548783 0.056720
vt 0.545290 0.056720
vt 0.549855 0.044693
vt 0.560810 0.041199
vt 0.560810 0.044693
vt 0.549855 0.070414
vt 0.532932 0.073642
vt 0.536160 0.056720
vt 0.579290 0.847266
vt 0.566549 0.865538
vt 0.580852 0.146243
vt 0.580852 0.146243
vt 0.691746 0.147570
vt 0.688723 0.858776
vt 0.580852 0.146243
vt 0.688723 0.858776
vt 0.676532 0.848430
vt 0.601776 0.832628
vt 0.579290 0.847266
vt 0.580852 0.146243
vt 0.628151 0.827709
vt 0.601776 0.832628
vt 0.580852 0.146243
vt 0.580852 0.146243
vt 0.676532 0.848430
vt 0.654403 0.833258
vt 0.678494 0.100209
vt 0.681646 0.102481
vt 0.556250 0.098026
vt 0.556250 0.098026
vt 0.556784 0.078691
vt 0.680800 0.081157
vt 0.556250 0.098026
vt 0.680800 0.081157
vt 0.678963 0.083255
vt 0.676003 0.096248
vt 0.678494 0.100209
vt 0.556250 0.098026
vt 0.675217 0.091635
vt 0.676003 0.096248
vt 0.556250 0.098026
vt 0.556250 0.098026
vt 0.678963 0.083255
vt 0.676256 0.087072
vt 0.678082 0.072920
vt 0.681243 0.075104
vt 0.557193 0.073165
vt 0.557193 0.073165
vt 0.557340 0.054040
vt 0.679987 0.054040
vt 0.557193 0.073165
vt 0.679987 0.054040
vt 0.678212 0.056150
vt 0.675542 0.069053
vt 0.678082 0.072920
vt 0.557193 0.073165
vt 0.674674 0.064508
vt 0.675542 0.069053
vt 0.557193 0.073165
vt 0.557193 0.073165
vt 0.678212 0.056150
vt 0.675612 0.059977
vt 0.545290 0.056720
vt 0.536160 0.056720
vt 0.536160 0.045764
vt 0.520640 0.032070
vt 0.531595 0.032070
vt 0.531595 0.041199
vt 0.545290 0.045764
vt 0.536160 0.045764
vt 0.532932 0.044427
vt 0.532932 0.044427
vt 0.531595 0.041199
vt 0.531595 0.032070
vt 0.531595 0.032070
vt 0.532932 0.028842
vt 0.536160 0.027505
vt 0.536160 0.027505
vt 0.545290 0.027505
vt 0.548517 0.028842
vt 0.548517 0.028842
vt 0.549855 0.032070
vt 0.549855 0.041199
vt 0.549855 0.041199
vt 0.548517 0.044427
vt 0.545290 0.045764
vt 0.545290 0.045764
vt 0.532932 0.044427
vt 0.531595 0.032070
vt 0.531595 0.032070
vt 0.536160 0.027505
vt 0.548517 0.028842
vt 0.548517 0.028842
vt 0.549855 0.041199
vt 0.545290 0.045764
vt 0.549855 0.032070
vt 0.560810 0.032070
vt 0.560810 0.041199
vt 0.549855 0.025082
vt 0.549855 0.015953
vt 0.560810 0.015953
vt 0.557340 0.054040
vt 0.557340 0.048462
vt 0.679987 0.048462
vt 0.557124 0.053931
vt 0.557148 0.048354
vt 0.679770 0.048875
vt 0.556784 0.078691
vt 0.556896 0.073051
vt 0.680912 0.075517
vt 0.557105 0.078806
vt 0.557193 0.073165
vt 0.681243 0.075104
vt 0.397997 0.866867
vt 0.420752 0.139323
vt 0.532927 0.141943
vt 0.532927 0.141943
vt 0.521681 0.861431
vt 0.509466 0.850825
vt 0.532927 0.141943
vt 0.509466 0.850825
vt 0.487253 0.835220
vt 0.411098 0.848528
vt 0.397997 0.866867
vt 0.532927 0.141943
vt 0.434016 0.833977
vt 0.411098 0.848528
vt 0.532927 0.141943
vt 0.532927 0.141943
vt 0.487253 0.835220
vt 0.460758 0.829304
vt 0.551144 0.078535
vt 0.556784 0.078691
vt 0.556250 0.098026
vt 0.557193 0.073165
vt 0.551615 0.073122
vt 0.551762 0.053997
vt 0.531595 0.025082
vt 0.531595 0.028576
vt 0.520640 0.028576
vt 0.531595 0.028576
vt 0.531595 0.032070
vt 0.520640 0.032070
vt 0.536160 0.045764
vt 0.536160 0.056720
vt 0.532666 0.056720
vt 0.532666 0.056720
vt 0.529173 0.056720
vt 0.529173 0.045764
vt 0.549855 0.025082
vt 0.560810 0.025082
vt 0.560810 0.028576
vt 0.560810 0.028576
vt 0.560810 0.032070
vt 0.549855 0.032070
vt 0.545290 0.045764
vt 0.548783 0.045764
vt 0.548783 0.056720
vt 0.549855 0.044693
vt 0.549855 0.041199
vt 0.560810 0.041199
vt 0.536160 0.056720
vt 0.545290 0.056720
vt 0.548517 0.058057
vt 0.548517 0.058057
vt 0.549855 0.061285
vt 0.549855 0.070414
vt 0.549855 0.070414
vt 0.548517 0.073642
vt 0.545290 0.074979
vt 0.545290 0.074979
vt 0.536160 0.074979
vt 0.532932 0.073642
vt 0.532932 0.073642
vt 0.531595 0.070414
vt 0.531595 0.061285
vt 0.531595 0.061285
vt 0.532932 0.058057
vt 0.536160 0.056720
vt 0.536160 0.056720
vt 0.548517 0.058057
vt 0.549855 0.070414
vt 0.549855 0.070414
vt 0.545290 0.074979
vt 0.532932 0.073642
vt 0.532932 0.073642
vt 0.531595 0.061285
vt 0.536160 0.056720
usemtl alumWhite
f 1/1/1 2/2/2 3/3/3
f 4/4/4 5/5/5 6/6/6
f 7/7/7 8/8/8 9/9/9
f 10/10/10 11/11/11 12/12/12
f 13/13/13 14/14/14 15/15/15
f 16/16/16 17/17/17 12/18/12
f 18/19/18 19/20/19 20/21/20
f 21/22/21 22/23/22 23/24/23
f 24/25/24 25/26/25 26/27/26
f 27/28/27 28/29/28 29/30/29
f 30/31/30 31/32/31 32/33/32
f 33/34/33 34/35/34 35/36/35
f 33/37/33 36/38/36 37/39/37
f 1/40/1 4/41/4 27/42/27
f 7/43/7 38/44/38 24/45/24
f 39/46/39 40/47/40 22/48/22
f 41/49/41 13/50/13 40/51/40
f 11/52/11 42/53/42 43/54/43
f 42/55/42 14/56/14 43/57/43
f 21/58/21 44/59/44 17/60/17
f 44/61/44 18/62/18 17/63/17
f 12/64/12 45/65/45 10/66/10
f 46/67/46 19/68/19 45/69/45
f 47/70/47 40/71/40 48/72/48
f 49/73/49 31/74/31 1/75/1
f 1/76/1 27/77/27 29/78/29
f 1/79/1 29/80/29 50/81/50
f 51/82/51 49/83/49 1/84/1
f 3/85/3 51/86/51 1/87/1
f 1/88/1 50/89/50 2/90/2
f 52/91/52 28/92/28 4/93/4
f 4/94/4 30/95/30 32/96/32
f 4/97/4 32/98/32 53/99/53
f 54/100/54 52/101/52 4/102/4
f 6/103/6 54/104/54 4/105/4
f 4/106/4 53/107/53 5/108/5
f 55/109/55 34/110/34 7/111/7
f 7/112/7 24/113/24 26/114/26
f 7/115/7 26/116/26 56/117/56
f 57/118/57 55/119/55 7/120/7
f 9/121/9 57/122/57 7/123/7
f 7/124/7 56/125/56 8/126/8
f 10/127/10 48/128/48 11/129/11
f 13/130/13 16/131/16 14/132/14
f 12/133/12 11/134/11 43/135/43
f 43/136/43 14/137/14 16/138/16
f 16/139/16 41/140/41 39/141/39
f 39/142/39 21/143/21 17/144/17
f 17/145/17 18/146/18 20/147/20
f 20/148/20 46/149/46 12/150/12
f 12/151/12 43/152/43 16/153/16
f 16/154/16 39/155/39 17/156/17
f 17/157/17 20/158/20 12/159/12
f 18/160/18 47/161/47 19/162/19
f 21/163/21 39/164/39 22/165/22
f 24/166/24 38/167/38 25/168/25
f 27/169/27 4/170/4 28/171/28
f 30/172/30 1/173/1 31/174/31
f 33/175/33 7/176/7 34/177/34
f 25/178/25 38/179/38 33/180/33
f 33/181/33 35/182/35 58/183/58
f 33/184/33 58/185/58 59/186/59
f 60/187/60 25/188/25 33/189/33
f 37/190/37 60/191/60 33/192/33
f 33/193/33 59/194/59 36/195/36
f 1/196/1 30/197/30 4/198/4
f 7/199/7 33/200/33 38/201/38
f 39/202/39 41/203/41 40/204/40
f 41/205/41 16/206/16 13/207/13
f 11/208/11 48/209/48 42/210/42
f 42/211/42 15/212/15 14/213/14
f 21/214/21 23/215/23 44/216/44
f 44/217/44 47/218/47 18/219/18
f 12/220/12 46/221/46 45/222/45
f 46/223/46 20/224/20 19/225/19
f 48/226/48 10/227/10 45/228/45
f 45/229/45 19/230/19 47/231/47
f 47/232/47 44/233/44 23/234/23
f 23/235/23 22/236/22 40/237/40
f 40/238/40 13/239/13 15/240/15
f 15/241/15 42/242/42 48/243/48
f 48/244/48 45/245/45 47/246/47
f 47/247/47 23/248/23 40/249/40
f 40/250/40 15/251/15 48/252/48
