# Pata_Tra_Der  -  origen en el pivote de la pieza
# pivote en coordenadas del modelo: -2.4658 3.4283 4.1589
mtllib rover.mtl
o Pata_Tra_Der
v -2.916155 -2.182743 -0.946949
v -2.833127 -2.265771 -0.946949
v -2.941191 -2.570787 -0.946949
v -1.113102 0.134754 -0.754949
v -2.415714 -1.848359 -0.754949
v -2.370781 -1.956842 -0.754949
v -3.271135 -2.091517 -0.754949
v -3.272146 -2.195039 -0.754949
v -2.961090 -1.956841 -0.754949
v -3.221260 -2.285198 -0.754949
v -2.941190 -2.570787 -0.754949
v -2.658363 -2.573548 -0.754949
v -2.748520 -2.624434 -0.946949
v -2.658363 -2.573548 -0.946949
v -2.748520 -2.624434 -0.754949
v -2.852042 -2.623424 -0.946949
v -3.218500 -2.002369 -0.946949
v -3.218500 -2.002369 -0.754949
v -3.271135 -2.091517 -0.946949
v -3.272146 -2.195039 -0.946949
v -0.178352 0.150538 -0.946949
v -1.113102 0.134754 -0.946949
v -0.004649 -0.262564 -0.754949
v -0.004649 -0.018901 -0.946949
v -0.004649 -0.018901 -0.754949
v -0.178380 -0.142929 -0.946949
v -0.178407 -0.436395 -0.946949
v -0.552966 -0.436426 -0.946949
v -0.178407 -0.436395 -0.754949
v -0.552966 -0.436426 -0.754949
v -0.178380 -0.142929 -0.754949
v -0.178352 0.150538 -0.754949
v -0.055542 -0.385451 -0.754949
v -0.055542 -0.385451 -0.946949
v -0.055526 0.102699 -0.754949
v -0.055526 0.102699 -0.946949
v -2.665935 -2.316488 -0.754949
v -2.852042 -2.623424 -0.754949
v -2.833127 -2.265771 -0.754949
v -2.665935 -2.316488 -0.946949
v -2.965245 -1.999045 -0.946949
v -3.221260 -2.285198 -0.946949
v -0.004649 -0.262564 -0.946949
v -0.980320 -0.857569 -0.946949
v -0.980320 -0.857569 -0.754949
v -2.415714 -1.848359 -0.946949
v -2.498744 -1.765332 -0.946949
v -2.916155 -2.182743 -1.546949
v -2.833127 -2.265771 -1.546949
v -2.941191 -2.570787 -1.546949
v -1.113102 0.134754 -1.354949
v -2.415714 -1.848359 -1.354949
v -2.370781 -1.956842 -1.354949
v -3.271135 -2.091517 -1.354949
v -3.272146 -2.195039 -1.354949
v -2.961090 -1.956841 -1.354949
v -3.221260 -2.285198 -1.354949
v -2.941190 -2.570787 -1.354949
v -2.658363 -2.573548 -1.354949
v -2.748520 -2.624434 -1.546949
v -2.658363 -2.573548 -1.546949
v -2.748520 -2.624434 -1.354949
v -2.852042 -2.623424 -1.546949
v -3.218500 -2.002369 -1.546949
v -3.218500 -2.002369 -1.354949
v -3.271135 -2.091517 -1.546949
v -3.272146 -2.195039 -1.546949
v -0.178352 0.150538 -1.546949
v -1.113102 0.134754 -1.546949
v -0.004649 -0.262564 -1.354949
v -0.004649 -0.018901 -1.546949
v -0.004649 -0.018901 -1.354949
v -0.178380 -0.142929 -1.546949
v -0.178407 -0.436395 -1.546949
v -0.552966 -0.436426 -1.546949
v -0.178407 -0.436395 -1.354949
v -0.552966 -0.436426 -1.354949
v -0.178380 -0.142929 -1.354949
v -0.178352 0.150538 -1.354949
v -0.055542 -0.385451 -1.354949
v -0.055542 -0.385451 -1.546949
v -0.055526 0.102699 -1.354949
v -0.055526 0.102699 -1.546949
v -2.665935 -2.316488 -1.354949
v -2.852042 -2.623424 -1.354949
v -2.833127 -2.265771 -1.354949
v -2.665935 -2.316488 -1.546949
v -2.965245 -1.999045 -1.546949
v -3.221260 -2.285198 -1.546949
v -0.004649 -0.262564 -1.546949
v -0.980320 -0.857569 -1.546949
v -0.980320 -0.857569 -1.354949
v -2.415714 -1.848359 -1.546949
v -2.498744 -1.765332 -1.546949
v -2.775717 -1.737523 -0.458950
v -2.873347 -1.802757 -1.714950
v -2.873348 -1.802757 -0.458950
v -2.601844 -2.310706 -0.458950
v -2.660554 -2.316489 -1.714950
v -2.545391 -2.293581 -1.714950
v -2.775717 -2.293581 -0.458950
v -2.660555 -1.714615 -0.458950
v -2.775717 -1.737523 -1.714950
v -2.775716 -2.293581 -1.714950
v -2.601843 -1.720398 -1.714950
v -2.873348 -2.228346 -1.714950
v -2.493363 -1.765332 -0.458950
v -2.447760 -1.802757 -1.714950
v -2.938583 -2.130716 -0.458950
v -2.873348 -2.228346 -0.458950
v -2.410335 -1.848360 -0.458950
v -2.365399 -2.074262 -0.458950
v -2.410334 -2.182743 -1.714950
v -2.365399 -2.074261 -1.714950
v -2.961492 -2.015552 -0.458950
v -2.955709 -2.074262 -1.714950
v -2.410335 -2.182743 -0.458950
v -2.365399 -1.956842 -1.714950
v -2.938583 -1.900388 -1.714950
v -2.938583 -1.900388 -0.458950
v -2.493363 -2.265772 -0.458950
v -2.365399 -1.956842 -0.458950
v -2.550771 -2.293580 -0.754949
v -2.916155 -1.848360 -0.754949
v -2.781098 -1.737522 -0.754949
v -2.453139 -2.228346 -0.754949
v -2.665935 -1.714614 -0.754949
v -2.370781 -2.074261 -0.754949
v -2.498744 -1.765332 -0.754949
v -2.943964 -2.130715 -0.754949
v -2.943964 -1.900388 -0.946949
v -2.550771 -2.293580 -0.946949
v -2.453139 -2.228346 -0.946949
v -2.878729 -1.802757 -0.946949
v -2.781098 -1.737522 -0.946949
v -2.387906 -2.130715 -0.946949
v -2.607225 -1.720397 -0.946949
v -2.364998 -2.015551 -0.946949
v -2.550771 -2.293580 -1.354949
v -2.916155 -1.848360 -1.354949
v -2.781098 -1.737522 -1.354949
v -2.453139 -2.228346 -1.354949
v -2.665935 -1.714614 -1.354949
v -2.370781 -2.074261 -1.354949
v -2.498744 -1.765332 -1.354949
v -2.943964 -2.130715 -1.354949
v -2.943964 -1.900388 -1.546949
v -2.550771 -2.293580 -1.546949
v -2.453139 -2.228346 -1.546949
v -2.878729 -1.802757 -1.546949
v -2.781098 -1.737522 -1.546949
v -2.387906 -2.130715 -1.546949
v -2.607225 -1.720397 -1.546949
v -2.364998 -2.015551 -1.546949
v -2.451832 -1.623309 -1.172548
v -1.359636 -0.540581 -1.129348
v -1.359636 -0.540581 -1.172548
v -2.347499 -1.732796 -1.021348
v -1.214005 -0.688928 -1.052981
v -1.262875 -0.639145 -1.021348
v -2.294805 -1.788094 -1.052981
v -1.193761 -0.709548 -1.129348
v -2.451832 -1.623309 -1.129348
v -1.339393 -0.561201 -1.052981
v -2.430006 -1.646214 -1.052981
v -1.290522 -0.610983 -1.021348
v -1.193761 -0.709548 -1.172548
v -2.294805 -1.788094 -1.248916
v -1.214005 -0.688928 -1.248916
v -2.347499 -1.732796 -1.280548
v -1.262875 -0.639145 -1.280548
v -1.290522 -0.610983 -1.280548
v -2.430006 -1.646214 -1.248916
v -1.339393 -0.561201 -1.248916
v -2.377310 -1.701512 -1.021348
v -2.377310 -1.701512 -1.280548
v -2.272977 -1.810999 -1.172548
v -2.272977 -1.810999 -1.129348
v -1.161533 -0.749311 -1.120060
v -1.300018 -0.608480 -1.336276
v -1.300018 -0.608480 -0.965620
v -1.369964 -0.537351 -1.010855
v -1.260450 -0.648719 -1.336276
v -1.190506 -0.719848 -1.010855
v -0.666557 -0.254336 -1.120060
v -0.695531 -0.224873 -1.010855
v -1.190506 -0.719848 -1.291042
v -0.666557 -0.254336 -1.181836
v -1.161533 -0.749311 -1.181836
v -0.695531 -0.224873 -1.291042
v -1.260450 -0.648719 -0.965620
v -0.765476 -0.153744 -0.965620
v -1.398935 -0.507889 -1.120060
v -0.903961 -0.012914 -1.181836
v -1.398935 -0.507889 -1.181836
v -0.805045 -0.113505 -0.965620
v -0.874988 -0.042376 -1.010855
v -0.765476 -0.153744 -1.336276
v -0.874988 -0.042376 -1.291042
v -1.369964 -0.537351 -1.291042
v -0.903961 -0.012914 -1.120060
v -0.805045 -0.113505 -1.336276
v -2.236688 -2.087848 -1.630949
v -2.589869 -2.441029 -0.670949
v -2.589869 -2.441029 -1.630949
v -2.872712 -2.441029 -1.630949
v -2.781098 -2.293581 -1.630949
v -3.084844 -2.228897 -0.670949
v -3.084844 -2.228897 -1.630949
v -2.943964 -2.130715 -1.630949
v -2.916155 -2.182743 -1.630949
v -3.084842 -1.946054 -0.670949
v -2.916155 -2.182743 -0.670949
v -2.943964 -2.130715 -0.670949
v -2.236688 -2.087848 -0.670949
v -2.415714 -2.182743 -0.670949
v -3.143422 -2.087475 -1.630949
v -3.143422 -2.087475 -0.670949
v -3.084842 -1.946054 -1.630949
v -2.731290 -2.499607 -0.670949
v -2.872712 -2.441029 -0.670949
v -2.731290 -2.499607 -1.630949
v -2.476359 -1.592873 -1.630949
v -2.236688 -1.832544 -0.670949
v -2.236688 -1.832544 -1.630949
v -2.731662 -1.592873 -1.630949
v -2.833127 -1.765331 -1.630949
v -2.961090 -2.074261 -1.630949
v -2.961090 -1.956841 -1.630949
v -2.966871 -2.015551 -1.630949
v -2.604011 -1.539998 -0.670949
v -2.476359 -1.592873 -0.670949
v -2.604011 -1.539998 -1.630949
v -2.731662 -1.592873 -0.670949
v -2.183813 -1.960196 -0.670949
v -2.183813 -1.960196 -1.630949
v -2.781098 -2.293581 -0.670949
v -2.833127 -2.265771 -0.670949
v -2.724645 -2.310706 -0.670949
v -2.607225 -2.310706 -0.670949
v -2.665935 -2.316488 -0.670949
v -2.387906 -1.900388 -0.670949
v -2.370781 -1.956842 -0.670949
v -2.364998 -2.015551 -0.670949
v -2.781098 -1.737522 -0.670949
v -2.724645 -1.720397 -0.670949
v -2.498744 -2.265771 -1.630949
v -2.453139 -2.228346 -1.630949
v -2.387906 -1.900388 -1.630949
v -2.607225 -1.720397 -1.630949
v -2.498744 -1.765332 -1.630949
v -2.550771 -1.737522 -1.630949
v -2.665935 -1.714614 -1.630949
v -2.724645 -2.310706 -1.630949
v -2.669798 -2.316108 -1.630949
v -2.833127 -2.265771 -1.630949
v -2.878729 -2.228346 -1.630949
v -2.961090 -2.074261 -0.670949
v -2.966871 -2.015551 -0.670949
v -2.550771 -2.293580 -0.670949
v -2.552027 -2.293962 -0.670949
v -2.370781 -2.074261 -0.670949
v -2.387906 -2.130715 -0.670949
v -2.498744 -2.265771 -0.670949
v -2.453139 -2.228346 -0.670949
v -2.943964 -1.900388 -1.630949
v -2.724645 -1.720397 -1.630949
v -2.781098 -1.737522 -1.630949
v -2.916155 -1.848360 -1.630949
v -2.878729 -1.802757 -1.630949
v -2.878729 -2.228346 -0.670949
v -2.415714 -1.848359 -0.670949
v -2.961090 -1.956841 -0.670949
v -2.943964 -1.900388 -0.670949
v -2.453139 -1.802757 -0.670949
v -2.916155 -1.848360 -0.670949
v -2.878729 -1.802757 -0.670949
v -2.498744 -1.765332 -0.670949
v -2.550771 -1.737522 -0.670949
v -2.833127 -1.765331 -0.670949
v -2.607225 -1.720397 -0.670949
v -2.665935 -1.714614 -0.670949
v -2.370781 -1.956842 -1.630949
v -2.665935 -2.316488 -1.630949
v -2.607225 -2.310706 -1.630949
v -2.364998 -2.015551 -1.630949
v -2.370781 -2.074261 -1.630949
v -2.550771 -2.293580 -1.630949
v -2.387906 -2.130715 -1.630949
v -2.415714 -2.182743 -1.630949
v -2.415714 -1.848359 -1.630949
v -2.453139 -1.802757 -1.630949
vn 0.000000 0.000000 -1.000000
vn 0.000000 0.000000 -1.000000
vn -0.332754 -0.388616 -0.859217
vn -0.071846 0.260128 0.962897
vn 0.000000 0.000000 1.000000
vn 0.000000 0.000000 1.000000
vn -0.771052 0.290787 0.566499
vn -0.813145 -0.133692 0.566500
vn 0.000000 0.000000 1.000000
vn -0.496674 -0.373467 0.783478
vn -0.482583 -0.675396 0.557632
vn 0.340686 -0.489736 0.802553
vn 0.275684 -0.776580 -0.566499
vn 0.385517 -0.455285 -0.802553
vn 0.133697 -0.813144 0.566499
vn -0.238211 -0.855529 -0.459701
vn -0.418261 0.295263 -0.858998
vn -0.458263 0.383318 0.801911
vn -0.810380 0.149542 -0.566499
vn -0.776581 -0.275682 -0.566500
vn 0.092356 0.822536 -0.561164
vn -0.127000 0.211732 -0.969041
vn 0.873797 -0.173782 0.454179
vn 0.873415 0.175353 -0.454310
vn 0.686391 0.137804 0.714057
vn 0.000000 0.000000 -1.000000
vn 0.182123 -0.676916 -0.713173
vn 0.203957 -0.787927 -0.581010
vn 0.107544 -0.820580 0.561322
vn 0.287475 -0.496466 0.819072
vn 0.000000 0.000000 1.000000
vn 0.168506 0.680585 0.713029
vn 0.491349 -0.648408 0.581502
vn 0.648612 -0.491078 -0.581502
vn 0.643362 0.496452 0.582770
vn 0.480308 0.655503 -0.582770
vn 0.000000 0.000000 1.000000
vn -0.186355 -0.669286 0.719255
vn 0.000000 0.000000 1.000000
vn 0.000000 0.000000 -1.000000
vn 0.000000 0.000000 -1.000000
vn -0.562727 -0.423134 -0.710138
vn 0.686766 -0.136585 -0.713930
vn 0.423764 -0.424743 -0.800011
vn 0.502490 -0.497479 0.707120
vn 0.000000 0.000000 -1.000000
vn 0.000000 0.000000 -1.000000
vn 0.000000 0.000000 -1.000000
vn 0.000000 0.000000 -1.000000
vn -0.332754 -0.388616 -0.859217
vn -0.071846 0.260128 0.962897
vn 0.000000 0.000000 1.000000
vn 0.000000 0.000000 1.000000
vn -0.771052 0.290787 0.566499
vn -0.813145 -0.133692 0.566500
vn 0.000000 0.000000 1.000000
vn -0.496674 -0.373467 0.783478
vn -0.482583 -0.675396 0.557632
vn 0.340686 -0.489736 0.802553
vn 0.275684 -0.776580 -0.566499
vn 0.385517 -0.455285 -0.802553
vn 0.133697 -0.813144 0.566499
vn -0.238211 -0.855529 -0.459701
vn -0.418261 0.295263 -0.858998
vn -0.458263 0.383318 0.801911
vn -0.810380 0.149542 -0.566499
vn -0.776581 -0.275682 -0.566500
vn 0.092356 0.822536 -0.561164
vn -0.127000 0.211732 -0.969041
vn 0.873797 -0.173782 0.454179
vn 0.873415 0.175353 -0.454310
vn 0.686391 0.137804 0.714057
vn 0.000000 0.000000 -1.000000
vn 0.182123 -0.676916 -0.713173
vn 0.203957 -0.787927 -0.581010
vn 0.107544 -0.820580 0.561322
vn 0.287475 -0.496466 0.819072
vn 0.000000 0.000000 1.000000
vn 0.168506 0.680585 0.713029
vn 0.491349 -0.648408 0.581502
vn 0.648612 -0.491078 -0.581502
vn 0.643362 0.496452 0.582770
vn 0.480308 0.655503 -0.582770
vn 0.000000 0.000000 1.000000
vn -0.186355 -0.669286 0.719255
vn 0.000000 0.000000 1.000000
vn 0.000000 0.000000 -1.000000
vn 0.000000 0.000000 -1.000000
vn -0.562727 -0.423134 -0.710138
vn 0.686766 -0.136585 -0.713930
vn 0.423764 -0.424743 -0.800011
vn 0.502490 -0.497479 0.707120
vn 0.000000 0.000000 -1.000000
vn 0.000000 0.000000 -1.000000
vn -0.195383 0.395444 0.897468
vn -0.623875 0.712489 -0.321155
vn -0.712482 0.623882 0.321155
vn 0.154380 -0.933120 0.324738
vn -0.023281 -0.702299 -0.711501
vn 0.390051 -0.861630 -0.324737
vn -0.285052 -0.738663 0.610838
vn -0.000915 0.946493 0.322723
vn -0.146207 0.483650 -0.862964
vn -0.340937 -0.823093 -0.454181
vn 0.215425 0.919934 -0.327589
vn -0.444898 -0.423698 -0.789016
vn 0.349440 0.605710 0.714847
vn 0.491500 0.491501 -0.718926
vn -0.464048 -0.210491 0.860438
vn -0.629966 -0.629970 0.454181
vn 0.805065 0.500162 0.318917
vn 0.950396 -0.189046 0.247000
vn 0.445173 -0.313434 -0.838797
vn 0.873791 -0.173806 -0.454182
vn -0.947262 0.031402 0.318917
vn -0.926325 -0.184260 -0.328588
vn 0.582207 -0.389019 0.713932
vn 0.867414 0.194659 -0.457931
vn -0.738662 0.285054 -0.610838
vn -0.505598 0.209427 0.836965
vn 0.296976 -0.414068 0.860438
vn 0.358197 0.071250 0.930923
vn 0.000000 0.000000 1.000000
vn 0.000000 0.000000 1.000000
vn 0.000000 0.000000 1.000000
vn 0.000000 0.000000 1.000000
vn 0.000000 0.000000 1.000000
vn 0.000000 0.000000 1.000000
vn 0.000000 0.000000 1.000000
vn 0.000000 0.000000 1.000000
vn 0.000000 0.000000 -1.000000
vn 0.000000 0.000000 -1.000000
vn 0.000000 0.000000 -1.000000
vn 0.000000 0.000000 -1.000000
vn 0.000000 0.000000 -1.000000
vn 0.000000 0.000000 -1.000000
vn 0.000000 0.000000 -1.000000
vn 0.000000 0.000000 -1.000000
vn 0.000000 0.000000 1.000000
vn 0.000000 0.000000 1.000000
vn 0.000000 0.000000 1.000000
vn 0.000000 0.000000 1.000000
vn 0.000000 0.000000 1.000000
vn 0.000000 0.000000 1.000000
vn 0.000000 0.000000 1.000000
vn 0.000000 0.000000 1.000000
vn 0.000000 0.000000 -1.000000
vn 0.000000 0.000000 -1.000000
vn 0.000000 0.000000 -1.000000
vn 0.000000 0.000000 -1.000000
vn 0.000000 0.000000 -1.000000
vn 0.000000 0.000000 -1.000000
vn 0.000000 0.000000 -1.000000
vn 0.000000 0.000000 -1.000000
vn -0.691836 0.697292 -0.187475
vn -0.982403 0.161776 0.093338
vn -0.958251 -0.270440 -0.092829
vn 0.192308 -0.189937 0.962778
vn -0.383816 -0.822212 0.420301
vn -0.465430 -0.588459 0.661128
vn 0.573439 -0.563034 0.595114
vn 0.286844 -0.943279 0.167170
vn -0.682158 0.687332 0.249472
vn -0.908186 -0.291520 0.300358
vn -0.432638 0.434041 0.790211
vn -0.573384 -0.251839 0.779620
vn -0.071853 -0.981569 -0.177088
vn 0.573439 -0.563035 -0.595113
vn -0.383819 -0.822210 -0.420302
vn 0.192303 -0.189932 -0.962780
vn -0.465432 -0.588457 -0.661129
vn -0.573380 -0.251843 -0.779622
vn -0.432635 0.434037 -0.790214
vn -0.908186 -0.291521 -0.300357
vn -0.091932 0.091617 0.991542
vn -0.091930 0.091614 -0.991542
vn 0.708243 -0.693945 -0.129735
vn 0.700563 -0.686421 0.195033
vn -0.405088 -0.911819 0.067000
vn -0.648134 -0.537557 -0.539401
vn -0.648136 -0.537556 0.539401
vn -0.779148 -0.073900 0.622469
vn -0.399401 -0.655435 -0.641002
vn 0.032156 -0.888779 0.457206
vn 0.695573 -0.695573 0.179879
vn 0.444950 -0.444950 0.777200
vn 0.032155 -0.888779 -0.457207
vn 0.686546 -0.686546 -0.239392
vn -0.061811 -0.995508 -0.071723
vn 0.444946 -0.444946 -0.777204
vn -0.399398 -0.655438 0.641001
vn 0.099332 -0.099332 0.990084
vn -0.990992 -0.061401 0.119012
vn -0.702024 0.702023 -0.119693
vn -0.985111 -0.066454 -0.158558
vn -0.198666 0.198665 0.959721
vn -0.576902 0.576902 0.578246
vn 0.099330 -0.099330 -0.990084
vn -0.576901 0.576901 -0.578247
vn -0.779146 -0.073904 -0.622471
vn -0.695574 0.695573 0.179874
vn -0.198661 0.198661 -0.959723
vn 0.332248 -0.222001 -0.916694
vn 0.222000 -0.332248 0.916694
vn 0.118310 -0.177064 -0.977062
vn -0.244616 -0.366096 -0.897851
vn 0.000000 0.000000 -1.000000
vn -0.455027 -0.304038 0.836966
vn -0.582208 -0.389017 -0.713933
vn 0.000000 0.000000 -1.000000
vn 0.000000 0.000000 -1.000000
vn -0.160048 0.106941 0.981299
vn 0.000000 0.000000 1.000000
vn 0.000000 0.000000 1.000000
vn 0.303665 -0.202902 0.930923
vn 0.000000 0.000000 1.000000
vn -0.567792 -0.078392 -0.819431
vn -0.805884 0.111274 0.581522
vn -0.455026 0.304040 -0.836965
vn -0.111267 -0.805886 0.581522
vn -0.389016 -0.582208 0.713933
vn 0.128795 -0.932814 -0.336556
vn 0.494962 0.740764 -0.454182
vn 0.582207 0.389018 0.713933
vn 0.224356 0.149909 -0.962908
vn -0.202902 0.303664 -0.930923
vn 0.000000 0.000000 -1.000000
vn 0.000000 0.000000 -1.000000
vn 0.000000 0.000000 -1.000000
vn 0.000000 0.000000 -1.000000
vn 0.028778 0.208430 0.977614
vn 0.494962 0.740764 0.454182
vn -0.093287 0.675639 -0.731307
vn -0.538357 0.805707 0.247000
vn 0.567792 -0.078396 0.819431
vn 0.805885 0.111269 -0.581522
vn 0.000000 0.000000 1.000000
vn 0.000000 0.000000 1.000000
vn 0.000000 0.000000 1.000000
vn 0.000000 0.000000 1.000000
vn 0.000000 0.000000 1.000000
vn 0.000000 0.000000 1.000000
vn 0.000000 0.000000 1.000000
vn 0.000000 0.000000 1.000000
vn 0.000000 0.000000 1.000000
vn 0.000000 0.000000 1.000000
vn 0.000000 0.000000 -1.000000
vn 0.000000 0.000000 -1.000000
vn 0.000000 0.000000 -1.000000
vn 0.000000 0.000000 -1.000000
vn 0.000000 0.000000 -1.000000
vn 0.000000 0.000000 -1.000000
vn 0.000000 0.000000 -1.000000
vn 0.000000 0.000000 -1.000000
vn 0.000000 0.000000 -1.000000
vn 0.000000 0.000000 -1.000000
vn 0.000000 0.000000 -1.000000
vn 0.000000 0.000000 1.000000
vn 0.000000 0.000000 1.000000
vn 0.000000 0.000000 1.000000
vn 0.000000 0.000000 1.000000
vn 0.000000 0.000000 1.000000
vn 0.000000 0.000000 1.000000
vn 0.000000 0.000000 1.000000
vn 0.000000 0.000000 1.000000
vn 0.000000 0.000000 -1.000000
vn 0.000000 0.000000 -1.000000
vn 0.000000 0.000000 -1.000000
vn 0.000000 0.000000 -1.000000
vn 0.000000 0.000000 -1.000000
vn 0.000000 0.000000 1.000000
vn 0.000000 0.000000 1.000000
vn 0.000000 0.000000 1.000000
vn 0.000000 0.000000 1.000000
vn 0.000000 0.000000 1.000000
vn 0.000000 0.000000 1.000000
vn 0.000000 0.000000 1.000000
vn 0.000000 0.000000 1.000000
vn 0.000000 0.000000 1.000000
vn 0.000000 0.000000 1.000000
vn 0.000000 0.000000 1.000000
vn 0.000000 0.000000 1.000000
vn 0.000000 0.000000 -1.000000
vn 0.000000 0.000000 -1.000000
vn 0.000000 0.000000 -1.000000
vn 0.000000 0.000000 -1.000000
vn 0.000000 0.000000 -1.000000
vn 0.000000 0.000000 -1.000000
vn 0.000000 0.000000 -1.000000
vn 0.000000 0.000000 -1.000000
vn 0.000000 0.000000 -1.000000
vn 0.000000 0.000000 -1.000000
vt 0.241622 0.510735
vt 0.262199 0.510897
vt 0.286090 0.562227
vt 0.489608 0.005306
vt 0.412377 0.408469
vt 0.393727 0.416523
vt 0.489280 0.541730
vt 0.476932 0.554704
vt 0.467015 0.487651
vt 0.355586 0.650679
vt 0.322106 0.581599
vt 0.355325 0.581474
vt 0.355122 0.527739
vt 0.321971 0.545776
vt 0.321904 0.527865
vt 0.355189 0.545651
vt 0.322039 0.563688
vt 0.321971 0.545776
vt 0.322039 0.563688
vt 0.355325 0.581474
vt 0.322106 0.581599
vt 0.322571 0.704539
vt 0.355721 0.686502
vt 0.355789 0.704413
vt 0.322503 0.686627
vt 0.355654 0.668590
vt 0.355721 0.686502
vt 0.322435 0.668716
vt 0.355586 0.650679
vt 0.355654 0.668590
vt 0.359014 0.718922
vt 0.466215 0.740939
vt 0.359014 0.740939
vt 0.524386 0.718922
vt 0.496445 0.740938
vt 0.496445 0.718922
vt 0.359014 0.740939
vt 0.465644 0.774585
vt 0.465073 0.808231
vt 0.597839 0.740938
vt 0.554889 0.718922
vt 0.597839 0.718922
vt 0.422129 0.652351
vt 0.465644 0.685276
vt 0.466215 0.718922
vt 0.554889 0.740938
vt 0.539637 0.718922
vt 0.554889 0.718922
vt 0.539637 0.740938
vt 0.524386 0.718922
vt 0.539637 0.718922
vt 0.496445 0.740938
vt 0.481330 0.718922
vt 0.496445 0.718922
vt 0.481330 0.740938
vt 0.466215 0.718922
vt 0.481330 0.718922
vt 0.387036 0.496738
vt 0.390568 0.561476
vt 0.373158 0.557269
vt 0.373158 0.557269
vt 0.360184 0.544921
vt 0.387036 0.496738
vt 0.355122 0.527739
vt 0.387036 0.496738
vt 0.360184 0.544921
vt 0.459751 0.559766
vt 0.387036 0.496738
vt 0.413904 0.510586
vt 0.467015 0.487651
vt 0.493487 0.524320
vt 0.489280 0.541730
vt 0.467015 0.487651
vt 0.476932 0.554704
vt 0.459751 0.559766
vt 0.286090 0.562227
vt 0.289409 0.496661
vt 0.303742 0.557895
vt 0.303742 0.557895
vt 0.289409 0.496661
vt 0.316852 0.545313
vt 0.213057 0.493957
vt 0.216178 0.560147
vt 0.199008 0.555032
vt 0.186683 0.541999
vt 0.182530 0.524541
vt 0.213057 0.493957
vt 0.199008 0.555032
vt 0.186683 0.541999
vt 0.213057 0.493957
vt 0.289409 0.496661
vt 0.321904 0.527865
vt 0.316852 0.545313
vt 0.466215 0.718922
vt 0.465644 0.685276
vt 0.480205 0.713200
vt 0.480205 0.713200
vt 0.465644 0.685276
vt 0.485803 0.699160
vt 0.485803 0.699160
vt 0.465644 0.685276
vt 0.485331 0.671223
vt 0.479258 0.657233
vt 0.465644 0.685276
vt 0.465073 0.651630
vt 0.485331 0.671223
vt 0.465644 0.685276
vt 0.479258 0.657233
vt 0.465073 0.808231
vt 0.465644 0.774585
vt 0.479258 0.802628
vt 0.485803 0.760701
vt 0.465644 0.774585
vt 0.480205 0.746661
vt 0.480205 0.746661
vt 0.465644 0.774585
vt 0.466215 0.740939
vt 0.479258 0.802628
vt 0.465644 0.774585
vt 0.485331 0.788638
vt 0.485331 0.788638
vt 0.465644 0.774585
vt 0.485803 0.760701
vt 0.353162 0.008700
vt 0.320336 0.112629
vt 0.319944 0.008825
vt 0.489608 0.005306
vt 0.353554 0.112504
vt 0.351243 0.008725
vt 0.353554 0.112504
vt 0.321904 0.527865
vt 0.320336 0.112629
vt 0.015007 0.718923
vt 0.359014 0.740939
vt 0.015007 0.740939
vt 0.182530 0.004687
vt 0.263125 0.406809
vt 0.242722 0.406644
vt 0.320336 0.112629
vt 0.182530 0.004687
vt 0.322372 0.007743
vt 0.069176 0.510735
vt 0.089753 0.510897
vt 0.113644 0.562227
vt 0.317162 0.005306
vt 0.239931 0.408469
vt 0.221281 0.416523
vt 0.316834 0.541730
vt 0.304486 0.554704
vt 0.294569 0.487651
vt 0.183140 0.650679
vt 0.149661 0.581599
vt 0.182879 0.581474
vt 0.182676 0.527740
vt 0.149525 0.545776
vt 0.149458 0.527865
vt 0.182744 0.545651
vt 0.149593 0.563688
vt 0.149525 0.545776
vt 0.149593 0.563688
vt 0.182879 0.581474
vt 0.149661 0.581599
vt 0.150125 0.704539
vt 0.183276 0.686502
vt 0.183343 0.704413
vt 0.150057 0.686627
vt 0.183208 0.668590
vt 0.183276 0.686502
vt 0.149990 0.668716
vt 0.183140 0.650679
vt 0.183208 0.668590
vt 0.358473 0.718923
vt 0.465674 0.740939
vt 0.358473 0.740939
vt 0.523845 0.718922
vt 0.495904 0.740938
vt 0.495904 0.718922
vt 0.358473 0.740939
vt 0.465103 0.774585
vt 0.464532 0.808231
vt 0.597298 0.740938
vt 0.554348 0.718922
vt 0.597298 0.718922
vt 0.421588 0.652351
vt 0.465103 0.685276
vt 0.465674 0.718922
vt 0.554348 0.740938
vt 0.539097 0.718922
vt 0.554348 0.718922
vt 0.539097 0.740938
vt 0.523845 0.718922
vt 0.539097 0.718922
vt 0.495904 0.740938
vt 0.480789 0.718922
vt 0.495904 0.718922
vt 0.480790 0.740939
vt 0.465674 0.718922
vt 0.480789 0.718922
vt 0.214590 0.496738
vt 0.218122 0.561476
vt 0.200712 0.557269
vt 0.200712 0.557269
vt 0.187738 0.544921
vt 0.214590 0.496738
vt 0.182676 0.527740
vt 0.214590 0.496738
vt 0.187738 0.544921
vt 0.287305 0.559766
vt 0.214590 0.496738
vt 0.241458 0.510587
vt 0.294569 0.487651
vt 0.321041 0.524320
vt 0.316834 0.541730
vt 0.294569 0.487651
vt 0.304486 0.554704
vt 0.287305 0.559766
vt 0.113644 0.562227
vt 0.116963 0.496661
vt 0.131296 0.557895
vt 0.131296 0.557895
vt 0.116963 0.496661
vt 0.144407 0.545313
vt 0.040612 0.493957
vt 0.043732 0.560147
vt 0.026563 0.555032
vt 0.014238 0.541999
vt 0.010084 0.524541
vt 0.040612 0.493957
vt 0.026563 0.555032
vt 0.014238 0.541999
vt 0.040612 0.493957
vt 0.116963 0.496661
vt 0.149458 0.527865
vt 0.144407 0.545313
vt 0.465674 0.718922
vt 0.465103 0.685276
vt 0.479664 0.713200
vt 0.479664 0.713200
vt 0.465103 0.685276
vt 0.485262 0.699160
vt 0.485262 0.699160
vt 0.465103 0.685276
vt 0.484790 0.671223
vt 0.478717 0.657233
vt 0.465103 0.685276
vt 0.464532 0.651630
vt 0.484790 0.671223
vt 0.465103 0.685276
vt 0.478717 0.657233
vt 0.464532 0.808231
vt 0.465103 0.774585
vt 0.478718 0.802628
vt 0.485262 0.760701
vt 0.465103 0.774585
vt 0.479664 0.746661
vt 0.479664 0.746661
vt 0.465103 0.774585
vt 0.465674 0.740939
vt 0.478718 0.802628
vt 0.465103 0.774585
vt 0.484790 0.788638
vt 0.484790 0.788638
vt 0.465103 0.774585
vt 0.485262 0.760701
vt 0.180716 0.008700
vt 0.147890 0.112629
vt 0.147498 0.008825
vt 0.317162 0.005306
vt 0.181108 0.112504
vt 0.178797 0.008725
vt 0.181108 0.112504
vt 0.149458 0.527865
vt 0.147890 0.112629
vt 0.014467 0.718923
vt 0.358473 0.740939
vt 0.014467 0.740940
vt 0.010084 0.004687
vt 0.090679 0.406809
vt 0.070276 0.406644
vt 0.147890 0.112629
vt 0.010084 0.004687
vt 0.149926 0.007743
vt 0.041319 0.640085
vt 0.048123 0.567897
vt 0.048068 0.640090
vt 0.091856 0.640067
vt 0.088455 0.567875
vt 0.095205 0.567872
vt 0.091856 0.640067
vt 0.081814 0.640078
vt 0.088455 0.567875
vt 0.041319 0.640085
vt 0.034570 0.640080
vt 0.041374 0.567892
vt 0.081814 0.640078
vt 0.081706 0.567885
vt 0.088455 0.567875
vt 0.034570 0.640080
vt 0.031332 0.567879
vt 0.041374 0.567892
vt 0.081814 0.640078
vt 0.074957 0.567895
vt 0.081706 0.567885
vt 0.034570 0.640080
vt 0.024528 0.640068
vt 0.031332 0.567879
vt 0.024528 0.640068
vt 0.021290 0.567867
vt 0.031332 0.567879
vt 0.068316 0.640098
vt 0.074957 0.567895
vt 0.075065 0.640088
vt 0.024528 0.640068
vt 0.017778 0.640055
vt 0.021290 0.567867
vt 0.112104 0.640045
vt 0.105247 0.567862
vt 0.111996 0.567852
vt 0.068316 0.640098
vt 0.061567 0.640100
vt 0.064915 0.567905
vt 0.112104 0.640045
vt 0.105355 0.640055
vt 0.105247 0.567862
vt 0.017778 0.640055
vt 0.011247 0.567842
vt 0.021290 0.567867
vt 0.061567 0.640100
vt 0.054872 0.567902
vt 0.064915 0.567905
vt 0.061567 0.640100
vt 0.054817 0.640095
vt 0.054872 0.567902
vt 0.098605 0.640065
vt 0.105247 0.567862
vt 0.105355 0.640055
vt 0.112104 0.640045
vt 0.118745 0.567842
vt 0.118853 0.640035
vt 0.048068 0.640090
vt 0.054872 0.567902
vt 0.054817 0.640095
vt 0.098605 0.640065
vt 0.091856 0.640067
vt 0.095205 0.567872
vt 0.203386 0.653880
vt 0.252675 0.674297
vt 0.216271 0.718655
vt 0.247843 0.705742
vt 0.199276 0.710525
vt 0.199276 0.657175
vt 0.286090 0.562227
vt 0.216178 0.560147
vt 0.213057 0.493957
vt 0.286090 0.562227
vt 0.213057 0.493957
vt 0.241622 0.510735
vt 0.262199 0.510897
vt 0.289409 0.496661
vt 0.286090 0.562227
vt 0.375498 0.480017
vt 0.387036 0.496738
vt 0.355122 0.527739
vt 0.493487 0.524320
vt 0.467015 0.487651
vt 0.474507 0.468769
vt 0.493487 0.524320
vt 0.474507 0.468769
vt 0.471095 0.438735
vt 0.371238 0.460154
vt 0.375498 0.480017
vt 0.355122 0.527739
vt 0.371238 0.460154
vt 0.355122 0.527739
vt 0.353554 0.112504
vt 0.489608 0.005306
vt 0.493487 0.524320
vt 0.471095 0.438735
vt 0.489608 0.005306
vt 0.471095 0.438735
vt 0.459557 0.422014
vt 0.371238 0.460154
vt 0.353554 0.112504
vt 0.489608 0.005306
vt 0.379579 0.431101
vt 0.371238 0.460154
vt 0.489608 0.005306
vt 0.489608 0.005306
vt 0.459557 0.422014
vt 0.432689 0.408165
vt 0.489608 0.005306
vt 0.432689 0.408165
vt 0.412377 0.408469
vt 0.393727 0.416523
vt 0.379579 0.431101
vt 0.489608 0.005306
vt 0.355586 0.650679
vt 0.322368 0.650804
vt 0.322106 0.581599
vt 0.355122 0.527739
vt 0.355189 0.545651
vt 0.321971 0.545776
vt 0.355189 0.545651
vt 0.355257 0.563563
vt 0.322039 0.563688
vt 0.322039 0.563688
vt 0.355257 0.563563
vt 0.355325 0.581474
vt 0.322571 0.704539
vt 0.322503 0.686627
vt 0.355721 0.686502
vt 0.322503 0.686627
vt 0.322435 0.668716
vt 0.355654 0.668590
vt 0.322435 0.668716
vt 0.322368 0.650804
vt 0.355586 0.650679
vt 0.359014 0.718922
vt 0.466215 0.718922
vt 0.466215 0.740939
vt 0.524386 0.718922
vt 0.524386 0.740938
vt 0.496445 0.740938
vt 0.465073 0.808231
vt 0.422129 0.807510
vt 0.359014 0.740939
vt 0.359014 0.740939
vt 0.466215 0.740939
vt 0.465644 0.774585
vt 0.597839 0.740938
vt 0.554889 0.740938
vt 0.554889 0.718922
vt 0.466215 0.718922
vt 0.359014 0.718922
vt 0.422129 0.652351
vt 0.422129 0.652351
vt 0.465073 0.651630
vt 0.465644 0.685276
vt 0.554889 0.740938
vt 0.539637 0.740938
vt 0.539637 0.718922
vt 0.539637 0.740938
vt 0.524386 0.740938
vt 0.524386 0.718922
vt 0.496445 0.740938
vt 0.481330 0.740938
vt 0.481330 0.718922
vt 0.481330 0.740938
vt 0.466215 0.740939
vt 0.466215 0.718922
vt 0.443938 0.507174
vt 0.467015 0.487651
vt 0.459751 0.559766
vt 0.459751 0.559766
vt 0.390568 0.561476
vt 0.387036 0.496738
vt 0.413904 0.510586
vt 0.443938 0.507174
vt 0.459751 0.559766
vt 0.353162 0.008700
vt 0.353554 0.112504
vt 0.320336 0.112629
vt 0.353554 0.112504
vt 0.355122 0.527739
vt 0.321904 0.527865
vt 0.015007 0.718923
vt 0.359014 0.718922
vt 0.359014 0.740939
vt 0.203707 0.479271
vt 0.213057 0.493957
vt 0.182530 0.524541
vt 0.321904 0.527865
vt 0.289409 0.496661
vt 0.301010 0.479645
vt 0.321904 0.527865
vt 0.301010 0.479645
vt 0.305221 0.459500
vt 0.199888 0.459461
vt 0.203707 0.479271
vt 0.182530 0.524541
vt 0.204282 0.437423
vt 0.199888 0.459461
vt 0.182530 0.524541
vt 0.320336 0.112629
vt 0.321904 0.527865
vt 0.305221 0.459500
vt 0.320336 0.112629
vt 0.305221 0.459500
vt 0.300863 0.438172
vt 0.204282 0.437423
vt 0.182530 0.524541
vt 0.182530 0.004687
vt 0.223782 0.414267
vt 0.204282 0.437423
vt 0.182530 0.004687
vt 0.182530 0.004687
vt 0.320336 0.112629
vt 0.300863 0.438172
vt 0.182530 0.004687
vt 0.300863 0.438172
vt 0.289721 0.421211
vt 0.242722 0.406644
vt 0.223782 0.414267
vt 0.182530 0.004687
vt 0.182530 0.004687
vt 0.289721 0.421211
vt 0.263125 0.406809
vt 0.113644 0.562227
vt 0.043732 0.560147
vt 0.040612 0.493957
vt 0.113644 0.562227
vt 0.040612 0.493957
vt 0.069176 0.510735
vt 0.089753 0.510897
vt 0.116963 0.496661
vt 0.113644 0.562227
vt 0.203053 0.480017
vt 0.214590 0.496738
vt 0.182676 0.527740
vt 0.321041 0.524320
vt 0.294569 0.487651
vt 0.302061 0.468769
vt 0.321041 0.524320
vt 0.302061 0.468769
vt 0.298649 0.438735
vt 0.198792 0.460154
vt 0.203053 0.480017
vt 0.182676 0.527740
vt 0.198792 0.460154
vt 0.182676 0.527740
vt 0.181108 0.112504
vt 0.317162 0.005306
vt 0.321041 0.524320
vt 0.298649 0.438735
vt 0.317162 0.005306
vt 0.298649 0.438735
vt 0.287111 0.422014
vt 0.198792 0.460154
vt 0.181108 0.112504
vt 0.317162 0.005306
vt 0.207133 0.431101
vt 0.198792 0.460154
vt 0.317162 0.005306
vt 0.317162 0.005306
vt 0.287111 0.422014
vt 0.260243 0.408165
vt 0.317162 0.005306
vt 0.260243 0.408165
vt 0.239931 0.408469
vt 0.221281 0.416523
vt 0.207133 0.431101
vt 0.317162 0.005306
vt 0.183140 0.650679
vt 0.149922 0.650804
vt 0.149661 0.581599
vt 0.182676 0.527740
vt 0.182744 0.545651
vt 0.149525 0.545776
vt 0.182744 0.545651
vt 0.182811 0.563562
vt 0.149593 0.563688
vt 0.149593 0.563688
vt 0.182811 0.563562
vt 0.182879 0.581474
vt 0.150125 0.704539
vt 0.150057 0.686627
vt 0.183276 0.686502
vt 0.150057 0.686627
vt 0.149990 0.668716
vt 0.183208 0.668590
vt 0.149990 0.668716
vt 0.149922 0.650804
vt 0.183140 0.650679
vt 0.358473 0.718923
vt 0.465674 0.718922
vt 0.465674 0.740939
vt 0.523845 0.718922
vt 0.523845 0.740938
vt 0.495904 0.740938
vt 0.464532 0.808231
vt 0.421588 0.807510
vt 0.358473 0.740939
vt 0.358473 0.740939
vt 0.465674 0.740939
vt 0.465103 0.774585
vt 0.597298 0.740938
vt 0.554348 0.740938
vt 0.554348 0.718922
vt 0.465674 0.718922
vt 0.358473 0.718923
vt 0.421588 0.652351
vt 0.421588 0.652351
vt 0.464532 0.651630
vt 0.465103 0.685276
vt 0.554348 0.740938
vt 0.539097 0.740938
vt 0.539097 0.718922
vt 0.539097 0.740938
vt 0.523845 0.740938
vt 0.523845 0.718922
vt 0.495904 0.740938
vt 0.480790 0.740939
vt 0.480789 0.718922
vt 0.480790 0.740939
vt 0.465674 0.740939
vt 0.465674 0.718922
vt 0.271492 0.507174
vt 0.294569 0.487651
vt 0.287305 0.559766
vt 0.287305 0.559766
vt 0.218122 0.561476
vt 0.214590 0.496738
vt 0.241458 0.510587
vt 0.271492 0.507174
vt 0.287305 0.559766
vt 0.180716 0.008700
vt 0.181108 0.112504
vt 0.147890 0.112629
vt 0.181108 0.112504
vt 0.182676 0.527740
vt 0.149458 0.527865
vt 0.014467 0.718923
vt 0.358473 0.718923
vt 0.358473 0.740939
vt 0.031261 0.479271
vt 0.040612 0.493957
vt 0.010084 0.524541
vt 0.149458 0.527865
vt 0.116963 0.496661
vt 0.128564 0.479645
vt 0.149458 0.527865
vt 0.128564 0.479645
vt 0.132775 0.459500
vt 0.027442 0.459461
vt 0.031261 0.479271
vt 0.010084 0.524541
vt 0.031836 0.437423
vt 0.027442 0.459461
vt 0.010084 0.524541
vt 0.147890 0.112629
vt 0.149458 0.527865
vt 0.132775 0.459500
vt 0.147890 0.112629
vt 0.132775 0.459500
vt 0.128417 0.438171
vt 0.031836 0.437423
vt 0.010084 0.524541
vt 0.010084 0.004687
vt 0.051336 0.414267
vt 0.031836 0.437423
vt 0.010084 0.004687
vt 0.010084 0.004687
vt 0.147890 0.112629
vt 0.128417 0.438171
vt 0.010084 0.004687
vt 0.128417 0.438171
vt 0.117276 0.421211
vt 0.070276 0.406644
vt 0.051336 0.414267
vt 0.010084 0.004687
vt 0.010084 0.004687
vt 0.117276 0.421211
vt 0.090679 0.406809
vt 0.041319 0.640085
vt 0.041374 0.567892
vt 0.048123 0.567897
vt 0.081814 0.640078
vt 0.075065 0.640088
vt 0.074957 0.567895
vt 0.068316 0.640098
vt 0.064915 0.567905
vt 0.074957 0.567895
vt 0.017778 0.640055
vt 0.011029 0.640034
vt 0.011247 0.567842
vt 0.098605 0.640065
vt 0.095205 0.567872
vt 0.105247 0.567862
vt 0.112104 0.640045
vt 0.111996 0.567852
vt 0.118745 0.567842
vt 0.048068 0.640090
vt 0.048123 0.567897
vt 0.054872 0.567902
vt 0.186631 0.674296
vt 0.192978 0.662422
vt 0.203386 0.653880
vt 0.203386 0.653880
vt 0.223036 0.649972
vt 0.235920 0.653880
vt 0.235920 0.653880
vt 0.246328 0.662422
vt 0.252675 0.674297
vt 0.252675 0.674297
vt 0.252675 0.694331
vt 0.241545 0.710989
vt 0.241545 0.710989
vt 0.229670 0.717336
vt 0.216271 0.718655
vt 0.216271 0.718655
vt 0.197762 0.710989
vt 0.186631 0.694331
vt 0.186631 0.694331
vt 0.186631 0.674296
vt 0.203386 0.653880
vt 0.203386 0.653880
vt 0.235920 0.653880
vt 0.252675 0.674297
vt 0.252675 0.674297
vt 0.241545 0.710989
vt 0.216271 0.718655
vt 0.216271 0.718655
vt 0.186631 0.694331
vt 0.203386 0.653880
vt 0.211151 0.650828
vt 0.224551 0.649509
vt 0.237435 0.653417
vt 0.237435 0.653417
vt 0.247843 0.661959
vt 0.254190 0.673833
vt 0.254190 0.673833
vt 0.254190 0.693868
vt 0.247843 0.705742
vt 0.247843 0.705742
vt 0.237435 0.714284
vt 0.224550 0.718192
vt 0.224550 0.718192
vt 0.211151 0.716872
vt 0.199276 0.710525
vt 0.199276 0.710525
vt 0.190735 0.700117
vt 0.186826 0.687233
vt 0.186826 0.687233
vt 0.190735 0.667583
vt 0.199276 0.657175
vt 0.199276 0.657175
vt 0.211151 0.650828
vt 0.237435 0.653417
vt 0.237435 0.653417
vt 0.254190 0.673833
vt 0.247843 0.705742
vt 0.247843 0.705742
vt 0.224550 0.718192
vt 0.199276 0.710525
vt 0.199276 0.710525
vt 0.186826 0.687233
vt 0.199276 0.657175
vt 0.199276 0.657175
vt 0.237435 0.653417
vt 0.247843 0.705742
vt 0.566835 0.188397
vt 0.972358 0.174418
vt 0.972430 0.185814
vt 0.565584 0.122015
vt 0.971579 0.102075
vt 0.971813 0.122275
vt 0.565029 0.100217
vt 0.971543 0.080541
vt 0.971579 0.102075
vt 0.566762 0.177004
vt 0.972183 0.152884
vt 0.972358 0.174418
vt 0.566458 0.155205
vt 0.971945 0.132683
vt 0.972183 0.152884
vt 0.971603 0.069150
vt 0.565316 0.045226
vt 0.971864 0.047617
vt 0.971864 0.047617
vt 0.566100 0.023436
vt 0.972308 0.027420
vt 0.972549 0.227551
vt 0.566808 0.210198
vt 0.972530 0.207349
vt 0.972530 0.207349
vt 0.566835 0.188397
vt 0.972430 0.185814
vt 0.565899 0.133407
vt 0.971813 0.122275
vt 0.971945 0.132683
vt 0.566533 0.012048
vt 0.972308 0.027420
vt 0.566100 0.023436
vt 0.564916 0.067024
vt 0.971543 0.080541
vt 0.564857 0.078417
vt 0.566835 0.188397
vt 0.566762 0.177004
vt 0.972358 0.174418
vt 0.565584 0.122015
vt 0.565029 0.100217
vt 0.971579 0.102075
vt 0.565029 0.100217
vt 0.564857 0.078417
vt 0.971543 0.080541
vt 0.566762 0.177004
vt 0.566458 0.155205
vt 0.972183 0.152884
vt 0.566458 0.155205
vt 0.565899 0.133407
vt 0.971945 0.132683
vt 0.971603 0.069150
vt 0.564916 0.067024
vt 0.565316 0.045226
vt 0.971864 0.047617
vt 0.565316 0.045226
vt 0.566100 0.023436
vt 0.972549 0.227551
vt 0.566527 0.232001
vt 0.566808 0.210198
vt 0.972530 0.207349
vt 0.566808 0.210198
vt 0.566835 0.188397
vt 0.565899 0.133407
vt 0.565584 0.122015
vt 0.971813 0.122275
vt 0.566533 0.012048
vt 0.972549 0.017014
vt 0.972308 0.027420
vt 0.564916 0.067024
vt 0.971603 0.069150
vt 0.971543 0.080541
vt 0.232807 0.594563
vt 0.240762 0.603562
vt 0.232461 0.601632
vt 0.198973 0.580562
vt 0.209438 0.566528
vt 0.210555 0.575731
vt 0.197826 0.612659
vt 0.207263 0.627403
vt 0.191235 0.619333
vt 0.217574 0.576043
vt 0.210243 0.566457
vt 0.219474 0.566967
vt 0.057949 0.714444
vt 0.046703 0.646475
vt 0.058043 0.646457
vt 0.029269 0.714404
vt 0.040703 0.646467
vt 0.040609 0.714454
vt 0.018631 0.714308
vt 0.029363 0.646417
vt 0.029269 0.714404
vt 0.068587 0.714377
vt 0.058043 0.646457
vt 0.068682 0.646391
vt 0.096047 0.714255
vt 0.102141 0.646276
vt 0.102047 0.714263
vt 0.084706 0.714272
vt 0.074163 0.646352
vt 0.084801 0.646286
vt 0.013150 0.714255
vt 0.018725 0.646321
vt 0.018631 0.714308
vt 0.102047 0.714263
vt 0.113481 0.646325
vt 0.113387 0.714312
vt 0.096047 0.714255
vt 0.084801 0.646286
vt 0.096141 0.646268
vt 0.074068 0.714339
vt 0.068682 0.646391
vt 0.074163 0.646352
vt 0.040609 0.714454
vt 0.046703 0.646475
vt 0.046609 0.714462
vt 0.113387 0.714312
vt 0.124119 0.646422
vt 0.124025 0.714408
vt 0.228709 0.581829
vt 0.241256 0.593453
vt 0.232807 0.594563
vt 0.228709 0.581829
vt 0.219474 0.566967
vt 0.235398 0.575242
vt 0.227141 0.613906
vt 0.216500 0.627796
vt 0.215494 0.618578
vt 0.197826 0.612659
vt 0.185140 0.601200
vt 0.193564 0.599979
vt 0.193817 0.592905
vt 0.185140 0.601200
vt 0.185502 0.591086
vt 0.198973 0.580562
vt 0.185502 0.591086
vt 0.192875 0.573434
vt 0.215494 0.618578
vt 0.207263 0.627403
vt 0.209034 0.618303
vt 0.227141 0.613906
vt 0.240762 0.603562
vt 0.233155 0.621113
vt 0.232807 0.594563
vt 0.241256 0.593453
vt 0.240762 0.603562
vt 0.198973 0.580562
vt 0.192875 0.573434
vt 0.209438 0.566528
vt 0.197826 0.612659
vt 0.209034 0.618303
vt 0.207263 0.627403
vt 0.217574 0.576043
vt 0.211118 0.575686
vt 0.210243 0.566457
vt 0.057949 0.714444
vt 0.046609 0.714462
vt 0.046703 0.646475
vt 0.029269 0.714404
vt 0.029363 0.646417
vt 0.040703 0.646467
vt 0.018631 0.714308
vt 0.018725 0.646321
vt 0.029363 0.646417
vt 0.068587 0.714377
vt 0.057949 0.714444
vt 0.058043 0.646457
vt 0.096047 0.714255
vt 0.096141 0.646268
vt 0.102141 0.646276
vt 0.084706 0.714272
vt 0.074068 0.714339
vt 0.074163 0.646352
vt 0.013150 0.714255
vt 0.013244 0.646268
vt 0.018725 0.646321
vt 0.102047 0.714263
vt 0.102141 0.646276
vt 0.113481 0.646325
vt 0.096047 0.714255
vt 0.084706 0.714272
vt 0.084801 0.646286
vt 0.074068 0.714339
vt 0.068587 0.714377
vt 0.068682 0.646391
vt 0.040609 0.714454
vt 0.040703 0.646467
vt 0.046703 0.646475
vt 0.113387 0.714312
vt 0.113481 0.646325
vt 0.124119 0.646422
vt 0.228709 0.581829
vt 0.235398 0.575242
vt 0.241256 0.593453
vt 0.228709 0.581829
vt 0.217574 0.576043
vt 0.219474 0.566967
vt 0.227141 0.613906
vt 0.233155 0.621113
vt 0.216500 0.627796
vt 0.197826 0.612659
vt 0.191235 0.619333
vt 0.185140 0.601200
vt 0.193817 0.592905
vt 0.193564 0.599979
vt 0.185140 0.601200
vt 0.198973 0.580562
vt 0.193817 0.592905
vt 0.185502 0.591086
vt 0.215494 0.618578
vt 0.216500 0.627796
vt 0.207263 0.627403
vt 0.227141 0.613906
vt 0.232461 0.601632
vt 0.240762 0.603562
vt 0.210617 0.819606
vt 0.118606 0.996451
vt 0.118606 0.819606
vt 0.316598 0.638264
vt 0.295815 0.658845
vt 0.291751 0.641371
vt 0.062210 0.819606
vt 0.006945 0.996451
vt 0.006945 0.819605
vt 0.295815 0.658845
vt 0.267978 0.641369
vt 0.273802 0.643137
vt 0.315475 0.638254
vt 0.285919 0.643221
vt 0.291742 0.641452
vt 0.243029 0.638456
vt 0.243338 0.586724
vt 0.249404 0.606719
vt 0.523274 0.996451
vt 0.495075 0.819605
vt 0.523274 0.819605
vt 0.495075 0.996451
vt 0.466877 0.819605
vt 0.495075 0.819605
vt 0.062210 0.819606
vt 0.090408 0.996451
vt 0.062210 0.996451
vt 0.090408 0.819606
vt 0.118606 0.996451
vt 0.090408 0.996451
vt 0.323961 0.819606
vt 0.261522 0.996451
vt 0.261522 0.819606
vt 0.244234 0.638171
vt 0.244241 0.586658
vt 0.249416 0.606634
vt 0.250272 0.652759
vt 0.262611 0.638499
vt 0.264856 0.658808
vt 0.250272 0.652759
vt 0.254048 0.629934
vt 0.257908 0.634638
vt 0.323961 0.819606
vt 0.349414 0.996451
vt 0.323961 0.996451
vt 0.349414 0.819605
vt 0.374867 0.996451
vt 0.349414 0.996451
vt 0.210617 0.819606
vt 0.236070 0.996451
vt 0.210617 0.996451
vt 0.236069 0.819606
vt 0.261522 0.996451
vt 0.236070 0.996451
vt 0.374867 0.996451
vt 0.466877 0.819605
vt 0.466877 0.996451
vt 0.294873 0.658884
vt 0.267968 0.641461
vt 0.273800 0.643230
vt 0.294873 0.658884
vt 0.285919 0.643221
vt 0.309443 0.652836
vt 0.262585 0.638580
vt 0.263919 0.658955
vt 0.249275 0.653010
vt 0.243029 0.638456
vt 0.253970 0.629908
vt 0.257859 0.634689
vt 0.248790 0.573597
vt 0.267994 0.584120
vt 0.262630 0.586983
vt 0.248790 0.573597
vt 0.257926 0.590834
vt 0.243338 0.586724
vt 0.310013 0.573608
vt 0.308528 0.600913
vt 0.305660 0.595550
vt 0.316413 0.586632
vt 0.310337 0.618753
vt 0.310925 0.612692
vt 0.316413 0.586632
vt 0.291735 0.584013
vt 0.310960 0.573486
vt 0.291735 0.584013
vt 0.297807 0.568042
vt 0.310960 0.573486
vt 0.262615 0.586884
vt 0.249695 0.573494
vt 0.262859 0.568042
vt 0.297807 0.568042
vt 0.273803 0.582250
vt 0.267981 0.584016
vt 0.257911 0.590744
vt 0.249695 0.573494
vt 0.262615 0.586884
vt 0.210617 0.819606
vt 0.210617 0.996451
vt 0.118606 0.996451
vt 0.297127 0.638494
vt 0.301533 0.634870
vt 0.316598 0.638264
vt 0.316598 0.638264
vt 0.310444 0.652850
vt 0.295815 0.658845
vt 0.295815 0.658845
vt 0.285921 0.643141
vt 0.291751 0.641371
vt 0.291751 0.641371
vt 0.297127 0.638494
vt 0.316598 0.638264
vt 0.062210 0.819606
vt 0.062210 0.996451
vt 0.006945 0.996451
vt 0.279861 0.643735
vt 0.285921 0.643141
vt 0.295815 0.658845
vt 0.295815 0.658845
vt 0.264856 0.658808
vt 0.262611 0.638499
vt 0.295815 0.658845
vt 0.262611 0.638499
vt 0.267978 0.641369
vt 0.273802 0.643137
vt 0.279861 0.643735
vt 0.295815 0.658845
vt 0.297106 0.638584
vt 0.301808 0.634724
vt 0.315475 0.638254
vt 0.315475 0.638254
vt 0.309443 0.652836
vt 0.285919 0.643221
vt 0.291742 0.641452
vt 0.297106 0.638584
vt 0.315475 0.638254
vt 0.250949 0.624158
vt 0.251132 0.624484
vt 0.243029 0.638456
vt 0.243338 0.586724
vt 0.257926 0.590834
vt 0.254062 0.595528
vt 0.243338 0.586724
vt 0.254062 0.595528
vt 0.251184 0.600892
vt 0.249389 0.618838
vt 0.250949 0.624158
vt 0.243029 0.638456
vt 0.248796 0.612795
vt 0.249389 0.618838
vt 0.243029 0.638456
vt 0.243338 0.586724
vt 0.251184 0.600892
vt 0.249404 0.606719
vt 0.249404 0.606719
vt 0.248796 0.612795
vt 0.243029 0.638456
vt 0.523274 0.996451
vt 0.495075 0.996451
vt 0.495075 0.819605
vt 0.495075 0.996451
vt 0.466877 0.996451
vt 0.466877 0.819605
vt 0.062210 0.819606
vt 0.090408 0.819606
vt 0.090408 0.996451
vt 0.090408 0.819606
vt 0.118606 0.819606
vt 0.118606 0.996451
vt 0.323961 0.819606
vt 0.323961 0.996451
vt 0.261522 0.996451
vt 0.251180 0.624567
vt 0.254048 0.629934
vt 0.244234 0.638171
vt 0.244241 0.586658
vt 0.257911 0.590744
vt 0.254051 0.595447
vt 0.244241 0.586658
vt 0.254051 0.595447
vt 0.251183 0.600812
vt 0.249414 0.618744
vt 0.251180 0.624567
vt 0.244234 0.638171
vt 0.248819 0.612689
vt 0.249414 0.618744
vt 0.244234 0.638171
vt 0.244241 0.586658
vt 0.251183 0.600812
vt 0.249416 0.606634
vt 0.249416 0.606634
vt 0.248819 0.612689
vt 0.244234 0.638171
vt 0.257908 0.634638
vt 0.262611 0.638499
vt 0.250272 0.652759
vt 0.250272 0.652759
vt 0.244234 0.638171
vt 0.254048 0.629934
vt 0.323961 0.819606
vt 0.349414 0.819605
vt 0.349414 0.996451
vt 0.349414 0.819605
vt 0.374867 0.819605
vt 0.374867 0.996451
vt 0.210617 0.819606
vt 0.236069 0.819606
vt 0.236070 0.996451
vt 0.236069 0.819606
vt 0.261522 0.819606
vt 0.261522 0.996451
vt 0.374867 0.996451
vt 0.374867 0.819605
vt 0.466877 0.819605
vt 0.279861 0.643821
vt 0.285919 0.643221
vt 0.294873 0.658884
vt 0.294873 0.658884
vt 0.263919 0.658955
vt 0.262585 0.638580
vt 0.294873 0.658884
vt 0.262585 0.638580
vt 0.267968 0.641461
vt 0.273800 0.643230
vt 0.279861 0.643821
vt 0.294873 0.658884
vt 0.262585 0.638580
vt 0.249275 0.653010
vt 0.243029 0.638456
vt 0.243029 0.638456
vt 0.251132 0.624484
vt 0.253970 0.629908
vt 0.257859 0.634689
vt 0.262585 0.638580
vt 0.243029 0.638456
vt 0.262630 0.586983
vt 0.257926 0.590834
vt 0.248790 0.573597
vt 0.248790 0.573597
vt 0.261929 0.568160
vt 0.267994 0.584120
vt 0.273814 0.582357
vt 0.267994 0.584120
vt 0.261929 0.568160
vt 0.261929 0.568160
vt 0.296856 0.568160
vt 0.310013 0.573608
vt 0.310013 0.573608
vt 0.315465 0.586765
vt 0.315475 0.638254
vt 0.315475 0.638254
vt 0.301808 0.634724
vt 0.305666 0.630021
vt 0.315475 0.638254
vt 0.305666 0.630021
vt 0.308532 0.624657
vt 0.273814 0.582357
vt 0.261929 0.568160
vt 0.310013 0.573608
vt 0.279865 0.581764
vt 0.273814 0.582357
vt 0.310013 0.573608
vt 0.315475 0.638254
vt 0.308532 0.624657
vt 0.310296 0.618837
vt 0.315475 0.638254
vt 0.310296 0.618837
vt 0.310891 0.612784
vt 0.285917 0.582360
vt 0.279865 0.581764
vt 0.310013 0.573608
vt 0.291737 0.584125
vt 0.285917 0.582360
vt 0.310013 0.573608
vt 0.310013 0.573608
vt 0.315475 0.638254
vt 0.310891 0.612784
vt 0.310013 0.573608
vt 0.310891 0.612784
vt 0.310294 0.606732
vt 0.297100 0.586992
vt 0.291737 0.584125
vt 0.310013 0.573608
vt 0.301801 0.590850
vt 0.297100 0.586992
vt 0.310013 0.573608
vt 0.310013 0.573608
vt 0.310294 0.606732
vt 0.308528 0.600913
vt 0.305660 0.595550
vt 0.301801 0.590850
vt 0.310013 0.573608
vt 0.297102 0.586875
vt 0.291735 0.584013
vt 0.316413 0.586632
vt 0.316598 0.638264
vt 0.301533 0.634870
vt 0.301886 0.634594
vt 0.316598 0.638264
vt 0.301886 0.634594
vt 0.305612 0.630063
vt 0.301807 0.590729
vt 0.297102 0.586875
vt 0.316413 0.586632
vt 0.305671 0.595429
vt 0.301807 0.590729
vt 0.316413 0.586632
vt 0.316598 0.638264
vt 0.305612 0.630063
vt 0.308548 0.624621
vt 0.316598 0.638264
vt 0.308548 0.624621
vt 0.310337 0.618753
vt 0.308545 0.600796
vt 0.305671 0.595429
vt 0.316413 0.586632
vt 0.310320 0.606625
vt 0.308545 0.600796
vt 0.316413 0.586632
vt 0.316413 0.586632
vt 0.316598 0.638264
vt 0.310337 0.618753
vt 0.310925 0.612692
vt 0.310320 0.606625
vt 0.316413 0.586632
vt 0.262615 0.586884
vt 0.262859 0.568042
vt 0.297807 0.568042
vt 0.297807 0.568042
vt 0.291735 0.584013
vt 0.285913 0.582248
vt 0.297807 0.568042
vt 0.285913 0.582248
vt 0.279858 0.581653
vt 0.267981 0.584016
vt 0.262615 0.586884
vt 0.297807 0.568042
vt 0.297807 0.568042
vt 0.279858 0.581653
vt 0.273803 0.582250
vt 0.257911 0.590744
vt 0.244241 0.586658
vt 0.249695 0.573494
usemtl Material
f 1/1/1 2/2/2 3/3/3
f 4/4/4 5/5/5 6/6/6
f 7/7/7 8/8/8 9/9/9
f 10/10/10 3/11/3 11/12/11
f 12/13/12 13/14/13 14/15/14
f 15/16/15 16/17/16 13/18/13
f 16/19/16 11/20/11 3/21/3
f 17/22/17 7/23/7 18/24/18
f 19/25/19 8/26/8 7/27/7
f 20/28/20 10/29/10 8/30/8
f 4/31/4 21/32/21 22/33/22
f 23/34/23 24/35/24 25/36/25
f 22/37/22 26/38/26 27/39/27
f 28/40/28 29/41/29 30/42/30
f 30/43/30 31/44/31 32/45/32
f 27/46/27 33/47/33 29/48/29
f 34/49/34 23/50/23 33/51/33
f 24/52/24 35/53/35 25/54/25
f 36/55/36 32/56/32 35/57/35
f 37/58/37 11/59/11 38/60/38
f 38/61/38 15/62/15 37/63/37
f 12/64/12 37/65/37 15/66/15
f 10/67/10 37/68/37 39/69/39
f 9/70/9 18/71/18 7/72/7
f 9/73/9 8/74/8 10/75/10
f 3/76/3 40/77/40 16/78/16
f 16/79/16 40/80/40 13/81/13
f 41/82/41 42/83/42 20/84/20
f 19/85/19 17/86/17 41/87/41
f 20/88/20 19/89/19 41/90/41
f 40/91/40 14/92/14 13/93/13
f 32/94/32 31/95/31 35/96/35
f 35/97/35 31/98/31 25/99/25
f 25/100/25 31/101/31 23/102/23
f 33/103/33 31/104/31 29/105/29
f 23/106/23 31/107/31 33/108/33
f 27/109/27 26/110/26 34/111/34
f 24/112/24 26/113/26 36/114/36
f 36/115/36 26/116/26 21/117/21
f 34/118/34 26/119/26 43/120/43
f 43/121/43 26/122/26 24/123/24
f 30/124/30 44/125/44 28/126/28
f 4/127/4 45/128/45 30/129/30
f 45/130/45 14/131/14 44/132/44
f 18/133/18 22/134/22 17/135/17
f 22/136/22 46/137/46 47/138/47
f 44/139/44 22/140/22 28/141/28
f 48/142/48 49/143/49 50/144/50
f 51/145/51 52/146/52 53/147/53
f 54/148/54 55/149/55 56/150/56
f 57/151/57 50/152/50 58/153/58
f 59/154/59 60/155/60 61/156/61
f 62/157/62 63/158/63 60/159/60
f 63/160/63 58/161/58 50/162/50
f 64/163/64 54/164/54 65/165/65
f 66/166/66 55/167/55 54/168/54
f 67/169/67 57/170/57 55/171/55
f 51/172/51 68/173/68 69/174/69
f 70/175/70 71/176/71 72/177/72
f 69/178/69 73/179/73 74/180/74
f 75/181/75 76/182/76 77/183/77
f 77/184/77 78/185/78 79/186/79
f 74/187/74 80/188/80 76/189/76
f 81/190/81 70/191/70 80/192/80
f 71/193/71 82/194/82 72/195/72
f 83/196/83 79/197/79 82/198/82
f 84/199/84 58/200/58 85/201/85
f 85/202/85 62/203/62 84/204/84
f 59/205/59 84/206/84 62/207/62
f 57/208/57 84/209/84 86/210/86
f 56/211/56 65/212/65 54/213/54
f 56/214/56 55/215/55 57/216/57
f 50/217/50 87/218/87 63/219/63
f 63/220/63 87/221/87 60/222/60
f 88/223/88 89/224/89 67/225/67
f 66/226/66 64/227/64 88/228/88
f 67/229/67 66/230/66 88/231/88
f 87/232/87 61/233/61 60/234/60
f 79/235/79 78/236/78 82/237/82
f 82/238/82 78/239/78 72/240/72
f 72/241/72 78/242/78 70/243/70
f 80/244/80 78/245/78 76/246/76
f 70/247/70 78/248/78 80/249/80
f 74/250/74 73/251/73 81/252/81
f 71/253/71 73/254/73 83/255/83
f 83/256/83 73/257/73 68/258/68
f 81/259/81 73/260/73 90/261/90
f 90/262/90 73/263/73 71/264/71
f 77/265/77 91/266/91 75/267/75
f 51/268/51 92/269/92 77/270/77
f 92/271/92 61/272/61 91/273/91
f 65/274/65 69/275/69 64/276/64
f 69/277/69 93/278/93 94/279/94
f 91/280/91 69/281/69 75/282/75
f 95/283/95 96/284/96 97/285/97
f 98/286/98 99/287/99 100/288/100
f 98/289/98 101/290/101 99/291/99
f 95/292/95 102/293/102 103/294/103
f 101/295/101 104/296/104 99/297/99
f 102/298/102 105/299/105 103/300/103
f 101/301/101 106/302/106 104/303/104
f 102/304/102 107/305/107 105/306/105
f 107/307/107 108/308/108 105/309/105
f 109/310/109 106/311/106 110/312/110
f 107/313/107 111/314/111 108/315/108
f 112/316/112 113/317/113 114/318/114
f 109/319/109 115/320/115 116/321/116
f 112/322/112 117/323/117 113/324/113
f 111/325/111 118/326/118 108/327/108
f 115/328/115 119/329/119 116/330/116
f 115/331/115 120/332/120 119/333/119
f 121/334/121 113/335/113 117/336/117
f 112/337/112 118/338/118 122/339/122
f 97/340/97 119/341/119 120/342/120
f 121/343/121 98/344/98 100/345/100
f 113/346/113 106/347/106 103/348/103
f 95/349/95 109/350/109 121/351/121
f 3/352/3 42/353/42 41/354/41
f 3/355/3 41/356/41 1/357/1
f 2/358/2 40/359/40 3/360/3
f 123/361/123 37/362/37 12/363/12
f 18/364/18 9/365/9 124/366/124
f 18/367/18 124/368/124 125/369/125
f 126/370/126 123/371/123 12/372/12
f 126/373/126 12/374/12 45/375/45
f 4/376/4 18/377/18 125/378/125
f 4/379/4 125/380/125 127/381/127
f 126/382/126 45/383/45 4/384/4
f 128/385/128 126/386/126 4/387/4
f 4/388/4 127/389/127 129/390/129
f 4/391/4 129/392/129 5/393/5
f 6/394/6 128/395/128 4/396/4
f 10/397/10 42/398/42 3/399/3
f 12/400/12 15/401/15 13/402/13
f 15/403/15 38/404/38 16/405/16
f 16/406/16 38/407/38 11/408/11
f 17/409/17 19/410/19 7/411/7
f 19/412/19 20/413/20 8/414/8
f 20/415/20 42/416/42 10/417/10
f 4/418/4 32/419/32 21/420/21
f 23/421/23 43/422/43 24/423/24
f 27/424/27 28/425/28 22/426/22
f 22/427/22 21/428/21 26/429/26
f 28/430/28 27/431/27 29/432/29
f 32/433/32 4/434/4 30/435/30
f 30/436/30 29/437/29 31/438/31
f 27/439/27 34/440/34 33/441/33
f 34/442/34 43/443/43 23/444/23
f 24/445/24 36/446/36 35/447/35
f 36/448/36 21/449/21 32/450/32
f 130/451/130 9/452/9 10/453/10
f 10/454/10 11/455/11 37/456/37
f 39/457/39 130/458/130 10/459/10
f 30/460/30 45/461/45 44/462/44
f 45/463/45 12/464/12 14/465/14
f 18/466/18 4/467/4 22/468/22
f 131/469/131 41/470/41 17/471/17
f 14/472/14 40/473/40 132/474/132
f 14/475/14 132/476/132 133/477/133
f 134/478/134 131/479/131 17/480/17
f 135/481/135 134/482/134 17/483/17
f 44/484/44 14/485/14 133/486/133
f 44/487/44 133/488/133 136/489/136
f 135/490/135 17/491/17 22/492/22
f 137/493/137 135/494/135 22/495/22
f 22/496/22 44/497/44 136/498/136
f 22/499/22 136/500/136 138/501/138
f 47/502/47 137/503/137 22/504/22
f 22/505/22 138/506/138 46/507/46
f 50/508/50 89/509/89 88/510/88
f 50/511/50 88/512/88 48/513/48
f 49/514/49 87/515/87 50/516/50
f 139/517/139 84/518/84 59/519/59
f 65/520/65 56/521/56 140/522/140
f 65/523/65 140/524/140 141/525/141
f 142/526/142 139/527/139 59/528/59
f 142/529/142 59/530/59 92/531/92
f 51/532/51 65/533/65 141/534/141
f 51/535/51 141/536/141 143/537/143
f 142/538/142 92/539/92 51/540/51
f 144/541/144 142/542/142 51/543/51
f 51/544/51 143/545/143 145/546/145
f 51/547/51 145/548/145 52/549/52
f 53/550/53 144/551/144 51/552/51
f 57/553/57 89/554/89 50/555/50
f 59/556/59 62/557/62 60/558/60
f 62/559/62 85/560/85 63/561/63
f 63/562/63 85/563/85 58/564/58
f 64/565/64 66/566/66 54/567/54
f 66/568/66 67/569/67 55/570/55
f 67/571/67 89/572/89 57/573/57
f 51/574/51 79/575/79 68/576/68
f 70/577/70 90/578/90 71/579/71
f 74/580/74 75/581/75 69/582/69
f 69/583/69 68/584/68 73/585/73
f 75/586/75 74/587/74 76/588/76
f 79/589/79 51/590/51 77/591/77
f 77/592/77 76/593/76 78/594/78
f 74/595/74 81/596/81 80/597/80
f 81/598/81 90/599/90 70/600/70
f 71/601/71 83/602/83 82/603/82
f 83/604/83 68/605/68 79/606/79
f 146/607/146 56/608/56 57/609/57
f 57/610/57 58/611/58 84/612/84
f 86/613/86 146/614/146 57/615/57
f 77/616/77 92/617/92 91/618/91
f 92/619/92 59/620/59 61/621/61
f 65/622/65 51/623/51 69/624/69
f 147/625/147 88/626/88 64/627/64
f 61/628/61 87/629/87 148/630/148
f 61/631/61 148/632/148 149/633/149
f 150/634/150 147/635/147 64/636/64
f 151/637/151 150/638/150 64/639/64
f 91/640/91 61/641/61 149/642/149
f 91/643/91 149/644/149 152/645/152
f 151/646/151 64/647/64 69/648/69
f 153/649/153 151/650/151 69/651/69
f 69/652/69 91/653/91 152/654/152
f 69/655/69 152/656/152 154/657/154
f 94/658/94 153/659/153 69/660/69
f 69/661/69 154/662/154 93/663/93
f 95/664/95 103/665/103 96/666/96
f 101/667/101 110/668/110 106/669/106
f 109/670/109 116/671/116 106/672/106
f 111/673/111 122/674/122 118/675/118
f 121/676/121 100/677/100 113/678/113
f 112/679/112 114/680/114 118/681/118
f 97/682/97 96/683/96 119/684/119
f 118/685/118 114/686/114 113/687/113
f 113/688/113 100/689/100 99/690/99
f 99/691/99 104/692/104 106/693/106
f 106/694/106 116/695/116 119/696/119
f 119/697/119 96/698/96 103/699/103
f 103/700/103 105/701/105 108/702/108
f 108/703/108 118/704/118 113/705/113
f 113/706/113 99/707/99 106/708/106
f 106/709/106 119/710/119 103/711/103
f 103/712/103 108/713/108 113/714/113
f 117/715/117 112/716/112 122/717/122
f 122/718/122 111/719/111 107/720/107
f 107/721/107 102/722/102 95/723/95
f 95/724/95 97/725/97 120/726/120
f 120/727/120 115/728/115 109/729/109
f 109/730/109 110/731/110 101/732/101
f 101/733/101 98/734/98 121/735/121
f 121/736/121 117/737/117 122/738/122
f 122/739/122 107/740/107 95/741/95
f 95/742/95 120/743/120 109/744/109
f 109/745/109 101/746/101 121/747/121
f 121/748/121 122/749/122 95/750/95
usemtl alumArm
f 155/751/155 156/752/156 157/753/157
f 158/754/158 159/755/159 160/756/160
f 161/757/161 162/758/162 159/759/159
f 163/760/163 164/761/164 156/762/156
f 165/763/165 166/764/166 164/765/164
f 167/766/167 168/767/168 169/768/169
f 169/769/169 170/770/170 171/771/171
f 172/772/172 173/773/173 174/774/174
f 174/775/174 155/776/155 157/777/157
f 175/778/175 160/779/160 166/780/166
f 176/781/176 171/782/171 170/783/170
f 177/784/177 162/785/162 178/786/178
f 155/787/155 163/788/163 156/789/156
f 158/790/158 161/791/161 159/792/159
f 161/793/161 178/794/178 162/795/162
f 163/796/163 165/797/165 164/798/164
f 165/799/165 175/800/175 166/801/166
f 167/802/167 177/803/177 168/804/168
f 169/805/169 168/806/168 170/807/170
f 172/808/172 176/809/176 173/810/173
f 174/811/174 173/812/173 155/813/155
f 175/814/175 158/815/158 160/816/160
f 176/817/176 172/818/172 171/819/171
f 177/820/177 167/821/167 162/822/162
usemtl alumBlack
f 167/823/167 179/824/179 162/825/162
f 174/826/174 180/827/180 172/828/172
f 164/829/164 181/830/181 182/831/182
f 171/832/171 180/833/180 183/834/183
f 184/835/184 185/836/185 186/837/186
f 187/838/187 188/839/188 189/840/189
f 183/841/183 190/842/190 187/843/187
f 191/844/191 186/845/186 192/846/192
f 193/847/193 194/848/194 195/849/195
f 182/850/182 196/851/196 197/852/197
f 180/853/180 198/854/198 183/855/183
f 195/856/195 199/857/199 200/858/200
f 193/859/193 197/860/197 201/861/201
f 181/862/181 192/863/192 196/864/196
f 189/865/189 185/866/185 179/867/179
f 200/868/200 202/869/202 180/870/180
f 169/871/169 189/872/189 167/873/167
f 169/874/169 183/875/183 187/876/187
f 159/877/159 191/878/191 160/879/160
f 164/880/164 193/881/193 156/882/156
f 157/883/157 193/884/193 195/885/195
f 174/886/174 195/887/195 200/888/200
f 160/889/160 181/890/181 166/891/166
f 159/892/159 179/893/179 184/894/184
f 167/895/167 189/896/189 179/897/179
f 174/898/174 200/899/200 180/900/180
f 164/901/164 166/902/166 181/903/181
f 171/904/171 172/905/172 180/906/180
f 184/907/184 179/908/179 185/909/185
f 187/910/187 190/911/190 188/912/188
f 183/913/183 198/914/198 190/915/190
f 191/916/191 184/917/184 186/918/186
f 193/919/193 201/920/201 194/921/194
f 182/922/182 181/923/181 196/924/196
f 180/925/180 202/926/202 198/927/198
f 195/928/195 194/929/194 199/930/199
f 193/931/193 182/932/182 197/933/197
f 181/934/181 191/935/191 192/936/192
f 189/937/189 188/938/188 185/939/185
f 200/940/200 199/941/199 202/942/202
f 169/943/169 187/944/187 189/945/189
f 169/946/169 171/947/171 183/948/183
f 159/949/159 184/950/184 191/951/191
f 164/952/164 182/953/182 193/954/193
f 157/955/157 156/956/156 193/957/193
f 174/958/174 157/959/157 195/960/195
f 160/961/160 191/962/191 181/963/181
f 159/964/159 162/965/162 179/966/179
usemtl alumGrayDeep
f 203/967/203 204/968/204 205/969/205
f 205/970/205 206/971/206 207/972/207
f 206/973/206 208/974/208 209/975/209
f 206/976/206 210/977/210 211/978/211
f 212/979/212 213/980/213 214/981/214
f 204/982/204 215/983/215 216/984/216
f 208/985/208 217/986/217 209/987/209
f 218/988/218 219/989/219 217/990/217
f 206/991/206 220/992/220 221/993/221
f 222/994/222 204/995/204 220/996/220
f 223/997/223 224/998/224 225/999/225
f 219/1000/219 226/1001/226 227/1002/227
f 217/1003/217 228/1004/228 209/1005/209
f 217/1006/217 229/1007/229 230/1008/230
f 223/1009/223 231/1010/231 232/1011/232
f 233/1012/233 234/1013/234 231/1014/231
f 203/1015/203 235/1016/235 215/1017/215
f 236/1018/236 224/1019/224 235/1020/235
f 234/1021/234 219/1022/219 212/1023/212
f 208/1024/208 237/1025/237 238/1026/238
f 208/1027/208 213/1028/213 218/1029/218
f 239/1030/239 221/1031/221 220/1032/220
f 204/1033/204 240/1034/240 241/1035/241
f 235/1036/235 242/1037/242 243/1038/243
f 235/1039/235 244/1040/244 215/1041/215
f 231/1042/231 245/1043/245 246/1044/246
f 203/1045/203 247/1046/247 248/1047/248
f 203/1048/203 249/1049/249 236/1050/236
f 249/1051/249 225/1052/225 236/1053/236
f 250/1054/250 233/1055/233 223/1056/223
f 225/1057/225 251/1058/251 252/1059/252
f 253/1060/253 233/1061/233 250/1062/250
f 203/1063/203 215/1064/215 204/1065/204
f 254/1066/254 255/1067/255 205/1068/205
f 205/1069/205 222/1070/222 206/1071/206
f 206/1072/206 256/1073/256 207/1074/207
f 207/1075/207 254/1076/254 205/1077/205
f 206/1078/206 221/1079/221 208/1080/208
f 257/1081/257 256/1082/256 206/1083/206
f 206/1084/206 209/1085/209 228/1086/228
f 206/1087/206 228/1088/228 210/1089/210
f 211/1090/211 257/1091/257 206/1092/206
f 258/1093/258 259/1094/259 212/1095/212
f 212/1096/212 218/1097/218 213/1098/213
f 214/1099/214 258/1100/258 212/1101/212
f 260/1102/260 261/1103/261 204/1104/204
f 215/1105/215 244/1106/244 262/1107/262
f 215/1108/215 262/1109/262 263/1110/263
f 264/1111/264 260/1112/260 204/1113/204
f 265/1114/265 264/1115/264 204/1116/204
f 215/1117/215 263/1118/263 216/1119/216
f 216/1120/216 265/1121/265 204/1122/204
f 208/1123/208 218/1124/218 217/1125/217
f 218/1126/218 212/1127/212 219/1128/219
f 206/1129/206 222/1130/222 220/1131/220
f 222/1132/222 205/1133/205 204/1134/204
f 223/1135/223 232/1136/232 224/1137/224
f 266/1138/266 229/1139/229 219/1140/219
f 226/1141/226 253/1142/253 267/1143/267
f 226/1144/226 267/1145/267 268/1146/268
f 269/1147/269 266/1148/266 219/1149/219
f 270/1150/270 269/1151/269 219/1152/219
f 226/1153/226 268/1154/268 227/1155/227
f 227/1156/227 270/1157/270 219/1158/219
f 230/1159/230 228/1160/228 217/1161/217
f 217/1162/217 219/1163/219 229/1164/229
f 223/1165/223 233/1166/233 231/1167/231
f 233/1168/233 226/1169/226 234/1170/234
f 203/1171/203 236/1172/236 235/1173/235
f 236/1174/236 225/1175/225 224/1176/224
f 234/1177/234 226/1178/226 219/1179/219
f 271/1180/271 213/1181/213 208/1182/208
f 208/1183/208 221/1184/221 239/1185/239
f 208/1186/208 239/1187/239 237/1188/237
f 238/1189/238 271/1190/271 208/1191/208
f 239/1192/239 220/1193/220 204/1194/204
f 204/1195/204 261/1196/261 240/1197/240
f 241/1198/241 239/1199/239 204/1200/204
f 243/1201/243 244/1202/244 235/1203/235
f 235/1204/235 224/1205/224 242/1206/242
f 272/1207/272 242/1208/242 224/1209/224
f 224/1210/224 232/1211/232 231/1212/231
f 231/1213/231 234/1214/234 212/1215/212
f 212/1216/212 259/1217/259 273/1218/273
f 212/1219/212 273/1220/273 274/1221/274
f 272/1222/272 224/1223/224 231/1224/231
f 275/1225/275 272/1226/272 231/1227/231
f 212/1228/212 274/1229/274 276/1230/276
f 212/1231/212 276/1232/276 277/1233/277
f 278/1234/278 275/1235/275 231/1236/231
f 279/1237/279 278/1238/278 231/1239/231
f 231/1240/231 212/1241/212 277/1242/277
f 231/1243/231 277/1244/277 280/1245/280
f 281/1246/281 279/1247/279 231/1248/231
f 282/1249/282 281/1250/281 231/1251/231
f 231/1252/231 280/1253/280 245/1254/245
f 246/1255/246 282/1256/282 231/1257/231
f 283/1258/283 249/1259/249 203/1260/203
f 205/1261/205 255/1262/255 284/1263/284
f 205/1264/205 284/1265/284 285/1266/285
f 286/1267/286 283/1268/283 203/1269/203
f 287/1270/287 286/1271/286 203/1272/203
f 205/1273/205 285/1274/285 288/1275/288
f 205/1276/205 288/1277/288 247/1278/247
f 289/1279/289 287/1280/287 203/1281/203
f 290/1282/290 289/1283/289 203/1284/203
f 203/1285/203 205/1286/205 247/1287/247
f 248/1288/248 290/1289/290 203/1290/203
f 250/1291/250 223/1292/223 225/1293/225
f 225/1294/225 249/1295/249 291/1296/291
f 225/1297/225 291/1298/291 292/1299/292
f 252/1300/252 250/1301/250 225/1302/225
f 225/1303/225 292/1304/292 251/1305/251
f 253/1306/253 226/1307/226 233/1308/233
