# Pata_Del_Der  -  origen en el pivote de la pieza
# pivote en coordenadas del modelo: 5.3165 3.2705 3.0700
mtllib rover.mtl
o Pata_Del_Der
v 0.056597 0.007971 0.151887
v 0.002185 0.337971 0.086429
v -0.001070 0.007971 0.126403
v 0.312532 -0.189467 -0.343615
v 0.224844 -0.279467 -0.253520
v 0.224844 -0.189467 -0.355160
v 0.453923 -0.279467 0.045022
v 0.057146 -0.279467 0.151338
v 0.163462 -0.279467 -0.245439
v 0.224844 -0.189467 0.322440
v 0.163462 -0.279467 0.212719
v 0.224844 -0.279467 0.220800
v -0.113956 -0.189467 -0.016360
v -0.004235 -0.279467 0.045022
v -0.102412 -0.189467 0.071328
v 0.137156 -0.189467 -0.343616
v 0.106264 -0.279467 -0.221747
v 0.055443 -0.189467 -0.309769
v 0.552099 -0.189467 -0.104047
v 0.462004 -0.279467 -0.016360
v 0.453923 -0.279467 -0.077741
v 0.394243 -0.189467 0.277050
v 0.286225 -0.279467 0.212719
v 0.343424 -0.279467 0.189027
v -0.068566 -0.189467 0.153040
v -0.014724 -0.189467 0.223208
v -0.014724 -0.189467 -0.255927
v 0.019457 -0.279467 -0.134940
v -0.068566 -0.189467 -0.185760
v 0.518253 -0.189467 -0.185760
v 0.392541 -0.279467 -0.184057
v 0.464411 -0.189467 -0.255928
v 0.464411 -0.189467 0.223208
v 0.430230 -0.279467 0.102220
v 0.518253 -0.189467 0.153040
v 0.055444 -0.189467 0.277050
v 0.137156 -0.189467 0.310896
v -0.102412 -0.189467 -0.104047
v -0.012316 -0.279467 -0.016360
v 0.343424 -0.279467 -0.221747
v 0.286225 -0.279467 -0.245439
v 0.563644 -0.189467 -0.016359
v 0.312532 -0.189467 0.310896
v 0.019457 -0.279467 0.102220
v 0.057146 -0.279467 -0.184057
v 0.430230 -0.279467 -0.134940
v 0.392541 -0.279467 0.151338
v 0.106264 -0.279467 0.189027
v -0.004235 -0.279467 -0.077741
v 0.394243 -0.189467 -0.309769
v 0.552099 -0.189467 0.071328
v 0.137156 0.007971 -0.343616
v 0.224844 0.207971 -0.355160
v 0.224844 0.007971 -0.355160
v 0.343812 0.007971 -0.222419
v 0.464411 0.007971 -0.255928
v 0.394243 0.007971 -0.309769
v 0.430903 0.007971 -0.135328
v 0.393090 0.007971 -0.184607
v 0.454673 0.007971 -0.077942
v 0.518253 0.007971 -0.185760
v 0.462781 0.007971 -0.016359
v 0.552099 0.007971 -0.104047
v 0.552099 0.007971 0.071328
v 0.563644 0.007971 -0.016359
v 0.430903 0.007971 0.102609
v 0.454673 0.007971 0.045223
v 0.464411 0.007971 0.223208
v 0.518253 0.007971 0.153040
v 0.393090 0.007971 0.151887
v 0.394243 0.007971 0.277050
v 0.137156 0.007971 0.310896
v 0.055444 0.207971 0.277050
v 0.055444 0.007971 0.277050
v 0.105875 0.007971 0.189700
v -0.014724 0.007971 0.223208
v -0.102412 0.007971 0.071328
v -0.068566 0.007971 0.153040
v -0.001070 0.007971 0.057540
v -0.113956 0.007971 -0.016360
v -0.001070 0.007971 -0.090259
v -0.001070 0.007971 -0.016360
v -0.001070 0.007971 -0.159122
v -0.102412 0.007971 -0.104047
v -0.014724 0.007971 -0.255927
v -0.068566 0.007971 -0.185760
v 0.105875 0.007971 -0.222419
v 0.056597 0.007971 -0.184607
v 0.224844 0.007971 -0.254297
v 0.163261 0.207971 -0.246189
v 0.163261 0.007971 -0.246189
v 0.345982 0.337971 0.104778
v 0.224844 0.337971 -0.187675
v 0.269183 0.337971 -0.181837
v 0.310501 0.337971 -0.164723
v 0.002185 0.337971 0.036848
v 0.310501 0.337971 0.132003
v 0.343812 0.007971 0.189700
v 0.345982 0.337971 -0.137497
v 0.002185 0.337971 -0.016360
v 0.269183 0.337971 0.149118
v 0.286426 0.007971 0.213470
v 0.373207 0.337971 -0.102017
v 0.002185 0.337971 -0.069567
v 0.224844 0.337971 0.154955
v 0.224844 0.007971 0.221578
v 0.390321 0.337971 -0.060699
v 0.002185 0.337971 -0.119148
v 0.163261 0.007971 0.213470
v 0.180504 0.337971 0.149118
v 0.396158 0.337971 -0.016360
v 0.103706 0.337971 -0.137497
v 0.139186 0.337971 0.132003
v 0.390321 0.337971 0.027980
v 0.139186 0.337971 -0.164723
v 0.103706 0.337971 0.104778
v 0.373207 0.337971 0.069298
v 0.180504 0.337971 -0.181837
v 0.286426 0.007971 -0.246189
v 0.163261 0.207971 0.213470
v 0.224844 0.207971 0.322440
v 0.224844 0.207971 0.221578
v 0.105875 0.207971 0.189700
v 0.137156 0.207971 0.310896
v 0.105875 0.207971 -0.222419
v 0.137156 0.207971 -0.343616
v 0.055443 0.207971 -0.309769
v 0.224844 0.207971 -0.254297
v 0.224844 0.007971 0.322440
v 0.055443 0.007971 -0.309769
v 0.312532 0.007971 -0.343615
v 0.312532 0.007971 0.310896
v -1.316544 0.487971 -0.222419
v -1.316544 0.687971 -0.222419
v -1.316544 0.487971 -0.309769
v -1.316544 0.687971 -0.309769
v -1.316544 0.690971 0.189700
v -1.316544 0.690971 0.277050
v -1.316544 0.490971 0.189700
v -1.316544 0.490971 0.277050
v 0.103706 0.337971 -0.016360
v 0.224845 0.011463 0.419860
v 0.115236 -0.162952 0.405429
v 0.224845 -0.162952 0.419860
v 0.115236 0.011463 0.405429
v 0.013095 -0.162952 0.363121
v 0.013095 0.011463 0.363121
v -0.074614 -0.162952 0.295820
v -0.074614 0.011463 0.295820
v -0.141916 -0.162952 0.208110
v -0.141916 0.011463 0.208110
v -0.184224 -0.162952 0.105970
v -0.184224 0.011463 0.105970
v -0.198655 -0.162952 -0.003640
v -0.198655 0.011463 -0.003640
v -0.184224 -0.162952 -0.113250
v -0.184224 0.011463 -0.113250
v -0.141917 -0.162952 -0.215390
v -0.141917 0.011463 -0.215390
v -0.074614 -0.162952 -0.303100
v -0.074614 0.011463 -0.303100
v 0.013095 -0.162952 -0.370402
v 0.013095 0.011463 -0.370402
v 0.115235 -0.162952 -0.412710
v 0.224845 -0.162952 -0.427140
v 0.115235 -0.162952 -0.517520
v 0.224845 -0.162952 -0.517520
v 0.334455 -0.162952 -0.517520
v 0.334455 -0.162952 -0.412710
v 0.334455 0.011463 -0.412710
v 0.436595 -0.162952 -0.370402
v 0.436595 0.011463 -0.370402
v 0.524304 -0.162952 -0.303100
v 0.524304 0.011463 -0.303100
v 0.591607 -0.162952 -0.215391
v 0.591607 0.011463 -0.215391
v 0.633915 -0.162952 -0.113250
v 0.633915 0.011463 -0.113250
v 0.648346 -0.162952 -0.003640
v 0.648346 0.011463 -0.003640
v 0.633915 -0.162952 0.105969
v 0.633915 0.011463 0.105969
v 0.591607 -0.162952 0.208110
v 0.591607 0.011463 0.208110
v 0.524305 -0.162952 0.295819
v 0.524305 0.011463 0.295819
v 0.436595 -0.162952 0.363121
v -0.068564 0.011463 0.165760
v -0.102411 0.011463 0.084048
v 0.518254 0.011463 -0.173040
v 0.436595 0.011463 0.363121
v 0.334455 -0.162952 0.405429
v 0.334455 0.011463 0.405429
v -0.102411 -0.162952 0.084048
v 0.552101 -0.162952 -0.091328
v 0.224845 0.011463 -0.427140
v 0.334455 0.011463 -0.517520
v 0.224845 0.011463 -0.517520
v 0.115235 0.011463 -0.412710
v 0.115235 0.011463 -0.517520
v -0.113955 0.011463 -0.003640
v 0.055445 0.011463 0.289770
v -0.014722 0.011463 0.235928
v 0.137157 0.011463 0.323616
v -0.102411 0.011463 -0.091328
v -0.068564 0.011463 -0.173040
v 0.224845 0.011463 0.335160
v 0.312533 0.011463 0.323616
v -0.014723 0.011463 -0.243208
v 0.394245 0.011463 0.289769
v 0.055445 0.011463 -0.297049
v 0.137157 0.011463 -0.330896
v 0.464413 0.011463 0.235928
v 0.518255 0.011463 0.165760
v 0.224845 0.011463 -0.342440
v 0.552101 0.011463 0.084048
v 0.312533 0.011463 -0.330896
v 0.394245 0.011463 -0.297049
v 0.563645 0.011463 -0.003640
v 0.552101 0.011463 -0.091328
v 0.464413 0.011463 -0.243208
v -0.068564 -0.162952 0.165760
v -0.014722 -0.162952 0.235928
v -0.102411 -0.162952 -0.091328
v -0.113955 -0.162952 -0.003640
v -0.068564 -0.162952 -0.173040
v 0.055445 -0.162952 0.289770
v 0.137157 -0.162952 0.323616
v -0.014723 -0.162952 -0.243208
v 0.055445 -0.162952 -0.297049
v 0.224845 -0.162952 0.335160
v 0.137157 -0.162952 -0.330896
v 0.312533 -0.162952 0.323616
v 0.394245 -0.162952 0.289769
v 0.224845 -0.162952 -0.342440
v 0.312533 -0.162952 -0.330896
v 0.464413 -0.162952 0.235928
v 0.394245 -0.162952 -0.297049
v 0.518255 -0.162952 0.165760
v 0.552101 -0.162952 0.084048
v 0.464413 -0.162952 -0.243208
v 0.518254 -0.162952 -0.173040
v 0.563645 -0.162952 -0.003640
v 0.115563 -1.567428 -0.872997
v 0.730304 -0.728573 -0.680998
v 0.730304 -0.728573 -0.872998
v 0.463206 -1.823866 -0.872998
v 0.392808 -1.764810 -0.872998
v 0.436971 -1.752976 -0.872998
v 0.566012 -1.464810 -0.872998
v 0.492807 -1.391604 -0.872998
v 0.328422 -1.823855 -0.680998
v 0.154601 -1.695636 -0.872997
v 0.328422 -1.823855 -0.872998
v 0.378292 -1.847322 -0.680998
v 0.392808 -1.764810 -0.680998
v 0.308643 -1.742258 -0.680998
v 0.408643 -1.760566 -0.680998
v 0.427626 -1.847326 -0.680998
v 0.463206 -1.823866 -0.680998
v 0.427626 -1.847326 -0.872998
v 0.378292 -1.847322 -0.872998
v 0.103271 -1.608066 -0.680997
v 0.115563 -1.567428 -0.680997
v 0.103271 -1.608066 -0.872997
v 0.117559 -1.654994 -0.680997
v 0.117559 -1.654994 -0.872997
v 0.154601 -1.695636 -0.680997
v 0.338804 0.012368 -0.956436
v 0.241896 0.071754 -0.515637
v 0.338804 0.012368 -0.515637
v 0.131379 0.045221 -0.956436
v 0.131379 0.045221 -0.515637
v 0.071993 -0.051687 -0.515637
v 0.071993 -0.051687 -0.956436
v 0.098526 -0.162204 -0.515637
v 0.098526 -0.162204 -0.956436
v 0.195435 -0.221589 -0.515637
v 0.305951 -0.195057 -0.956436
v 0.305951 -0.195056 -0.515637
v 0.241895 0.071754 -0.956436
v 0.365336 -0.098148 -0.956436
v 0.195434 -0.221589 -0.956436
v 0.365336 -0.098148 -0.515637
v 0.053788 -0.234035 -0.872997
v 1.077947 -0.985010 -0.872998
v 1.267672 -0.665195 -0.680998
v 1.237637 -0.767302 -0.680998
v 1.138651 -0.445760 -0.680998
v 1.008285 -0.349596 -0.872998
v 1.008285 -0.349596 -0.680998
v 1.237637 -0.767302 -0.872998
v 1.267672 -0.665195 -0.872998
v 0.331769 0.144942 -0.680998
v -0.002017 -0.173164 -0.872997
v 0.192778 -0.044546 -0.872998
v -0.005864 -0.041459 -0.872997
v 0.130168 0.143995 -0.680997
v 0.130168 0.143995 -0.872997
v 0.053788 -0.234035 -0.680997
v -0.002016 -0.173164 -0.680997
v -0.023850 -0.102676 -0.872997
v -0.023850 -0.102676 -0.680997
v 0.192778 -0.044546 -0.680998
v 1.138651 -0.445760 -0.872998
v 1.231440 -0.547502 -0.680998
v 1.231440 -0.547502 -0.872998
v 1.077947 -0.985010 -0.680998
v 0.331769 0.144942 -0.872998
v 0.219603 -1.664810 -0.872997
v 0.292808 -1.738015 -0.872998
v 0.492807 -1.391604 -0.680998
v 0.566012 -1.464810 -0.680998
v 0.219603 -1.664810 -0.680998
v 0.292808 -1.738015 -0.680998
v -0.005864 -0.041459 -0.680997
v 0.192808 -1.564810 -0.872997
v 0.492807 -1.738015 -0.872998
v 0.566012 -1.664810 -0.872998
v 0.219603 -1.464810 -0.872997
v 0.292808 -1.391605 -0.872998
v 0.592807 -1.564810 -0.872998
v 0.392808 -1.364809 -0.872998
v 0.192808 -1.564810 -0.680998
v 0.219603 -1.464810 -0.680998
v 0.492807 -1.738015 -0.680998
v 0.566012 -1.664810 -0.680998
v 0.292808 -1.391605 -0.680998
v 0.592807 -1.564810 -0.680998
v 0.392808 -1.364809 -0.680998
vn -0.332254 0.688605 0.644539
vn -0.748391 0.376788 0.545841
vn -0.314996 0.926858 0.204233
vn 0.208703 -0.469036 -0.858166
vn 0.022903 -0.852731 -0.521849
vn -0.039960 -0.411183 -0.910677
vn 0.204940 -0.977722 0.045387
vn -0.180882 -0.966728 0.180883
vn -0.045386 -0.977722 -0.204939
vn 0.008014 -0.411498 0.911375
vn -0.104535 -0.914806 0.390131
vn 0.022900 -0.852731 0.521847
vn -0.910676 -0.411183 0.039963
vn -0.390132 -0.914806 0.104534
vn -0.904663 -0.327935 0.272109
vn -0.274304 -0.411183 -0.869302
vn -0.276347 -0.833387 -0.478642
vn -0.496989 -0.327935 -0.803406
vn 0.878248 -0.411496 -0.243623
vn 0.521849 -0.852730 -0.022902
vn 0.337701 -0.935202 -0.106560
vn 0.462629 -0.411498 0.785267
vn 0.079524 -0.964448 0.252023
vn 0.280756 -0.852731 0.440485
vn -0.754388 -0.469037 0.459241
vn -0.647405 -0.327934 0.687987
vn -0.638842 -0.469036 -0.609824
vn -0.440484 -0.852731 -0.280757
vn -0.808652 -0.411183 -0.420726
vn 0.754388 -0.469037 -0.459241
vn 0.194882 -0.964448 -0.178495
vn 0.615685 -0.411183 -0.672206
vn 0.638845 -0.469037 0.609821
vn 0.478643 -0.833387 0.276346
vn 0.832104 -0.327935 0.447282
vn -0.423698 -0.469037 0.774909
vn -0.216674 -0.327936 0.919516
vn -0.889990 -0.411183 -0.197096
vn -0.521847 -0.852731 -0.022901
vn 0.276344 -0.833387 -0.478644
vn 0.073018 -0.959379 -0.272509
vn 0.911376 -0.411497 -0.008015
vn 0.243623 -0.411499 0.878246
vn -0.405618 -0.883535 0.234180
vn -0.199490 -0.959379 -0.199490
vn 0.405615 -0.883535 -0.234185
vn 0.199490 -0.959379 0.199489
vn -0.234180 -0.883535 0.405618
vn -0.252024 -0.964448 -0.079523
vn 0.447279 -0.327933 -0.832107
vn 0.882395 -0.411497 0.228145
vn -0.216221 0.000000 -0.976344
vn 0.315726 0.427260 -0.847210
vn 0.439301 0.219648 -0.871074
vn 0.291251 0.775754 -0.559802
vn 0.440295 0.802190 -0.403277
vn 0.378605 0.709799 -0.594006
vn 0.532134 0.775754 -0.339174
vn 0.505348 0.663486 -0.551734
vn 0.692170 0.697498 -0.185465
vn 0.624887 0.709799 -0.325116
vn 0.536248 0.843732 0.023531
vn 0.687741 0.709799 -0.152309
vn 0.569395 0.802190 0.179671
vn 0.829291 0.557631 0.036395
vn 0.452637 0.843732 0.288506
vn 0.713511 0.663485 0.225144
vn 0.475774 0.709799 0.519446
vn 0.699990 0.557631 0.446163
vn 0.426216 0.775754 0.465344
vn 0.275579 0.802190 0.529668
vn -0.300917 0.000000 0.953650
vn -0.023663 0.580471 0.813937
vn -0.526034 0.025141 0.850092
vn -0.750179 0.549406 -0.367946
vn -0.519446 0.709799 0.475774
vn -0.687741 0.709799 0.152306
vn -0.736383 0.557631 0.383128
vn -0.703611 0.710585 0.000000
vn -0.596495 0.802190 -0.026177
vn -0.703611 0.710585 0.000000
vn -0.890876 0.454247 0.000000
vn -0.314999 0.926858 -0.204232
vn -0.671756 0.709799 -0.211964
vn -0.403277 0.802189 -0.440295
vn -0.699988 0.557632 -0.446165
vn -0.595332 0.771211 -0.225419
vn -0.376979 0.568418 -0.731292
vn 0.466234 0.884547 0.014258
vn 0.179488 0.557631 0.810452
vn 0.409922 0.911961 -0.017081
vn 0.647712 0.478029 0.593260
vn 0.000001 0.697499 -0.716586
vn 0.264311 0.478029 -0.837632
vn 0.217729 0.914278 -0.341600
vn -0.703611 0.710585 0.000000
vn 0.248853 0.886364 0.390426
vn 0.345331 0.663486 0.663727
vn 0.647717 0.478029 -0.593254
vn -0.703611 0.710585 0.000000
vn 0.264310 0.478030 0.837632
vn 0.136444 0.775755 0.616107
vn 0.559800 0.775754 -0.291255
vn -0.703611 0.710585 0.000000
vn 0.000001 0.697498 0.716586
vn 0.401965 0.850671 0.338797
vn 0.785295 0.582270 -0.210413
vn -0.748393 0.376788 -0.545838
vn 0.021197 0.995199 -0.095551
vn -0.264310 0.478030 0.837632
vn 0.404699 0.914278 -0.017761
vn -0.199809 0.869162 -0.452366
vn -0.192980 0.933324 0.302763
vn 0.857566 0.478030 0.189913
vn -0.248852 0.886364 -0.390425
vn -0.199806 0.869161 0.452369
vn 0.559800 0.775754 0.291255
vn -0.264310 0.478029 -0.837633
vn 0.136449 0.775754 -0.616106
vn 0.211969 0.709799 -0.671755
vn 0.362946 0.834860 0.413859
vn 0.713435 0.315530 -0.625660
vn 0.171547 0.719511 -0.672960
vn -0.152306 0.709799 0.687741
vn 0.224167 0.608643 0.761120
vn -0.179671 0.802190 -0.569394
vn 0.061778 0.678146 -0.732326
vn 0.690433 0.648131 0.321293
vn 0.303094 0.188441 0.934143
vn -0.459671 -0.144573 -0.876243
vn 0.211970 0.709799 -0.671754
vn 0.152306 0.709799 0.687741
vn -0.218650 -0.636173 0.739916
vn 0.300456 0.874192 0.381463
vn -0.147684 -0.422125 -0.894427
vn 0.233508 0.667438 -0.707107
vn 0.302183 0.873754 -0.381102
vn 0.234807 0.666982 0.707107
vn -0.219806 -0.635564 -0.740098
vn -0.148505 -0.421837 0.894427
vn 0.000000 1.000000 0.000000
vn -0.030884 0.709799 0.703726
vn -0.152310 -0.709799 0.687740
vn 0.041561 -0.318405 0.947043
vn -0.285258 0.318405 0.904017
vn -0.437527 -0.318405 0.840945
vn -0.210364 0.920227 0.330045
vn -0.192727 -0.958426 0.210419
vn -0.288619 0.920227 0.264351
vn -0.799384 -0.318405 0.509513
vn -0.840943 0.318405 0.437531
vn -0.671754 -0.709799 0.211971
vn -0.687740 0.709799 0.152311
vn -0.947043 -0.318405 0.041562
vn -0.444060 0.895785 -0.019488
vn -0.255074 -0.965270 -0.056490
vn -0.904017 0.318405 -0.285257
vn -0.840944 -0.318405 -0.437529
vn -0.594003 0.709799 -0.378609
vn -0.519447 -0.709799 -0.475774
vn -0.640274 0.318405 -0.699047
vn -0.509517 -0.318405 -0.799382
vn -0.144957 0.949402 -0.278608
vn -0.171040 -0.968863 -0.179022
vn 0.000000 -1.000000 0.000000
vn -0.707107 -0.707107 0.000000
vn 0.000000 -1.000000 0.000000
vn 0.447214 -0.894427 0.000000
vn 0.501971 -0.842699 -0.194638
vn 0.544010 0.616312 -0.569397
vn 0.437532 -0.318405 -0.840942
vn 0.140422 0.965270 -0.220308
vn 0.192727 -0.958426 -0.210420
vn 0.699044 0.318405 -0.640278
vn 0.799380 -0.318405 -0.509520
vn 0.624885 0.709800 -0.325120
vn 0.671755 -0.709799 -0.211968
vn 0.925530 0.318405 -0.204971
vn 0.947043 -0.318405 -0.041561
vn 0.285068 0.958426 0.012511
vn 0.255074 -0.965270 0.056490
vn 0.904017 0.318405 0.285257
vn 0.840944 -0.318405 0.437529
vn 0.594003 0.709799 0.378610
vn 0.519445 -0.709799 0.475775
vn 0.640271 0.318405 0.699050
vn 0.509514 -0.318405 0.799383
vn 0.000000 1.000000 0.000000
vn 0.000000 1.000000 0.000000
vn 0.000000 1.000000 0.000000
vn 0.144956 0.949402 0.278609
vn 0.094508 -0.949402 0.299505
vn 0.204973 0.318405 0.925529
vn 0.000000 -1.000000 0.000000
vn 0.000000 -1.000000 0.000000
vn 0.000000 1.000000 0.000000
vn 0.707107 0.707107 0.000000
vn 0.000000 1.000000 0.000000
vn -0.734239 0.616312 -0.284699
vn -0.447214 0.894427 0.000000
vn 0.000000 1.000000 0.000000
vn 0.000000 1.000000 0.000000
vn 0.000000 1.000000 0.000000
vn 0.000000 1.000000 0.000000
vn 0.000000 1.000000 0.000000
vn 0.000000 1.000000 0.000000
vn 0.000000 1.000000 0.000000
vn 0.000000 1.000000 0.000000
vn 0.000000 1.000000 0.000000
vn 0.000000 1.000000 0.000000
vn 0.000000 1.000000 0.000000
vn 0.000000 1.000000 0.000000
vn 0.000000 1.000000 0.000000
vn 0.000000 1.000000 0.000000
vn 0.000000 1.000000 0.000000
vn 0.000000 1.000000 0.000000
vn 0.000000 1.000000 0.000000
vn 0.000000 1.000000 0.000000
vn 0.000000 1.000000 0.000000
vn 0.000000 1.000000 0.000000
vn 0.000000 1.000000 0.000000
vn 0.000000 -1.000000 0.000000
vn 0.000000 -1.000000 0.000000
vn 0.000000 -1.000000 0.000000
vn 0.000000 -1.000000 0.000000
vn 0.000000 -1.000000 0.000000
vn 0.000000 -1.000000 0.000000
vn 0.000000 -1.000000 0.000000
vn 0.000000 -1.000000 0.000000
vn 0.000000 -1.000000 0.000000
vn 0.000000 -1.000000 0.000000
vn 0.000000 -1.000000 0.000000
vn 0.000000 -1.000000 0.000000
vn 0.000000 -1.000000 0.000000
vn 0.000000 -1.000000 0.000000
vn 0.000000 -1.000000 0.000000
vn 0.000000 -1.000000 0.000000
vn 0.000000 -1.000000 0.000000
vn 0.000000 -1.000000 0.000000
vn 0.000000 -1.000000 0.000000
vn 0.000000 -1.000000 0.000000
vn 0.000000 -1.000000 0.000000
vn 0.000000 -1.000000 0.000000
vn -0.553910 0.276483 -0.785328
vn -0.268811 -0.041611 0.962294
vn -0.106813 -0.016533 -0.994142
vn 0.252546 -0.265366 -0.930485
vn 0.000000 0.000000 -1.000000
vn 0.000000 0.000000 -1.000000
vn 0.000000 0.000000 -1.000000
vn 0.000000 0.000000 -1.000000
vn -0.323096 -0.503633 0.801226
vn -0.535850 -0.635096 -0.556344
vn -0.289483 -0.523680 -0.801223
vn -0.171639 -0.566257 0.806159
vn 0.000000 0.000000 1.000000
vn 0.000000 0.000000 1.000000
vn 0.000000 0.000000 1.000000
vn 0.156661 -0.807024 0.569358
vn 0.483589 -0.508138 0.712697
vn 0.313391 -0.760011 -0.569358
vn -0.119902 -0.817712 -0.563002
vn -0.817768 0.081970 0.569681
vn -0.395505 0.197471 0.896985
vn -0.817619 -0.083461 -0.569679
vn -0.746834 -0.353696 0.563150
vn -0.685576 -0.461358 -0.563147
vn -0.576309 -0.598619 0.556347
vn 0.678961 0.652488 -0.336557
vn 0.151004 0.953399 0.261204
vn 0.601438 0.321657 0.731307
vn -0.567378 0.780932 -0.261203
vn -0.246492 0.339269 0.907820
vn -0.901180 0.273137 0.336557
vn -0.681914 0.013556 -0.731307
vn -0.601434 -0.321663 0.731307
vn -0.678955 -0.652495 -0.336557
vn -0.151002 -0.953400 0.261204
vn 0.567381 -0.780930 -0.261204
vn 0.246494 -0.339267 0.907821
vn 0.065602 0.414195 -0.907821
vn 0.681915 -0.013557 -0.731306
vn -0.065603 -0.414196 -0.907820
vn 0.901182 -0.273131 0.336556
vn -0.533390 -0.637144 -0.556367
vn 0.483907 -0.354731 -0.800000
vn 0.818422 -0.076923 0.569446
vn 0.628965 -0.311207 0.712428
vn 0.535783 0.635156 0.556339
vn 0.473505 0.644819 -0.600001
vn 0.328316 0.447101 0.832051
vn 0.799215 -0.395445 -0.452635
vn 0.817391 0.087197 -0.569446
vn 0.272698 0.841826 0.465795
vn -0.683985 -0.463806 -0.563071
vn -0.000003 0.000000 -1.000000
vn -0.799274 0.395316 -0.452644
vn -0.479424 0.647060 0.592846
vn -0.241803 0.768159 -0.592843
vn -0.574275 -0.600551 0.556369
vn -0.745387 -0.356852 0.563076
vn -0.817231 -0.088237 -0.569516
vn -0.818430 0.076286 0.569519
vn 0.000003 -0.000000 1.000000
vn 0.576187 0.598745 -0.556339
vn 0.772765 0.441457 0.456015
vn 0.606421 0.346430 -0.715709
vn 0.283155 -0.207632 0.936329
vn 0.212235 0.655184 -0.725045
vn -0.000004 -0.000001 -1.000000
vn -0.000011 -0.000005 -1.000000
vn 0.000000 0.000000 1.000000
vn 0.000000 0.000000 1.000000
vn 0.000008 0.000003 1.000000
vn 0.000000 0.000000 1.000000
vn -0.629004 0.311101 0.712440
vn 0.000000 0.000000 -1.000000
vn 0.000000 0.000000 -1.000000
vn 0.000000 0.000000 -1.000000
vn 0.000470 -0.000477 -1.000000
vn 0.000308 -0.000314 -1.000000
vn 0.000000 0.000000 -1.000000
vn 0.000000 0.000000 -1.000000
vn 0.000012 -0.000000 1.000000
vn 0.000014 -0.000008 1.000000
vn 0.000000 0.000000 1.000000
vn 0.000000 0.000000 1.000000
vn 0.000000 0.000000 1.000000
vn 0.000000 0.000000 1.000000
vn 0.000000 0.000000 1.000000
vt 0.158491 0.932821
vt 0.236822 0.926542
vt 0.164577 0.949018
vt 0.141144 0.497956
vt 0.170140 0.518034
vt 0.139172 0.518034
vt 0.272475 0.481245
vt 0.260245 0.574143
vt 0.185908 0.517102
vt 0.314867 0.591543
vt 0.282148 0.578375
vt 0.293126 0.569490
vt 0.202555 0.613260
vt 0.228006 0.588844
vt 0.221839 0.619191
vt 0.141144 0.538112
vt 0.175607 0.545607
vt 0.146983 0.557424
vt 0.184794 0.432376
vt 0.214508 0.451376
vt 0.202075 0.458074
vt 0.281333 0.422434
vt 0.282148 0.457693
vt 0.269652 0.451114
vt 0.241907 0.621258
vt 0.256115 0.588977
vt 0.261994 0.619382
vt 0.156467 0.575230
vt 0.191182 0.569006
vt 0.169233 0.590852
vt 0.169233 0.445217
vt 0.182246 0.477997
vt 0.156467 0.460838
vt 0.261994 0.416686
vt 0.242054 0.445777
vt 0.241907 0.414810
vt 0.281333 0.613634
vt 0.282148 0.578375
vt 0.299185 0.604235
vt 0.184794 0.603692
vt 0.214508 0.584692
vt 0.202555 0.613260
vt 0.139172 0.518034
vt 0.171520 0.532089
vt 0.141144 0.538112
vt 0.141144 0.497956
vt 0.175607 0.490462
vt 0.171520 0.503980
vt 0.202555 0.422808
vt 0.228006 0.447224
vt 0.214508 0.451376
vt 0.299184 0.431833
vt 0.293126 0.466578
vt 0.282148 0.457693
vt 0.241907 0.621258
vt 0.228006 0.588844
vt 0.242054 0.590291
vt 0.156467 0.575230
vt 0.175607 0.545607
vt 0.182246 0.558071
vt 0.169233 0.445217
vt 0.202075 0.458074
vt 0.191182 0.467062
vt 0.261994 0.416686
vt 0.269652 0.451114
vt 0.256115 0.447091
vt 0.281333 0.613634
vt 0.256115 0.588977
vt 0.269652 0.584954
vt 0.169233 0.590852
vt 0.202075 0.577995
vt 0.184794 0.603692
vt 0.156467 0.460838
vt 0.175607 0.490462
vt 0.146983 0.478645
vt 0.221839 0.416877
vt 0.242054 0.445777
vt 0.228006 0.447224
vt 0.355951 0.674789
vt 0.331741 0.729534
vt 0.331741 0.674789
vt 0.292802 0.853465
vt 0.265293 0.845822
vt 0.281298 0.833540
vt 0.272936 0.873331
vt 0.265293 0.845822
vt 0.281561 0.862091
vt 0.267514 0.886421
vt 0.253011 0.861828
vt 0.272936 0.873331
vt 0.265665 0.900469
vt 0.245291 0.880467
vt 0.267514 0.886421
vt 0.265665 0.900469
vt 0.245290 0.920471
vt 0.242657 0.900469
vt 0.272936 0.927606
vt 0.245290 0.920471
vt 0.267514 0.914516
vt 0.272936 0.927606
vt 0.265293 0.955115
vt 0.253011 0.939110
vt 0.281561 0.938847
vt 0.281298 0.967397
vt 0.265293 0.955115
vt 0.356133 0.729666
vt 0.380343 0.674921
vt 0.380343 0.729666
vt 0.303026 0.871163
vt 0.283061 0.895406
vt 0.287456 0.870483
vt 0.322059 0.870992
vt 0.305232 0.896374
vt 0.303026 0.871163
vt 0.322059 0.870992
vt 0.346583 0.881324
vt 0.326898 0.891571
vt 0.331314 0.859962
vt 0.362945 0.866331
vt 0.346583 0.881324
vt 0.351179 0.836287
vt 0.362945 0.866331
vt 0.341247 0.848124
vt 0.360434 0.825257
vt 0.374868 0.847615
vt 0.351179 0.836287
vt 0.360434 0.825257
vt 0.382510 0.804279
vt 0.381542 0.826450
vt 0.353925 0.791268
vt 0.382510 0.804279
vt 0.357298 0.806484
vt 0.304133 0.674789
vt 0.287130 0.729534
vt 0.287130 0.674789
vt 0.137404 0.836450
vt 0.214768 0.843977
vt 0.138260 0.850593
vt 0.162255 0.712532
vt 0.228028 0.753951
vt 0.156678 0.725557
vt 0.147576 0.752382
vt 0.224503 0.763524
vt 0.221476 0.773266
vt 0.169701 0.961063
vt 0.236822 0.926542
vt 0.240512 0.935215
vt 0.138260 0.850593
vt 0.215908 0.854115
vt 0.139844 0.864672
vt 0.144077 0.766112
vt 0.221476 0.773266
vt 0.218956 0.783151
vt 0.175200 0.973990
vt 0.240512 0.935215
vt 0.244471 0.944522
vt 0.139844 0.864672
vt 0.217571 0.864180
vt 0.142154 0.878651
vt 0.141291 0.780004
vt 0.218956 0.783151
vt 0.216950 0.793154
vt 0.175200 0.973990
vt 0.248430 0.953829
vt 0.180699 0.986916
vt 0.142154 0.878651
vt 0.219752 0.874145
vt 0.145183 0.892492
vt 0.139226 0.794021
vt 0.216950 0.793154
vt 0.215464 0.803246
vt 0.180699 0.986916
vt 0.252120 0.962501
vt 0.185823 0.998961
vt 0.148922 0.906158
vt 0.219752 0.874145
vt 0.222444 0.883985
vt 0.139226 0.794021
vt 0.214500 0.813402
vt 0.137888 0.808126
vt 0.175388 0.687433
vt 0.252120 0.704389
vt 0.241500 0.726502
vt 0.153362 0.919613
vt 0.222444 0.883985
vt 0.225641 0.893672
vt 0.137888 0.808126
vt 0.214062 0.823594
vt 0.137280 0.822282
vt 0.175388 0.687433
vt 0.236539 0.735416
vt 0.168497 0.699813
vt 0.158491 0.932821
vt 0.225641 0.893672
vt 0.229334 0.903182
vt 0.137280 0.822282
vt 0.214152 0.833795
vt 0.137404 0.836450
vt 0.168497 0.699813
vt 0.232044 0.744574
vt 0.162255 0.712532
vt 0.151780 0.738852
vt 0.228028 0.753951
vt 0.224503 0.763524
vt 0.296054 0.819148
vt 0.237437 0.785305
vt 0.256976 0.751463
vt 0.352529 0.647548
vt 0.331923 0.674921
vt 0.335527 0.647548
vt 0.368952 0.643148
vt 0.356133 0.674921
vt 0.352529 0.647548
vt 0.368770 0.761307
vt 0.355951 0.729534
vt 0.379336 0.735800
vt 0.335345 0.756907
vt 0.355951 0.729534
vt 0.352347 0.756907
vt 0.287312 0.729666
vt 0.304315 0.674921
vt 0.304315 0.729666
vt 0.270310 0.729666
vt 0.287312 0.674921
vt 0.287312 0.729666
vt 0.331923 0.729666
vt 0.356133 0.674921
vt 0.356133 0.729666
vt 0.287130 0.674789
vt 0.270128 0.729534
vt 0.270128 0.674789
vt 0.380161 0.674789
vt 0.355951 0.729534
vt 0.355951 0.674789
vt 0.331741 0.674789
vt 0.304133 0.729534
vt 0.304133 0.674789
vt 0.331923 0.729666
vt 0.304315 0.674921
vt 0.331923 0.674921
vt 0.319939 0.846194
vt 0.299937 0.825820
vt 0.319939 0.823187
vt 0.319939 0.846194
vt 0.305892 0.848043
vt 0.299937 0.825820
vt 0.281298 0.967397
vt 0.292802 0.947472
vt 0.305892 0.952894
vt 0.305892 0.848043
vt 0.292802 0.853465
vt 0.281298 0.833540
vt 0.305892 0.848043
vt 0.281298 0.833540
vt 0.299937 0.825820
vt 0.319939 0.954743
vt 0.299937 0.975117
vt 0.305892 0.952894
vt 0.319939 0.977751
vt 0.299937 0.975117
vt 0.319939 0.954743
vt 0.299937 0.975117
vt 0.281298 0.967397
vt 0.305892 0.952894
vt 0.027237 0.272773
vt 0.355043 0.316332
vt 0.012606 0.315985
vt 0.038157 0.252523
vt 0.369674 0.273121
vt 0.027237 0.272773
vt 0.023486 0.336257
vt 0.355043 0.316332
vt 0.355043 0.336257
vt 0.038551 0.379319
vt 0.355043 0.336257
vt 0.370109 0.379319
vt 0.039338 0.273096
vt 0.371101 0.252831
vt 0.371122 0.272756
vt 0.024232 0.316144
vt 0.356037 0.335729
vt 0.013381 0.336432
vt 0.039338 0.273096
vt 0.356017 0.315804
vt 0.024232 0.316144
vt 0.028138 0.379600
vt 0.356037 0.335729
vt 0.370794 0.378897
vt 0.304147 0.812937
vt 0.327305 0.795419
vt 0.327305 0.804844
vt 0.327305 0.785305
vt 0.304147 0.785305
vt 0.327305 0.775191
vt 0.327305 0.775191
vt 0.304147 0.757673
vt 0.327305 0.765766
vt 0.327305 0.795419
vt 0.304147 0.785305
vt 0.327305 0.785305
vt 0.158491 0.932821
vt 0.229334 0.903182
vt 0.236822 0.926542
vt 0.141144 0.497956
vt 0.171520 0.503980
vt 0.170140 0.518034
vt 0.185908 0.517102
vt 0.189563 0.503461
vt 0.196624 0.491231
vt 0.196624 0.491231
vt 0.206610 0.481245
vt 0.218840 0.474184
vt 0.218840 0.474184
vt 0.232481 0.470528
vt 0.246604 0.470528
vt 0.246604 0.470528
vt 0.260245 0.474183
vt 0.272475 0.481245
vt 0.272475 0.481245
vt 0.282461 0.491230
vt 0.289522 0.503461
vt 0.289522 0.503461
vt 0.293177 0.517102
vt 0.293177 0.531224
vt 0.293177 0.531224
vt 0.289522 0.544865
vt 0.282461 0.557095
vt 0.282461 0.557095
vt 0.272475 0.567081
vt 0.260245 0.574143
vt 0.260245 0.574143
vt 0.246604 0.577798
vt 0.232482 0.577798
vt 0.232482 0.577798
vt 0.218841 0.574143
vt 0.206610 0.567081
vt 0.206610 0.567081
vt 0.196624 0.557095
vt 0.189563 0.544865
vt 0.189563 0.544865
vt 0.185908 0.531224
vt 0.185908 0.517102
vt 0.185908 0.517102
vt 0.196624 0.491231
vt 0.218840 0.474184
vt 0.218840 0.474184
vt 0.246604 0.470528
vt 0.272475 0.481245
vt 0.272475 0.481245
vt 0.289522 0.503461
vt 0.293177 0.531224
vt 0.293177 0.531224
vt 0.282461 0.557095
vt 0.260245 0.574143
vt 0.260245 0.574143
vt 0.232482 0.577798
vt 0.206610 0.567081
vt 0.206610 0.567081
vt 0.189563 0.544865
vt 0.185908 0.517102
vt 0.185908 0.517102
vt 0.218840 0.474184
vt 0.272475 0.481245
vt 0.272475 0.481245
vt 0.293177 0.531224
vt 0.260245 0.574143
vt 0.260245 0.574143
vt 0.206610 0.567081
vt 0.185908 0.517102
vt 0.314867 0.591543
vt 0.299185 0.604235
vt 0.282148 0.578375
vt 0.202555 0.613260
vt 0.214508 0.584692
vt 0.228006 0.588844
vt 0.141144 0.538112
vt 0.171520 0.532089
vt 0.175607 0.545607
vt 0.184794 0.432376
vt 0.202555 0.422808
vt 0.214508 0.451376
vt 0.281333 0.422434
vt 0.299184 0.431833
vt 0.282148 0.457693
vt 0.241907 0.621258
vt 0.242054 0.590291
vt 0.256115 0.588977
vt 0.156467 0.575230
vt 0.182246 0.558071
vt 0.191182 0.569006
vt 0.169233 0.445217
vt 0.191182 0.467062
vt 0.182246 0.477997
vt 0.261994 0.416686
vt 0.256115 0.447091
vt 0.242054 0.445777
vt 0.281333 0.613634
vt 0.269652 0.584954
vt 0.282148 0.578375
vt 0.184794 0.603692
vt 0.202075 0.577995
vt 0.214508 0.584692
vt 0.139172 0.518034
vt 0.170140 0.518034
vt 0.171520 0.532089
vt 0.141144 0.497956
vt 0.146983 0.478645
vt 0.175607 0.490462
vt 0.202555 0.422808
vt 0.221839 0.416877
vt 0.228006 0.447224
vt 0.299184 0.431833
vt 0.314867 0.444525
vt 0.293126 0.466578
vt 0.241907 0.621258
vt 0.221839 0.619191
vt 0.228006 0.588844
vt 0.156467 0.575230
vt 0.146983 0.557424
vt 0.175607 0.545607
vt 0.169233 0.445217
vt 0.184794 0.432376
vt 0.202075 0.458074
vt 0.261994 0.416686
vt 0.281333 0.422434
vt 0.269652 0.451114
vt 0.281333 0.613634
vt 0.261994 0.619382
vt 0.256115 0.588977
vt 0.169233 0.590852
vt 0.191182 0.569006
vt 0.202075 0.577995
vt 0.156467 0.460838
vt 0.182246 0.477997
vt 0.175607 0.490462
vt 0.221839 0.416877
vt 0.241907 0.414810
vt 0.242054 0.445777
vt 0.355951 0.674789
vt 0.355951 0.729534
vt 0.331741 0.729534
vt 0.292802 0.853465
vt 0.281561 0.862091
vt 0.265293 0.845822
vt 0.272936 0.873331
vt 0.253011 0.861828
vt 0.265293 0.845822
vt 0.267514 0.886421
vt 0.245291 0.880467
vt 0.253011 0.861828
vt 0.265665 0.900469
vt 0.242657 0.900469
vt 0.245291 0.880467
vt 0.265665 0.900469
vt 0.267514 0.914516
vt 0.245290 0.920471
vt 0.272936 0.927606
vt 0.253011 0.939110
vt 0.245290 0.920471
vt 0.272936 0.927606
vt 0.281561 0.938847
vt 0.265293 0.955115
vt 0.281561 0.938847
vt 0.292802 0.947472
vt 0.281298 0.967397
vt 0.356133 0.729666
vt 0.356133 0.674921
vt 0.380343 0.674921
vt 0.303026 0.871163
vt 0.305232 0.896374
vt 0.283061 0.895406
vt 0.322059 0.870992
vt 0.326898 0.891571
vt 0.305232 0.896374
vt 0.322059 0.870992
vt 0.331314 0.859962
vt 0.346583 0.881324
vt 0.331314 0.859962
vt 0.341247 0.848124
vt 0.362945 0.866331
vt 0.351179 0.836287
vt 0.374868 0.847615
vt 0.362945 0.866331
vt 0.360434 0.825257
vt 0.381542 0.826450
vt 0.374868 0.847615
vt 0.360434 0.825257
vt 0.357298 0.806484
vt 0.382510 0.804279
vt 0.353925 0.791268
vt 0.377707 0.782613
vt 0.382510 0.804279
vt 0.304133 0.674789
vt 0.304133 0.729534
vt 0.287130 0.729534
vt 0.137404 0.836450
vt 0.214152 0.833795
vt 0.214768 0.843977
vt 0.162255 0.712532
vt 0.232044 0.744574
vt 0.228028 0.753951
vt 0.147576 0.752382
vt 0.151780 0.738852
vt 0.224503 0.763524
vt 0.169701 0.961063
vt 0.164577 0.949018
vt 0.236822 0.926542
vt 0.138260 0.850593
vt 0.214768 0.843977
vt 0.215908 0.854115
vt 0.144077 0.766112
vt 0.147576 0.752382
vt 0.221476 0.773266
vt 0.175200 0.973990
vt 0.169701 0.961063
vt 0.240512 0.935215
vt 0.139844 0.864672
vt 0.215908 0.854115
vt 0.217571 0.864180
vt 0.141291 0.780004
vt 0.144077 0.766112
vt 0.218956 0.783151
vt 0.175200 0.973990
vt 0.244471 0.944522
vt 0.248430 0.953829
vt 0.142154 0.878651
vt 0.217571 0.864180
vt 0.219752 0.874145
vt 0.139226 0.794021
vt 0.141291 0.780004
vt 0.216950 0.793154
vt 0.180699 0.986916
vt 0.248430 0.953829
vt 0.252120 0.962501
vt 0.148922 0.906158
vt 0.145183 0.892492
vt 0.219752 0.874145
vt 0.139226 0.794021
vt 0.215464 0.803246
vt 0.214500 0.813402
vt 0.175388 0.687433
vt 0.183637 0.672223
vt 0.252120 0.704389
vt 0.153362 0.919613
vt 0.148922 0.906158
vt 0.222444 0.883985
vt 0.137888 0.808126
vt 0.214500 0.813402
vt 0.214062 0.823594
vt 0.175388 0.687433
vt 0.241500 0.726502
vt 0.236539 0.735416
vt 0.158491 0.932821
vt 0.153362 0.919613
vt 0.225641 0.893672
vt 0.137280 0.822282
vt 0.214062 0.823594
vt 0.214152 0.833795
vt 0.168497 0.699813
vt 0.236539 0.735416
vt 0.232044 0.744574
vt 0.151780 0.738852
vt 0.156678 0.725557
vt 0.228028 0.753951
vt 0.256976 0.751463
vt 0.266401 0.747559
vt 0.276515 0.746227
vt 0.276515 0.746227
vt 0.286629 0.747559
vt 0.296054 0.751463
vt 0.296054 0.751463
vt 0.304147 0.757673
vt 0.304147 0.785305
vt 0.304147 0.785305
vt 0.304147 0.812937
vt 0.296054 0.819148
vt 0.296054 0.819148
vt 0.286629 0.823051
vt 0.276515 0.824383
vt 0.276515 0.824383
vt 0.266401 0.823051
vt 0.256976 0.819147
vt 0.256976 0.819147
vt 0.248883 0.812937
vt 0.242673 0.804844
vt 0.242673 0.804844
vt 0.238769 0.795419
vt 0.237437 0.785305
vt 0.237437 0.785305
vt 0.238769 0.775191
vt 0.242673 0.765766
vt 0.242673 0.765766
vt 0.248883 0.757673
vt 0.256976 0.751463
vt 0.256976 0.751463
vt 0.276515 0.746227
vt 0.296054 0.751463
vt 0.296054 0.751463
vt 0.304147 0.785305
vt 0.296054 0.819148
vt 0.296054 0.819148
vt 0.276515 0.824383
vt 0.256976 0.819147
vt 0.256976 0.819147
vt 0.242673 0.804844
vt 0.237437 0.785305
vt 0.237437 0.785305
vt 0.242673 0.765766
vt 0.256976 0.751463
vt 0.256976 0.751463
vt 0.296054 0.751463
vt 0.296054 0.819148
vt 0.296054 0.819148
vt 0.256976 0.819147
vt 0.237437 0.785305
vt 0.352529 0.647548
vt 0.356133 0.674921
vt 0.331923 0.674921
vt 0.368952 0.643148
vt 0.379518 0.668655
vt 0.356133 0.674921
vt 0.368770 0.761307
vt 0.352347 0.756907
vt 0.355951 0.729534
vt 0.335345 0.756907
vt 0.331741 0.729534
vt 0.355951 0.729534
vt 0.287312 0.729666
vt 0.287312 0.674921
vt 0.304315 0.674921
vt 0.270310 0.729666
vt 0.270310 0.674921
vt 0.287312 0.674921
vt 0.331923 0.729666
vt 0.331923 0.674921
vt 0.356133 0.674921
vt 0.287130 0.674789
vt 0.287130 0.729534
vt 0.270128 0.729534
vt 0.380161 0.674789
vt 0.380161 0.729534
vt 0.355951 0.729534
vt 0.331741 0.674789
vt 0.331741 0.729534
vt 0.304133 0.729534
vt 0.331923 0.729666
vt 0.304315 0.729666
vt 0.304315 0.674921
vt 0.027237 0.272773
vt 0.369674 0.273121
vt 0.355043 0.316332
vt 0.038157 0.252523
vt 0.369714 0.253196
vt 0.369674 0.273121
vt 0.023486 0.336257
vt 0.012606 0.315985
vt 0.355043 0.316332
vt 0.038551 0.379319
vt 0.023486 0.336257
vt 0.355043 0.336257
vt 0.039338 0.273096
vt 0.028445 0.252831
vt 0.371101 0.252831
vt 0.024232 0.316144
vt 0.356017 0.315804
vt 0.356037 0.335729
vt 0.039338 0.273096
vt 0.371122 0.272756
vt 0.356017 0.315804
vt 0.028138 0.379600
vt 0.013381 0.336432
vt 0.356037 0.335729
vt 0.304147 0.812937
vt 0.304147 0.785305
vt 0.327305 0.795419
vt 0.327305 0.775191
vt 0.304147 0.785305
vt 0.304147 0.757673
vt 0.504430 0.564988
vt 0.464329 0.590407
vt 0.464329 0.564988
vt 0.504430 0.590407
vt 0.464329 0.615825
vt 0.464329 0.590407
vt 0.504430 0.615825
vt 0.464329 0.641244
vt 0.464329 0.615825
vt 0.504430 0.641244
vt 0.464329 0.666662
vt 0.464329 0.641244
vt 0.504430 0.666662
vt 0.464329 0.692080
vt 0.464329 0.666662
vt 0.464185 0.841407
vt 0.504286 0.815989
vt 0.504286 0.841407
vt 0.464185 0.815989
vt 0.504286 0.790571
vt 0.504286 0.815989
vt 0.464185 0.790571
vt 0.504286 0.765152
vt 0.504286 0.790571
vt 0.464185 0.765152
vt 0.504286 0.739734
vt 0.504286 0.765152
vt 0.464185 0.739734
vt 0.504286 0.714316
vt 0.504286 0.739734
vt 0.464185 0.714316
vt 0.504286 0.688897
vt 0.504286 0.714316
vt 0.795896 0.719174
vt 0.759757 0.722508
vt 0.779633 0.702785
vt 0.795896 0.719174
vt 0.799510 0.683062
vt 0.818369 0.702067
vt 0.504430 0.285387
vt 0.464329 0.310805
vt 0.464329 0.285387
vt 0.504430 0.310805
vt 0.464329 0.336223
vt 0.464329 0.310805
vt 0.504430 0.336223
vt 0.464329 0.361642
vt 0.464329 0.336223
vt 0.504430 0.361642
vt 0.464329 0.387060
vt 0.464329 0.361642
vt 0.504430 0.387060
vt 0.464329 0.412479
vt 0.464329 0.387060
vt 0.504430 0.412479
vt 0.464329 0.437897
vt 0.464329 0.412479
vt 0.504430 0.437897
vt 0.464329 0.463315
vt 0.464329 0.437897
vt 0.504430 0.463315
vt 0.464329 0.488734
vt 0.464329 0.463315
vt 0.504430 0.488734
vt 0.464329 0.514152
vt 0.464329 0.488734
vt 0.955567 0.641979
vt 0.951869 0.621353
vt 0.955553 0.607604
vt 0.833918 0.609383
vt 0.860001 0.546413
vt 0.851117 0.579621
vt 0.504430 0.514152
vt 0.464329 0.539570
vt 0.464329 0.514152
vt 0.504430 0.539570
vt 0.464329 0.564988
vt 0.464329 0.539570
vt 0.838231 0.627323
vt 0.847128 0.559748
vt 0.847141 0.594123
vt 0.964171 0.575157
vt 0.955275 0.642732
vt 0.955261 0.608357
vt 0.724516 0.790003
vt 0.688378 0.793337
vt 0.708254 0.773614
vt 0.818369 0.702067
vt 0.831137 0.651678
vt 0.849996 0.670684
vt 0.746989 0.772897
vt 0.759757 0.722508
vt 0.778617 0.741513
vt 0.724516 0.790003
vt 0.728130 0.753891
vt 0.746989 0.772897
vt 0.504430 0.564988
vt 0.504430 0.590407
vt 0.464329 0.590407
vt 0.504430 0.590407
vt 0.504430 0.615825
vt 0.464329 0.615825
vt 0.504430 0.615825
vt 0.504430 0.641244
vt 0.464329 0.641244
vt 0.504430 0.641244
vt 0.504430 0.666662
vt 0.464329 0.666662
vt 0.504430 0.666662
vt 0.504430 0.692080
vt 0.464329 0.692080
vt 0.464185 0.841407
vt 0.464185 0.815989
vt 0.504286 0.815989
vt 0.464185 0.815989
vt 0.464185 0.790571
vt 0.504286 0.790571
vt 0.464185 0.790571
vt 0.464185 0.765152
vt 0.504286 0.765152
vt 0.464185 0.765152
vt 0.464185 0.739734
vt 0.504286 0.739734
vt 0.464185 0.739734
vt 0.464185 0.714316
vt 0.504286 0.714316
vt 0.464185 0.714316
vt 0.464185 0.688897
vt 0.504286 0.688897
vt 0.795896 0.719174
vt 0.778617 0.741513
vt 0.759757 0.722508
vt 0.795896 0.719174
vt 0.779633 0.702785
vt 0.799510 0.683062
vt 0.504430 0.285387
vt 0.504430 0.310805
vt 0.464329 0.310805
vt 0.504430 0.310805
vt 0.504430 0.336223
vt 0.464329 0.336223
vt 0.504430 0.336223
vt 0.504430 0.361642
vt 0.464329 0.361642
vt 0.504430 0.361642
vt 0.504430 0.387060
vt 0.464329 0.387060
vt 0.504430 0.387060
vt 0.504430 0.412479
vt 0.464329 0.412479
vt 0.504430 0.412479
vt 0.504430 0.437897
vt 0.464329 0.437897
vt 0.504430 0.437897
vt 0.504430 0.463315
vt 0.464329 0.463315
vt 0.504430 0.463315
vt 0.504430 0.488734
vt 0.464329 0.488734
vt 0.504430 0.488734
vt 0.504430 0.514152
vt 0.464329 0.514152
vt 0.955553 0.593370
vt 0.969068 0.591590
vt 0.969068 0.609383
vt 0.969068 0.609383
vt 0.964463 0.626570
vt 0.955567 0.641979
vt 0.955567 0.641979
vt 0.942986 0.654560
vt 0.934687 0.643746
vt 0.955567 0.641979
vt 0.934687 0.643746
vt 0.944752 0.633680
vt 0.955553 0.593370
vt 0.969068 0.609383
vt 0.955567 0.641979
vt 0.955553 0.607604
vt 0.955553 0.593370
vt 0.955567 0.641979
vt 0.955567 0.641979
vt 0.944752 0.633680
vt 0.951869 0.621353
vt 0.922360 0.650863
vt 0.934687 0.643746
vt 0.942986 0.654560
vt 0.942986 0.654560
vt 0.927576 0.663457
vt 0.910390 0.668062
vt 0.910390 0.668062
vt 0.892597 0.668062
vt 0.875410 0.663457
vt 0.875410 0.663457
vt 0.860001 0.654560
vt 0.847420 0.641979
vt 0.847420 0.641979
vt 0.838524 0.626570
vt 0.833918 0.609383
vt 0.833918 0.609383
vt 0.833918 0.591590
vt 0.838523 0.574404
vt 0.838523 0.574404
vt 0.847420 0.558995
vt 0.860001 0.546413
vt 0.860001 0.546413
vt 0.875410 0.537517
vt 0.892597 0.532912
vt 0.892597 0.532912
vt 0.910390 0.532912
vt 0.927576 0.537517
vt 0.927576 0.537517
vt 0.942985 0.546413
vt 0.955567 0.558995
vt 0.955567 0.558995
vt 0.964463 0.574404
vt 0.969068 0.591590
vt 0.969068 0.591590
vt 0.955553 0.593370
vt 0.951869 0.579620
vt 0.969068 0.591590
vt 0.951869 0.579620
vt 0.944752 0.567293
vt 0.927576 0.537517
vt 0.955567 0.558995
vt 0.969068 0.591590
vt 0.860001 0.546413
vt 0.892597 0.532912
vt 0.927576 0.537517
vt 0.833918 0.609383
vt 0.838523 0.574404
vt 0.860001 0.546413
vt 0.875410 0.663457
vt 0.847420 0.641979
vt 0.833918 0.609383
vt 0.942986 0.654560
vt 0.910390 0.668062
vt 0.875410 0.663457
vt 0.908611 0.654547
vt 0.922360 0.650863
vt 0.942986 0.654560
vt 0.894376 0.654547
vt 0.908611 0.654547
vt 0.942986 0.654560
vt 0.927576 0.537517
vt 0.969068 0.591590
vt 0.944752 0.567293
vt 0.927576 0.537517
vt 0.944752 0.567293
vt 0.934687 0.557228
vt 0.894376 0.654547
vt 0.942986 0.654560
vt 0.875410 0.663457
vt 0.880627 0.650863
vt 0.894376 0.654547
vt 0.875410 0.663457
vt 0.927576 0.537517
vt 0.934687 0.557228
vt 0.922360 0.550111
vt 0.927576 0.537517
vt 0.922360 0.550111
vt 0.908611 0.546427
vt 0.868300 0.643746
vt 0.880627 0.650863
vt 0.875410 0.663457
vt 0.858235 0.633680
vt 0.868300 0.643746
vt 0.875410 0.663457
vt 0.860001 0.546413
vt 0.927576 0.537517
vt 0.908611 0.546427
vt 0.860001 0.546413
vt 0.908611 0.546427
vt 0.894376 0.546427
vt 0.858235 0.633680
vt 0.875410 0.663457
vt 0.833918 0.609383
vt 0.851117 0.621353
vt 0.858235 0.633680
vt 0.833918 0.609383
vt 0.860001 0.546413
vt 0.894376 0.546427
vt 0.880627 0.550111
vt 0.860001 0.546413
vt 0.880627 0.550111
vt 0.868300 0.557228
vt 0.847433 0.607604
vt 0.851117 0.621353
vt 0.833918 0.609383
vt 0.847433 0.593370
vt 0.847433 0.607604
vt 0.833918 0.609383
vt 0.860001 0.546413
vt 0.868300 0.557228
vt 0.858235 0.567293
vt 0.851117 0.579621
vt 0.847433 0.593370
vt 0.833918 0.609383
vt 0.860001 0.546413
vt 0.858235 0.567293
vt 0.851117 0.579621
vt 0.504430 0.514152
vt 0.504430 0.539570
vt 0.464329 0.539570
vt 0.504430 0.539570
vt 0.504430 0.564988
vt 0.464329 0.564988
vt 0.847141 0.608357
vt 0.850825 0.622106
vt 0.838231 0.627323
vt 0.838231 0.627323
vt 0.833626 0.610136
vt 0.833626 0.592343
vt 0.833626 0.592343
vt 0.838231 0.575157
vt 0.847128 0.559748
vt 0.847128 0.559748
vt 0.857942 0.568046
vt 0.850825 0.580373
vt 0.847141 0.594123
vt 0.847141 0.608357
vt 0.838231 0.627323
vt 0.847128 0.559748
vt 0.850825 0.580373
vt 0.847141 0.594123
vt 0.838231 0.627323
vt 0.833626 0.592343
vt 0.847128 0.559748
vt 0.868007 0.557981
vt 0.857942 0.568046
vt 0.847128 0.559748
vt 0.847128 0.559748
vt 0.859709 0.547166
vt 0.875118 0.538270
vt 0.875118 0.538270
vt 0.892305 0.533665
vt 0.910097 0.533665
vt 0.910097 0.533665
vt 0.927284 0.538270
vt 0.942693 0.547166
vt 0.942693 0.547166
vt 0.955275 0.559748
vt 0.964171 0.575157
vt 0.964171 0.575157
vt 0.968776 0.592343
vt 0.968776 0.610136
vt 0.968776 0.610136
vt 0.964171 0.627323
vt 0.955275 0.642732
vt 0.955275 0.642732
vt 0.942693 0.655313
vt 0.927284 0.664210
vt 0.927284 0.664210
vt 0.910098 0.668815
vt 0.892305 0.668815
vt 0.892305 0.668815
vt 0.875118 0.664210
vt 0.859709 0.655313
vt 0.859709 0.655313
vt 0.847128 0.642732
vt 0.838231 0.627323
vt 0.838231 0.627323
vt 0.850825 0.622106
vt 0.857942 0.634433
vt 0.838231 0.627323
vt 0.857942 0.634433
vt 0.868008 0.644498
vt 0.892305 0.668815
vt 0.859709 0.655313
vt 0.838231 0.627323
vt 0.955275 0.642732
vt 0.927284 0.664210
vt 0.892305 0.668815
vt 0.964171 0.575157
vt 0.968776 0.610136
vt 0.955275 0.642732
vt 0.910097 0.533665
vt 0.942693 0.547166
vt 0.964171 0.575157
vt 0.847128 0.559748
vt 0.875118 0.538270
vt 0.910097 0.533665
vt 0.880335 0.550864
vt 0.868007 0.557981
vt 0.847128 0.559748
vt 0.894084 0.547180
vt 0.880335 0.550864
vt 0.847128 0.559748
vt 0.892305 0.668815
vt 0.838231 0.627323
vt 0.868008 0.644498
vt 0.892305 0.668815
vt 0.868008 0.644498
vt 0.880335 0.651616
vt 0.894084 0.547180
vt 0.847128 0.559748
vt 0.910097 0.533665
vt 0.908318 0.547180
vt 0.894084 0.547180
vt 0.910097 0.533665
vt 0.892305 0.668815
vt 0.880335 0.651616
vt 0.894084 0.655300
vt 0.892305 0.668815
vt 0.894084 0.655300
vt 0.908318 0.655300
vt 0.922067 0.550864
vt 0.908318 0.547180
vt 0.910097 0.533665
vt 0.934395 0.557981
vt 0.922067 0.550864
vt 0.910097 0.533665
vt 0.955275 0.642732
vt 0.892305 0.668815
vt 0.908318 0.655300
vt 0.955275 0.642732
vt 0.908318 0.655300
vt 0.922068 0.651616
vt 0.934395 0.557981
vt 0.910097 0.533665
vt 0.964171 0.575157
vt 0.944460 0.568046
vt 0.934395 0.557981
vt 0.964171 0.575157
vt 0.955275 0.642732
vt 0.922068 0.651616
vt 0.934395 0.644498
vt 0.955275 0.642732
vt 0.934395 0.644498
vt 0.944460 0.634433
vt 0.951577 0.580373
vt 0.944460 0.568046
vt 0.964171 0.575157
vt 0.955261 0.594123
vt 0.951577 0.580373
vt 0.964171 0.575157
vt 0.955275 0.642732
vt 0.944460 0.634433
vt 0.951577 0.622106
vt 0.955261 0.608357
vt 0.955261 0.594123
vt 0.964171 0.575157
vt 0.955275 0.642732
vt 0.951577 0.622106
vt 0.955261 0.608357
vt 0.724516 0.790003
vt 0.707237 0.812343
vt 0.688378 0.793337
vt 0.818369 0.702067
vt 0.799510 0.683062
vt 0.831137 0.651678
vt 0.746989 0.772897
vt 0.728130 0.753891
vt 0.759757 0.722508
vt 0.724516 0.790003
vt 0.708254 0.773614
vt 0.728130 0.753891
vt 0.994327 0.817174
vt 0.962802 0.831297
vt 0.962802 0.817174
vt 0.994327 0.831297
vt 0.962802 0.845419
vt 0.962802 0.831297
vt 0.994327 0.845419
vt 0.962802 0.859541
vt 0.962802 0.845419
vt 0.994327 0.859541
vt 0.962802 0.873664
vt 0.962802 0.859541
vt 0.994327 0.873664
vt 0.962802 0.887786
vt 0.962802 0.873664
vt 0.994327 0.887786
vt 0.962802 0.901908
vt 0.962802 0.887786
vt 0.994327 0.901908
vt 0.962802 0.916030
vt 0.962802 0.901908
vt 0.994327 0.916030
vt 0.962802 0.930153
vt 0.962802 0.916030
vt 0.994327 0.930153
vt 0.962802 0.944275
vt 0.962802 0.930153
vt 0.994327 0.944275
vt 0.962802 0.958397
vt 0.962802 0.944275
vt 0.994327 0.958397
vt 0.962802 0.972519
vt 0.962802 0.958397
vt 0.994327 0.972519
vt 0.962802 0.986642
vt 0.962802 0.972519
vt 0.994327 0.647707
vt 0.962802 0.661830
vt 0.962802 0.647707
vt 0.994327 0.661830
vt 0.962802 0.675952
vt 0.962802 0.661830
vt 0.994327 0.675952
vt 0.962802 0.690074
vt 0.962802 0.675952
vt 0.994327 0.690074
vt 0.962802 0.704196
vt 0.962802 0.690074
vt 0.994327 0.704196
vt 0.962802 0.718319
vt 0.962802 0.704196
vt 0.994327 0.718319
vt 0.962802 0.732441
vt 0.962802 0.718319
vt 0.994327 0.732441
vt 0.962802 0.746563
vt 0.962802 0.732441
vt 0.994327 0.746563
vt 0.962802 0.760685
vt 0.962802 0.746563
vt 0.994327 0.760685
vt 0.962802 0.774808
vt 0.962802 0.760685
vt 0.994327 0.774808
vt 0.962802 0.788930
vt 0.962802 0.774808
vt 0.994327 0.788930
vt 0.962802 0.803052
vt 0.962802 0.788930
vt 0.994327 0.803052
vt 0.962802 0.817174
vt 0.962802 0.803052
vt 0.994327 0.817174
vt 0.994327 0.831297
vt 0.962802 0.831297
vt 0.994327 0.831297
vt 0.994327 0.845419
vt 0.962802 0.845419
vt 0.994327 0.845419
vt 0.994327 0.859541
vt 0.962802 0.859541
vt 0.994327 0.859541
vt 0.994327 0.873664
vt 0.962802 0.873664
vt 0.994327 0.873664
vt 0.994327 0.887786
vt 0.962802 0.887786
vt 0.994327 0.887786
vt 0.994327 0.901908
vt 0.962802 0.901908
vt 0.994327 0.901908
vt 0.994327 0.916030
vt 0.962802 0.916030
vt 0.994327 0.916030
vt 0.994327 0.930153
vt 0.962802 0.930153
vt 0.994327 0.930153
vt 0.994327 0.944275
vt 0.962802 0.944275
vt 0.994327 0.944275
vt 0.994327 0.958397
vt 0.962802 0.958397
vt 0.994327 0.958397
vt 0.994327 0.972519
vt 0.962802 0.972519
vt 0.994327 0.972519
vt 0.994327 0.986642
vt 0.962802 0.986642
vt 0.994327 0.647707
vt 0.994327 0.661830
vt 0.962802 0.661830
vt 0.994327 0.661830
vt 0.994327 0.675952
vt 0.962802 0.675952
vt 0.994327 0.675952
vt 0.994327 0.690074
vt 0.962802 0.690074
vt 0.994327 0.690074
vt 0.994327 0.704196
vt 0.962802 0.704196
vt 0.994327 0.704196
vt 0.994327 0.718319
vt 0.962802 0.718319
vt 0.994327 0.718319
vt 0.994327 0.732441
vt 0.962802 0.732441
vt 0.994327 0.732441
vt 0.994327 0.746563
vt 0.962802 0.746563
vt 0.994327 0.746563
vt 0.994327 0.760685
vt 0.962802 0.760685
vt 0.994327 0.760685
vt 0.994327 0.774808
vt 0.962802 0.774808
vt 0.994327 0.774808
vt 0.994327 0.788930
vt 0.962802 0.788930
vt 0.994327 0.788930
vt 0.994327 0.803052
vt 0.962802 0.803052
vt 0.994327 0.803052
vt 0.994327 0.817174
vt 0.962802 0.817174
vt 0.412781 0.600293
vt 0.447115 0.786267
vt 0.412781 0.786267
vt 0.655773 0.769248
vt 0.646465 0.757291
vt 0.653842 0.756864
vt 0.731026 0.608897
vt 0.683109 0.715848
vt 0.673987 0.702396
vt 0.447115 0.535471
vt 0.412781 0.574095
vt 0.412781 0.535471
vt 0.643519 0.862347
vt 0.640886 0.850941
vt 0.652371 0.847264
vt 0.638652 0.850460
vt 0.636639 0.862785
vt 0.631443 0.859817
vt 0.447115 0.509172
vt 0.412781 0.516793
vt 0.412781 0.509172
vt 0.447115 0.516793
vt 0.412781 0.525615
vt 0.412781 0.516793
vt 0.447115 0.525615
vt 0.412781 0.535471
vt 0.412781 0.525615
vt 0.412781 0.600293
vt 0.447115 0.592701
vt 0.447115 0.600293
vt 0.412781 0.592701
vt 0.447115 0.583929
vt 0.447115 0.592701
vt 0.412781 0.583929
vt 0.447115 0.574095
vt 0.447115 0.583929
vt 0.604933 0.568400
vt 0.531964 0.587214
vt 0.531964 0.568400
vt 0.531964 0.587214
vt 0.604933 0.606029
vt 0.531964 0.606029
vt 0.604933 0.455512
vt 0.531964 0.474327
vt 0.531964 0.455512
vt 0.604933 0.474327
vt 0.531964 0.493141
vt 0.531964 0.474327
vt 0.604933 0.493142
vt 0.531964 0.511956
vt 0.531964 0.493141
vt 0.531964 0.511956
vt 0.604933 0.530771
vt 0.531964 0.530771
vt 0.511274 0.852424
vt 0.531804 0.802859
vt 0.581370 0.823389
vt 0.604933 0.530771
vt 0.531964 0.549585
vt 0.531964 0.530771
vt 0.604933 0.549585
vt 0.531964 0.568400
vt 0.531964 0.549585
vt 0.446973 0.265650
vt 0.412640 0.415503
vt 0.412640 0.265650
vt 0.412781 0.323198
vt 0.447115 0.509172
vt 0.412781 0.509172
vt 0.516590 0.709155
vt 0.588510 0.712864
vt 0.521473 0.722452
vt 0.446973 0.710876
vt 0.412639 0.681908
vt 0.446973 0.681908
vt 0.805523 0.631494
vt 0.731026 0.608897
vt 0.813393 0.617237
vt 0.412639 0.681908
vt 0.446973 0.532055
vt 0.446973 0.681908
vt 0.640043 0.501669
vt 0.673401 0.488912
vt 0.646361 0.512610
vt 0.412640 0.454875
vt 0.446973 0.496004
vt 0.412640 0.496003
vt 0.446973 0.415503
vt 0.412640 0.430270
vt 0.412640 0.415503
vt 0.446973 0.430270
vt 0.412640 0.443465
vt 0.412640 0.430270
vt 0.446973 0.443465
vt 0.412640 0.454875
vt 0.412640 0.443465
vt 0.683182 0.623136
vt 0.680900 0.632689
vt 0.653904 0.617314
vt 0.412639 0.710876
vt 0.446973 0.735500
vt 0.412639 0.735500
vt 0.504567 0.258512
vt 0.465328 0.283679
vt 0.465328 0.258512
vt 0.447115 0.255884
vt 0.412781 0.274916
vt 0.412781 0.255884
vt 0.412781 0.274916
vt 0.447115 0.323198
vt 0.412781 0.323198
vt 0.560146 0.874505
vt 0.510580 0.853974
vt 0.531111 0.804409
vt 0.412640 0.496003
vt 0.446973 0.532055
vt 0.412640 0.532055
vt 0.646465 0.757291
vt 0.649216 0.771736
vt 0.641330 0.769962
vt 0.627564 0.754032
vt 0.640055 0.747382
vt 0.634379 0.759821
vt 0.634272 0.764472
vt 0.622654 0.736008
vt 0.631608 0.749796
vt 0.588510 0.712864
vt 0.516590 0.709155
vt 0.520371 0.693207
vt 0.521473 0.722452
vt 0.588510 0.712864
vt 0.544588 0.749966
vt 0.811881 0.598457
vt 0.731026 0.608897
vt 0.801392 0.580184
vt 0.531802 0.678883
vt 0.548273 0.664970
vt 0.588510 0.712864
vt 0.588510 0.712864
vt 0.520371 0.693207
vt 0.531802 0.678883
vt 0.731026 0.608897
vt 0.805523 0.631494
vt 0.774456 0.658721
vt 0.813393 0.617237
vt 0.731026 0.608897
vt 0.811881 0.598457
vt 0.801392 0.580184
vt 0.731026 0.608897
vt 0.785106 0.561500
vt 0.609810 0.717537
vt 0.622654 0.736008
vt 0.606566 0.723398
vt 0.607213 0.731110
vt 0.622654 0.736008
vt 0.611576 0.738613
vt 0.606566 0.723398
vt 0.622654 0.736008
vt 0.607213 0.731110
vt 0.638652 0.850460
vt 0.643519 0.862347
vt 0.636639 0.862785
vt 0.544588 0.749966
vt 0.624670 0.800397
vt 0.615122 0.810734
vt 0.664035 0.836051
vt 0.677533 0.822068
vt 0.679490 0.827514
vt 0.650242 0.858669
vt 0.654518 0.846571
vt 0.664035 0.836051
vt 0.679490 0.827514
vt 0.677874 0.834002
vt 0.664035 0.836051
vt 0.677874 0.834002
vt 0.673119 0.839797
vt 0.664035 0.836051
vt 0.653904 0.617314
vt 0.588510 0.712864
vt 0.548273 0.664970
vt 0.680257 0.615164
vt 0.653904 0.617314
vt 0.660567 0.591726
vt 0.653904 0.617314
vt 0.680900 0.632689
vt 0.674022 0.641261
vt 0.653904 0.617314
vt 0.680257 0.615164
vt 0.683182 0.623136
vt 0.660567 0.591726
vt 0.653904 0.617314
vt 0.633785 0.593367
vt 0.673401 0.488912
vt 0.785106 0.561500
vt 0.731026 0.608897
vt 0.673401 0.488912
vt 0.670297 0.458675
vt 0.700442 0.465214
vt 0.670297 0.458675
vt 0.673401 0.488912
vt 0.643833 0.481869
vt 0.673401 0.488912
vt 0.639117 0.490417
vt 0.643833 0.481869
vt 0.639117 0.490417
vt 0.673401 0.488912
vt 0.640043 0.501669
vt 0.412781 0.600293
vt 0.447115 0.600293
vt 0.447115 0.786267
vt 0.655773 0.769248
vt 0.649216 0.771736
vt 0.646465 0.757291
vt 0.621807 0.719660
vt 0.622654 0.736008
vt 0.609810 0.717537
vt 0.655773 0.769248
vt 0.653842 0.756864
vt 0.663229 0.756133
vt 0.655773 0.769248
vt 0.663229 0.756133
vt 0.677342 0.746414
vt 0.629223 0.705049
vt 0.621807 0.719660
vt 0.609810 0.717537
vt 0.642943 0.696077
vt 0.629223 0.705049
vt 0.609810 0.717537
vt 0.774456 0.658721
vt 0.655773 0.769248
vt 0.677342 0.746414
vt 0.774456 0.658721
vt 0.677342 0.746414
vt 0.684312 0.731957
vt 0.642943 0.696077
vt 0.609810 0.717537
vt 0.731026 0.608897
vt 0.659321 0.695108
vt 0.642943 0.696077
vt 0.731026 0.608897
vt 0.731026 0.608897
vt 0.774456 0.658721
vt 0.684312 0.731957
vt 0.731026 0.608897
vt 0.684312 0.731957
vt 0.683109 0.715848
vt 0.673987 0.702396
vt 0.659321 0.695108
vt 0.731026 0.608897
vt 0.447115 0.535471
vt 0.447115 0.574095
vt 0.412781 0.574095
vt 0.652371 0.847264
vt 0.650242 0.858669
vt 0.643519 0.862347
vt 0.643519 0.862347
vt 0.638652 0.850460
vt 0.640886 0.850941
vt 0.447115 0.509172
vt 0.447115 0.516793
vt 0.412781 0.516793
vt 0.447115 0.516793
vt 0.447115 0.525615
vt 0.412781 0.525615
vt 0.447115 0.525615
vt 0.447115 0.535471
vt 0.412781 0.535471
vt 0.412781 0.600293
vt 0.412781 0.592701
vt 0.447115 0.592701
vt 0.412781 0.592701
vt 0.412781 0.583929
vt 0.447115 0.583929
vt 0.412781 0.583929
vt 0.412781 0.574095
vt 0.447115 0.574095
vt 0.604933 0.568400
vt 0.604933 0.587214
vt 0.531964 0.587214
vt 0.531964 0.587214
vt 0.604933 0.587214
vt 0.604933 0.606029
vt 0.604933 0.455512
vt 0.604933 0.474327
vt 0.531964 0.474327
vt 0.604933 0.474327
vt 0.604933 0.493142
vt 0.531964 0.493141
vt 0.604933 0.493142
vt 0.604933 0.511956
vt 0.531964 0.511956
vt 0.531964 0.511956
vt 0.604933 0.511956
vt 0.604933 0.530771
vt 0.581370 0.823389
vt 0.581370 0.852424
vt 0.560839 0.872955
vt 0.560839 0.872955
vt 0.531804 0.872955
vt 0.511274 0.852424
vt 0.511274 0.852424
vt 0.511274 0.823389
vt 0.531804 0.802859
vt 0.531804 0.802859
vt 0.560839 0.802859
vt 0.581370 0.823389
vt 0.581370 0.823389
vt 0.560839 0.872955
vt 0.511274 0.852424
vt 0.604933 0.530771
vt 0.604933 0.549585
vt 0.531964 0.549585
vt 0.604933 0.549585
vt 0.604933 0.568400
vt 0.531964 0.568400
vt 0.446973 0.265650
vt 0.446973 0.415503
vt 0.412640 0.415503
vt 0.412781 0.323198
vt 0.447115 0.323198
vt 0.447115 0.509172
vt 0.446973 0.710876
vt 0.412639 0.710876
vt 0.412639 0.681908
vt 0.412639 0.681908
vt 0.412640 0.532055
vt 0.446973 0.532055
vt 0.412640 0.454875
vt 0.446973 0.454875
vt 0.446973 0.496004
vt 0.446973 0.415503
vt 0.446973 0.430270
vt 0.412640 0.430270
vt 0.446973 0.430270
vt 0.446973 0.443465
vt 0.412640 0.443465
vt 0.446973 0.443465
vt 0.446973 0.454875
vt 0.412640 0.454875
vt 0.412639 0.710876
vt 0.446973 0.710876
vt 0.446973 0.735500
vt 0.504567 0.258512
vt 0.504567 0.283679
vt 0.465328 0.283679
vt 0.447115 0.255884
vt 0.447115 0.274916
vt 0.412781 0.274916
vt 0.412781 0.274916
vt 0.447115 0.274916
vt 0.447115 0.323198
vt 0.531111 0.804409
vt 0.560146 0.804409
vt 0.580676 0.824939
vt 0.580676 0.824939
vt 0.580676 0.853974
vt 0.560146 0.874505
vt 0.560146 0.874505
vt 0.531111 0.874505
vt 0.510580 0.853974
vt 0.510580 0.853974
vt 0.510580 0.824939
vt 0.531111 0.804409
vt 0.531111 0.804409
vt 0.580676 0.824939
vt 0.560146 0.874505
vt 0.412640 0.496003
vt 0.446973 0.496004
vt 0.446973 0.532055
vt 0.631608 0.749796
vt 0.646465 0.757291
vt 0.634272 0.764472
vt 0.634272 0.764472
vt 0.611576 0.738613
vt 0.622654 0.736008
vt 0.677533 0.822068
vt 0.664035 0.836051
vt 0.667001 0.822261
vt 0.677533 0.822068
vt 0.667001 0.822261
vt 0.662613 0.808774
vt 0.626831 0.847723
vt 0.638652 0.850460
vt 0.631443 0.859817
vt 0.616099 0.837617
vt 0.626831 0.847723
vt 0.631443 0.859817
vt 0.588510 0.712864
vt 0.677533 0.822068
vt 0.662613 0.808774
vt 0.588510 0.712864
vt 0.662613 0.808774
vt 0.652068 0.799233
vt 0.616099 0.837617
vt 0.631443 0.859817
vt 0.544588 0.749966
vt 0.612012 0.824374
vt 0.616099 0.837617
vt 0.544588 0.749966
vt 0.544588 0.749966
vt 0.588510 0.712864
vt 0.652068 0.799233
vt 0.544588 0.749966
vt 0.652068 0.799233
vt 0.638180 0.796150
vt 0.615122 0.810734
vt 0.612012 0.824374
vt 0.544588 0.749966
vt 0.544588 0.749966
vt 0.638180 0.796150
vt 0.624670 0.800397
vt 0.664035 0.836051
vt 0.673119 0.839797
vt 0.650242 0.858669
vt 0.650242 0.858669
vt 0.652371 0.847264
vt 0.654518 0.846571
vt 0.548273 0.664970
vt 0.633785 0.593367
vt 0.653904 0.617314
vt 0.653904 0.617314
vt 0.674022 0.641261
vt 0.588510 0.712864
vt 0.731026 0.608897
vt 0.646361 0.512610
vt 0.673401 0.488912
vt 0.673401 0.488912
vt 0.700442 0.465214
vt 0.785106 0.561500
usemtl Material
f 1/1/1 2/2/2 3/3/3
f 4/4/4 5/5/5 6/6/6
f 7/7/7 8/8/8 9/9/9
f 10/10/10 11/11/11 12/12/12
f 13/13/13 14/14/14 15/15/15
f 16/16/16 17/17/17 18/18/18
f 19/19/19 20/20/20 21/21/21
f 22/22/22 23/23/23 24/24/24
f 25/25/25 8/26/8 26/27/26
f 27/28/27 28/29/28 29/30/29
f 30/31/30 31/32/31 32/33/32
f 33/34/33 34/35/34 35/36/35
f 36/37/36 11/38/11 37/39/37
f 38/40/38 39/41/39 13/42/13
f 6/43/6 9/44/9 16/45/16
f 4/46/4 40/47/40 41/48/41
f 42/49/42 7/50/7 20/51/20
f 43/52/43 12/53/12 23/54/23
f 25/55/25 14/56/14 44/57/44
f 27/58/27 17/59/17 45/60/45
f 30/61/30 21/62/21 46/63/46
f 33/64/33 24/65/24 47/66/47
f 36/67/36 8/68/8 48/69/48
f 29/70/29 49/71/49 38/72/38
f 32/73/32 40/74/40 50/75/50
f 51/76/51 34/77/34 7/78/7
f 52/79/52 53/80/53 54/81/54
f 55/82/55 56/83/56 57/84/57
f 58/85/58 56/86/56 59/87/59
f 60/88/60 61/89/61 58/90/58
f 62/91/62 63/92/63 60/93/60
f 62/94/62 64/95/64 65/96/65
f 66/97/66 64/98/64 67/99/67
f 66/100/66 68/101/68 69/102/69
f 70/103/70 71/104/71 68/105/68
f 72/106/72 73/107/73 74/108/74
f 1/109/1 74/110/74 75/111/75
f 3/112/3 76/113/76 1/114/1
f 3/115/3 77/116/77 78/117/78
f 79/118/79 80/119/80 77/120/77
f 81/121/81 80/122/80 82/123/82
f 83/124/83 84/125/84 81/126/81
f 83/127/83 85/128/85 86/129/86
f 87/130/87 85/131/85 88/132/88
f 89/133/89 90/134/90 91/135/91
f 66/136/66 92/137/92 70/138/70
f 91/139/91 93/140/93 89/141/89
f 55/142/55 94/143/94 95/144/95
f 79/145/79 2/146/2 96/147/96
f 70/148/70 97/149/97 98/150/98
f 59/151/59 95/152/95 99/153/99
f 82/154/82 96/155/96 100/156/100
f 98/157/98 101/158/101 102/159/102
f 58/160/58 99/161/99 103/162/103
f 82/163/82 104/164/104 81/165/81
f 102/166/102 105/167/105 106/168/106
f 60/169/60 103/170/103 107/171/107
f 81/172/81 108/173/108 83/174/83
f 109/175/109 105/176/105 110/177/110
f 60/178/60 111/179/111 62/180/62
f 88/181/88 108/182/108 112/183/112
f 75/184/75 110/185/110 113/186/113
f 62/187/62 114/188/114 67/189/67
f 88/190/88 115/191/115 87/192/87
f 1/193/1 113/194/113 116/195/116
f 67/196/67 117/197/117 66/198/66
f 87/199/87 118/200/118 91/201/91
f 119/202/119 93/203/93 94/204/94
f 113/205/113 111/206/111 95/207/95
f 120/208/120 121/209/121 122/210/122
f 123/211/123 124/212/124 120/213/120
f 125/214/125 126/215/126 127/216/127
f 128/217/128 126/218/126 90/219/90
f 109/220/109 122/221/122 106/222/106
f 75/223/75 120/224/120 109/225/109
f 129/226/129 124/227/124 72/228/72
f 91/229/91 125/230/125 87/231/87
f 130/232/130 126/233/126 52/234/52
f 54/235/54 128/236/128 89/237/89
f 129/238/129 122/239/122 121/240/121
f 89/241/89 131/242/131 54/243/54
f 89/244/89 119/245/119 131/246/131
f 71/247/71 98/248/98 102/249/102
f 119/250/119 55/251/55 57/252/57
f 119/253/119 57/254/57 131/255/131
f 106/256/106 132/257/132 102/258/102
f 129/259/129 132/260/132 106/261/106
f 132/262/132 71/263/71 102/264/102
f 125/265/125 133/266/133 87/267/87
f 127/268/127 134/269/134 125/270/125
f 130/271/130 133/272/133 135/273/135
f 127/274/127 135/275/135 136/276/136
f 73/277/73 137/278/137 138/279/138
f 74/280/74 139/281/139 75/282/75
f 73/283/73 140/284/140 74/285/74
f 123/286/123 139/287/139 137/288/137
f 116/289/116 96/290/96 2/291/2
f 100/292/100 141/293/141 104/294/104
f 104/295/104 112/296/112 108/297/108
f 96/298/96 141/299/141 100/300/100
f 1/301/1 116/302/116 2/303/2
f 4/304/4 41/305/41 5/306/5
f 9/307/9 5/308/5 41/309/41
f 41/310/41 40/311/40 31/312/31
f 31/313/31 46/314/46 21/315/21
f 21/316/21 20/317/20 7/318/7
f 7/319/7 34/320/34 47/321/47
f 47/322/47 24/323/24 23/324/23
f 23/325/23 12/326/12 11/327/11
f 11/328/11 48/329/48 8/330/8
f 8/331/8 44/332/44 14/333/14
f 14/334/14 39/335/39 49/336/49
f 49/337/49 28/338/28 45/339/45
f 45/340/45 17/341/17 9/342/9
f 9/343/9 41/344/41 31/345/31
f 31/346/31 21/347/21 7/348/7
f 7/349/7 47/350/47 23/351/23
f 23/352/23 11/353/11 8/354/8
f 8/355/8 14/356/14 49/357/49
f 49/358/49 45/359/45 9/360/9
f 9/361/9 31/362/31 7/363/7
f 7/364/7 23/365/23 8/366/8
f 8/367/8 49/368/49 9/369/9
f 10/370/10 37/371/37 11/372/11
f 13/373/13 39/374/39 14/375/14
f 16/376/16 9/377/9 17/378/17
f 19/379/19 42/380/42 20/381/20
f 22/382/22 43/383/43 23/384/23
f 25/385/25 44/386/44 8/387/8
f 27/388/27 45/389/45 28/390/28
f 30/391/30 46/392/46 31/393/31
f 33/394/33 47/395/47 34/396/34
f 36/397/36 48/398/48 11/399/11
f 38/400/38 49/401/49 39/402/39
f 6/403/6 5/404/5 9/405/9
f 4/406/4 50/407/50 40/408/40
f 42/409/42 51/410/51 7/411/7
f 43/412/43 10/413/10 12/414/12
f 25/415/25 15/416/15 14/417/14
f 27/418/27 18/419/18 17/420/17
f 30/421/30 19/422/19 21/423/21
f 33/424/33 22/425/22 24/426/24
f 36/427/36 26/428/26 8/429/8
f 29/430/29 28/431/28 49/432/49
f 32/433/32 31/434/31 40/435/40
f 51/436/51 35/437/35 34/438/34
f 52/439/52 126/440/126 53/441/53
f 55/442/55 59/443/59 56/444/56
f 58/445/58 61/446/61 56/447/56
f 60/448/60 63/449/63 61/450/61
f 62/451/62 65/452/65 63/453/63
f 62/454/62 67/455/67 64/456/64
f 66/457/66 69/458/69 64/459/64
f 66/460/66 70/461/70 68/462/68
f 70/463/70 98/464/98 71/465/71
f 72/466/72 124/467/124 73/468/73
f 1/469/1 76/470/76 74/471/74
f 3/472/3 78/473/78 76/474/76
f 3/475/3 79/476/79 77/477/77
f 79/478/79 82/479/82 80/480/80
f 81/481/81 84/482/84 80/483/80
f 83/484/83 86/485/86 84/486/84
f 83/487/83 88/488/88 85/489/85
f 87/490/87 130/491/130 85/492/85
f 89/493/89 128/494/128 90/495/90
f 66/496/66 117/497/117 92/498/92
f 91/499/91 118/500/118 93/501/93
f 55/502/55 119/503/119 94/504/94
f 79/505/79 3/506/3 2/507/2
f 70/508/70 92/509/92 97/510/97
f 59/511/59 55/512/55 95/513/95
f 82/514/82 79/515/79 96/516/96
f 98/517/98 97/518/97 101/519/101
f 58/520/58 59/521/59 99/522/99
f 82/523/82 100/524/100 104/525/104
f 102/526/102 101/527/101 105/528/105
f 60/529/60 58/530/58 103/531/103
f 81/532/81 104/533/104 108/534/108
f 109/535/109 106/536/106 105/537/105
f 60/538/60 107/539/107 111/540/111
f 88/541/88 83/542/83 108/543/108
f 75/544/75 109/545/109 110/546/110
f 62/547/62 111/548/111 114/549/114
f 88/550/88 112/551/112 115/552/115
f 1/553/1 75/554/75 113/555/113
f 67/556/67 114/557/114 117/558/117
f 87/559/87 115/560/115 118/561/118
f 119/562/119 89/563/89 93/564/93
f 95/565/95 94/566/94 93/567/93
f 93/568/93 118/569/118 115/570/115
f 115/571/115 112/572/112 141/573/141
f 141/574/141 116/575/116 113/576/113
f 113/577/113 110/578/110 105/579/105
f 105/580/105 101/581/101 97/582/97
f 97/583/97 92/584/92 117/585/117
f 117/586/117 114/587/114 111/588/111
f 111/589/111 107/590/107 103/591/103
f 103/592/103 99/593/99 95/594/95
f 95/595/95 93/596/93 115/597/115
f 115/598/115 141/599/141 113/600/113
f 113/601/113 105/602/105 97/603/97
f 97/604/97 117/605/117 111/606/111
f 111/607/111 103/608/103 95/609/95
f 95/610/95 115/611/115 113/612/113
f 113/613/113 97/614/97 111/615/111
f 120/616/120 124/617/124 121/618/121
f 123/619/123 73/620/73 124/621/124
f 125/622/125 90/623/90 126/624/126
f 128/625/128 53/626/53 126/627/126
f 109/628/109 120/629/120 122/630/122
f 75/631/75 123/632/123 120/633/120
f 129/634/129 121/635/121 124/636/124
f 91/637/91 90/638/90 125/639/125
f 130/640/130 127/641/127 126/642/126
f 54/643/54 53/644/53 128/645/128
f 129/646/129 106/647/106 122/648/122
f 125/649/125 134/650/134 133/651/133
f 127/652/127 136/653/136 134/654/134
f 130/655/130 87/656/87 133/657/133
f 127/658/127 130/659/130 135/660/135
f 73/661/73 123/662/123 137/663/137
f 74/664/74 140/665/140 139/666/139
f 73/667/73 138/668/138 140/669/140
f 123/670/123 75/671/75 139/672/139
f 116/673/116 141/674/141 96/675/96
f 104/676/104 141/677/141 112/678/112
usemtl alumArm
f 142/679/142 143/680/143 144/681/144
f 145/682/145 146/683/146 143/684/143
f 147/685/147 148/686/148 146/687/146
f 149/688/149 150/689/150 148/690/148
f 151/691/151 152/692/152 150/693/150
f 153/694/153 154/695/154 152/696/152
f 155/697/155 156/698/156 154/699/154
f 157/700/157 158/701/158 156/702/156
f 159/703/159 160/704/160 158/705/158
f 161/706/161 162/707/162 160/708/160
f 163/709/163 164/710/164 162/711/162
f 165/712/165 166/713/166 167/714/167
f 165/715/165 168/716/168 169/717/169
f 170/718/170 171/719/171 169/720/169
f 172/721/172 173/722/173 171/723/171
f 174/724/174 175/725/175 173/726/173
f 176/727/176 177/728/177 175/729/175
f 178/730/178 179/731/179 177/732/177
f 180/733/180 181/734/181 179/735/179
f 182/736/182 183/737/183 181/738/181
f 184/739/184 185/740/185 183/741/183
f 186/742/186 187/743/187 185/744/185
f 149/745/149 188/746/188 189/747/189
f 180/748/180 172/749/172 190/750/190
f 191/751/191 192/752/192 187/753/187
f 193/754/193 144/755/144 192/756/192
f 148/757/148 156/758/156 194/759/194
f 173/760/173 181/761/181 195/762/195
f 196/763/196 197/764/197 198/765/198
f 169/766/169 197/767/197 170/768/170
f 199/769/199 166/770/166 164/771/164
f 196/772/196 200/773/200 199/774/199
f 142/775/142 145/776/145 143/777/143
f 145/778/145 147/779/147 146/780/146
f 147/781/147 149/782/149 148/783/148
f 149/784/149 151/785/151 150/786/150
f 151/787/151 153/788/153 152/789/152
f 153/790/153 155/791/155 154/792/154
f 155/793/155 157/794/157 156/795/156
f 157/796/157 159/797/159 158/798/158
f 159/799/159 161/800/161 160/801/160
f 161/802/161 163/803/163 162/804/162
f 163/805/163 199/806/199 164/807/164
f 165/808/165 164/809/164 166/810/166
f 165/811/165 167/812/167 168/813/168
f 170/814/170 172/815/172 171/816/171
f 172/817/172 174/818/174 173/819/173
f 174/820/174 176/821/176 175/822/175
f 176/823/176 178/824/178 177/825/177
f 178/826/178 180/827/180 179/828/179
f 180/829/180 182/830/182 181/831/181
f 182/832/182 184/833/184 183/834/183
f 184/835/184 186/836/186 185/837/185
f 186/838/186 191/839/191 187/840/187
f 201/841/201 155/842/155 153/843/153
f 153/844/153 151/845/151 149/846/149
f 149/847/149 147/848/147 202/849/202
f 149/850/149 202/851/202 203/852/203
f 201/853/201 153/854/153 149/855/149
f 189/856/189 201/857/201 149/858/149
f 149/859/149 203/860/203 188/861/188
f 204/862/204 202/863/202 147/864/147
f 147/865/147 145/866/145 142/867/142
f 142/868/142 193/869/193 191/870/191
f 191/871/191 186/872/186 184/873/184
f 184/874/184 182/875/182 180/876/180
f 180/877/180 178/878/178 176/879/176
f 176/880/176 174/881/174 172/882/172
f 172/883/172 170/884/170 196/885/196
f 196/886/196 199/887/199 163/888/163
f 163/889/163 161/890/161 159/891/159
f 159/892/159 157/893/157 155/894/155
f 155/895/155 201/896/201 205/897/205
f 155/898/155 205/899/205 206/900/206
f 163/901/163 159/902/159 155/903/155
f 172/904/172 196/905/196 163/906/163
f 180/907/180 176/908/176 172/909/172
f 191/910/191 184/911/184 180/912/180
f 147/913/147 142/914/142 191/915/191
f 207/916/207 204/917/204 147/918/147
f 208/919/208 207/920/207 147/921/147
f 163/922/163 155/923/155 206/924/206
f 163/925/163 206/926/206 209/927/209
f 208/928/208 147/929/147 191/930/191
f 210/931/210 208/932/208 191/933/191
f 163/934/163 209/935/209 211/936/211
f 163/937/163 211/938/211 212/939/212
f 213/940/213 210/941/210 191/942/191
f 214/943/214 213/944/213 191/945/191
f 172/946/172 163/947/163 212/948/212
f 172/949/172 212/950/212 215/951/215
f 214/952/214 191/953/191 180/954/180
f 216/955/216 214/956/214 180/957/180
f 172/958/172 215/959/215 217/960/217
f 172/961/172 217/962/217 218/963/218
f 219/964/219 216/965/216 180/966/180
f 220/967/220 219/968/219 180/969/180
f 172/970/172 218/971/218 221/972/221
f 190/973/190 220/974/220 180/975/180
f 172/976/172 221/977/221 190/978/190
f 191/979/191 193/980/193 192/981/192
f 193/982/193 142/983/142 144/984/144
f 222/985/222 223/986/223 148/987/148
f 148/988/148 150/989/150 152/990/152
f 152/991/152 154/992/154 156/993/156
f 156/994/156 224/995/224 225/996/225
f 194/997/194 222/998/222 148/999/148
f 156/1000/156 225/1001/225 194/1002/194
f 148/1003/148 152/1004/152 156/1005/156
f 226/1006/226 224/1007/224 156/1008/156
f 156/1009/156 158/1010/158 160/1011/160
f 160/1012/160 162/1013/162 164/1014/164
f 164/1015/164 165/1016/165 169/1017/169
f 169/1018/169 171/1019/171 173/1020/173
f 173/1021/173 175/1022/175 177/1023/177
f 177/1024/177 179/1025/179 181/1026/181
f 181/1027/181 183/1028/183 185/1029/185
f 185/1030/185 187/1031/187 192/1032/192
f 192/1033/192 144/1034/144 143/1035/143
f 143/1036/143 146/1037/146 148/1038/148
f 148/1039/148 223/1040/223 227/1041/227
f 148/1042/148 227/1043/227 228/1044/228
f 192/1045/192 143/1046/143 148/1047/148
f 181/1048/181 185/1049/185 192/1050/192
f 173/1051/173 177/1052/177 181/1053/181
f 164/1054/164 169/1055/169 173/1056/173
f 156/1057/156 160/1058/160 164/1059/164
f 229/1060/229 226/1061/226 156/1062/156
f 230/1063/230 229/1064/229 156/1065/156
f 192/1066/192 148/1067/148 228/1068/228
f 192/1069/192 228/1070/228 231/1071/231
f 230/1072/230 156/1073/156 164/1074/164
f 232/1075/232 230/1076/230 164/1077/164
f 192/1078/192 231/1079/231 233/1080/233
f 192/1081/192 233/1082/233 234/1083/234
f 235/1084/235 232/1085/232 164/1086/164
f 236/1087/236 235/1088/235 164/1089/164
f 181/1090/181 192/1091/192 234/1092/234
f 181/1093/181 234/1094/234 237/1095/237
f 236/1096/236 164/1097/164 173/1098/173
f 238/1099/238 236/1100/236 173/1101/173
f 181/1102/181 237/1103/237 239/1104/239
f 181/1105/181 239/1106/239 240/1107/240
f 241/1108/241 238/1109/238 173/1110/173
f 242/1111/242 241/1112/241 173/1113/173
f 181/1114/181 240/1115/240 243/1116/243
f 195/1117/195 242/1118/242 173/1119/173
f 181/1120/181 243/1121/243 195/1122/195
f 196/1123/196 170/1124/170 197/1125/197
f 169/1126/169 168/1127/168 197/1128/197
f 199/1129/199 200/1130/200 166/1131/166
f 196/1132/196 198/1133/198 200/1134/200
usemtl alumGray
f 54/1135/54 4/1136/4 6/1137/6
f 131/1138/131 50/1139/50 4/1140/4
f 57/1141/57 32/1142/32 50/1143/50
f 56/1144/56 30/1145/30 32/1146/32
f 61/1147/61 19/1148/19 30/1149/30
f 63/1150/63 42/1151/42 19/1152/19
f 65/1153/65 51/1154/51 42/1155/42
f 64/1156/64 35/1157/35 51/1158/51
f 69/1159/69 33/1160/33 35/1161/35
f 68/1162/68 22/1163/22 33/1164/33
f 71/1165/71 43/1166/43 22/1167/22
f 132/1168/132 10/1169/10 43/1170/43
f 129/1171/129 37/1172/37 10/1173/10
f 72/1174/72 36/1175/36 37/1176/37
f 74/1177/74 26/1178/26 36/1179/36
f 76/1180/76 25/1181/25 26/1182/26
f 78/1183/78 15/1184/15 25/1185/25
f 77/1186/77 13/1187/13 15/1188/15
f 80/1189/80 38/1190/38 13/1191/13
f 84/1192/84 29/1193/29 38/1194/38
f 86/1195/86 27/1196/27 29/1197/29
f 85/1198/85 18/1199/18 27/1200/27
f 130/1201/130 16/1202/16 18/1203/18
f 52/1204/52 6/1205/6 16/1206/16
f 54/1207/54 131/1208/131 4/1209/4
f 131/1210/131 57/1211/57 50/1212/50
f 57/1213/57 56/1214/56 32/1215/32
f 56/1216/56 61/1217/61 30/1218/30
f 61/1219/61 63/1220/63 19/1221/19
f 63/1222/63 65/1223/65 42/1224/42
f 65/1225/65 64/1226/64 51/1227/51
f 64/1228/64 69/1229/69 35/1230/35
f 69/1231/69 68/1232/68 33/1233/33
f 68/1234/68 71/1235/71 22/1236/22
f 71/1237/71 132/1238/132 43/1239/43
f 132/1240/132 129/1241/129 10/1242/10
f 129/1243/129 72/1244/72 37/1245/37
f 72/1246/72 74/1247/74 36/1248/36
f 74/1249/74 76/1250/76 26/1251/26
f 76/1252/76 78/1253/78 25/1254/25
f 78/1255/78 77/1256/77 15/1257/15
f 77/1258/77 80/1259/80 13/1260/13
f 80/1261/80 84/1262/84 38/1263/38
f 84/1264/84 86/1265/86 29/1266/29
f 86/1267/86 85/1268/85 27/1269/27
f 85/1270/85 130/1271/130 18/1272/18
f 130/1273/130 52/1274/52 16/1275/16
f 52/1276/52 54/1277/54 6/1278/6
usemtl alumGrayDeep
f 244/1279/244 245/1280/245 246/1281/246
f 247/1282/247 248/1283/248 249/1284/249
f 246/1285/246 250/1286/250 251/1287/251
f 252/1288/252 253/1289/253 254/1290/254
f 255/1291/255 256/1292/256 257/1293/257
f 258/1294/258 259/1295/259 260/1296/260
f 260/1297/260 261/1298/261 247/1299/247
f 259/1300/259 262/1301/262 261/1302/261
f 255/1303/255 254/1304/254 262/1305/262
f 244/1306/244 263/1307/263 264/1308/264
f 265/1309/265 266/1310/266 263/1311/263
f 267/1312/267 268/1313/268 266/1314/266
f 269/1315/269 270/1316/270 271/1317/271
f 270/1318/270 272/1319/272 273/1320/273
f 272/1321/272 274/1322/274 273/1323/273
f 275/1324/275 276/1325/276 274/1326/274
f 277/1327/277 278/1328/278 276/1329/276
f 278/1330/278 279/1331/279 280/1332/280
f 281/1333/281 282/1334/282 283/1335/283
f 279/1336/279 284/1337/284 280/1338/280
f 282/1339/282 271/1340/271 284/1341/284
f 245/1342/245 285/1343/285 246/1344/246
f 286/1345/286 260/1346/260 247/1347/247
f 287/1348/287 245/1349/245 288/1350/288
f 289/1351/289 290/1352/290 291/1353/291
f 292/1354/292 246/1355/246 293/1356/293
f 290/1357/290 294/1358/294 291/1359/291
f 295/1360/295 296/1361/296 285/1362/285
f 297/1363/297 298/1364/298 299/1365/299
f 300/1366/300 295/1367/295 285/1368/285
f 301/1369/301 302/1370/302 295/1371/295
f 303/1372/303 297/1373/297 302/1374/302
f 303/1375/303 301/1376/301 304/1377/304
f 305/1378/305 306/1379/306 307/1380/307
f 306/1381/306 293/1382/293 307/1383/307
f 287/1384/287 292/1385/292 293/1386/293
f 292/1387/292 308/1388/308 286/1389/286
f 273/1390/273 276/1391/276 280/1392/280
f 299/1393/299 294/1394/294 309/1395/309
f 248/1396/248 261/1397/261 262/1398/262
f 254/1399/254 248/1400/248 262/1401/262
f 254/1402/254 310/1403/310 311/1404/311
f 245/1405/245 287/1406/287 306/1407/306
f 288/1408/288 245/1409/245 308/1410/308
f 307/1411/307 246/1412/246 305/1413/305
f 289/1414/289 291/1415/291 245/1416/245
f 245/1417/245 306/1418/306 289/1419/289
f 246/1420/246 292/1421/292 286/1422/286
f 293/1423/293 246/1424/246 307/1425/307
f 305/1426/305 246/1427/246 290/1428/290
f 244/1429/244 310/1430/310 265/1431/265
f 267/1432/267 310/1433/310 253/1434/253
f 265/1435/265 310/1436/310 267/1437/267
f 258/1438/258 255/1439/255 259/1440/259
f 308/1441/308 312/1442/312 313/1443/313
f 314/1444/314 264/1445/264 263/1446/263
f 252/1447/252 315/1448/315 314/1449/314
f 263/1450/263 266/1451/266 314/1452/314
f 266/1453/266 268/1454/268 314/1455/314
f 304/1456/304 245/1457/245 291/1458/291
f 316/1459/316 304/1460/304 298/1461/298
f 304/1462/304 301/1463/301 300/1464/300
f 304/1465/304 316/1466/316 303/1467/303
f 298/1468/298 304/1469/304 294/1470/294
f 296/1471/296 290/1472/290 246/1473/246
f 296/1474/296 299/1475/299 309/1476/309
f 299/1477/299 296/1478/296 297/1479/297
f 296/1480/296 302/1481/302 297/1482/297
f 302/1483/302 296/1484/296 295/1485/295
f 244/1486/244 264/1487/264 245/1488/245
f 247/1489/247 261/1490/261 248/1491/248
f 317/1492/317 310/1493/310 244/1494/244
f 247/1495/247 249/1496/249 318/1497/318
f 247/1498/247 318/1499/318 319/1500/319
f 320/1501/320 317/1502/317 244/1503/244
f 321/1504/321 320/1505/320 244/1506/244
f 286/1507/286 247/1508/247 319/1509/319
f 286/1510/286 319/1511/319 322/1512/322
f 321/1513/321 244/1514/244 246/1515/246
f 323/1516/323 321/1517/321 246/1518/246
f 246/1519/246 286/1520/286 322/1521/322
f 246/1522/246 322/1523/322 250/1524/250
f 251/1525/251 323/1526/323 246/1527/246
f 252/1528/252 268/1529/268 253/1530/253
f 257/1531/257 252/1532/252 255/1533/255
f 255/1534/255 258/1535/258 256/1536/256
f 260/1537/260 259/1538/259 261/1539/261
f 259/1540/259 255/1541/255 262/1542/262
f 255/1543/255 252/1544/252 254/1545/254
f 244/1546/244 265/1547/265 263/1548/263
f 265/1549/265 267/1550/267 266/1551/266
f 267/1552/267 253/1553/253 268/1554/268
f 269/1555/269 281/1556/281 270/1557/270
f 270/1558/270 281/1559/281 272/1560/272
f 272/1561/272 275/1562/275 274/1563/274
f 275/1564/275 277/1565/277 276/1566/276
f 277/1567/277 283/1568/283 278/1569/278
f 278/1570/278 283/1571/283 279/1572/279
f 283/1573/283 277/1574/277 275/1575/275
f 275/1576/275 272/1577/272 281/1578/281
f 281/1579/281 269/1580/269 282/1581/282
f 282/1582/282 279/1583/279 283/1584/283
f 283/1585/283 275/1586/275 281/1587/281
f 279/1588/279 282/1589/282 284/1590/284
f 282/1591/282 269/1592/269 271/1593/271
f 245/1594/245 300/1595/300 285/1596/285
f 286/1597/286 308/1598/308 260/1599/260
f 289/1600/289 305/1601/305 290/1602/290
f 290/1603/290 309/1604/309 294/1605/294
f 297/1606/297 316/1607/316 298/1608/298
f 300/1609/300 301/1610/301 295/1611/295
f 301/1612/301 303/1613/303 302/1614/302
f 303/1615/303 316/1616/316 297/1617/297
f 305/1618/305 289/1619/289 306/1620/306
f 306/1621/306 287/1622/287 293/1623/293
f 287/1624/287 288/1625/288 292/1626/292
f 292/1627/292 288/1628/288 308/1629/308
f 280/1630/280 284/1631/284 271/1632/271
f 271/1633/271 270/1634/270 273/1635/273
f 273/1636/273 274/1637/274 276/1638/276
f 276/1639/276 278/1640/278 280/1641/280
f 280/1642/280 271/1643/271 273/1644/273
f 299/1645/299 298/1646/298 294/1647/294
f 311/1648/311 248/1649/248 254/1650/254
f 254/1651/254 253/1652/253 310/1653/310
f 264/1654/264 314/1655/314 324/1656/324
f 264/1657/264 324/1658/324 325/1659/325
f 326/1660/326 258/1661/258 260/1662/260
f 327/1663/327 326/1664/326 260/1665/260
f 245/1666/245 264/1667/264 325/1668/325
f 245/1669/245 325/1670/325 328/1671/328
f 327/1672/327 260/1673/260 308/1674/308
f 329/1675/329 327/1676/327 308/1677/308
f 308/1678/308 245/1679/245 328/1680/328
f 308/1681/308 328/1682/328 330/1683/330
f 313/1684/313 329/1685/329 308/1686/308
f 308/1687/308 330/1688/330 312/1689/312
f 314/1690/314 268/1691/268 252/1692/252
f 252/1693/252 257/1694/257 315/1695/315
f 291/1696/291 294/1697/294 304/1698/304
f 304/1699/304 300/1700/300 245/1701/245
f 246/1702/246 285/1703/285 296/1704/296
f 296/1705/296 309/1706/309 290/1707/290
