# Pata_Del_Izq  -  origen en el pivote de la pieza
# pivote en coordenadas del modelo: 5.3165 3.2705 -3.0700
mtllib rover.mtl
o Pata_Del_Izq
v 0.056598 0.007971 0.172490
v 0.002186 0.337970 0.107032
v -0.001070 0.007971 0.147006
v 0.312531 -0.189467 -0.323012
v 0.224844 -0.279467 -0.232917
v 0.224844 -0.189467 -0.334557
v 0.453924 -0.279467 0.065625
v 0.057147 -0.279467 0.171941
v 0.163463 -0.279467 -0.224836
v 0.224844 -0.189467 0.343043
v 0.163463 -0.279467 0.233322
v 0.224844 -0.279467 0.241403
v -0.113955 -0.189467 0.004243
v -0.004234 -0.279467 0.065625
v -0.102411 -0.189467 0.091931
v 0.137156 -0.189467 -0.323013
v 0.106265 -0.279467 -0.201144
v 0.055444 -0.189467 -0.289166
v 0.552100 -0.189467 -0.083444
v 0.462005 -0.279467 0.004243
v 0.453924 -0.279467 -0.057138
v 0.394244 -0.189467 0.297653
v 0.286226 -0.279467 0.233322
v 0.343425 -0.279467 0.209630
v -0.068565 -0.189467 0.173643
v -0.014723 -0.189467 0.243811
v -0.014723 -0.189467 -0.235324
v 0.019458 -0.279467 -0.114337
v -0.068565 -0.189467 -0.165157
v 0.518254 -0.189467 -0.165157
v 0.392541 -0.279467 -0.163454
v 0.464412 -0.189467 -0.235325
v 0.464412 -0.189467 0.243811
v 0.430231 -0.279467 0.122823
v 0.518254 -0.189467 0.173643
v 0.055445 -0.189467 0.297653
v 0.137156 -0.189467 0.331499
v -0.102411 -0.189467 -0.083444
v -0.012315 -0.279467 0.004243
v 0.343425 -0.279467 -0.201144
v 0.286226 -0.279467 -0.224836
v 0.563643 -0.189467 0.004244
v 0.312531 -0.189467 0.331499
v 0.019458 -0.279467 0.122823
v 0.057147 -0.279467 -0.163454
v 0.430231 -0.279467 -0.114337
v 0.392541 -0.279467 0.171941
v 0.106265 -0.279467 0.209630
v -0.004234 -0.279467 -0.057138
v 0.394244 -0.189467 -0.289166
v 0.552100 -0.189467 0.091931
v 0.137156 0.007971 -0.323013
v 0.224844 0.207971 -0.334557
v 0.224844 0.007971 -0.334557
v 0.343812 0.007971 -0.201816
v 0.464412 0.007971 -0.235325
v 0.394244 0.007971 -0.289166
v 0.430903 0.007971 -0.114725
v 0.393091 0.007971 -0.164004
v 0.454674 0.007971 -0.057339
v 0.518254 0.007971 -0.165157
v 0.462780 0.007971 0.004244
v 0.552100 0.007971 -0.083444
v 0.552100 0.007971 0.091931
v 0.563643 0.007971 0.004244
v 0.430903 0.007971 0.123212
v 0.454674 0.007971 0.065826
v 0.464412 0.007971 0.243811
v 0.518254 0.007971 0.173643
v 0.393091 0.007971 0.172490
v 0.394244 0.007971 0.297653
v 0.137156 0.007971 0.331499
v 0.055445 0.207971 0.297653
v 0.055445 0.007971 0.297653
v 0.105875 0.007971 0.210303
v -0.014723 0.007971 0.243811
v -0.102411 0.007971 0.091931
v -0.068565 0.007971 0.173643
v -0.001070 0.007971 0.078143
v -0.113955 0.007971 0.004243
v -0.001070 0.007971 -0.069656
v -0.001070 0.007971 0.004243
v -0.001070 0.007971 -0.138519
v -0.102411 0.007971 -0.083444
v -0.014723 0.007971 -0.235324
v -0.068565 0.007971 -0.165157
v 0.105875 0.007971 -0.201816
v 0.056598 0.007971 -0.164004
v 0.224844 0.007971 -0.233694
v 0.163261 0.207971 -0.225586
v 0.163261 0.007971 -0.225586
v 0.345983 0.337970 0.125381
v 0.224844 0.337970 -0.167072
v 0.269184 0.337970 -0.161234
v 0.310502 0.337970 -0.144120
v 0.002186 0.337970 0.057451
v 0.310502 0.337970 0.152606
v 0.343812 0.007971 0.210303
v 0.345983 0.337970 -0.116895
v 0.002186 0.337970 0.004243
v 0.269184 0.337970 0.169721
v 0.286427 0.007971 0.234073
v 0.373208 0.337970 -0.081414
v 0.002186 0.337970 -0.048964
v 0.224844 0.337970 0.175558
v 0.224844 0.007971 0.242181
v 0.390322 0.337970 -0.040096
v 0.002186 0.337970 -0.098545
v 0.163261 0.007971 0.234073
v 0.180505 0.337970 0.169721
v 0.396159 0.337970 0.004243
v 0.103707 0.337970 -0.116895
v 0.139187 0.337970 0.152606
v 0.390322 0.337970 0.048583
v 0.139187 0.337970 -0.144120
v 0.103707 0.337970 0.125381
v 0.373208 0.337970 0.089901
v 0.180505 0.337970 -0.161234
v 0.286427 0.007971 -0.225586
v 0.163261 0.207971 0.234073
v 0.224844 0.207971 0.343043
v 0.224844 0.207971 0.242181
v 0.105875 0.207971 0.210303
v 0.137156 0.207971 0.331499
v 0.105875 0.207971 -0.201816
v 0.137156 0.207971 -0.323013
v 0.055444 0.207971 -0.289166
v 0.224844 0.207971 -0.233694
v 0.224844 0.007971 0.343043
v 0.055444 0.007971 -0.289166
v 0.312531 0.007971 -0.323012
v 0.312531 0.007971 0.331499
v -1.316544 0.487971 -0.201816
v -1.316544 0.687971 -0.201816
v -1.316544 0.487971 -0.289166
v -1.316544 0.687971 -0.289166
v -1.316544 0.690971 0.210303
v -1.316544 0.690971 0.297653
v -1.316544 0.490971 0.210303
v -1.316544 0.490971 0.297653
v 0.103707 0.337970 0.004243
v 0.224845 0.011463 -0.419857
v 0.334455 -0.162952 -0.405426
v 0.224845 -0.162952 -0.419857
v 0.334455 0.011463 -0.405426
v 0.436595 -0.162952 -0.363118
v 0.436595 0.011463 -0.363118
v 0.524306 -0.162952 -0.295817
v 0.524306 0.011463 -0.295817
v 0.591608 -0.162952 -0.208107
v 0.591608 0.011463 -0.208107
v 0.633914 -0.162952 -0.105967
v 0.633914 0.011463 -0.105967
v 0.648345 -0.162952 0.003643
v 0.648345 0.011463 0.003643
v 0.633914 -0.162952 0.113253
v 0.633914 0.011463 0.113253
v 0.591608 -0.162952 0.215393
v 0.591608 0.011463 0.215393
v 0.524306 -0.162952 0.303103
v 0.524306 0.011463 0.303103
v 0.436595 -0.162952 0.370405
v 0.436595 0.011463 0.370405
v 0.334455 -0.162952 0.412713
v 0.224845 -0.162952 0.427143
v 0.334455 -0.162952 0.517523
v 0.224845 -0.162952 0.517523
v 0.115236 -0.162952 0.517523
v 0.115236 -0.162952 0.412713
v 0.115236 0.011463 0.412713
v 0.013096 -0.162952 0.370405
v 0.013096 0.011463 0.370405
v -0.074615 -0.162952 0.303103
v -0.074615 0.011463 0.303103
v -0.141916 -0.162952 0.215393
v -0.141916 0.011463 0.215393
v -0.184223 -0.162952 0.113253
v -0.184223 0.011463 0.113253
v -0.198654 -0.162952 0.003643
v -0.198654 0.011463 0.003643
v -0.184223 -0.162952 -0.105967
v -0.184223 0.011463 -0.105967
v -0.141916 -0.162952 -0.208107
v -0.141916 0.011463 -0.208107
v -0.074615 -0.162952 -0.295816
v -0.074615 0.011463 -0.295816
v 0.013096 -0.162952 -0.363118
v 0.518256 0.011463 -0.165757
v 0.552102 0.011463 -0.084045
v -0.068563 0.011463 0.173043
v 0.013096 0.011463 -0.363118
v 0.115236 -0.162952 -0.405426
v 0.115236 0.011463 -0.405426
v 0.552102 -0.162952 -0.084045
v -0.102409 -0.162952 0.091331
v 0.224845 0.011463 0.427143
v 0.115236 0.011463 0.517523
v 0.224845 0.011463 0.517523
v 0.334455 0.011463 0.412713
v 0.334455 0.011463 0.517523
v 0.563646 0.011463 0.003643
v 0.394247 0.011463 -0.289767
v 0.464414 0.011463 -0.235925
v 0.312534 0.011463 -0.323613
v 0.552102 0.011463 0.091331
v 0.518256 0.011463 0.173043
v 0.224845 0.011463 -0.335157
v 0.137157 0.011463 -0.323613
v 0.464414 0.011463 0.243211
v 0.055446 0.011463 -0.289766
v 0.394247 0.011463 0.297052
v 0.312534 0.011463 0.330899
v -0.014721 0.011463 -0.235925
v -0.068563 0.011463 -0.165757
v 0.224845 0.011463 0.342443
v -0.102409 0.011463 -0.084045
v 0.137157 0.011463 0.330899
v 0.055446 0.011463 0.297052
v -0.113955 0.011463 0.003643
v -0.102409 0.011463 0.091331
v -0.014721 0.011463 0.243211
v 0.518256 -0.162952 -0.165757
v 0.464414 -0.162952 -0.235925
v 0.552102 -0.162952 0.091331
v 0.563646 -0.162952 0.003643
v 0.518256 -0.162952 0.173043
v 0.394247 -0.162952 -0.289767
v 0.312534 -0.162952 -0.323613
v 0.464414 -0.162952 0.243211
v 0.394247 -0.162952 0.297052
v 0.224845 -0.162952 -0.335157
v 0.312534 -0.162952 0.330899
v 0.137157 -0.162952 -0.323613
v 0.055446 -0.162952 -0.289766
v 0.224845 -0.162952 0.342443
v 0.137157 -0.162952 0.330899
v -0.014721 -0.162952 -0.235925
v 0.055446 -0.162952 0.297052
v -0.068563 -0.162952 -0.165757
v -0.102409 -0.162952 -0.084045
v -0.014721 -0.162952 0.243211
v -0.068563 -0.162952 0.173043
v -0.113955 -0.162952 0.003643
v 0.117383 -1.567428 0.680065
v 0.732124 -0.728572 0.872065
v 0.732124 -0.728572 0.680065
v 0.330242 -1.823855 0.680065
v 0.394627 -1.764810 0.680065
v 0.438791 -1.752976 0.680065
v 0.494627 -1.391604 0.680065
v 0.394627 -1.364809 0.680065
v 0.156421 -1.695636 0.872065
v 0.330242 -1.823855 0.872065
v 0.380111 -1.847322 0.872065
v 0.410463 -1.760566 0.872065
v 0.394627 -1.764810 0.872065
v 0.394627 -1.364809 0.872065
v 0.494627 -1.391604 0.872065
v 0.465025 -1.823865 0.872065
v 0.429445 -1.847326 0.680065
v 0.465025 -1.823865 0.680065
v 0.429445 -1.847326 0.872065
v 0.380111 -1.847322 0.680065
v 0.105091 -1.608066 0.872065
v 0.117383 -1.567428 0.872065
v 0.105091 -1.608066 0.680065
v 0.119379 -1.654993 0.872065
v 0.119379 -1.654993 0.680065
v 0.110887 0.012369 0.956439
v 0.207796 0.071754 0.515640
v 0.110887 0.012369 0.515640
v 0.318312 0.045221 0.956439
v 0.318312 0.045221 0.515640
v 0.377697 -0.051687 0.515640
v 0.377697 -0.051687 0.956439
v 0.351165 -0.162203 0.515640
v 0.351165 -0.162203 0.956439
v 0.254257 -0.221589 0.515640
v 0.143740 -0.195056 0.956439
v 0.143740 -0.195056 0.515640
v 0.207796 0.071754 0.956439
v 0.084353 -0.098148 0.956439
v 0.254257 -0.221589 0.956439
v 0.084353 -0.098148 0.515640
v 0.055607 -0.234034 0.680065
v 1.079766 -0.985010 0.680065
v 1.269493 -0.665195 0.872065
v 1.239456 -0.767302 0.872065
v 1.140471 -0.445760 0.872065
v 1.010105 -0.349595 0.680065
v 1.010105 -0.349595 0.872065
v 1.239456 -0.767302 0.680065
v 1.269493 -0.665195 0.680065
v 0.333588 0.144942 0.872065
v -0.000197 -0.173163 0.680065
v 0.194598 -0.044546 0.680065
v -0.004045 -0.041459 0.680065
v 0.131988 0.143995 0.872065
v 0.131988 0.143995 0.680065
v 0.055607 -0.234034 0.872065
v -0.000197 -0.173163 0.872065
v -0.022031 -0.102676 0.680065
v -0.022031 -0.102676 0.872065
v 0.194598 -0.044546 0.872065
v 1.233261 -0.547502 0.680065
v 1.140471 -0.445760 0.680065
v 1.233261 -0.547502 0.872065
v 1.079766 -0.985010 0.872065
v 0.333588 0.144942 0.680065
v -0.004045 -0.041459 0.872065
v 0.156421 -1.695636 0.680065
v 0.221422 -1.664809 0.680065
v 0.294627 -1.738014 0.680065
v 0.194627 -1.564809 0.680065
v 0.494627 -1.738014 0.680065
v 0.567832 -1.664809 0.680065
v 0.221422 -1.464809 0.680065
v 0.594626 -1.564809 0.680065
v 0.294627 -1.391604 0.680065
v 0.567832 -1.464809 0.680065
v 0.310462 -1.742258 0.872065
v 0.494627 -1.738014 0.872065
v 0.294627 -1.738014 0.872065
v 0.221422 -1.664809 0.872065
v 0.567832 -1.664809 0.872065
v 0.194627 -1.564809 0.872065
v 0.594626 -1.564809 0.872065
v 0.221422 -1.464809 0.872065
v 0.567832 -1.464809 0.872065
v 0.294627 -1.391604 0.872065
vn -0.332253 0.688606 0.644539
vn -0.748389 0.376791 0.545841
vn -0.314994 0.926859 0.204234
vn 0.208702 -0.469035 -0.858166
vn 0.022903 -0.852730 -0.521849
vn -0.039960 -0.411183 -0.910677
vn 0.204940 -0.977722 0.045387
vn -0.180882 -0.966728 0.180882
vn -0.045385 -0.977722 -0.204939
vn 0.008014 -0.411498 0.911375
vn -0.104535 -0.914806 0.390131
vn 0.022900 -0.852731 0.521848
vn -0.910676 -0.411183 0.039963
vn -0.390131 -0.914806 0.104535
vn -0.904663 -0.327935 0.272109
vn -0.274306 -0.411183 -0.869301
vn -0.276347 -0.833387 -0.478642
vn -0.496991 -0.327935 -0.803405
vn 0.878249 -0.411496 -0.243617
vn 0.521852 -0.852729 -0.022900
vn 0.337701 -0.935202 -0.106559
vn 0.462628 -0.411497 0.785268
vn 0.079524 -0.964448 0.252024
vn 0.280757 -0.852730 0.440484
vn -0.754388 -0.469038 0.459241
vn -0.647405 -0.327934 0.687987
vn -0.638843 -0.469036 -0.609824
vn -0.440483 -0.852731 -0.280757
vn -0.808652 -0.411183 -0.420726
vn 0.754387 -0.469038 -0.459242
vn 0.194882 -0.964448 -0.178495
vn 0.615685 -0.411182 -0.672206
vn 0.638844 -0.469037 0.609822
vn 0.478643 -0.833387 0.276346
vn 0.832105 -0.327936 0.447280
vn -0.423699 -0.469037 0.774908
vn -0.216675 -0.327936 0.919516
vn -0.889990 -0.411183 -0.197095
vn -0.521847 -0.852731 -0.022901
vn 0.276345 -0.833386 -0.478645
vn 0.073018 -0.959378 -0.272509
vn 0.911377 -0.411495 -0.008013
vn 0.243621 -0.411498 0.878247
vn -0.405617 -0.883535 0.234180
vn -0.199491 -0.959379 -0.199490
vn 0.405614 -0.883535 -0.234185
vn 0.199491 -0.959379 0.199489
vn -0.234181 -0.883535 0.405617
vn -0.252023 -0.964448 -0.079523
vn 0.447278 -0.327933 -0.832107
vn 0.882396 -0.411497 0.228138
vn -0.216223 0.000000 -0.976344
vn 0.315726 0.427260 -0.847210
vn 0.439301 0.219648 -0.871074
vn 0.291252 0.775754 -0.559801
vn 0.440294 0.802190 -0.403278
vn 0.378605 0.709799 -0.594006
vn 0.532135 0.775754 -0.339172
vn 0.505345 0.663485 -0.551737
vn 0.692171 0.697498 -0.185462
vn 0.624888 0.709799 -0.325116
vn 0.536249 0.843732 0.023531
vn 0.687742 0.709799 -0.152303
vn 0.569396 0.802190 0.179667
vn 0.829291 0.557631 0.036392
vn 0.452637 0.843732 0.288506
vn 0.713511 0.663486 0.225140
vn 0.475772 0.709799 0.519448
vn 0.699990 0.557631 0.446163
vn 0.426216 0.775754 0.465344
vn 0.275577 0.802190 0.529669
vn -0.300920 0.000000 0.953649
vn -0.023665 0.580471 0.813937
vn -0.526035 0.025141 0.850091
vn -0.750177 0.549408 -0.367946
vn -0.519447 0.709799 0.475774
vn -0.687741 0.709799 0.152306
vn -0.736384 0.557631 0.383127
vn -0.703610 0.710587 0.000000
vn -0.596495 0.802190 -0.026177
vn -0.703610 0.710587 0.000000
vn -0.890874 0.454250 0.000000
vn -0.314996 0.926858 -0.204233
vn -0.671756 0.709799 -0.211964
vn -0.403277 0.802189 -0.440295
vn -0.699988 0.557632 -0.446165
vn -0.595332 0.771212 -0.225417
vn -0.376977 0.568417 -0.731294
vn 0.466233 0.884547 0.014258
vn 0.179489 0.557631 0.810451
vn 0.409916 0.911964 -0.017080
vn 0.647712 0.478029 0.593260
vn -0.000001 0.697499 -0.716586
vn 0.264310 0.478029 -0.837632
vn 0.217727 0.914278 -0.341601
vn -0.703610 0.710587 0.000000
vn 0.248853 0.886364 0.390425
vn 0.345331 0.663486 0.663726
vn 0.647716 0.478029 -0.593255
vn -0.703610 0.710587 0.000000
vn 0.264309 0.478030 0.837632
vn 0.136443 0.775755 0.616107
vn 0.559801 0.775754 -0.291253
vn -0.703610 0.710587 0.000000
vn -0.000001 0.697499 0.716586
vn 0.401964 0.850671 0.338797
vn 0.785295 0.582270 -0.210413
vn -0.748392 0.376790 -0.545838
vn 0.021193 0.995199 -0.095552
vn -0.264311 0.478031 0.837632
vn 0.404699 0.914277 -0.017758
vn -0.199808 0.869161 -0.452368
vn -0.192980 0.933324 0.302762
vn 0.857567 0.478030 0.189909
vn -0.248850 0.886364 -0.390426
vn -0.199806 0.869161 0.452368
vn 0.559799 0.775755 0.291255
vn -0.264311 0.478030 -0.837632
vn 0.136448 0.775754 -0.616106
vn 0.211969 0.709799 -0.671755
vn 0.362946 0.834860 0.413859
vn 0.713436 0.315530 -0.625660
vn 0.171547 0.719511 -0.672960
vn -0.152307 0.709799 0.687741
vn 0.224167 0.608643 0.761120
vn -0.179672 0.802190 -0.569394
vn 0.061777 0.678146 -0.732326
vn 0.690433 0.648131 0.321292
vn 0.303094 0.188441 0.934143
vn -0.459673 -0.144573 -0.876242
vn 0.211968 0.709799 -0.671755
vn 0.152305 0.709799 0.687741
vn -0.218650 -0.636173 0.739916
vn 0.300456 0.874192 0.381463
vn -0.147684 -0.422125 -0.894427
vn 0.233508 0.667438 -0.707107
vn 0.302183 0.873754 -0.381102
vn 0.234807 0.666983 0.707107
vn -0.219806 -0.635564 -0.740097
vn -0.148505 -0.421837 0.894427
vn 0.000000 1.000000 0.000000
vn 0.030884 0.709799 -0.703727
vn 0.152311 -0.709799 -0.687740
vn -0.041562 -0.318405 -0.947043
vn 0.285260 0.318405 -0.904016
vn 0.437528 -0.318405 -0.840944
vn 0.210363 0.920227 -0.330046
vn 0.192726 -0.958426 -0.210420
vn 0.288618 0.920227 -0.264352
vn 0.799386 -0.318405 -0.509510
vn 0.840946 0.318405 -0.437525
vn 0.671756 -0.709799 -0.211966
vn 0.687741 0.709799 -0.152308
vn 0.947043 -0.318405 -0.041562
vn 0.444060 0.895785 0.019488
vn 0.255074 -0.965270 0.056489
vn 0.904018 0.318405 0.285254
vn 0.840946 -0.318405 0.437525
vn 0.594006 0.709799 0.378606
vn 0.519447 -0.709799 0.475772
vn 0.640272 0.318405 0.699049
vn 0.509512 -0.318405 0.799384
vn 0.144956 0.949402 0.278609
vn 0.171040 -0.968863 0.179022
vn 0.000000 -1.000000 0.000000
vn 0.707107 -0.707107 0.000000
vn 0.000000 -1.000000 0.000000
vn -0.447214 -0.894427 0.000000
vn -0.501971 -0.842699 0.194638
vn -0.544010 0.616312 0.569397
vn -0.437530 -0.318405 0.840943
vn -0.140421 0.965270 0.220309
vn -0.192727 -0.958426 0.210420
vn -0.699049 0.318405 0.640273
vn -0.799386 -0.318405 0.509510
vn -0.624888 0.709799 0.325115
vn -0.671756 -0.709799 0.211966
vn -0.925530 0.318405 0.204970
vn -0.947043 -0.318405 0.041562
vn -0.285068 0.958426 -0.012510
vn -0.255074 -0.965270 -0.056489
vn -0.904018 0.318405 -0.285254
vn -0.840945 -0.318405 -0.437526
vn -0.594004 0.709799 -0.378608
vn -0.519446 -0.709799 -0.475774
vn -0.640271 0.318405 -0.699050
vn -0.509512 -0.318405 -0.799384
vn 0.000000 1.000000 0.000000
vn 0.000000 1.000000 0.000000
vn 0.000000 1.000000 0.000000
vn -0.144956 0.949402 -0.278609
vn -0.094508 -0.949402 -0.299505
vn -0.204973 0.318405 -0.925529
vn 0.000000 -1.000000 0.000000
vn 0.000000 -1.000000 0.000000
vn 0.000000 1.000000 0.000000
vn -0.707107 0.707107 0.000000
vn 0.000000 1.000000 0.000000
vn 0.734239 0.616312 0.284699
vn 0.447214 0.894427 0.000000
vn 0.000000 1.000000 0.000000
vn 0.000000 1.000000 0.000000
vn 0.000000 1.000000 0.000000
vn 0.000000 1.000000 0.000000
vn 0.000000 1.000000 0.000000
vn 0.000000 1.000000 0.000000
vn 0.000000 1.000000 0.000000
vn 0.000000 1.000000 0.000000
vn 0.000000 1.000000 0.000000
vn 0.000000 1.000000 0.000000
vn 0.000000 1.000000 0.000000
vn 0.000000 1.000000 0.000000
vn 0.000000 1.000000 0.000000
vn 0.000000 1.000000 0.000000
vn 0.000000 1.000000 0.000000
vn 0.000000 1.000000 0.000000
vn 0.000000 1.000000 0.000000
vn 0.000000 1.000000 0.000000
vn 0.000000 1.000000 0.000000
vn 0.000000 1.000000 0.000000
vn 0.000000 1.000000 0.000000
vn 0.000000 -1.000000 0.000000
vn 0.000000 -1.000000 0.000000
vn 0.000000 -1.000000 0.000000
vn 0.000000 -1.000000 0.000000
vn 0.000000 -1.000000 0.000000
vn 0.000000 -1.000000 0.000000
vn 0.000000 -1.000000 0.000000
vn 0.000000 -1.000000 0.000000
vn 0.000000 -1.000000 0.000000
vn 0.000000 -1.000000 0.000000
vn 0.000000 -1.000000 0.000000
vn 0.000000 -1.000000 0.000000
vn 0.000000 -1.000000 0.000000
vn 0.000000 -1.000000 0.000000
vn 0.000000 -1.000000 0.000000
vn 0.000000 -1.000000 0.000000
vn 0.000000 -1.000000 0.000000
vn 0.000000 -1.000000 0.000000
vn 0.000000 -1.000000 0.000000
vn 0.000000 -1.000000 0.000000
vn 0.000000 -1.000000 0.000000
vn 0.000000 -1.000000 0.000000
vn -0.867225 0.432991 -0.245844
vn -0.183011 -0.028328 0.982703
vn -0.092705 -0.014350 -0.995590
vn -0.283149 -0.474847 -0.833275
vn 0.000000 0.000000 -1.000000
vn 0.000000 0.000000 -1.000000
vn 0.000000 0.000000 -1.000000
vn 0.000000 0.000000 -1.000000
vn -0.598305 -0.663690 0.448939
vn -0.189424 -0.317668 0.929089
vn -0.171642 -0.566256 0.806160
vn 0.000000 0.000000 1.000000
vn 0.000000 0.000000 1.000000
vn 0.000000 0.000000 1.000000
vn 0.000000 0.000000 1.000000
vn 0.548342 -0.576171 0.606092
vn 0.264377 -0.641132 -0.720454
vn 0.304404 -0.319853 -0.897236
vn 0.132160 -0.680793 0.720454
vn -0.137334 -0.936580 -0.322422
vn -0.379191 0.038007 0.924538
vn -0.797900 0.398378 0.452383
vn -0.497237 -0.050759 -0.866129
vn -0.855471 -0.405146 0.322531
vn -0.785304 -0.528462 -0.322531
vn -0.678954 0.652496 0.336557
vn -0.150998 0.953400 -0.261204
vn -0.601434 0.321663 -0.731307
vn 0.567379 0.780931 0.261204
vn 0.246493 0.339269 -0.907821
vn 0.901181 0.273135 -0.336557
vn 0.681914 0.013556 0.731307
vn 0.601436 -0.321660 -0.731306
vn 0.678961 -0.652489 0.336556
vn 0.151006 -0.953399 -0.261204
vn -0.567377 -0.780933 0.261203
vn -0.246492 -0.339269 -0.907820
vn -0.065600 0.414196 0.907821
vn -0.681914 -0.013556 0.731307
vn 0.065603 -0.414195 0.907821
vn -0.901180 -0.273137 -0.336557
vn -0.533390 -0.637142 -0.556368
vn 0.483907 -0.354731 -0.800000
vn 0.818420 -0.076933 0.569447
vn 0.628963 -0.311212 0.712427
vn 0.598198 0.663791 0.448933
vn 0.473506 0.644818 -0.600001
vn 0.328317 0.447101 0.832051
vn 0.799212 -0.395452 -0.452634
vn 0.817391 0.087193 -0.569447
vn 0.336319 0.748001 0.572175
vn -0.683982 -0.463807 -0.563073
vn 0.000000 0.000000 -1.000000
vn -0.799271 0.395321 -0.452645
vn -0.396194 0.777428 0.488504
vn -0.302455 0.593489 -0.745850
vn -0.574277 -0.600550 0.556368
vn -0.745386 -0.356858 0.563073
vn -0.817228 -0.088239 -0.569519
vn -0.818430 0.076292 0.569519
vn 0.000000 0.000000 1.000000
vn 0.685070 0.462238 -0.563041
vn 0.472235 0.524017 -0.708802
vn 0.746124 0.355365 0.563041
vn 0.483855 -0.354802 0.800000
vn 0.166144 0.803127 -0.572175
vn -0.629004 0.311107 0.712437
vn -0.298289 -0.330887 -0.895286
vn 0.000000 0.000000 -1.000000
vn 0.000000 0.000000 -1.000000
vn 0.000000 0.000000 -1.000000
vn 0.000000 0.000000 -1.000000
vn 0.000000 0.000000 -1.000000
vn 0.000000 0.000000 -1.000000
vn 0.000000 0.000000 -1.000000
vn 0.000000 0.000000 -1.000000
vn 0.000000 0.000000 -1.000000
vn 0.000000 0.000000 1.000000
vn 0.000000 0.000000 1.000000
vn 0.000000 0.000000 1.000000
vn 0.000000 0.000000 1.000000
vn 0.000000 0.000000 1.000000
vn 0.000000 0.000000 1.000000
vn 0.000000 0.000000 1.000000
vn 0.000000 0.000000 1.000000
vn 0.000000 0.000000 1.000000
vn 0.000000 0.000000 1.000000
vt 0.158491 0.932821
vt 0.236822 0.926542
vt 0.164577 0.949018
vt 0.141144 0.497956
vt 0.170140 0.518034
vt 0.139172 0.518034
vt 0.272475 0.481245
vt 0.260245 0.574143
vt 0.185908 0.517102
vt 0.314867 0.591543
vt 0.282148 0.578375
vt 0.293126 0.569490
vt 0.202555 0.613260
vt 0.228006 0.588844
vt 0.221839 0.619191
vt 0.141144 0.538112
vt 0.175607 0.545607
vt 0.146983 0.557424
vt 0.184794 0.432376
vt 0.214508 0.451376
vt 0.202075 0.458074
vt 0.281333 0.422434
vt 0.282148 0.457693
vt 0.269652 0.451114
vt 0.241907 0.621258
vt 0.256115 0.588977
vt 0.261994 0.619382
vt 0.156467 0.575230
vt 0.191182 0.569006
vt 0.169233 0.590852
vt 0.169233 0.445217
vt 0.182246 0.477997
vt 0.156467 0.460838
vt 0.261994 0.416686
vt 0.242054 0.445777
vt 0.241907 0.414810
vt 0.281333 0.613634
vt 0.282148 0.578375
vt 0.299185 0.604235
vt 0.184794 0.603692
vt 0.214508 0.584692
vt 0.202555 0.613260
vt 0.139172 0.518034
vt 0.171520 0.532089
vt 0.141144 0.538112
vt 0.141144 0.497956
vt 0.175607 0.490462
vt 0.171520 0.503980
vt 0.202555 0.422808
vt 0.228006 0.447224
vt 0.214508 0.451376
vt 0.299184 0.431833
vt 0.293126 0.466578
vt 0.282148 0.457693
vt 0.241907 0.621258
vt 0.228006 0.588844
vt 0.242054 0.590291
vt 0.156467 0.575230
vt 0.175607 0.545607
vt 0.182246 0.558071
vt 0.169233 0.445217
vt 0.202075 0.458074
vt 0.191182 0.467062
vt 0.261994 0.416686
vt 0.269652 0.451114
vt 0.256115 0.447091
vt 0.281333 0.613634
vt 0.256115 0.588977
vt 0.269652 0.584954
vt 0.169233 0.590852
vt 0.202075 0.577995
vt 0.184794 0.603692
vt 0.156467 0.460838
vt 0.175607 0.490462
vt 0.146983 0.478645
vt 0.221839 0.416877
vt 0.242054 0.445777
vt 0.228006 0.447224
vt 0.355951 0.674789
vt 0.331741 0.729534
vt 0.331741 0.674789
vt 0.292802 0.853465
vt 0.265293 0.845822
vt 0.281298 0.833540
vt 0.272936 0.873331
vt 0.265293 0.845822
vt 0.281561 0.862091
vt 0.267514 0.886421
vt 0.253011 0.861828
vt 0.272936 0.873331
vt 0.265665 0.900469
vt 0.245291 0.880467
vt 0.267514 0.886421
vt 0.265665 0.900469
vt 0.245290 0.920471
vt 0.242657 0.900469
vt 0.272936 0.927606
vt 0.245290 0.920471
vt 0.267514 0.914516
vt 0.272936 0.927606
vt 0.265293 0.955115
vt 0.253011 0.939110
vt 0.281561 0.938847
vt 0.281298 0.967397
vt 0.265293 0.955115
vt 0.356133 0.729666
vt 0.380343 0.674921
vt 0.380343 0.729666
vt 0.303026 0.871163
vt 0.283061 0.895406
vt 0.287456 0.870483
vt 0.322059 0.870992
vt 0.305232 0.896374
vt 0.303026 0.871163
vt 0.322059 0.870992
vt 0.346583 0.881324
vt 0.326898 0.891571
vt 0.331314 0.859962
vt 0.362945 0.866331
vt 0.346583 0.881324
vt 0.351179 0.836287
vt 0.362945 0.866331
vt 0.341247 0.848124
vt 0.360434 0.825257
vt 0.374868 0.847615
vt 0.351179 0.836287
vt 0.360434 0.825257
vt 0.382510 0.804279
vt 0.381542 0.826450
vt 0.353925 0.791268
vt 0.382510 0.804279
vt 0.357298 0.806484
vt 0.304133 0.674789
vt 0.287130 0.729534
vt 0.287130 0.674789
vt 0.137404 0.836450
vt 0.214768 0.843977
vt 0.138260 0.850593
vt 0.162255 0.712532
vt 0.228028 0.753951
vt 0.156678 0.725557
vt 0.147576 0.752382
vt 0.224503 0.763524
vt 0.221476 0.773266
vt 0.169701 0.961063
vt 0.236822 0.926542
vt 0.240512 0.935215
vt 0.138260 0.850593
vt 0.215908 0.854115
vt 0.139844 0.864672
vt 0.144077 0.766112
vt 0.221476 0.773266
vt 0.218956 0.783151
vt 0.175200 0.973990
vt 0.240512 0.935215
vt 0.244471 0.944522
vt 0.139844 0.864672
vt 0.217571 0.864180
vt 0.142154 0.878651
vt 0.141291 0.780004
vt 0.218956 0.783151
vt 0.216950 0.793154
vt 0.175200 0.973990
vt 0.248430 0.953829
vt 0.180699 0.986916
vt 0.142154 0.878651
vt 0.219752 0.874145
vt 0.145183 0.892492
vt 0.139226 0.794021
vt 0.216950 0.793154
vt 0.215464 0.803246
vt 0.180699 0.986916
vt 0.252120 0.962501
vt 0.185823 0.998961
vt 0.148922 0.906158
vt 0.219752 0.874145
vt 0.222444 0.883985
vt 0.139226 0.794021
vt 0.214500 0.813402
vt 0.137888 0.808126
vt 0.175388 0.687433
vt 0.252120 0.704389
vt 0.241500 0.726502
vt 0.153362 0.919613
vt 0.222444 0.883985
vt 0.225641 0.893672
vt 0.137888 0.808126
vt 0.214062 0.823594
vt 0.137280 0.822282
vt 0.175388 0.687433
vt 0.236539 0.735416
vt 0.168497 0.699813
vt 0.158491 0.932821
vt 0.225641 0.893672
vt 0.229334 0.903182
vt 0.137280 0.822282
vt 0.214152 0.833795
vt 0.137404 0.836450
vt 0.168497 0.699813
vt 0.232044 0.744574
vt 0.162255 0.712532
vt 0.151780 0.738852
vt 0.228028 0.753951
vt 0.224503 0.763524
vt 0.296054 0.819148
vt 0.237437 0.785305
vt 0.256976 0.751463
vt 0.352529 0.647548
vt 0.331923 0.674921
vt 0.335527 0.647548
vt 0.368952 0.643148
vt 0.356133 0.674921
vt 0.352529 0.647548
vt 0.368770 0.761307
vt 0.355951 0.729534
vt 0.379336 0.735800
vt 0.335345 0.756907
vt 0.355951 0.729534
vt 0.352347 0.756907
vt 0.287312 0.729666
vt 0.304315 0.674921
vt 0.304315 0.729666
vt 0.270310 0.729666
vt 0.287312 0.674921
vt 0.287312 0.729666
vt 0.331923 0.729666
vt 0.356133 0.674921
vt 0.356133 0.729666
vt 0.287130 0.674789
vt 0.270128 0.729534
vt 0.270128 0.674789
vt 0.380161 0.674789
vt 0.355951 0.729534
vt 0.355951 0.674789
vt 0.331741 0.674789
vt 0.304133 0.729534
vt 0.304133 0.674789
vt 0.331923 0.729666
vt 0.304315 0.674921
vt 0.331923 0.674921
vt 0.319939 0.846194
vt 0.299937 0.825820
vt 0.319939 0.823187
vt 0.319939 0.846194
vt 0.305892 0.848043
vt 0.299937 0.825820
vt 0.281298 0.967397
vt 0.292802 0.947472
vt 0.305892 0.952894
vt 0.305892 0.848043
vt 0.292802 0.853465
vt 0.281298 0.833540
vt 0.305892 0.848043
vt 0.281298 0.833540
vt 0.299937 0.825820
vt 0.319939 0.954743
vt 0.299937 0.975117
vt 0.305892 0.952894
vt 0.319939 0.977751
vt 0.299937 0.975117
vt 0.319939 0.954743
vt 0.299937 0.975117
vt 0.281298 0.967397
vt 0.305892 0.952894
vt 0.027237 0.272773
vt 0.355043 0.316332
vt 0.012606 0.315985
vt 0.038157 0.252523
vt 0.369674 0.273121
vt 0.027237 0.272773
vt 0.023486 0.336257
vt 0.355043 0.316332
vt 0.355043 0.336257
vt 0.038551 0.379319
vt 0.355043 0.336257
vt 0.370109 0.379319
vt 0.039338 0.273096
vt 0.371101 0.252831
vt 0.371122 0.272756
vt 0.024232 0.316144
vt 0.356037 0.335729
vt 0.013381 0.336432
vt 0.039338 0.273096
vt 0.356017 0.315804
vt 0.024232 0.316144
vt 0.028138 0.379600
vt 0.356037 0.335729
vt 0.370794 0.378897
vt 0.304147 0.812937
vt 0.327305 0.795419
vt 0.327305 0.804844
vt 0.327305 0.785305
vt 0.304147 0.785305
vt 0.327305 0.775191
vt 0.327305 0.775191
vt 0.304147 0.757673
vt 0.327305 0.765766
vt 0.327305 0.795419
vt 0.304147 0.785305
vt 0.327305 0.785305
vt 0.158491 0.932821
vt 0.229334 0.903182
vt 0.236822 0.926542
vt 0.141144 0.497956
vt 0.171520 0.503980
vt 0.170140 0.518034
vt 0.185908 0.517102
vt 0.189563 0.503461
vt 0.196624 0.491231
vt 0.196624 0.491231
vt 0.206610 0.481245
vt 0.218840 0.474184
vt 0.218840 0.474184
vt 0.232481 0.470528
vt 0.246604 0.470528
vt 0.246604 0.470528
vt 0.260245 0.474183
vt 0.272475 0.481245
vt 0.272475 0.481245
vt 0.282461 0.491230
vt 0.289522 0.503461
vt 0.289522 0.503461
vt 0.293177 0.517102
vt 0.293177 0.531224
vt 0.293177 0.531224
vt 0.289522 0.544865
vt 0.282461 0.557095
vt 0.282461 0.557095
vt 0.272475 0.567081
vt 0.260245 0.574143
vt 0.260245 0.574143
vt 0.246604 0.577798
vt 0.232482 0.577798
vt 0.232482 0.577798
vt 0.218841 0.574143
vt 0.206610 0.567081
vt 0.206610 0.567081
vt 0.196624 0.557095
vt 0.189563 0.544865
vt 0.189563 0.544865
vt 0.185908 0.531224
vt 0.185908 0.517102
vt 0.185908 0.517102
vt 0.196624 0.491231
vt 0.218840 0.474184
vt 0.218840 0.474184
vt 0.246604 0.470528
vt 0.272475 0.481245
vt 0.272475 0.481245
vt 0.289522 0.503461
vt 0.293177 0.531224
vt 0.293177 0.531224
vt 0.282461 0.557095
vt 0.260245 0.574143
vt 0.260245 0.574143
vt 0.232482 0.577798
vt 0.206610 0.567081
vt 0.206610 0.567081
vt 0.189563 0.544865
vt 0.185908 0.517102
vt 0.185908 0.517102
vt 0.218840 0.474184
vt 0.272475 0.481245
vt 0.272475 0.481245
vt 0.293177 0.531224
vt 0.260245 0.574143
vt 0.260245 0.574143
vt 0.206610 0.567081
vt 0.185908 0.517102
vt 0.314867 0.591543
vt 0.299185 0.604235
vt 0.282148 0.578375
vt 0.202555 0.613260
vt 0.214508 0.584692
vt 0.228006 0.588844
vt 0.141144 0.538112
vt 0.171520 0.532089
vt 0.175607 0.545607
vt 0.184794 0.432376
vt 0.202555 0.422808
vt 0.214508 0.451376
vt 0.281333 0.422434
vt 0.299184 0.431833
vt 0.282148 0.457693
vt 0.241907 0.621258
vt 0.242054 0.590291
vt 0.256115 0.588977
vt 0.156467 0.575230
vt 0.182246 0.558071
vt 0.191182 0.569006
vt 0.169233 0.445217
vt 0.191182 0.467062
vt 0.182246 0.477997
vt 0.261994 0.416686
vt 0.256115 0.447091
vt 0.242054 0.445777
vt 0.281333 0.613634
vt 0.269652 0.584954
vt 0.282148 0.578375
vt 0.184794 0.603692
vt 0.202075 0.577995
vt 0.214508 0.584692
vt 0.139172 0.518034
vt 0.170140 0.518034
vt 0.171520 0.532089
vt 0.141144 0.497956
vt 0.146983 0.478645
vt 0.175607 0.490462
vt 0.202555 0.422808
vt 0.221839 0.416877
vt 0.228006 0.447224
vt 0.299184 0.431833
vt 0.314867 0.444525
vt 0.293126 0.466578
vt 0.241907 0.621258
vt 0.221839 0.619191
vt 0.228006 0.588844
vt 0.156467 0.575230
vt 0.146983 0.557424
vt 0.175607 0.545607
vt 0.169233 0.445217
vt 0.184794 0.432376
vt 0.202075 0.458074
vt 0.261994 0.416686
vt 0.281333 0.422434
vt 0.269652 0.451114
vt 0.281333 0.613634
vt 0.261994 0.619382
vt 0.256115 0.588977
vt 0.169233 0.590852
vt 0.191182 0.569006
vt 0.202075 0.577995
vt 0.156467 0.460838
vt 0.182246 0.477997
vt 0.175607 0.490462
vt 0.221839 0.416877
vt 0.241907 0.414810
vt 0.242054 0.445777
vt 0.355951 0.674789
vt 0.355951 0.729534
vt 0.331741 0.729534
vt 0.292802 0.853465
vt 0.281561 0.862091
vt 0.265293 0.845822
vt 0.272936 0.873331
vt 0.253011 0.861828
vt 0.265293 0.845822
vt 0.267514 0.886421
vt 0.245291 0.880467
vt 0.253011 0.861828
vt 0.265665 0.900469
vt 0.242657 0.900469
vt 0.245291 0.880467
vt 0.265665 0.900469
vt 0.267514 0.914516
vt 0.245290 0.920471
vt 0.272936 0.927606
vt 0.253011 0.939110
vt 0.245290 0.920471
vt 0.272936 0.927606
vt 0.281561 0.938847
vt 0.265293 0.955115
vt 0.281561 0.938847
vt 0.292802 0.947472
vt 0.281298 0.967397
vt 0.356133 0.729666
vt 0.356133 0.674921
vt 0.380343 0.674921
vt 0.303026 0.871163
vt 0.305232 0.896374
vt 0.283061 0.895406
vt 0.322059 0.870992
vt 0.326898 0.891571
vt 0.305232 0.896374
vt 0.322059 0.870992
vt 0.331314 0.859962
vt 0.346583 0.881324
vt 0.331314 0.859962
vt 0.341247 0.848124
vt 0.362945 0.866331
vt 0.351179 0.836287
vt 0.374868 0.847615
vt 0.362945 0.866331
vt 0.360434 0.825257
vt 0.381542 0.826450
vt 0.374868 0.847615
vt 0.360434 0.825257
vt 0.357298 0.806484
vt 0.382510 0.804279
vt 0.353925 0.791268
vt 0.377707 0.782613
vt 0.382510 0.804279
vt 0.304133 0.674789
vt 0.304133 0.729534
vt 0.287130 0.729534
vt 0.137404 0.836450
vt 0.214152 0.833795
vt 0.214768 0.843977
vt 0.162255 0.712532
vt 0.232044 0.744574
vt 0.228028 0.753951
vt 0.147576 0.752382
vt 0.151780 0.738852
vt 0.224503 0.763524
vt 0.169701 0.961063
vt 0.164577 0.949018
vt 0.236822 0.926542
vt 0.138260 0.850593
vt 0.214768 0.843977
vt 0.215908 0.854115
vt 0.144077 0.766112
vt 0.147576 0.752382
vt 0.221476 0.773266
vt 0.175200 0.973990
vt 0.169701 0.961063
vt 0.240512 0.935215
vt 0.139844 0.864672
vt 0.215908 0.854115
vt 0.217571 0.864180
vt 0.141291 0.780004
vt 0.144077 0.766112
vt 0.218956 0.783151
vt 0.175200 0.973990
vt 0.244471 0.944522
vt 0.248430 0.953829
vt 0.142154 0.878651
vt 0.217571 0.864180
vt 0.219752 0.874145
vt 0.139226 0.794021
vt 0.141291 0.780004
vt 0.216950 0.793154
vt 0.180699 0.986916
vt 0.248430 0.953829
vt 0.252120 0.962501
vt 0.148922 0.906158
vt 0.145183 0.892492
vt 0.219752 0.874145
vt 0.139226 0.794021
vt 0.215464 0.803246
vt 0.214500 0.813402
vt 0.175388 0.687433
vt 0.183637 0.672223
vt 0.252120 0.704389
vt 0.153362 0.919613
vt 0.148922 0.906158
vt 0.222444 0.883985
vt 0.137888 0.808126
vt 0.214500 0.813402
vt 0.214062 0.823594
vt 0.175388 0.687433
vt 0.241500 0.726502
vt 0.236539 0.735416
vt 0.158491 0.932821
vt 0.153362 0.919613
vt 0.225641 0.893672
vt 0.137280 0.822282
vt 0.214062 0.823594
vt 0.214152 0.833795
vt 0.168497 0.699813
vt 0.236539 0.735416
vt 0.232044 0.744574
vt 0.151780 0.738852
vt 0.156678 0.725557
vt 0.228028 0.753951
vt 0.256976 0.751463
vt 0.266401 0.747559
vt 0.276515 0.746227
vt 0.276515 0.746227
vt 0.286629 0.747559
vt 0.296054 0.751463
vt 0.296054 0.751463
vt 0.304147 0.757673
vt 0.304147 0.785305
vt 0.304147 0.785305
vt 0.304147 0.812937
vt 0.296054 0.819148
vt 0.296054 0.819148
vt 0.286629 0.823051
vt 0.276515 0.824383
vt 0.276515 0.824383
vt 0.266401 0.823051
vt 0.256976 0.819147
vt 0.256976 0.819147
vt 0.248883 0.812937
vt 0.242673 0.804844
vt 0.242673 0.804844
vt 0.238769 0.795419
vt 0.237437 0.785305
vt 0.237437 0.785305
vt 0.238769 0.775191
vt 0.242673 0.765766
vt 0.242673 0.765766
vt 0.248883 0.757673
vt 0.256976 0.751463
vt 0.256976 0.751463
vt 0.276515 0.746227
vt 0.296054 0.751463
vt 0.296054 0.751463
vt 0.304147 0.785305
vt 0.296054 0.819148
vt 0.296054 0.819148
vt 0.276515 0.824383
vt 0.256976 0.819147
vt 0.256976 0.819147
vt 0.242673 0.804844
vt 0.237437 0.785305
vt 0.237437 0.785305
vt 0.242673 0.765766
vt 0.256976 0.751463
vt 0.256976 0.751463
vt 0.296054 0.751463
vt 0.296054 0.819148
vt 0.296054 0.819148
vt 0.256976 0.819147
vt 0.237437 0.785305
vt 0.352529 0.647548
vt 0.356133 0.674921
vt 0.331923 0.674921
vt 0.368952 0.643148
vt 0.379518 0.668655
vt 0.356133 0.674921
vt 0.368770 0.761307
vt 0.352347 0.756907
vt 0.355951 0.729534
vt 0.335345 0.756907
vt 0.331741 0.729534
vt 0.355951 0.729534
vt 0.287312 0.729666
vt 0.287312 0.674921
vt 0.304315 0.674921
vt 0.270310 0.729666
vt 0.270310 0.674921
vt 0.287312 0.674921
vt 0.331923 0.729666
vt 0.331923 0.674921
vt 0.356133 0.674921
vt 0.287130 0.674789
vt 0.287130 0.729534
vt 0.270128 0.729534
vt 0.380161 0.674789
vt 0.380161 0.729534
vt 0.355951 0.729534
vt 0.331741 0.674789
vt 0.331741 0.729534
vt 0.304133 0.729534
vt 0.331923 0.729666
vt 0.304315 0.729666
vt 0.304315 0.674921
vt 0.027237 0.272773
vt 0.369674 0.273121
vt 0.355043 0.316332
vt 0.038157 0.252523
vt 0.369714 0.253196
vt 0.369674 0.273121
vt 0.023486 0.336257
vt 0.012606 0.315985
vt 0.355043 0.316332
vt 0.038551 0.379319
vt 0.023486 0.336257
vt 0.355043 0.336257
vt 0.039338 0.273096
vt 0.028445 0.252831
vt 0.371101 0.252831
vt 0.024232 0.316144
vt 0.356017 0.315804
vt 0.356037 0.335729
vt 0.039338 0.273096
vt 0.371122 0.272756
vt 0.356017 0.315804
vt 0.028138 0.379600
vt 0.013381 0.336432
vt 0.356037 0.335729
vt 0.304147 0.812937
vt 0.304147 0.785305
vt 0.327305 0.795419
vt 0.327305 0.775191
vt 0.304147 0.785305
vt 0.304147 0.757673
vt 0.462786 0.548643
vt 0.504803 0.522010
vt 0.504802 0.548643
vt 0.462786 0.522010
vt 0.504802 0.495378
vt 0.504803 0.522010
vt 0.462786 0.495378
vt 0.504803 0.468745
vt 0.504802 0.495378
vt 0.462786 0.468745
vt 0.504803 0.442112
vt 0.504803 0.468745
vt 0.462786 0.442112
vt 0.504803 0.415480
vt 0.504803 0.442112
vt 0.462786 0.415480
vt 0.504803 0.388847
vt 0.504803 0.415480
vt 0.462786 0.388847
vt 0.504803 0.362214
vt 0.504803 0.388847
vt 0.462786 0.362214
vt 0.504803 0.335581
vt 0.504803 0.362214
vt 0.462786 0.335581
vt 0.504803 0.308949
vt 0.504803 0.335581
vt 0.462786 0.308949
vt 0.504803 0.282316
vt 0.504803 0.308949
vt 0.462786 0.282316
vt 0.504803 0.255684
vt 0.504803 0.282316
vt 0.752572 0.761246
vt 0.714721 0.764886
vt 0.735466 0.744140
vt 0.752572 0.761246
vt 0.756212 0.723395
vt 0.776049 0.743232
vt 0.462786 0.841603
vt 0.504803 0.814970
vt 0.504803 0.841603
vt 0.462786 0.814970
vt 0.504803 0.788337
vt 0.504803 0.814970
vt 0.462786 0.788337
vt 0.504803 0.761704
vt 0.504803 0.788337
vt 0.462786 0.761705
vt 0.504803 0.735072
vt 0.504803 0.761704
vt 0.462786 0.735072
vt 0.504803 0.708439
vt 0.504803 0.735072
vt 0.462786 0.708439
vt 0.504803 0.681806
vt 0.504803 0.708439
vt 0.462786 0.681806
vt 0.504803 0.655174
vt 0.504803 0.681806
vt 0.462786 0.655174
vt 0.504803 0.628541
vt 0.504803 0.655174
vt 0.462786 0.628541
vt 0.504803 0.601908
vt 0.504803 0.628541
vt 0.874472 0.666967
vt 0.894344 0.657632
vt 0.909258 0.657632
vt 0.874472 0.535011
vt 0.945275 0.544332
vt 0.909258 0.544346
vt 0.462786 0.601908
vt 0.504803 0.575276
vt 0.504803 0.601908
vt 0.462786 0.575276
vt 0.504802 0.548643
vt 0.504803 0.575276
vt 0.929130 0.666439
vt 0.858327 0.657118
vt 0.894344 0.657104
vt 0.874472 0.534483
vt 0.945275 0.543804
vt 0.909258 0.543818
vt 0.827074 0.686744
vt 0.789223 0.690384
vt 0.809968 0.669638
vt 0.776049 0.743232
vt 0.789223 0.690384
vt 0.809060 0.710221
vt 0.701547 0.817734
vt 0.714721 0.764886
vt 0.734558 0.784723
vt 0.827074 0.686744
vt 0.830714 0.648893
vt 0.850551 0.668730
vt 0.462786 0.548643
vt 0.462786 0.522010
vt 0.504803 0.522010
vt 0.462786 0.522010
vt 0.462786 0.495378
vt 0.504802 0.495378
vt 0.462786 0.495378
vt 0.462786 0.468745
vt 0.504803 0.468745
vt 0.462786 0.468745
vt 0.462786 0.442112
vt 0.504803 0.442112
vt 0.462786 0.442112
vt 0.462786 0.415480
vt 0.504803 0.415480
vt 0.462786 0.415480
vt 0.462786 0.388847
vt 0.504803 0.388847
vt 0.462786 0.388847
vt 0.462786 0.362214
vt 0.504803 0.362214
vt 0.462786 0.362214
vt 0.462786 0.335581
vt 0.504803 0.335581
vt 0.462786 0.335581
vt 0.462786 0.308949
vt 0.504803 0.308949
vt 0.462786 0.308949
vt 0.462786 0.282316
vt 0.504803 0.282316
vt 0.462786 0.282316
vt 0.462786 0.255683
vt 0.504803 0.255684
vt 0.752572 0.761246
vt 0.734558 0.784723
vt 0.714721 0.764886
vt 0.752572 0.761246
vt 0.735466 0.744140
vt 0.756212 0.723395
vt 0.462786 0.841603
vt 0.462786 0.814970
vt 0.504803 0.814970
vt 0.462786 0.814970
vt 0.462786 0.788337
vt 0.504803 0.788337
vt 0.462786 0.788337
vt 0.462786 0.761705
vt 0.504803 0.761704
vt 0.462786 0.761705
vt 0.462786 0.735072
vt 0.504803 0.735072
vt 0.462786 0.735072
vt 0.462786 0.708439
vt 0.504803 0.708439
vt 0.462786 0.708439
vt 0.462786 0.681806
vt 0.504803 0.681806
vt 0.462786 0.681806
vt 0.462786 0.655174
vt 0.504803 0.655174
vt 0.462786 0.655174
vt 0.462786 0.628541
vt 0.504803 0.628541
vt 0.462786 0.628541
vt 0.462786 0.601908
vt 0.504803 0.601908
vt 0.923664 0.653771
vt 0.929130 0.666967
vt 0.911122 0.671792
vt 0.911122 0.671792
vt 0.892480 0.671792
vt 0.874472 0.666967
vt 0.874472 0.666967
vt 0.858327 0.657646
vt 0.867022 0.646314
vt 0.874472 0.666967
vt 0.867022 0.646314
vt 0.879938 0.653771
vt 0.923664 0.653771
vt 0.911122 0.671792
vt 0.874472 0.666967
vt 0.909258 0.657632
vt 0.923664 0.653771
vt 0.874472 0.666967
vt 0.874472 0.666967
vt 0.879938 0.653771
vt 0.894344 0.657632
vt 0.856476 0.635768
vt 0.867022 0.646314
vt 0.858327 0.657646
vt 0.858327 0.657646
vt 0.845144 0.644463
vt 0.835823 0.628318
vt 0.835823 0.628318
vt 0.830998 0.610310
vt 0.830998 0.591667
vt 0.830998 0.591667
vt 0.835823 0.573660
vt 0.845144 0.557514
vt 0.845144 0.557514
vt 0.858327 0.544332
vt 0.874472 0.535011
vt 0.874472 0.535011
vt 0.892480 0.530185
vt 0.911122 0.530185
vt 0.911122 0.530185
vt 0.929130 0.535011
vt 0.945275 0.544332
vt 0.945275 0.544332
vt 0.958458 0.557514
vt 0.967779 0.573660
vt 0.967779 0.573660
vt 0.972604 0.591667
vt 0.972604 0.610310
vt 0.972604 0.610310
vt 0.967779 0.628318
vt 0.958458 0.644463
vt 0.958458 0.644463
vt 0.945275 0.657646
vt 0.929130 0.666967
vt 0.929130 0.666967
vt 0.923664 0.653771
vt 0.936580 0.646314
vt 0.929130 0.666967
vt 0.936580 0.646314
vt 0.947126 0.635768
vt 0.972604 0.610310
vt 0.958458 0.644463
vt 0.929130 0.666967
vt 0.945275 0.544332
vt 0.967779 0.573660
vt 0.972604 0.610310
vt 0.874472 0.535011
vt 0.911122 0.530185
vt 0.945275 0.544332
vt 0.830998 0.591667
vt 0.845144 0.557514
vt 0.874472 0.535011
vt 0.858327 0.657646
vt 0.835823 0.628318
vt 0.830998 0.591667
vt 0.849018 0.622852
vt 0.856476 0.635768
vt 0.858327 0.657646
vt 0.845158 0.608446
vt 0.849018 0.622852
vt 0.858327 0.657646
vt 0.972604 0.610310
vt 0.929130 0.666967
vt 0.947126 0.635768
vt 0.972604 0.610310
vt 0.947126 0.635768
vt 0.954584 0.622852
vt 0.845158 0.608446
vt 0.858327 0.657646
vt 0.830998 0.591667
vt 0.845158 0.593532
vt 0.845158 0.608446
vt 0.830998 0.591667
vt 0.972604 0.610310
vt 0.954584 0.622852
vt 0.958444 0.608446
vt 0.972604 0.610310
vt 0.958444 0.608446
vt 0.958444 0.593532
vt 0.849018 0.579126
vt 0.845158 0.593532
vt 0.830998 0.591667
vt 0.856476 0.566209
vt 0.849018 0.579126
vt 0.830998 0.591667
vt 0.945275 0.544332
vt 0.972604 0.610310
vt 0.958444 0.593532
vt 0.945275 0.544332
vt 0.958444 0.593532
vt 0.954584 0.579126
vt 0.856476 0.566209
vt 0.830998 0.591667
vt 0.874472 0.535011
vt 0.867022 0.555663
vt 0.856476 0.566209
vt 0.874472 0.535011
vt 0.945275 0.544332
vt 0.954584 0.579126
vt 0.947126 0.566209
vt 0.945275 0.544332
vt 0.947126 0.566209
vt 0.936580 0.555663
vt 0.879938 0.548206
vt 0.867022 0.555663
vt 0.874472 0.535011
vt 0.894344 0.544346
vt 0.879938 0.548206
vt 0.874472 0.535011
vt 0.945275 0.544332
vt 0.936580 0.555663
vt 0.923664 0.548206
vt 0.909258 0.544346
vt 0.894344 0.544346
vt 0.874472 0.535011
vt 0.945275 0.544332
vt 0.923664 0.548206
vt 0.909258 0.544346
vt 0.462786 0.601908
vt 0.462786 0.575276
vt 0.504803 0.575276
vt 0.462786 0.575276
vt 0.462786 0.548643
vt 0.504802 0.548643
vt 0.909258 0.657104
vt 0.923664 0.653244
vt 0.929130 0.666439
vt 0.929130 0.666439
vt 0.911122 0.671264
vt 0.892480 0.671264
vt 0.892480 0.671264
vt 0.874472 0.666439
vt 0.858327 0.657118
vt 0.858327 0.657118
vt 0.867022 0.645787
vt 0.879938 0.653244
vt 0.894344 0.657104
vt 0.909258 0.657104
vt 0.929130 0.666439
vt 0.858327 0.657118
vt 0.879938 0.653244
vt 0.894344 0.657104
vt 0.929130 0.666439
vt 0.892480 0.671264
vt 0.858327 0.657118
vt 0.856476 0.635241
vt 0.867022 0.645787
vt 0.858327 0.657118
vt 0.858327 0.657118
vt 0.845144 0.643935
vt 0.835823 0.627790
vt 0.835823 0.627790
vt 0.830998 0.609783
vt 0.830998 0.591140
vt 0.830998 0.591140
vt 0.835823 0.573132
vt 0.845144 0.556987
vt 0.845144 0.556987
vt 0.858327 0.543804
vt 0.874472 0.534483
vt 0.874472 0.534483
vt 0.892480 0.529658
vt 0.911122 0.529658
vt 0.911122 0.529658
vt 0.929130 0.534483
vt 0.945275 0.543804
vt 0.945275 0.543804
vt 0.958458 0.556987
vt 0.967779 0.573132
vt 0.967779 0.573132
vt 0.972604 0.591140
vt 0.972604 0.609783
vt 0.972604 0.609783
vt 0.967779 0.627790
vt 0.958458 0.643935
vt 0.958458 0.643935
vt 0.945275 0.657118
vt 0.929130 0.666439
vt 0.929130 0.666439
vt 0.923664 0.653244
vt 0.936580 0.645787
vt 0.929130 0.666439
vt 0.936580 0.645787
vt 0.947127 0.635241
vt 0.972604 0.609783
vt 0.958458 0.643935
vt 0.929130 0.666439
vt 0.945275 0.543804
vt 0.967779 0.573132
vt 0.972604 0.609783
vt 0.874472 0.534483
vt 0.911122 0.529658
vt 0.945275 0.543804
vt 0.830998 0.591140
vt 0.845144 0.556987
vt 0.874472 0.534483
vt 0.858327 0.657118
vt 0.835823 0.627790
vt 0.830998 0.591140
vt 0.849018 0.622324
vt 0.856476 0.635241
vt 0.858327 0.657118
vt 0.845158 0.607918
vt 0.849018 0.622324
vt 0.858327 0.657118
vt 0.972604 0.609783
vt 0.929130 0.666439
vt 0.947127 0.635241
vt 0.972604 0.609783
vt 0.947127 0.635241
vt 0.954584 0.622324
vt 0.845158 0.607918
vt 0.858327 0.657118
vt 0.830998 0.591140
vt 0.845158 0.593004
vt 0.845158 0.607918
vt 0.830998 0.591140
vt 0.972604 0.609783
vt 0.954584 0.622324
vt 0.958444 0.607918
vt 0.972604 0.609783
vt 0.958444 0.607918
vt 0.958444 0.593004
vt 0.849018 0.578598
vt 0.845158 0.593004
vt 0.830998 0.591140
vt 0.856476 0.565682
vt 0.849018 0.578598
vt 0.830998 0.591140
vt 0.945275 0.543804
vt 0.972604 0.609783
vt 0.958444 0.593004
vt 0.945275 0.543804
vt 0.958444 0.593004
vt 0.954584 0.578598
vt 0.856476 0.565682
vt 0.830998 0.591140
vt 0.874472 0.534483
vt 0.867022 0.555136
vt 0.856476 0.565682
vt 0.874472 0.534483
vt 0.945275 0.543804
vt 0.954584 0.578598
vt 0.947126 0.565682
vt 0.945275 0.543804
vt 0.947126 0.565682
vt 0.936580 0.555136
vt 0.879938 0.547679
vt 0.867022 0.555136
vt 0.874472 0.534483
vt 0.894344 0.543818
vt 0.879938 0.547679
vt 0.874472 0.534483
vt 0.945275 0.543804
vt 0.936580 0.555136
vt 0.923664 0.547679
vt 0.909258 0.543818
vt 0.894344 0.543818
vt 0.874472 0.534483
vt 0.945275 0.543804
vt 0.923664 0.547679
vt 0.909258 0.543818
vt 0.827074 0.686744
vt 0.809060 0.710221
vt 0.789223 0.690384
vt 0.776049 0.743232
vt 0.756212 0.723395
vt 0.789223 0.690384
vt 0.701547 0.817734
vt 0.681710 0.797897
vt 0.714721 0.764886
vt 0.827074 0.686744
vt 0.809968 0.669638
vt 0.830714 0.648893
vt 0.994327 0.817174
vt 0.962802 0.831297
vt 0.962802 0.817174
vt 0.994327 0.831297
vt 0.962802 0.845419
vt 0.962802 0.831297
vt 0.994327 0.845419
vt 0.962802 0.859541
vt 0.962802 0.845419
vt 0.994327 0.859541
vt 0.962802 0.873664
vt 0.962802 0.859541
vt 0.994327 0.873664
vt 0.962802 0.887786
vt 0.962802 0.873664
vt 0.994327 0.887786
vt 0.962802 0.901908
vt 0.962802 0.887786
vt 0.994327 0.901908
vt 0.962802 0.916030
vt 0.962802 0.901908
vt 0.994327 0.916030
vt 0.962802 0.930153
vt 0.962802 0.916030
vt 0.994327 0.930153
vt 0.962802 0.944275
vt 0.962802 0.930153
vt 0.994327 0.944275
vt 0.962802 0.958397
vt 0.962802 0.944275
vt 0.994327 0.958397
vt 0.962802 0.972519
vt 0.962802 0.958397
vt 0.994327 0.972519
vt 0.962802 0.986642
vt 0.962802 0.972519
vt 0.994327 0.647707
vt 0.962802 0.661830
vt 0.962802 0.647707
vt 0.994327 0.661830
vt 0.962802 0.675952
vt 0.962802 0.661830
vt 0.994327 0.675952
vt 0.962802 0.690074
vt 0.962802 0.675952
vt 0.994327 0.690074
vt 0.962802 0.704196
vt 0.962802 0.690074
vt 0.994327 0.704196
vt 0.962802 0.718319
vt 0.962802 0.704196
vt 0.994327 0.718319
vt 0.962802 0.732441
vt 0.962802 0.718319
vt 0.994327 0.732441
vt 0.962802 0.746563
vt 0.962802 0.732441
vt 0.994327 0.746563
vt 0.962802 0.760685
vt 0.962802 0.746563
vt 0.994327 0.760685
vt 0.962802 0.774808
vt 0.962802 0.760685
vt 0.994327 0.774808
vt 0.962802 0.788930
vt 0.962802 0.774808
vt 0.994327 0.788930
vt 0.962802 0.803052
vt 0.962802 0.788930
vt 0.994327 0.803052
vt 0.962802 0.817174
vt 0.962802 0.803052
vt 0.994327 0.817174
vt 0.994327 0.831297
vt 0.962802 0.831297
vt 0.994327 0.831297
vt 0.994327 0.845419
vt 0.962802 0.845419
vt 0.994327 0.845419
vt 0.994327 0.859541
vt 0.962802 0.859541
vt 0.994327 0.859541
vt 0.994327 0.873664
vt 0.962802 0.873664
vt 0.994327 0.873664
vt 0.994327 0.887786
vt 0.962802 0.887786
vt 0.994327 0.887786
vt 0.994327 0.901908
vt 0.962802 0.901908
vt 0.994327 0.901908
vt 0.994327 0.916030
vt 0.962802 0.916030
vt 0.994327 0.916030
vt 0.994327 0.930153
vt 0.962802 0.930153
vt 0.994327 0.930153
vt 0.994327 0.944275
vt 0.962802 0.944275
vt 0.994327 0.944275
vt 0.994327 0.958397
vt 0.962802 0.958397
vt 0.994327 0.958397
vt 0.994327 0.972519
vt 0.962802 0.972519
vt 0.994327 0.972519
vt 0.994327 0.986642
vt 0.962802 0.986642
vt 0.994327 0.647707
vt 0.994327 0.661830
vt 0.962802 0.661830
vt 0.994327 0.661830
vt 0.994327 0.675952
vt 0.962802 0.675952
vt 0.994327 0.675952
vt 0.994327 0.690074
vt 0.962802 0.690074
vt 0.994327 0.690074
vt 0.994327 0.704196
vt 0.962802 0.704196
vt 0.994327 0.704196
vt 0.994327 0.718319
vt 0.962802 0.718319
vt 0.994327 0.718319
vt 0.994327 0.732441
vt 0.962802 0.732441
vt 0.994327 0.732441
vt 0.994327 0.746563
vt 0.962802 0.746563
vt 0.994327 0.746563
vt 0.994327 0.760685
vt 0.962802 0.760685
vt 0.994327 0.760685
vt 0.994327 0.774808
vt 0.962802 0.774808
vt 0.994327 0.774808
vt 0.994327 0.788930
vt 0.962802 0.788930
vt 0.994327 0.788930
vt 0.994327 0.803052
vt 0.962802 0.803052
vt 0.994327 0.803052
vt 0.994327 0.817174
vt 0.962802 0.817174
vt 0.446808 0.427699
vt 0.410834 0.232841
vt 0.446808 0.232841
vt 0.632238 0.759429
vt 0.645887 0.751305
vt 0.654210 0.752382
vt 0.731374 0.612328
vt 0.675901 0.700636
vt 0.661621 0.693659
vt 0.410834 0.455149
vt 0.446808 0.495619
vt 0.410834 0.495619
vt 0.647416 0.873419
vt 0.641549 0.860400
vt 0.643953 0.860497
vt 0.587853 0.715344
vt 0.639049 0.803549
vt 0.624784 0.807560
vt 0.410834 0.523174
vt 0.446808 0.515189
vt 0.446808 0.523174
vt 0.410834 0.515189
vt 0.446808 0.505945
vt 0.446808 0.515189
vt 0.410834 0.505945
vt 0.446808 0.495619
vt 0.446808 0.505945
vt 0.446808 0.427699
vt 0.410834 0.435654
vt 0.410834 0.427699
vt 0.446808 0.435654
vt 0.410834 0.444845
vt 0.410834 0.435654
vt 0.446808 0.444845
vt 0.410834 0.455149
vt 0.410834 0.444845
vt 0.604324 0.568977
vt 0.529992 0.588143
vt 0.529992 0.568977
vt 0.529992 0.588143
vt 0.604324 0.607309
vt 0.529992 0.607309
vt 0.604324 0.453982
vt 0.529992 0.473148
vt 0.529992 0.453982
vt 0.604324 0.473148
vt 0.529992 0.492313
vt 0.529992 0.473148
vt 0.604324 0.492314
vt 0.529992 0.511479
vt 0.529992 0.492313
vt 0.529992 0.511479
vt 0.604324 0.530645
vt 0.529992 0.530645
vt 0.581610 0.823235
vt 0.560098 0.875168
vt 0.508165 0.853656
vt 0.604324 0.530645
vt 0.529992 0.549811
vt 0.529992 0.530645
vt 0.604324 0.549811
vt 0.529992 0.568977
vt 0.529992 0.549811
vt 0.409193 0.770086
vt 0.445168 0.613073
vt 0.445168 0.770086
vt 0.446808 0.718033
vt 0.410834 0.523174
vt 0.446808 0.523174
vt 0.511272 0.709819
vt 0.587853 0.715344
vt 0.516326 0.724022
vt 0.409193 0.303589
vt 0.445168 0.333941
vt 0.409193 0.333941
vt 0.803258 0.634256
vt 0.731374 0.612328
vt 0.810877 0.620505
vt 0.445168 0.333941
vt 0.409193 0.490953
vt 0.409193 0.333941
vt 0.643705 0.508671
vt 0.675929 0.496407
vt 0.649788 0.519243
vt 0.445168 0.571820
vt 0.409193 0.528727
vt 0.445168 0.528727
vt 0.409193 0.613073
vt 0.445168 0.597601
vt 0.445168 0.613073
vt 0.409193 0.597601
vt 0.445168 0.583775
vt 0.445168 0.597601
vt 0.409193 0.583775
vt 0.445168 0.571820
vt 0.445168 0.583775
vt 0.691303 0.620627
vt 0.688667 0.630854
vt 0.659919 0.613819
vt 0.409193 0.303589
vt 0.445168 0.277788
vt 0.445168 0.303589
vt 0.409193 0.277788
vt 0.445168 0.254716
vt 0.445168 0.277788
vt 0.410834 0.788563
vt 0.446808 0.768621
vt 0.446808 0.788563
vt 0.446808 0.768621
vt 0.410834 0.718033
vt 0.446808 0.718033
vt 0.531428 0.800321
vt 0.583361 0.821833
vt 0.561849 0.873766
vt 0.409193 0.528727
vt 0.445168 0.490953
vt 0.445168 0.528727
vt 0.659919 0.613819
vt 0.587853 0.715344
vt 0.545606 0.663188
vt 0.515499 0.692915
vt 0.587853 0.715344
vt 0.511272 0.709819
vt 0.587853 0.715344
vt 0.515499 0.692915
vt 0.527848 0.677830
vt 0.587853 0.715344
vt 0.527848 0.677830
vt 0.545606 0.663188
vt 0.516326 0.724022
vt 0.587853 0.715344
vt 0.540381 0.753649
vt 0.809447 0.602372
vt 0.731374 0.612328
vt 0.799349 0.584717
vt 0.810877 0.620505
vt 0.731374 0.612328
vt 0.809447 0.602372
vt 0.731374 0.612328
vt 0.803258 0.634256
vt 0.773224 0.660494
vt 0.799349 0.584717
vt 0.731374 0.612328
vt 0.783655 0.566654
vt 0.688311 0.611999
vt 0.659919 0.613819
vt 0.667573 0.586410
vt 0.667573 0.586410
vt 0.659919 0.613819
vt 0.638721 0.587662
vt 0.659919 0.613819
vt 0.688311 0.611999
vt 0.691303 0.620627
vt 0.659919 0.613819
vt 0.688667 0.630854
vt 0.681110 0.639941
vt 0.675929 0.496407
vt 0.783655 0.566654
vt 0.731374 0.612328
vt 0.675929 0.496407
vt 0.672978 0.467211
vt 0.702069 0.473570
vt 0.672978 0.467211
vt 0.675929 0.496407
vt 0.647394 0.489562
vt 0.647394 0.489562
vt 0.675929 0.496407
vt 0.642829 0.497807
vt 0.642829 0.497807
vt 0.675929 0.496407
vt 0.643705 0.508671
vt 0.446808 0.427699
vt 0.410834 0.427699
vt 0.410834 0.232841
vt 0.654210 0.752382
vt 0.654682 0.766645
vt 0.647369 0.768129
vt 0.647369 0.768129
vt 0.639301 0.765414
vt 0.632238 0.759429
vt 0.632238 0.759429
vt 0.611302 0.733713
vt 0.622106 0.732277
vt 0.632238 0.759429
vt 0.622106 0.732277
vt 0.629119 0.745322
vt 0.654210 0.752382
vt 0.647369 0.768129
vt 0.632238 0.759429
vt 0.632238 0.759429
vt 0.629119 0.745322
vt 0.645887 0.751305
vt 0.623592 0.716622
vt 0.622106 0.732277
vt 0.611302 0.733713
vt 0.611302 0.733713
vt 0.608168 0.725816
vt 0.608660 0.718547
vt 0.608660 0.718547
vt 0.612460 0.713653
vt 0.731374 0.612328
vt 0.654682 0.766645
vt 0.654210 0.752382
vt 0.664270 0.753134
vt 0.654682 0.766645
vt 0.664270 0.753134
vt 0.680071 0.741511
vt 0.623592 0.716622
vt 0.611302 0.733713
vt 0.608660 0.718547
vt 0.631744 0.702529
vt 0.623592 0.716622
vt 0.608660 0.718547
vt 0.773224 0.660494
vt 0.654682 0.766645
vt 0.680071 0.741511
vt 0.773224 0.660494
vt 0.680071 0.741511
vt 0.686275 0.728331
vt 0.631744 0.702529
vt 0.608660 0.718547
vt 0.731374 0.612328
vt 0.645516 0.694305
vt 0.631744 0.702529
vt 0.731374 0.612328
vt 0.731374 0.612328
vt 0.773224 0.660494
vt 0.686275 0.728331
vt 0.731374 0.612328
vt 0.686275 0.728331
vt 0.684831 0.713384
vt 0.661621 0.693659
vt 0.645516 0.694305
vt 0.731374 0.612328
vt 0.731374 0.612328
vt 0.684831 0.713384
vt 0.675901 0.700636
vt 0.410834 0.455149
vt 0.446808 0.455149
vt 0.446808 0.495619
vt 0.656846 0.858385
vt 0.653952 0.869601
vt 0.647416 0.873419
vt 0.647416 0.873419
vt 0.640468 0.874677
vt 0.641549 0.860400
vt 0.643953 0.860497
vt 0.656846 0.858385
vt 0.647416 0.873419
vt 0.627981 0.858829
vt 0.641549 0.860400
vt 0.640468 0.874677
vt 0.587853 0.715344
vt 0.680651 0.831336
vt 0.683110 0.836855
vt 0.683110 0.836855
vt 0.681898 0.843797
vt 0.677140 0.850338
vt 0.653952 0.869601
vt 0.656846 0.858385
vt 0.658707 0.857833
vt 0.653952 0.869601
vt 0.658707 0.857833
vt 0.667501 0.846861
vt 0.683110 0.836855
vt 0.677140 0.850338
vt 0.653952 0.869601
vt 0.627981 0.858829
vt 0.640468 0.874677
vt 0.634156 0.872213
vt 0.614647 0.844878
vt 0.627981 0.858829
vt 0.634156 0.872213
vt 0.683110 0.836855
vt 0.653952 0.869601
vt 0.667501 0.846861
vt 0.683110 0.836855
vt 0.667501 0.846861
vt 0.669580 0.831894
vt 0.614647 0.844878
vt 0.634156 0.872213
vt 0.540381 0.753649
vt 0.610803 0.831574
vt 0.614647 0.844878
vt 0.540381 0.753649
vt 0.683110 0.836855
vt 0.669580 0.831894
vt 0.664838 0.817303
vt 0.587853 0.715344
vt 0.683110 0.836855
vt 0.664838 0.817303
vt 0.610803 0.831574
vt 0.540381 0.753649
vt 0.587853 0.715344
vt 0.614447 0.817895
vt 0.610803 0.831574
vt 0.587853 0.715344
vt 0.587853 0.715344
vt 0.664838 0.817303
vt 0.653698 0.807071
vt 0.587853 0.715344
vt 0.653698 0.807071
vt 0.639049 0.803549
vt 0.624784 0.807560
vt 0.614447 0.817895
vt 0.587853 0.715344
vt 0.410834 0.523174
vt 0.410834 0.515189
vt 0.446808 0.515189
vt 0.410834 0.515189
vt 0.410834 0.505945
vt 0.446808 0.505945
vt 0.410834 0.505945
vt 0.410834 0.495619
vt 0.446808 0.495619
vt 0.446808 0.427699
vt 0.446808 0.435654
vt 0.410834 0.435654
vt 0.446808 0.435654
vt 0.446808 0.444845
vt 0.410834 0.444845
vt 0.446808 0.444845
vt 0.446808 0.455149
vt 0.410834 0.455149
vt 0.604324 0.568977
vt 0.604324 0.588143
vt 0.529992 0.588143
vt 0.529992 0.588143
vt 0.604324 0.588143
vt 0.604324 0.607309
vt 0.604324 0.453982
vt 0.604324 0.473148
vt 0.529992 0.473148
vt 0.604324 0.473148
vt 0.604324 0.492314
vt 0.529992 0.492313
vt 0.604324 0.492314
vt 0.604324 0.511479
vt 0.529992 0.511479
vt 0.529992 0.511479
vt 0.604324 0.511479
vt 0.604324 0.530645
vt 0.508165 0.853656
vt 0.508165 0.823234
vt 0.529676 0.801723
vt 0.529676 0.801723
vt 0.560098 0.801723
vt 0.581610 0.823235
vt 0.581610 0.823235
vt 0.581610 0.853657
vt 0.560098 0.875168
vt 0.560098 0.875168
vt 0.529676 0.875168
vt 0.508165 0.853656
vt 0.508165 0.853656
vt 0.529676 0.801723
vt 0.581610 0.823235
vt 0.604324 0.530645
vt 0.604324 0.549811
vt 0.529992 0.549811
vt 0.604324 0.549811
vt 0.604324 0.568977
vt 0.529992 0.568977
vt 0.409193 0.770086
vt 0.409193 0.613073
vt 0.445168 0.613073
vt 0.446808 0.718033
vt 0.410834 0.718033
vt 0.410834 0.523174
vt 0.409193 0.303589
vt 0.445168 0.303589
vt 0.445168 0.333941
vt 0.445168 0.333941
vt 0.445168 0.490953
vt 0.409193 0.490953
vt 0.445168 0.571820
vt 0.409193 0.571820
vt 0.409193 0.528727
vt 0.409193 0.613073
vt 0.409193 0.597601
vt 0.445168 0.597601
vt 0.409193 0.597601
vt 0.409193 0.583775
vt 0.445168 0.583775
vt 0.409193 0.583775
vt 0.409193 0.571820
vt 0.445168 0.571820
vt 0.409193 0.303589
vt 0.409193 0.277788
vt 0.445168 0.277788
vt 0.409193 0.277788
vt 0.409193 0.254716
vt 0.445168 0.254716
vt 0.410834 0.788563
vt 0.410834 0.768621
vt 0.446808 0.768621
vt 0.446808 0.768621
vt 0.410834 0.768621
vt 0.410834 0.718033
vt 0.561849 0.873766
vt 0.531428 0.873766
vt 0.509916 0.852255
vt 0.509916 0.852255
vt 0.509916 0.821833
vt 0.531428 0.800321
vt 0.531428 0.800321
vt 0.561850 0.800321
vt 0.583361 0.821833
vt 0.583361 0.821833
vt 0.583361 0.852255
vt 0.561849 0.873766
vt 0.561849 0.873766
vt 0.509916 0.852255
vt 0.531428 0.800321
vt 0.409193 0.528727
vt 0.409193 0.490953
vt 0.445168 0.490953
vt 0.545606 0.663188
vt 0.638721 0.587662
vt 0.659919 0.613819
vt 0.659919 0.613819
vt 0.681110 0.639941
vt 0.587853 0.715344
vt 0.731374 0.612328
vt 0.649788 0.519243
vt 0.675929 0.496407
vt 0.675929 0.496407
vt 0.702069 0.473570
vt 0.783655 0.566654
usemtl Material
f 1/1/1 2/2/2 3/3/3
f 4/4/4 5/5/5 6/6/6
f 7/7/7 8/8/8 9/9/9
f 10/10/10 11/11/11 12/12/12
f 13/13/13 14/14/14 15/15/15
f 16/16/16 17/17/17 18/18/18
f 19/19/19 20/20/20 21/21/21
f 22/22/22 23/23/23 24/24/24
f 25/25/25 8/26/8 26/27/26
f 27/28/27 28/29/28 29/30/29
f 30/31/30 31/32/31 32/33/32
f 33/34/33 34/35/34 35/36/35
f 36/37/36 11/38/11 37/39/37
f 38/40/38 39/41/39 13/42/13
f 6/43/6 9/44/9 16/45/16
f 4/46/4 40/47/40 41/48/41
f 42/49/42 7/50/7 20/51/20
f 43/52/43 12/53/12 23/54/23
f 25/55/25 14/56/14 44/57/44
f 27/58/27 17/59/17 45/60/45
f 30/61/30 21/62/21 46/63/46
f 33/64/33 24/65/24 47/66/47
f 36/67/36 8/68/8 48/69/48
f 29/70/29 49/71/49 38/72/38
f 32/73/32 40/74/40 50/75/50
f 51/76/51 34/77/34 7/78/7
f 52/79/52 53/80/53 54/81/54
f 55/82/55 56/83/56 57/84/57
f 58/85/58 56/86/56 59/87/59
f 60/88/60 61/89/61 58/90/58
f 62/91/62 63/92/63 60/93/60
f 62/94/62 64/95/64 65/96/65
f 66/97/66 64/98/64 67/99/67
f 66/100/66 68/101/68 69/102/69
f 70/103/70 71/104/71 68/105/68
f 72/106/72 73/107/73 74/108/74
f 1/109/1 74/110/74 75/111/75
f 3/112/3 76/113/76 1/114/1
f 3/115/3 77/116/77 78/117/78
f 79/118/79 80/119/80 77/120/77
f 81/121/81 80/122/80 82/123/82
f 83/124/83 84/125/84 81/126/81
f 83/127/83 85/128/85 86/129/86
f 87/130/87 85/131/85 88/132/88
f 89/133/89 90/134/90 91/135/91
f 66/136/66 92/137/92 70/138/70
f 91/139/91 93/140/93 89/141/89
f 55/142/55 94/143/94 95/144/95
f 79/145/79 2/146/2 96/147/96
f 70/148/70 97/149/97 98/150/98
f 59/151/59 95/152/95 99/153/99
f 82/154/82 96/155/96 100/156/100
f 98/157/98 101/158/101 102/159/102
f 58/160/58 99/161/99 103/162/103
f 82/163/82 104/164/104 81/165/81
f 102/166/102 105/167/105 106/168/106
f 60/169/60 103/170/103 107/171/107
f 81/172/81 108/173/108 83/174/83
f 109/175/109 105/176/105 110/177/110
f 60/178/60 111/179/111 62/180/62
f 88/181/88 108/182/108 112/183/112
f 75/184/75 110/185/110 113/186/113
f 62/187/62 114/188/114 67/189/67
f 88/190/88 115/191/115 87/192/87
f 1/193/1 113/194/113 116/195/116
f 67/196/67 117/197/117 66/198/66
f 87/199/87 118/200/118 91/201/91
f 119/202/119 93/203/93 94/204/94
f 113/205/113 111/206/111 95/207/95
f 120/208/120 121/209/121 122/210/122
f 123/211/123 124/212/124 120/213/120
f 125/214/125 126/215/126 127/216/127
f 128/217/128 126/218/126 90/219/90
f 109/220/109 122/221/122 106/222/106
f 75/223/75 120/224/120 109/225/109
f 129/226/129 124/227/124 72/228/72
f 91/229/91 125/230/125 87/231/87
f 130/232/130 126/233/126 52/234/52
f 54/235/54 128/236/128 89/237/89
f 129/238/129 122/239/122 121/240/121
f 89/241/89 131/242/131 54/243/54
f 89/244/89 119/245/119 131/246/131
f 71/247/71 98/248/98 102/249/102
f 119/250/119 55/251/55 57/252/57
f 119/253/119 57/254/57 131/255/131
f 106/256/106 132/257/132 102/258/102
f 129/259/129 132/260/132 106/261/106
f 132/262/132 71/263/71 102/264/102
f 125/265/125 133/266/133 87/267/87
f 127/268/127 134/269/134 125/270/125
f 130/271/130 133/272/133 135/273/135
f 127/274/127 135/275/135 136/276/136
f 73/277/73 137/278/137 138/279/138
f 74/280/74 139/281/139 75/282/75
f 73/283/73 140/284/140 74/285/74
f 123/286/123 139/287/139 137/288/137
f 116/289/116 96/290/96 2/291/2
f 100/292/100 141/293/141 104/294/104
f 104/295/104 112/296/112 108/297/108
f 96/298/96 141/299/141 100/300/100
f 1/301/1 116/302/116 2/303/2
f 4/304/4 41/305/41 5/306/5
f 9/307/9 5/308/5 41/309/41
f 41/310/41 40/311/40 31/312/31
f 31/313/31 46/314/46 21/315/21
f 21/316/21 20/317/20 7/318/7
f 7/319/7 34/320/34 47/321/47
f 47/322/47 24/323/24 23/324/23
f 23/325/23 12/326/12 11/327/11
f 11/328/11 48/329/48 8/330/8
f 8/331/8 44/332/44 14/333/14
f 14/334/14 39/335/39 49/336/49
f 49/337/49 28/338/28 45/339/45
f 45/340/45 17/341/17 9/342/9
f 9/343/9 41/344/41 31/345/31
f 31/346/31 21/347/21 7/348/7
f 7/349/7 47/350/47 23/351/23
f 23/352/23 11/353/11 8/354/8
f 8/355/8 14/356/14 49/357/49
f 49/358/49 45/359/45 9/360/9
f 9/361/9 31/362/31 7/363/7
f 7/364/7 23/365/23 8/366/8
f 8/367/8 49/368/49 9/369/9
f 10/370/10 37/371/37 11/372/11
f 13/373/13 39/374/39 14/375/14
f 16/376/16 9/377/9 17/378/17
f 19/379/19 42/380/42 20/381/20
f 22/382/22 43/383/43 23/384/23
f 25/385/25 44/386/44 8/387/8
f 27/388/27 45/389/45 28/390/28
f 30/391/30 46/392/46 31/393/31
f 33/394/33 47/395/47 34/396/34
f 36/397/36 48/398/48 11/399/11
f 38/400/38 49/401/49 39/402/39
f 6/403/6 5/404/5 9/405/9
f 4/406/4 50/407/50 40/408/40
f 42/409/42 51/410/51 7/411/7
f 43/412/43 10/413/10 12/414/12
f 25/415/25 15/416/15 14/417/14
f 27/418/27 18/419/18 17/420/17
f 30/421/30 19/422/19 21/423/21
f 33/424/33 22/425/22 24/426/24
f 36/427/36 26/428/26 8/429/8
f 29/430/29 28/431/28 49/432/49
f 32/433/32 31/434/31 40/435/40
f 51/436/51 35/437/35 34/438/34
f 52/439/52 126/440/126 53/441/53
f 55/442/55 59/443/59 56/444/56
f 58/445/58 61/446/61 56/447/56
f 60/448/60 63/449/63 61/450/61
f 62/451/62 65/452/65 63/453/63
f 62/454/62 67/455/67 64/456/64
f 66/457/66 69/458/69 64/459/64
f 66/460/66 70/461/70 68/462/68
f 70/463/70 98/464/98 71/465/71
f 72/466/72 124/467/124 73/468/73
f 1/469/1 76/470/76 74/471/74
f 3/472/3 78/473/78 76/474/76
f 3/475/3 79/476/79 77/477/77
f 79/478/79 82/479/82 80/480/80
f 81/481/81 84/482/84 80/483/80
f 83/484/83 86/485/86 84/486/84
f 83/487/83 88/488/88 85/489/85
f 87/490/87 130/491/130 85/492/85
f 89/493/89 128/494/128 90/495/90
f 66/496/66 117/497/117 92/498/92
f 91/499/91 118/500/118 93/501/93
f 55/502/55 119/503/119 94/504/94
f 79/505/79 3/506/3 2/507/2
f 70/508/70 92/509/92 97/510/97
f 59/511/59 55/512/55 95/513/95
f 82/514/82 79/515/79 96/516/96
f 98/517/98 97/518/97 101/519/101
f 58/520/58 59/521/59 99/522/99
f 82/523/82 100/524/100 104/525/104
f 102/526/102 101/527/101 105/528/105
f 60/529/60 58/530/58 103/531/103
f 81/532/81 104/533/104 108/534/108
f 109/535/109 106/536/106 105/537/105
f 60/538/60 107/539/107 111/540/111
f 88/541/88 83/542/83 108/543/108
f 75/544/75 109/545/109 110/546/110
f 62/547/62 111/548/111 114/549/114
f 88/550/88 112/551/112 115/552/115
f 1/553/1 75/554/75 113/555/113
f 67/556/67 114/557/114 117/558/117
f 87/559/87 115/560/115 118/561/118
f 119/562/119 89/563/89 93/564/93
f 95/565/95 94/566/94 93/567/93
f 93/568/93 118/569/118 115/570/115
f 115/571/115 112/572/112 141/573/141
f 141/574/141 116/575/116 113/576/113
f 113/577/113 110/578/110 105/579/105
f 105/580/105 101/581/101 97/582/97
f 97/583/97 92/584/92 117/585/117
f 117/586/117 114/587/114 111/588/111
f 111/589/111 107/590/107 103/591/103
f 103/592/103 99/593/99 95/594/95
f 95/595/95 93/596/93 115/597/115
f 115/598/115 141/599/141 113/600/113
f 113/601/113 105/602/105 97/603/97
f 97/604/97 117/605/117 111/606/111
f 111/607/111 103/608/103 95/609/95
f 95/610/95 115/611/115 113/612/113
f 113/613/113 97/614/97 111/615/111
f 120/616/120 124/617/124 121/618/121
f 123/619/123 73/620/73 124/621/124
f 125/622/125 90/623/90 126/624/126
f 128/625/128 53/626/53 126/627/126
f 109/628/109 120/629/120 122/630/122
f 75/631/75 123/632/123 120/633/120
f 129/634/129 121/635/121 124/636/124
f 91/637/91 90/638/90 125/639/125
f 130/640/130 127/641/127 126/642/126
f 54/643/54 53/644/53 128/645/128
f 129/646/129 106/647/106 122/648/122
f 125/649/125 134/650/134 133/651/133
f 127/652/127 136/653/136 134/654/134
f 130/655/130 87/656/87 133/657/133
f 127/658/127 130/659/130 135/660/135
f 73/661/73 123/662/123 137/663/137
f 74/664/74 140/665/140 139/666/139
f 73/667/73 138/668/138 140/669/140
f 123/670/123 75/671/75 139/672/139
f 116/673/116 141/674/141 96/675/96
f 104/676/104 141/677/141 112/678/112
usemtl alumArm
f 142/679/142 143/680/143 144/681/144
f 145/682/145 146/683/146 143/684/143
f 147/685/147 148/686/148 146/687/146
f 149/688/149 150/689/150 148/690/148
f 151/691/151 152/692/152 150/693/150
f 153/694/153 154/695/154 152/696/152
f 155/697/155 156/698/156 154/699/154
f 157/700/157 158/701/158 156/702/156
f 159/703/159 160/704/160 158/705/158
f 161/706/161 162/707/162 160/708/160
f 163/709/163 164/710/164 162/711/162
f 165/712/165 166/713/166 167/714/167
f 165/715/165 168/716/168 169/717/169
f 170/718/170 171/719/171 169/720/169
f 172/721/172 173/722/173 171/723/171
f 174/724/174 175/725/175 173/726/173
f 176/727/176 177/728/177 175/729/175
f 178/730/178 179/731/179 177/732/177
f 180/733/180 181/734/181 179/735/179
f 182/736/182 183/737/183 181/738/181
f 184/739/184 185/740/185 183/741/183
f 186/742/186 187/743/187 185/744/185
f 149/745/149 188/746/188 189/747/189
f 180/748/180 172/749/172 190/750/190
f 191/751/191 192/752/192 187/753/187
f 193/754/193 144/755/144 192/756/192
f 148/757/148 156/758/156 194/759/194
f 173/760/173 181/761/181 195/762/195
f 196/763/196 197/764/197 198/765/198
f 169/766/169 197/767/197 170/768/170
f 199/769/199 166/770/166 164/771/164
f 196/772/196 200/773/200 199/774/199
f 142/775/142 145/776/145 143/777/143
f 145/778/145 147/779/147 146/780/146
f 147/781/147 149/782/149 148/783/148
f 149/784/149 151/785/151 150/786/150
f 151/787/151 153/788/153 152/789/152
f 153/790/153 155/791/155 154/792/154
f 155/793/155 157/794/157 156/795/156
f 157/796/157 159/797/159 158/798/158
f 159/799/159 161/800/161 160/801/160
f 161/802/161 163/803/163 162/804/162
f 163/805/163 199/806/199 164/807/164
f 165/808/165 164/809/164 166/810/166
f 165/811/165 167/812/167 168/813/168
f 170/814/170 172/815/172 171/816/171
f 172/817/172 174/818/174 173/819/173
f 174/820/174 176/821/176 175/822/175
f 176/823/176 178/824/178 177/825/177
f 178/826/178 180/827/180 179/828/179
f 180/829/180 182/830/182 181/831/181
f 182/832/182 184/833/184 183/834/183
f 184/835/184 186/836/186 185/837/185
f 186/838/186 191/839/191 187/840/187
f 201/841/201 155/842/155 153/843/153
f 153/844/153 151/845/151 149/846/149
f 149/847/149 147/848/147 202/849/202
f 149/850/149 202/851/202 203/852/203
f 201/853/201 153/854/153 149/855/149
f 189/856/189 201/857/201 149/858/149
f 149/859/149 203/860/203 188/861/188
f 204/862/204 202/863/202 147/864/147
f 147/865/147 145/866/145 142/867/142
f 142/868/142 193/869/193 191/870/191
f 191/871/191 186/872/186 184/873/184
f 184/874/184 182/875/182 180/876/180
f 180/877/180 178/878/178 176/879/176
f 176/880/176 174/881/174 172/882/172
f 172/883/172 170/884/170 196/885/196
f 196/886/196 199/887/199 163/888/163
f 163/889/163 161/890/161 159/891/159
f 159/892/159 157/893/157 155/894/155
f 155/895/155 201/896/201 205/897/205
f 155/898/155 205/899/205 206/900/206
f 163/901/163 159/902/159 155/903/155
f 172/904/172 196/905/196 163/906/163
f 180/907/180 176/908/176 172/909/172
f 191/910/191 184/911/184 180/912/180
f 147/913/147 142/914/142 191/915/191
f 207/916/207 204/917/204 147/918/147
f 208/919/208 207/920/207 147/921/147
f 163/922/163 155/923/155 206/924/206
f 163/925/163 206/926/206 209/927/209
f 208/928/208 147/929/147 191/930/191
f 210/931/210 208/932/208 191/933/191
f 163/934/163 209/935/209 211/936/211
f 163/937/163 211/938/211 212/939/212
f 213/940/213 210/941/210 191/942/191
f 214/943/214 213/944/213 191/945/191
f 172/946/172 163/947/163 212/948/212
f 172/949/172 212/950/212 215/951/215
f 214/952/214 191/953/191 180/954/180
f 216/955/216 214/956/214 180/957/180
f 172/958/172 215/959/215 217/960/217
f 172/961/172 217/962/217 218/963/218
f 219/964/219 216/965/216 180/966/180
f 220/967/220 219/968/219 180/969/180
f 172/970/172 218/971/218 221/972/221
f 190/973/190 220/974/220 180/975/180
f 172/976/172 221/977/221 190/978/190
f 191/979/191 193/980/193 192/981/192
f 193/982/193 142/983/142 144/984/144
f 222/985/222 223/986/223 148/987/148
f 148/988/148 150/989/150 152/990/152
f 152/991/152 154/992/154 156/993/156
f 156/994/156 224/995/224 225/996/225
f 194/997/194 222/998/222 148/999/148
f 156/1000/156 225/1001/225 194/1002/194
f 148/1003/148 152/1004/152 156/1005/156
f 226/1006/226 224/1007/224 156/1008/156
f 156/1009/156 158/1010/158 160/1011/160
f 160/1012/160 162/1013/162 164/1014/164
f 164/1015/164 165/1016/165 169/1017/169
f 169/1018/169 171/1019/171 173/1020/173
f 173/1021/173 175/1022/175 177/1023/177
f 177/1024/177 179/1025/179 181/1026/181
f 181/1027/181 183/1028/183 185/1029/185
f 185/1030/185 187/1031/187 192/1032/192
f 192/1033/192 144/1034/144 143/1035/143
f 143/1036/143 146/1037/146 148/1038/148
f 148/1039/148 223/1040/223 227/1041/227
f 148/1042/148 227/1043/227 228/1044/228
f 192/1045/192 143/1046/143 148/1047/148
f 181/1048/181 185/1049/185 192/1050/192
f 173/1051/173 177/1052/177 181/1053/181
f 164/1054/164 169/1055/169 173/1056/173
f 156/1057/156 160/1058/160 164/1059/164
f 229/1060/229 226/1061/226 156/1062/156
f 230/1063/230 229/1064/229 156/1065/156
f 192/1066/192 148/1067/148 228/1068/228
f 192/1069/192 228/1070/228 231/1071/231
f 230/1072/230 156/1073/156 164/1074/164
f 232/1075/232 230/1076/230 164/1077/164
f 192/1078/192 231/1079/231 233/1080/233
f 192/1081/192 233/1082/233 234/1083/234
f 235/1084/235 232/1085/232 164/1086/164
f 236/1087/236 235/1088/235 164/1089/164
f 181/1090/181 192/1091/192 234/1092/234
f 181/1093/181 234/1094/234 237/1095/237
f 236/1096/236 164/1097/164 173/1098/173
f 238/1099/238 236/1100/236 173/1101/173
f 181/1102/181 237/1103/237 239/1104/239
f 181/1105/181 239/1106/239 240/1107/240
f 241/1108/241 238/1109/238 173/1110/173
f 242/1111/242 241/1112/241 173/1113/173
f 181/1114/181 240/1115/240 243/1116/243
f 195/1117/195 242/1118/242 173/1119/173
f 181/1120/181 243/1121/243 195/1122/195
f 196/1123/196 170/1124/170 197/1125/197
f 169/1126/169 168/1127/168 197/1128/197
f 199/1129/199 200/1130/200 166/1131/166
f 196/1132/196 198/1133/198 200/1134/200
usemtl alumGray
f 54/1135/54 4/1136/4 6/1137/6
f 131/1138/131 50/1139/50 4/1140/4
f 57/1141/57 32/1142/32 50/1143/50
f 56/1144/56 30/1145/30 32/1146/32
f 61/1147/61 19/1148/19 30/1149/30
f 63/1150/63 42/1151/42 19/1152/19
f 65/1153/65 51/1154/51 42/1155/42
f 64/1156/64 35/1157/35 51/1158/51
f 69/1159/69 33/1160/33 35/1161/35
f 68/1162/68 22/1163/22 33/1164/33
f 71/1165/71 43/1166/43 22/1167/22
f 132/1168/132 10/1169/10 43/1170/43
f 129/1171/129 37/1172/37 10/1173/10
f 72/1174/72 36/1175/36 37/1176/37
f 74/1177/74 26/1178/26 36/1179/36
f 76/1180/76 25/1181/25 26/1182/26
f 78/1183/78 15/1184/15 25/1185/25
f 77/1186/77 13/1187/13 15/1188/15
f 80/1189/80 38/1190/38 13/1191/13
f 84/1192/84 29/1193/29 38/1194/38
f 86/1195/86 27/1196/27 29/1197/29
f 85/1198/85 18/1199/18 27/1200/27
f 130/1201/130 16/1202/16 18/1203/18
f 52/1204/52 6/1205/6 16/1206/16
f 54/1207/54 131/1208/131 4/1209/4
f 131/1210/131 57/1211/57 50/1212/50
f 57/1213/57 56/1214/56 32/1215/32
f 56/1216/56 61/1217/61 30/1218/30
f 61/1219/61 63/1220/63 19/1221/19
f 63/1222/63 65/1223/65 42/1224/42
f 65/1225/65 64/1226/64 51/1227/51
f 64/1228/64 69/1229/69 35/1230/35
f 69/1231/69 68/1232/68 33/1233/33
f 68/1234/68 71/1235/71 22/1236/22
f 71/1237/71 132/1238/132 43/1239/43
f 132/1240/132 129/1241/129 10/1242/10
f 129/1243/129 72/1244/72 37/1245/37
f 72/1246/72 74/1247/74 36/1248/36
f 74/1249/74 76/1250/76 26/1251/26
f 76/1252/76 78/1253/78 25/1254/25
f 78/1255/78 77/1256/77 15/1257/15
f 77/1258/77 80/1259/80 13/1260/13
f 80/1261/80 84/1262/84 38/1263/38
f 84/1264/84 86/1265/86 29/1266/29
f 86/1267/86 85/1268/85 27/1269/27
f 85/1270/85 130/1271/130 18/1272/18
f 130/1273/130 52/1274/52 16/1275/16
f 52/1276/52 54/1277/54 6/1278/6
usemtl alumGrayDeep
f 244/1279/244 245/1280/245 246/1281/246
f 247/1282/247 248/1283/248 249/1284/249
f 246/1285/246 250/1286/250 251/1287/251
f 252/1288/252 247/1289/247 253/1290/253
f 254/1291/254 255/1292/255 256/1293/256
f 245/1294/245 257/1295/257 258/1296/258
f 259/1297/259 260/1298/260 261/1299/261
f 262/1300/262 263/1301/263 260/1302/260
f 254/1303/254 247/1304/247 263/1305/263
f 244/1306/244 264/1307/264 265/1308/265
f 266/1309/266 267/1310/267 264/1311/264
f 268/1312/268 252/1313/252 267/1314/267
f 269/1315/269 270/1316/270 271/1317/271
f 270/1318/270 272/1319/272 273/1320/273
f 272/1321/272 274/1322/274 273/1323/273
f 275/1324/275 276/1325/276 274/1326/274
f 277/1327/277 278/1328/278 276/1329/276
f 278/1330/278 279/1331/279 280/1332/280
f 281/1333/281 282/1334/282 283/1335/283
f 279/1336/279 284/1337/284 280/1338/280
f 282/1339/282 271/1340/271 284/1341/284
f 245/1342/245 285/1343/285 246/1344/246
f 286/1345/286 259/1346/259 261/1347/261
f 287/1348/287 245/1349/245 288/1350/288
f 289/1351/289 290/1352/290 291/1353/291
f 292/1354/292 246/1355/246 293/1356/293
f 290/1357/290 294/1358/294 291/1359/291
f 295/1360/295 296/1361/296 285/1362/285
f 297/1363/297 298/1364/298 299/1365/299
f 300/1366/300 295/1367/295 285/1368/285
f 301/1369/301 302/1370/302 295/1371/295
f 303/1372/303 297/1373/297 302/1374/302
f 303/1375/303 301/1376/301 304/1377/304
f 289/1378/289 305/1379/305 306/1380/306
f 307/1381/307 293/1382/293 305/1383/305
f 287/1384/287 292/1385/292 293/1386/293
f 292/1387/292 308/1388/308 286/1389/286
f 273/1390/273 276/1391/276 280/1392/280
f 298/1393/298 309/1394/309 299/1395/299
f 304/1396/304 245/1397/245 291/1398/291
f 307/1399/307 245/1400/245 287/1401/287
f 245/1402/245 307/1403/307 289/1404/289
f 245/1405/245 289/1406/289 291/1407/291
f 288/1408/288 245/1409/245 308/1410/308
f 305/1411/305 246/1412/246 306/1413/306
f 293/1414/293 246/1415/246 305/1416/305
f 246/1417/246 292/1418/292 286/1419/286
f 306/1420/306 246/1421/246 290/1422/290
f 310/1423/310 304/1424/304 298/1425/298
f 298/1426/298 304/1427/304 294/1428/294
f 304/1429/304 310/1430/310 303/1431/303
f 304/1432/304 301/1433/301 300/1434/300
f 296/1435/296 290/1436/290 246/1437/246
f 296/1438/296 299/1439/299 309/1440/309
f 299/1441/299 296/1442/296 297/1443/297
f 297/1444/297 296/1445/296 302/1446/302
f 302/1447/302 296/1448/296 295/1449/295
f 244/1450/244 265/1451/265 245/1452/245
f 249/1453/249 261/1454/261 260/1455/260
f 260/1456/260 263/1457/263 247/1458/247
f 247/1459/247 311/1460/311 312/1461/312
f 247/1462/247 312/1463/312 313/1464/313
f 249/1465/249 260/1466/260 247/1467/247
f 247/1468/247 313/1469/313 248/1470/248
f 314/1471/314 312/1472/312 311/1473/311
f 311/1474/311 268/1475/268 266/1476/266
f 266/1477/266 244/1478/244 246/1479/246
f 261/1480/261 249/1481/249 315/1482/315
f 261/1483/261 315/1484/315 316/1485/316
f 314/1486/314 311/1487/311 266/1488/266
f 317/1489/317 314/1490/314 266/1491/266
f 286/1492/286 261/1493/261 316/1494/316
f 286/1495/286 316/1496/316 318/1497/318
f 317/1498/317 266/1499/266 246/1500/246
f 319/1501/319 317/1502/317 246/1503/246
f 246/1504/246 286/1505/286 318/1506/318
f 246/1507/246 318/1508/318 320/1509/320
f 251/1510/251 319/1511/319 246/1512/246
f 246/1513/246 320/1514/320 250/1515/250
f 252/1516/252 311/1517/311 247/1518/247
f 321/1519/321 253/1520/253 254/1521/254
f 254/1522/254 262/1523/262 255/1524/255
f 256/1525/256 321/1526/321 254/1527/254
f 322/1528/322 255/1529/255 262/1530/262
f 245/1531/245 265/1532/265 264/1533/264
f 264/1534/264 267/1535/267 252/1536/252
f 253/1537/253 321/1538/321 323/1539/323
f 253/1540/253 323/1541/323 324/1542/324
f 264/1543/264 252/1544/252 253/1545/253
f 322/1546/322 262/1547/262 259/1548/259
f 325/1549/325 322/1550/322 259/1551/259
f 264/1552/264 253/1553/253 324/1554/324
f 264/1555/264 324/1556/324 326/1557/326
f 325/1558/325 259/1559/259 308/1560/308
f 327/1561/327 325/1562/325 308/1563/308
f 264/1564/264 326/1565/326 328/1566/328
f 245/1567/245 264/1568/264 328/1569/328
f 327/1570/327 308/1571/308 245/1572/245
f 329/1573/329 327/1574/327 245/1575/245
f 245/1576/245 328/1577/328 330/1578/330
f 245/1579/245 330/1580/330 257/1581/257
f 258/1582/258 329/1583/329 245/1584/245
f 259/1585/259 262/1586/262 260/1587/260
f 262/1588/262 254/1589/254 263/1590/263
f 254/1591/254 253/1592/253 247/1593/247
f 244/1594/244 266/1595/266 264/1596/264
f 266/1597/266 268/1598/268 267/1599/267
f 268/1600/268 311/1601/311 252/1602/252
f 269/1603/269 281/1604/281 270/1605/270
f 270/1606/270 281/1607/281 272/1608/272
f 272/1609/272 275/1610/275 274/1611/274
f 275/1612/275 277/1613/277 276/1614/276
f 277/1615/277 283/1616/283 278/1617/278
f 278/1618/278 283/1619/283 279/1620/279
f 283/1621/283 277/1622/277 275/1623/275
f 275/1624/275 272/1625/272 281/1626/281
f 281/1627/281 269/1628/269 282/1629/282
f 282/1630/282 279/1631/279 283/1632/283
f 283/1633/283 275/1634/275 281/1635/281
f 279/1636/279 282/1637/282 284/1638/284
f 282/1639/282 269/1640/269 271/1641/271
f 245/1642/245 300/1643/300 285/1644/285
f 286/1645/286 308/1646/308 259/1647/259
f 289/1648/289 306/1649/306 290/1650/290
f 290/1651/290 309/1652/309 294/1653/294
f 297/1654/297 310/1655/310 298/1656/298
f 300/1657/300 301/1658/301 295/1659/295
f 301/1660/301 303/1661/303 302/1662/302
f 303/1663/303 310/1664/310 297/1665/297
f 289/1666/289 307/1667/307 305/1668/305
f 307/1669/307 287/1670/287 293/1671/293
f 287/1672/287 288/1673/288 292/1674/292
f 292/1675/292 288/1676/288 308/1677/308
f 280/1678/280 284/1679/284 271/1680/271
f 271/1681/271 270/1682/270 273/1683/273
f 273/1684/273 274/1685/274 276/1686/276
f 276/1687/276 278/1688/278 280/1689/280
f 280/1690/280 271/1691/271 273/1692/273
f 298/1693/298 294/1694/294 309/1695/309
f 291/1696/291 294/1697/294 304/1698/304
f 304/1699/304 300/1700/300 245/1701/245
f 246/1702/246 285/1703/285 296/1704/296
f 296/1705/296 309/1706/309 290/1707/290
