# Satelite_Modulo_Trasero
# origen puesto en el pivote de la pieza
# pivote en coordenadas del modelo: -4.75249 0.00000 0.00000
mtllib Satelite.mtl
o Satelite_Modulo_Trasero
v -1.615149 1.749433 0.056079
v -0.253475 1.749433 0.056079
v -0.253475 2.064170 0.056079
v -1.615149 2.064170 0.056079
v -0.253475 2.064170 -0.056079
v -1.615149 2.064170 -0.056079
v -0.253475 1.749433 -0.056079
v -1.615149 1.749433 -0.056079
v -1.615149 0.056079 -1.749433
v -0.253475 0.056079 -1.749433
v -0.253475 0.056079 -2.064170
v -1.615149 0.056079 -2.064170
v -0.253475 -0.056079 -2.064170
v -1.615149 -0.056079 -2.064170
v -0.253475 -0.056079 -1.749433
v -1.615149 -0.056079 -1.749433
v -1.615149 -1.749433 -0.056079
v -0.253475 -1.749433 -0.056079
v -0.253475 -2.064170 -0.056079
v -1.615149 -2.064170 -0.056079
v -0.253475 -2.064170 0.056079
v -1.615149 -2.064170 0.056079
v -0.253475 -1.749433 0.056079
v -1.615149 -1.749433 0.056079
v -1.615149 -0.056079 1.749433
v -0.253475 -0.056079 1.749433
v -0.253475 -0.056079 2.064170
v -1.615149 -0.056079 2.064170
v -0.253475 0.056079 2.064170
v -1.615149 0.056079 2.064170
v -0.253475 0.056079 1.749433
v -1.615149 0.056079 1.749433
v -1.615149 1.276690 -1.197382
v -0.253475 1.276690 -1.197382
v -0.253475 1.499242 -1.419934
v -1.615149 1.499242 -1.419934
v -0.253475 1.419934 -1.499242
v -1.615149 1.419934 -1.499242
v -0.253475 1.197382 -1.276690
v -1.615149 1.197382 -1.276690
v -1.615149 -1.197382 -1.276690
v -0.253475 -1.197382 -1.276690
v -0.253475 -1.419934 -1.499242
v -1.615149 -1.419934 -1.499242
v -0.253475 -1.499242 -1.419934
v -1.615149 -1.499242 -1.419934
v -0.253475 -1.276690 -1.197382
v -1.615149 -1.276690 -1.197382
v -1.615149 -1.276690 1.197382
v -0.253475 -1.276690 1.197382
v -0.253475 -1.499242 1.419934
v -1.615149 -1.499242 1.419934
v -0.253475 -1.419934 1.499242
v -1.615149 -1.419934 1.499242
v -0.253475 -1.197382 1.276690
v -1.615149 -1.197382 1.276690
v -1.615149 1.197382 1.276690
v -0.253475 1.197382 1.276690
v -0.253475 1.419934 1.499242
v -1.615149 1.419934 1.499242
v -0.253475 1.499242 1.419934
v -1.615149 1.499242 1.419934
v -0.253475 1.276690 1.197382
v -1.615149 1.276690 1.197382
v -1.868624 -0.821554 -0.418603
v -1.868624 -1.421844 -0.854739
v -1.868624 -1.527237 -0.647893
v -1.794641 -1.539176 -0.942180
v -0.073983 -1.539175 -0.942180
v -0.073983 -1.666945 -0.691419
v -1.794641 -1.666945 -0.691419
v -0.073983 -1.754992 -0.420435
v -0.073983 -1.799018 -0.142465
v -1.794641 -1.799018 -0.142465
v -1.794641 -1.754992 -0.420435
v -1.868624 -1.652698 -0.144241
v -1.868624 -0.910700 -0.144241
v -1.868623 -1.616382 -0.373531
v -1.868624 -0.651989 -0.651989
v -1.868624 -1.088125 -1.252279
v -1.868624 -1.252279 -1.088125
v -1.794641 -1.172693 -1.371698
v -0.073983 -1.172693 -1.371698
v -0.073983 -1.371698 -1.172693
v -1.794641 -1.371698 -1.172693
v -1.868624 -0.418603 -0.821554
v -1.868623 -0.647893 -1.527237
v -1.868624 -0.854739 -1.421844
v -1.794641 -0.691419 -1.666945
v -0.073983 -0.691419 -1.666945
v -0.073983 -0.942180 -1.539176
v -1.794641 -0.942180 -1.539176
v -1.868624 -0.144241 -0.910700
v -1.868624 -0.144241 -1.652699
v -1.868624 -0.373531 -1.616383
v -1.794641 -0.142465 -1.799019
v -0.073983 -0.142465 -1.799019
v -0.073983 -0.420435 -1.754992
v -1.794641 -0.420435 -1.754992
v -1.868624 0.144241 -0.910700
v -1.868624 0.373531 -1.616383
v -1.868624 0.144241 -1.652699
v -1.794641 0.420435 -1.754992
v -0.073983 0.420435 -1.754992
v -0.073983 0.142465 -1.799019
v -1.794641 0.142465 -1.799019
v -1.868623 0.418603 -0.821554
v -1.868624 0.854739 -1.421844
v -1.868624 0.647893 -1.527237
v -1.794641 0.942180 -1.539175
v -0.073983 0.942180 -1.539175
v -0.073983 0.691419 -1.666944
v -1.794641 0.691419 -1.666944
v -1.868624 0.651989 -0.651989
v -1.868624 1.252278 -1.088125
v -1.868624 1.088125 -1.252279
v -1.794641 1.371698 -1.172693
v -0.073983 1.371698 -1.172693
v -0.073983 1.172693 -1.371698
v -1.794641 1.172693 -1.371698
v -1.868623 0.821554 -0.418603
v -1.868624 1.527237 -0.647893
v -1.868624 1.421844 -0.854738
v -1.794641 1.666944 -0.691419
v -0.073983 1.666944 -0.691419
v -0.073983 1.539175 -0.942180
v -1.794641 1.539175 -0.942180
v -1.868624 0.910700 -0.144241
v -1.868624 1.652698 -0.144241
v -1.868624 1.616382 -0.373531
v -1.794641 1.799018 -0.142465
v -0.073983 1.799018 -0.142465
v -0.073983 1.754992 -0.420435
v -1.794641 1.754992 -0.420435
v -1.868624 0.910700 0.144241
v -1.868624 1.616382 0.373531
v -1.868624 1.652698 0.144241
v -1.794641 1.754992 0.420435
v -0.073983 1.754992 0.420435
v -0.073983 1.799018 0.142465
v -1.794641 1.799018 0.142465
v -1.868623 0.821554 0.418603
v -1.868624 1.421844 0.854738
v -1.868624 1.527237 0.647893
v -1.794641 1.539175 0.942180
v -0.073983 1.539175 0.942180
v -0.073983 1.666944 0.691419
v -1.794641 1.666944 0.691419
v -1.868624 0.651989 0.651989
v -1.868624 1.088125 1.252278
v -1.868624 1.252278 1.088125
v -1.794641 1.172693 1.371697
v -0.073983 1.172693 1.371697
v -0.073983 1.371697 1.172693
v -1.794641 1.371698 1.172693
v -1.868623 0.418603 0.821554
v -1.868623 0.647893 1.527237
v -1.868624 0.854738 1.421844
v -1.794641 0.691419 1.666944
v -0.073983 0.691419 1.666944
v -0.073983 0.942180 1.539175
v -1.794641 0.942180 1.539175
v -1.868624 0.144241 0.910700
v -1.868624 0.144241 1.652698
v -1.868624 0.373531 1.616382
v -1.794641 0.142465 1.799018
v -0.073983 0.142465 1.799018
v -0.073983 0.420435 1.754992
v -1.794641 0.420435 1.754992
v -1.868624 -0.144241 0.910700
v -1.868623 -0.373531 1.616382
v -1.868624 -0.144241 1.652698
v -1.794641 -0.420435 1.754992
v -0.073983 -0.420435 1.754992
v -0.073983 -0.142465 1.799018
v -1.794641 -0.142465 1.799018
v -1.868624 -0.418603 0.821554
v -1.868623 -0.854738 1.421843
v -1.868624 -0.647893 1.527236
v -1.794641 -0.942180 1.539175
v -0.073983 -0.942180 1.539175
v -0.073983 -0.691419 1.666944
v -1.794641 -0.691419 1.666944
v -1.868624 -0.651989 0.651989
v -1.868624 -1.252278 1.088125
v -1.868624 -1.088125 1.252278
v -1.794641 -1.371697 1.172693
v -0.073983 -1.371697 1.172693
v -0.073983 -1.172693 1.371697
v -1.794641 -1.172693 1.371697
v -1.868624 -0.821554 0.418603
v -1.868624 -1.527236 0.647893
v -1.868624 -1.421843 0.854738
v -1.794641 -1.666944 0.691419
v -0.073983 -1.666943 0.691419
v -0.073983 -1.539174 0.942180
v -1.794641 -1.539175 0.942180
v -1.868624 -0.910700 0.144241
v -1.868623 -1.652698 0.144241
v -1.868624 -1.616382 0.373531
v -1.794641 -1.799018 0.142465
v -0.073983 -1.799018 0.142465
v -0.073983 -1.754991 0.420435
v -1.794641 -1.754992 0.420435
v 0.000000 -0.910700 -0.144241
v 0.000000 -1.652698 -0.144241
v 0.000000 -1.616383 -0.373531
v 0.000000 -1.421844 -0.854739
v 0.000000 -0.821554 -0.418603
v 0.000000 -1.527237 -0.647893
v 0.000000 -1.088125 -1.252279
v 0.000000 -0.651989 -0.651989
v 0.000000 -1.252279 -1.088125
v 0.000000 -0.647893 -1.527237
v 0.000000 -0.418603 -0.821554
v 0.000000 -0.854739 -1.421844
v 0.000000 -0.144241 -1.652699
v 0.000000 -0.144241 -0.910700
v 0.000000 -0.373531 -1.616383
v 0.000000 0.373531 -1.616383
v 0.000000 0.144241 -0.910700
v 0.000000 0.144241 -1.652699
v 0.000000 0.854739 -1.421844
v 0.000000 0.418603 -0.821554
v 0.000000 0.647893 -1.527237
v 0.000000 1.252279 -1.088125
v 0.000000 0.651989 -0.651989
v 0.000000 1.088125 -1.252279
v 0.000000 1.527237 -0.647893
v 0.000000 0.821554 -0.418603
v 0.000000 1.421844 -0.854738
v 0.000000 1.652698 -0.144241
v 0.000000 0.910700 -0.144241
v 0.000000 1.616382 -0.373531
v 0.000000 1.616382 0.373531
v 0.000000 0.910700 0.144241
v 0.000000 1.652698 0.144241
v 0.000000 1.421844 0.854738
v 0.000000 0.821554 0.418603
v 0.000000 1.527237 0.647893
v 0.000000 1.088125 1.252278
v 0.000000 0.651989 0.651989
v 0.000000 1.252278 1.088125
v 0.000000 0.647893 1.527237
v 0.000000 0.418603 0.821554
v 0.000000 0.854738 1.421844
v 0.000000 0.144241 1.652698
v 0.000000 0.144241 0.910700
v 0.000000 0.373531 1.616382
v 0.000000 -0.373531 1.616382
v 0.000000 -0.144241 0.910700
v 0.000000 -0.144241 1.652698
v 0.000000 -0.854738 1.421843
v 0.000000 -0.418603 0.821554
v 0.000000 -0.647893 1.527236
v 0.000000 -1.252278 1.088125
v 0.000000 -0.651989 0.651989
v 0.000000 -1.088124 1.252278
v 0.000000 -1.527236 0.647893
v 0.000000 -0.821554 0.418603
v 0.000000 -1.421843 0.854738
v 0.000000 -1.652698 0.144241
v 0.000000 -0.910700 0.144241
v 0.000000 -1.616382 0.373531
v -1.868624 -1.582607 -0.514220
v -1.868623 -0.766459 -0.249038
v -1.847177 -1.625504 -0.678890
v -1.847177 -1.504680 -0.916019
v -1.794641 -1.721632 -0.559392
v -0.073983 -1.721632 -0.559392
v -1.847177 -1.714101 -0.406214
v -1.847177 -1.755733 -0.143354
v -1.868624 -1.346246 -0.978105
v -1.868624 -0.651989 -0.473698
v -1.847177 -1.336157 -1.147971
v -1.847177 -1.147971 -1.336157
v -1.794641 -1.464508 -1.064027
v -0.073983 -1.464508 -1.064027
v -1.868623 -0.978105 -1.346246
v -1.868624 -0.473698 -0.651989
v -1.847177 -0.916019 -1.504680
v -1.847176 -0.678890 -1.625503
v -1.794641 -1.064027 -1.464508
v -0.073983 -1.064027 -1.464508
v -1.868624 -0.514220 -1.582606
v -1.868624 -0.249038 -0.766459
v -1.847177 -0.406214 -1.714101
v -1.847177 -0.143354 -1.755734
v -1.794641 -0.559392 -1.721632
v -0.073983 -0.559392 -1.721632
v -1.868624 0.000000 -1.664051
v -1.868624 0.000000 -0.805903
v -1.847177 0.143354 -1.755734
v -1.847177 0.406214 -1.714101
v -1.794641 0.000000 -1.810231
v -0.073983 0.000000 -1.810231
v -1.868623 0.514220 -1.582606
v -1.868623 0.249038 -0.766459
v -1.847177 0.678890 -1.625503
v -1.847177 0.916018 -1.504680
v -1.794641 0.559392 -1.721632
v -0.073983 0.559392 -1.721632
v -1.868624 0.978104 -1.346245
v -1.868624 0.473698 -0.651989
v -1.847177 1.147970 -1.336157
v -1.847177 1.336157 -1.147970
v -1.794641 1.064027 -1.464507
v -0.073983 1.064027 -1.464507
v -1.868624 1.346245 -0.978104
v -1.868624 0.651989 -0.473698
v -1.847177 1.504680 -0.916018
v -1.847177 1.625503 -0.678890
v -1.794641 1.464507 -1.064027
v -0.073983 1.464507 -1.064027
v -1.868623 1.582606 -0.514220
v -1.868624 0.766459 -0.249038
v -1.847177 1.714101 -0.406213
v -1.847177 1.755734 -0.143354
v -1.794641 1.721631 -0.559392
v -0.073983 1.721631 -0.559392
v -1.868624 1.664050 0.000000
v -1.868623 0.805903 0.000000
v -1.847177 1.755734 0.143354
v -1.847177 1.714101 0.406213
v -1.794641 1.810230 0.000000
v -0.073983 1.810230 0.000000
v -1.868623 1.582606 0.514220
v -1.868624 0.766459 0.249038
v -1.847177 1.625503 0.678890
v -1.847177 1.504680 0.916018
v -1.794641 1.721631 0.559392
v -0.073983 1.721631 0.559392
v -1.868624 1.346245 0.978104
v -1.868623 0.651989 0.473698
v -1.847177 1.336157 1.147970
v -1.847177 1.147970 1.336156
v -1.794641 1.464507 1.064027
v -0.073983 1.464507 1.064027
v -1.868623 0.978104 1.346245
v -1.868624 0.473698 0.651989
v -1.847177 0.916018 1.504680
v -1.847177 0.678889 1.625503
v -1.794641 1.064027 1.464507
v -0.073983 1.064027 1.464507
v -1.868623 0.514220 1.582606
v -1.868623 0.249038 0.766459
v -1.847177 0.406213 1.714101
v -1.847177 0.143354 1.755733
v -1.794641 0.559392 1.721631
v -0.073983 0.559392 1.721631
v -1.868624 0.000000 1.664050
v -1.868624 0.000000 0.805903
v -1.847177 -0.143354 1.755733
v -1.847177 -0.406213 1.714101
v -1.794641 0.000000 1.810230
v -0.073983 0.000000 1.810230
v -1.868624 -0.514220 1.582606
v -1.868624 -0.249038 0.766459
v -1.847177 -0.678889 1.625503
v -1.847177 -0.916018 1.504680
v -1.794641 -0.559392 1.721631
v -0.073983 -0.559392 1.721631
v -1.868624 -0.978104 1.346245
v -1.868624 -0.473698 0.651989
v -1.847177 -1.147970 1.336156
v -1.847177 -1.336156 1.147970
v -1.794641 -1.064027 1.464507
v -0.073983 -1.064027 1.464507
v -1.868624 -1.346245 0.978104
v -1.868624 -0.651989 0.473698
v -1.847177 -1.504679 0.916018
v -1.847177 -1.625502 0.678889
v -1.794641 -1.464507 1.064027
v -0.073983 -1.464507 1.064027
v -1.868624 -1.582606 0.514220
v -1.868624 -0.766459 0.249038
v -1.847177 -1.714100 0.406213
v -1.847177 -1.755733 0.143354
v -1.794641 -1.721631 0.559392
v -0.073983 -1.721631 0.559392
v -1.868624 -1.664050 0.000000
v -1.868624 -0.805903 0.000000
v -1.794641 -1.810230 -0.000000
v -0.073983 -1.810230 -0.000000
v 0.000000 -1.582606 -0.514220
v 0.000000 -0.766459 -0.249038
v -0.021447 -1.714101 -0.406214
v -0.021447 -1.755734 -0.143354
v -0.021447 -1.625503 -0.678890
v -0.021447 -1.504680 -0.916019
v 0.000000 -1.346246 -0.978105
v 0.000000 -0.651989 -0.473698
v -0.021447 -1.336157 -1.147971
v -0.021447 -1.147971 -1.336157
v 0.000000 -0.978105 -1.346246
v 0.000000 -0.473698 -0.651989
v -0.021447 -0.916019 -1.504680
v -0.021447 -0.678890 -1.625503
v 0.000000 -0.514220 -1.582606
v 0.000000 -0.249038 -0.766459
v -0.021447 -0.406214 -1.714101
v -0.021447 -0.143354 -1.755734
v 0.000000 0.000000 -1.664051
v 0.000000 0.000000 -0.805903
v -0.021447 0.143354 -1.755734
v -0.021447 0.406214 -1.714101
v 0.000000 0.514220 -1.582606
v 0.000000 0.249038 -0.766459
v -0.021447 0.678890 -1.625503
v -0.021447 0.916018 -1.504680
v 0.000000 0.978104 -1.346245
v 0.000000 0.473698 -0.651989
v -0.021447 1.147970 -1.336157
v -0.021447 1.336157 -1.147970
v 0.000000 1.346245 -0.978104
v 0.000000 0.651989 -0.473698
v -0.021447 1.504680 -0.916018
v -0.021447 1.625503 -0.678890
v 0.000000 1.582606 -0.514220
v 0.000000 0.766459 -0.249038
v -0.021447 1.714101 -0.406213
v -0.021447 1.755733 -0.143354
v 0.000000 1.664050 0.000000
v 0.000000 0.805903 0.000000
v -0.021447 1.755733 0.143354
v -0.021447 1.714101 0.406213
v 0.000000 1.582606 0.514220
v 0.000000 0.766459 0.249038
v -0.021447 1.625503 0.678890
v -0.021447 1.504680 0.916018
v 0.000000 1.346245 0.978104
v 0.000000 0.651989 0.473698
v -0.021447 1.336156 1.147970
v -0.021447 1.147970 1.336156
v 0.000000 0.978104 1.346245
v 0.000000 0.473698 0.651989
v -0.021447 0.916018 1.504680
v -0.021447 0.678890 1.625503
v 0.000000 0.514220 1.582606
v 0.000000 0.249038 0.766459
v -0.021447 0.406213 1.714101
v -0.021447 0.143354 1.755733
v 0.000000 0.000000 1.664050
v 0.000000 0.000000 0.805903
v -0.021447 -0.143354 1.755733
v -0.021447 -0.406213 1.714101
v 0.000000 -0.514220 1.582606
v 0.000000 -0.249038 0.766459
v -0.021447 -0.678889 1.625503
v -0.021447 -0.916018 1.504680
v 0.000000 -0.978104 1.346245
v 0.000000 -0.473698 0.651989
v -0.021447 -1.147970 1.336156
v -0.021447 -1.336156 1.147970
v 0.000000 -1.346244 0.978104
v 0.000000 -0.651989 0.473698
v -0.021447 -1.504679 0.916018
v -0.021447 -1.625502 0.678889
v 0.000000 -1.582605 0.514220
v 0.000000 -0.766459 0.249038
v -0.021447 -1.714101 0.406213
v -0.021447 -1.755733 0.143354
v 0.000000 -1.664050 0.000000
v 0.000000 -0.805903 0.000000
v -1.847169 -1.680532 -0.546038
v -1.847169 -1.429546 -1.038625
v -1.847169 -1.038626 -1.429545
v -1.847168 -0.546038 -1.680532
v -1.847169 0.000000 -1.767015
v -1.847169 0.546038 -1.680531
v -1.847168 1.038625 -1.429545
v -1.847169 1.429545 -1.038625
v -1.847169 1.680531 -0.546038
v -1.847169 1.767015 0.000000
v -1.847169 1.680531 0.546038
v -1.847169 1.429545 1.038625
v -1.847169 1.038625 1.429545
v -1.847168 0.546038 1.680531
v -1.847169 0.000000 1.767015
v -1.847169 -0.546037 1.680531
v -1.847169 -1.038625 1.429545
v -1.847169 -1.429545 1.038625
v -1.847169 -1.680531 0.546037
v -1.847169 -1.767015 0.000000
v -0.021455 -1.680531 -0.546038
v -0.021455 -1.429546 -1.038625
v -0.021455 -1.038625 -1.429545
v -0.021455 -0.546038 -1.680532
v -0.021455 0.000000 -1.767015
v -0.021455 0.546038 -1.680531
v -0.021455 1.038625 -1.429545
v -0.021455 1.429545 -1.038625
v -0.021455 1.680531 -0.546038
v -0.021455 1.767015 0.000000
v -0.021455 1.680531 0.546038
v -0.021455 1.429545 1.038625
v -0.021455 1.038625 1.429545
v -0.021455 0.546038 1.680531
v -0.021455 0.000000 1.767015
v -0.021455 -0.546037 1.680531
v -0.021455 -1.038625 1.429545
v -0.021455 -1.429545 1.038625
v -0.021455 -1.680531 0.546037
v -0.021455 -1.767014 0.000000
v -1.868624 0.000000 0.000000
v 0.000000 0.000000 0.000000
vt 0.375000 0.000000
vt 0.625000 0.000000
vt 0.625000 0.250000
vt 0.375000 0.250000
vt 0.625000 0.500000
vt 0.375000 0.500000
vt 0.625000 0.750000
vt 0.375000 0.750000
vt 0.625000 1.000000
vt 0.375000 1.000000
vt 0.875000 0.000000
vt 0.875000 0.250000
vt 0.125000 0.000000
vt 0.125000 0.250000
vt 0.375000 0.000000
vt 0.625000 0.000000
vt 0.625000 0.250000
vt 0.375000 0.250000
vt 0.625000 0.500000
vt 0.375000 0.500000
vt 0.625000 0.750000
vt 0.375000 0.750000
vt 0.625000 1.000000
vt 0.375000 1.000000
vt 0.875000 0.000000
vt 0.875000 0.250000
vt 0.125000 0.000000
vt 0.125000 0.250000
vt 0.375000 0.000000
vt 0.625000 0.000000
vt 0.625000 0.250000
vt 0.375000 0.250000
vt 0.625000 0.500000
vt 0.375000 0.500000
vt 0.625000 0.750000
vt 0.375000 0.750000
vt 0.625000 1.000000
vt 0.375000 1.000000
vt 0.875000 0.000000
vt 0.875000 0.250000
vt 0.125000 0.000000
vt 0.125000 0.250000
vt 0.375000 0.000000
vt 0.625000 0.000000
vt 0.625000 0.250000
vt 0.375000 0.250000
vt 0.625000 0.500000
vt 0.375000 0.500000
vt 0.625000 0.750000
vt 0.375000 0.750000
vt 0.625000 1.000000
vt 0.375000 1.000000
vt 0.875000 0.000000
vt 0.875000 0.250000
vt 0.125000 0.000000
vt 0.125000 0.250000
vt 0.375000 0.000000
vt 0.625000 0.000000
vt 0.625000 0.250000
vt 0.375000 0.250000
vt 0.625000 0.500000
vt 0.375000 0.500000
vt 0.625000 0.750000
vt 0.375000 0.750000
vt 0.625000 1.000000
vt 0.375000 1.000000
vt 0.875000 0.000000
vt 0.875000 0.250000
vt 0.125000 0.000000
vt 0.125000 0.250000
vt 0.375000 0.000000
vt 0.625000 0.000000
vt 0.625000 0.250000
vt 0.375000 0.250000
vt 0.625000 0.500000
vt 0.375000 0.500000
vt 0.625000 0.750000
vt 0.375000 0.750000
vt 0.625000 1.000000
vt 0.375000 1.000000
vt 0.875000 0.000000
vt 0.875000 0.250000
vt 0.125000 0.000000
vt 0.125000 0.250000
vt 0.375000 0.000000
vt 0.625000 0.000000
vt 0.625000 0.250000
vt 0.375000 0.250000
vt 0.625000 0.500000
vt 0.375000 0.500000
vt 0.625000 0.750000
vt 0.375000 0.750000
vt 0.625000 1.000000
vt 0.375000 1.000000
vt 0.875000 0.000000
vt 0.875000 0.250000
vt 0.125000 0.000000
vt 0.125000 0.250000
vt 0.375000 0.000000
vt 0.625000 0.000000
vt 0.625000 0.250000
vt 0.375000 0.250000
vt 0.625000 0.500000
vt 0.375000 0.500000
vt 0.625000 0.750000
vt 0.375000 0.750000
vt 0.625000 1.000000
vt 0.375000 1.000000
vt 0.875000 0.000000
vt 0.875000 0.250000
vt 0.125000 0.000000
vt 0.125000 0.250000
vt 0.570471 0.117297
vt 0.621962 0.082432
vt 0.631002 0.100174
vt 0.384336 0.327384
vt 0.384336 0.673556
vt 0.378164 0.673556
vt 0.378164 0.327384
vt 0.621836 0.673556
vt 0.615663 0.673556
vt 0.615663 0.327384
vt 0.621836 0.327384
vt 0.641764 0.143376
vt 0.578117 0.140831
vt 0.638649 0.123709
vt 0.555926 0.097277
vt 0.593336 0.048332
vt 0.607417 0.062413
vt 0.396836 0.327384
vt 0.396836 0.673556
vt 0.390664 0.673556
vt 0.390664 0.327384
vt 0.535907 0.082733
vt 0.555574 0.024747
vt 0.573317 0.033787
vt 0.409336 0.327384
vt 0.409336 0.673556
vt 0.403164 0.673556
vt 0.403164 0.327384
vt 0.512373 0.075086
vt 0.512373 0.013985
vt 0.532040 0.017100
vt 0.421836 0.327384
vt 0.421836 0.673556
vt 0.415664 0.673556
vt 0.415664 0.327384
vt 0.487627 0.075086
vt 0.467960 0.017100
vt 0.487627 0.013985
vt 0.434336 0.327384
vt 0.434336 0.673556
vt 0.428164 0.673556
vt 0.428164 0.327384
vt 0.464093 0.082733
vt 0.426683 0.033787
vt 0.444426 0.024747
vt 0.446836 0.327384
vt 0.446836 0.673556
vt 0.440664 0.673556
vt 0.440664 0.327384
vt 0.444074 0.097277
vt 0.392583 0.062413
vt 0.406664 0.048332
vt 0.459336 0.327384
vt 0.459336 0.673556
vt 0.453164 0.673556
vt 0.453164 0.327384
vt 0.429530 0.117297
vt 0.368998 0.100175
vt 0.378038 0.082432
vt 0.471836 0.327384
vt 0.471836 0.673556
vt 0.465664 0.673556
vt 0.465664 0.327384
vt 0.421883 0.140831
vt 0.358236 0.143376
vt 0.361352 0.123709
vt 0.484336 0.327384
vt 0.484336 0.673556
vt 0.478164 0.673556
vt 0.478164 0.327384
vt 0.421883 0.165576
vt 0.361352 0.187789
vt 0.358236 0.168121
vt 0.496836 0.327384
vt 0.496836 0.673556
vt 0.490664 0.673556
vt 0.490664 0.327384
vt 0.429529 0.189110
vt 0.378038 0.229066
vt 0.368998 0.211323
vt 0.509336 0.327384
vt 0.509336 0.673556
vt 0.503164 0.673556
vt 0.503164 0.327384
vt 0.444074 0.209129
vt 0.406664 0.263166
vt 0.392583 0.249085
vt 0.521836 0.327384
vt 0.521836 0.673556
vt 0.515664 0.673556
vt 0.515664 0.327384
vt 0.464093 0.223674
vt 0.444426 0.286751
vt 0.426683 0.277710
vt 0.534336 0.327384
vt 0.534336 0.673556
vt 0.528163 0.673556
vt 0.528163 0.327384
vt 0.487627 0.231320
vt 0.487627 0.297513
vt 0.467960 0.294397
vt 0.546836 0.327384
vt 0.546836 0.673556
vt 0.540663 0.673556
vt 0.540663 0.327384
vt 0.512373 0.231320
vt 0.532040 0.294398
vt 0.512373 0.297513
vt 0.559336 0.327384
vt 0.559336 0.673556
vt 0.553163 0.673556
vt 0.553163 0.327384
vt 0.535906 0.223674
vt 0.573317 0.277710
vt 0.555574 0.286751
vt 0.571836 0.327384
vt 0.571836 0.673556
vt 0.565663 0.673556
vt 0.565663 0.327384
vt 0.555926 0.209129
vt 0.607417 0.249085
vt 0.593336 0.263166
vt 0.584336 0.327384
vt 0.584336 0.673556
vt 0.578163 0.673556
vt 0.578163 0.327384
vt 0.570471 0.189110
vt 0.631002 0.211323
vt 0.621962 0.229066
vt 0.596836 0.327384
vt 0.596836 0.673556
vt 0.590663 0.673556
vt 0.590663 0.327384
vt 0.578117 0.165576
vt 0.641764 0.168121
vt 0.638649 0.187789
vt 0.609336 0.327384
vt 0.609336 0.673556
vt 0.603163 0.673556
vt 0.603163 0.327384
vt 0.578117 0.853076
vt 0.641764 0.855621
vt 0.638649 0.875289
vt 0.621962 0.916566
vt 0.570470 0.876610
vt 0.631002 0.898823
vt 0.593336 0.950666
vt 0.555926 0.896629
vt 0.607417 0.936585
vt 0.555574 0.974251
vt 0.535907 0.911174
vt 0.573317 0.965211
vt 0.512373 0.985012
vt 0.512373 0.918820
vt 0.532040 0.981897
vt 0.467960 0.981897
vt 0.487627 0.918820
vt 0.487627 0.985013
vt 0.426683 0.965211
vt 0.464094 0.911174
vt 0.444426 0.974251
vt 0.392583 0.936585
vt 0.444074 0.896629
vt 0.406664 0.950666
vt 0.368998 0.898823
vt 0.429530 0.876610
vt 0.378038 0.916566
vt 0.358236 0.855621
vt 0.421883 0.853076
vt 0.361352 0.875289
vt 0.361352 0.811209
vt 0.421883 0.828331
vt 0.358236 0.830876
vt 0.378038 0.769932
vt 0.429529 0.804797
vt 0.368998 0.787675
vt 0.406664 0.735832
vt 0.444074 0.784777
vt 0.392583 0.749913
vt 0.444426 0.712247
vt 0.464093 0.770232
vt 0.426683 0.721287
vt 0.487627 0.701485
vt 0.487627 0.762586
vt 0.467960 0.704600
vt 0.532040 0.704600
vt 0.512373 0.762586
vt 0.512373 0.701485
vt 0.573317 0.721287
vt 0.535907 0.770232
vt 0.555574 0.712247
vt 0.607417 0.749913
vt 0.555926 0.784777
vt 0.593336 0.735832
vt 0.631002 0.787675
vt 0.570471 0.804797
vt 0.621962 0.769932
vt 0.641764 0.830876
vt 0.578117 0.828331
vt 0.638649 0.811209
vt 0.635751 0.111601
vt 0.565745 0.131403
vt 0.378331 0.316815
vt 0.384169 0.316815
vt 0.639431 0.097869
vt 0.629067 0.077529
vt 0.624961 0.327384
vt 0.624961 0.673556
vt 0.375039 0.327384
vt 0.375039 0.673556
vt 0.647031 0.121258
vt 0.650602 0.143805
vt 0.621668 0.316815
vt 0.615831 0.316815
vt 0.615477 0.071811
vt 0.555926 0.112133
vt 0.390831 0.316815
vt 0.396669 0.316815
vt 0.614612 0.057632
vt 0.598470 0.041490
vt 0.387461 0.327384
vt 0.387461 0.673556
vt 0.387539 0.327384
vt 0.387539 0.673556
vt 0.583899 0.040233
vt 0.540632 0.096839
vt 0.403331 0.316815
vt 0.409168 0.316815
vt 0.578573 0.027035
vt 0.558233 0.016671
vt 0.399961 0.327384
vt 0.399961 0.673556
vt 0.400039 0.327384
vt 0.400039 0.673556
vt 0.544108 0.019958
vt 0.521362 0.087020
vt 0.415831 0.316815
vt 0.421669 0.316815
vt 0.534844 0.009071
vt 0.512296 0.005500
vt 0.412461 0.327384
vt 0.412461 0.673556
vt 0.412539 0.327384
vt 0.412539 0.673556
vt 0.500000 0.012972
vt 0.500000 0.083637
vt 0.428331 0.316815
vt 0.434169 0.316815
vt 0.487704 0.005500
vt 0.465156 0.009071
vt 0.424961 0.327384
vt 0.424961 0.673556
vt 0.425039 0.327384
vt 0.425039 0.673556
vt 0.455892 0.019958
vt 0.478638 0.087020
vt 0.440831 0.316815
vt 0.446668 0.316815
vt 0.441767 0.016671
vt 0.421427 0.027035
vt 0.437461 0.327384
vt 0.437461 0.673556
vt 0.437539 0.327384
vt 0.437539 0.673556
vt 0.416101 0.040233
vt 0.459368 0.096839
vt 0.453331 0.316815
vt 0.459169 0.316815
vt 0.401531 0.041490
vt 0.385388 0.057633
vt 0.449961 0.327384
vt 0.449961 0.673556
vt 0.450039 0.327384
vt 0.450039 0.673556
vt 0.384523 0.071811
vt 0.444074 0.112133
vt 0.465831 0.316815
vt 0.471668 0.316815
vt 0.370933 0.077529
vt 0.360569 0.097869
vt 0.462461 0.327384
vt 0.462461 0.673556
vt 0.462539 0.327384
vt 0.462539 0.673556
vt 0.364249 0.111601
vt 0.434255 0.131403
vt 0.478331 0.316815
vt 0.484169 0.316815
vt 0.352970 0.121258
vt 0.349398 0.143805
vt 0.474961 0.327384
vt 0.474961 0.673556
vt 0.475039 0.327384
vt 0.475039 0.673556
vt 0.357263 0.155709
vt 0.430872 0.152765
vt 0.490831 0.316815
vt 0.496668 0.316815
vt 0.349398 0.168398
vt 0.352970 0.190946
vt 0.487461 0.327384
vt 0.487461 0.673556
vt 0.487539 0.327384
vt 0.487539 0.673556
vt 0.364249 0.199818
vt 0.434255 0.174127
vt 0.503331 0.316815
vt 0.509168 0.316815
vt 0.360569 0.214335
vt 0.370933 0.234675
vt 0.499961 0.327384
vt 0.499961 0.673556
vt 0.500039 0.327384
vt 0.500039 0.673556
vt 0.384523 0.239608
vt 0.444074 0.193398
vt 0.515831 0.316815
vt 0.521668 0.316815
vt 0.385388 0.254572
vt 0.401530 0.270714
vt 0.512461 0.327384
vt 0.512461 0.673556
vt 0.512539 0.327384
vt 0.512539 0.673556
vt 0.416101 0.271186
vt 0.459368 0.208691
vt 0.528331 0.316815
vt 0.534168 0.316815
vt 0.421427 0.285169
vt 0.441767 0.295533
vt 0.524961 0.327384
vt 0.524961 0.673556
vt 0.525039 0.327384
vt 0.525039 0.673556
vt 0.455892 0.291461
vt 0.478638 0.218510
vt 0.540831 0.316815
vt 0.546668 0.316815
vt 0.465156 0.303133
vt 0.487704 0.306704
vt 0.537461 0.327384
vt 0.537461 0.673556
vt 0.537539 0.327384
vt 0.537539 0.673556
vt 0.500000 0.298447
vt 0.500000 0.221893
vt 0.553331 0.316815
vt 0.559168 0.316815
vt 0.512296 0.306704
vt 0.534844 0.303133
vt 0.549961 0.327384
vt 0.549961 0.673556
vt 0.550039 0.327384
vt 0.550039 0.673556
vt 0.544108 0.291461
vt 0.521362 0.218510
vt 0.565831 0.316815
vt 0.571668 0.316815
vt 0.558233 0.295533
vt 0.578573 0.285169
vt 0.562461 0.327384
vt 0.562461 0.673556
vt 0.562539 0.327384
vt 0.562539 0.673556
vt 0.583899 0.271187
vt 0.540632 0.208691
vt 0.578331 0.316815
vt 0.584168 0.316815
vt 0.598470 0.270714
vt 0.614612 0.254572
vt 0.574961 0.327384
vt 0.574961 0.673556
vt 0.575039 0.327384
vt 0.575039 0.673556
vt 0.615477 0.239608
vt 0.555926 0.193398
vt 0.590831 0.316815
vt 0.596668 0.316815
vt 0.629067 0.234675
vt 0.639431 0.214335
vt 0.587461 0.327384
vt 0.587461 0.673556
vt 0.587539 0.327384
vt 0.587539 0.673556
vt 0.635751 0.199818
vt 0.565745 0.174127
vt 0.603331 0.316815
vt 0.609168 0.316815
vt 0.647031 0.190946
vt 0.650602 0.168398
vt 0.599961 0.327384
vt 0.599961 0.673556
vt 0.600039 0.327384
vt 0.600039 0.673556
vt 0.642737 0.155709
vt 0.569128 0.152765
vt 0.612461 0.327384
vt 0.612461 0.673556
vt 0.612539 0.327384
vt 0.612539 0.673556
vt 0.635751 0.887318
vt 0.565745 0.861627
vt 0.621668 0.684125
vt 0.615831 0.684125
vt 0.647031 0.878446
vt 0.650602 0.855898
vt 0.639431 0.901835
vt 0.629067 0.922175
vt 0.378331 0.684125
vt 0.384169 0.684125
vt 0.615477 0.927108
vt 0.555926 0.880897
vt 0.614612 0.942071
vt 0.598469 0.958214
vt 0.390831 0.684125
vt 0.396669 0.684125
vt 0.583899 0.958686
vt 0.540632 0.896191
vt 0.578573 0.972669
vt 0.558233 0.983033
vt 0.403331 0.684125
vt 0.409169 0.684125
vt 0.544108 0.978961
vt 0.521362 0.906010
vt 0.534844 0.990633
vt 0.512296 0.994204
vt 0.415831 0.684125
vt 0.421669 0.684125
vt 0.500000 0.985947
vt 0.500000 0.909393
vt 0.487704 0.994204
vt 0.465156 0.990633
vt 0.428331 0.684125
vt 0.434169 0.684125
vt 0.455892 0.978961
vt 0.478638 0.906010
vt 0.441767 0.983033
vt 0.421427 0.972669
vt 0.440831 0.684125
vt 0.446669 0.684125
vt 0.416101 0.958686
vt 0.459368 0.896191
vt 0.401531 0.958214
vt 0.385388 0.942071
vt 0.453331 0.684125
vt 0.459168 0.684125
vt 0.384523 0.927108
vt 0.444074 0.880898
vt 0.370933 0.922175
vt 0.360569 0.901835
vt 0.465831 0.684125
vt 0.471669 0.684125
vt 0.364249 0.887318
vt 0.434255 0.861627
vt 0.352970 0.878446
vt 0.349398 0.855898
vt 0.478331 0.684125
vt 0.484168 0.684125
vt 0.357263 0.843210
vt 0.430872 0.840265
vt 0.349398 0.831305
vt 0.352970 0.808758
vt 0.490831 0.684125
vt 0.496668 0.684125
vt 0.364249 0.799101
vt 0.434255 0.818903
vt 0.360569 0.785369
vt 0.370933 0.765029
vt 0.503331 0.684125
vt 0.509168 0.684125
vt 0.384523 0.759311
vt 0.444074 0.799633
vt 0.385388 0.745132
vt 0.401530 0.728990
vt 0.515831 0.684125
vt 0.521668 0.684125
vt 0.416101 0.727733
vt 0.459368 0.784339
vt 0.421427 0.714535
vt 0.441767 0.704171
vt 0.528331 0.684125
vt 0.534168 0.684125
vt 0.455892 0.707458
vt 0.478638 0.774520
vt 0.465156 0.696571
vt 0.487703 0.693000
vt 0.540831 0.684125
vt 0.546668 0.684125
vt 0.500000 0.700472
vt 0.500000 0.771137
vt 0.512297 0.693000
vt 0.534844 0.696571
vt 0.553331 0.684125
vt 0.559168 0.684125
vt 0.544108 0.707458
vt 0.521362 0.774520
vt 0.558233 0.704171
vt 0.578573 0.714535
vt 0.565831 0.684125
vt 0.571668 0.684125
vt 0.583899 0.727732
vt 0.540632 0.784339
vt 0.598470 0.728990
vt 0.614612 0.745132
vt 0.578331 0.684125
vt 0.584168 0.684125
vt 0.615477 0.759310
vt 0.555926 0.799633
vt 0.629067 0.765029
vt 0.639431 0.785369
vt 0.590831 0.684125
vt 0.596668 0.684125
vt 0.635751 0.799101
vt 0.565745 0.818903
vt 0.647031 0.808758
vt 0.650602 0.831305
vt 0.603331 0.684125
vt 0.609168 0.684125
vt 0.642737 0.843210
vt 0.569128 0.840265
vt 0.644151 0.109225
vt 0.375187 0.316817
vt 0.624813 0.316817
vt 0.622622 0.066973
vt 0.387687 0.316817
vt 0.387313 0.316817
vt 0.589090 0.033441
vt 0.400187 0.316817
vt 0.399813 0.316817
vt 0.546838 0.011912
vt 0.412687 0.316817
vt 0.412313 0.316817
vt 0.500000 0.004493
vt 0.425187 0.316817
vt 0.424813 0.316817
vt 0.453162 0.011912
vt 0.437687 0.316817
vt 0.437313 0.316817
vt 0.410910 0.033441
vt 0.450187 0.316817
vt 0.449813 0.316817
vt 0.377378 0.066973
vt 0.462687 0.316817
vt 0.462313 0.316817
vt 0.355849 0.109225
vt 0.475187 0.316817
vt 0.474813 0.316817
vt 0.348431 0.156063
vt 0.487687 0.316817
vt 0.487313 0.316817
vt 0.355849 0.202900
vt 0.500187 0.316817
vt 0.499813 0.316817
vt 0.377378 0.245153
vt 0.512687 0.316817
vt 0.512313 0.316817
vt 0.410910 0.278685
vt 0.525187 0.316817
vt 0.524813 0.316817
vt 0.453162 0.300214
vt 0.537687 0.316817
vt 0.537313 0.316817
vt 0.500000 0.307632
vt 0.550187 0.316817
vt 0.549813 0.316817
vt 0.546837 0.300214
vt 0.562687 0.316817
vt 0.562313 0.316817
vt 0.589090 0.278685
vt 0.575187 0.316817
vt 0.574813 0.316817
vt 0.622622 0.245153
vt 0.587687 0.316817
vt 0.587313 0.316817
vt 0.644151 0.202900
vt 0.600187 0.316817
vt 0.599813 0.316817
vt 0.651569 0.156063
vt 0.612687 0.316817
vt 0.612313 0.316817
vt 0.644151 0.890400
vt 0.624813 0.684123
vt 0.375187 0.684123
vt 0.622622 0.932653
vt 0.387313 0.684123
vt 0.387687 0.684123
vt 0.589090 0.966185
vt 0.399813 0.684123
vt 0.400187 0.684123
vt 0.546838 0.987714
vt 0.412313 0.684123
vt 0.412687 0.684123
vt 0.500000 0.995132
vt 0.424813 0.684123
vt 0.425187 0.684123
vt 0.453162 0.987714
vt 0.437313 0.684123
vt 0.437687 0.684123
vt 0.410910 0.966185
vt 0.449813 0.684123
vt 0.450187 0.684123
vt 0.377378 0.932653
vt 0.462313 0.684123
vt 0.462687 0.684123
vt 0.355849 0.890400
vt 0.474813 0.684123
vt 0.475187 0.684123
vt 0.348431 0.843563
vt 0.487313 0.684123
vt 0.487687 0.684123
vt 0.355849 0.796725
vt 0.499813 0.684123
vt 0.500187 0.684123
vt 0.377378 0.754473
vt 0.512313 0.684123
vt 0.512687 0.684123
vt 0.410910 0.720941
vt 0.524813 0.684123
vt 0.525187 0.684123
vt 0.453162 0.699412
vt 0.537313 0.684123
vt 0.537687 0.684123
vt 0.500000 0.691993
vt 0.549813 0.684123
vt 0.550187 0.684123
vt 0.546838 0.699412
vt 0.562313 0.684123
vt 0.562687 0.684123
vt 0.589090 0.720940
vt 0.574813 0.684123
vt 0.575187 0.684123
vt 0.622622 0.754472
vt 0.587313 0.684123
vt 0.587687 0.684123
vt 0.644151 0.796725
vt 0.599813 0.684123
vt 0.600187 0.684123
vt 0.651569 0.843563
vt 0.612312 0.684123
vt 0.612687 0.684123
vt 0.500000 0.150000
vt 0.500000 0.837500
vn 0.000000 0.000000 1.000000
vn 0.000000 0.000000 1.000000
vn 0.000000 0.000000 1.000000
vn 0.000000 0.000000 1.000000
vn 0.000000 1.000000 0.000000
vn 0.000000 1.000000 0.000000
vn 0.000000 1.000000 0.000000
vn 0.000000 1.000000 0.000000
vn 0.000000 0.000000 -1.000000
vn 0.000000 0.000000 -1.000000
vn 0.000000 0.000000 -1.000000
vn 0.000000 0.000000 -1.000000
vn 0.000000 -1.000000 0.000000
vn 0.000000 -1.000000 0.000000
vn 0.000000 -1.000000 0.000000
vn 0.000000 -1.000000 0.000000
vn 1.000000 0.000000 0.000000
vn 1.000000 0.000000 0.000000
vn 1.000000 0.000000 0.000000
vn 1.000000 0.000000 0.000000
vn -1.000000 0.000000 0.000000
vn -1.000000 0.000000 0.000000
vn -1.000000 0.000000 0.000000
vn -1.000000 0.000000 0.000000
vn 0.000000 1.000000 0.000000
vn 0.000000 1.000000 0.000000
vn 0.000000 1.000000 0.000000
vn 0.000000 1.000000 0.000000
vn 0.000000 0.000000 -1.000000
vn 0.000000 0.000000 -1.000000
vn 0.000000 0.000000 -1.000000
vn 0.000000 0.000000 -1.000000
vn 0.000000 -1.000000 0.000000
vn 0.000000 -1.000000 0.000000
vn 0.000000 -1.000000 0.000000
vn 0.000000 -1.000000 0.000000
vn 0.000000 0.000000 1.000000
vn 0.000000 0.000000 1.000000
vn 0.000000 0.000000 1.000000
vn 0.000000 0.000000 1.000000
vn 1.000000 0.000000 0.000000
vn 1.000000 0.000000 0.000000
vn 1.000000 0.000000 0.000000
vn 1.000000 0.000000 0.000000
vn -1.000000 0.000000 0.000000
vn -1.000000 0.000000 0.000000
vn -1.000000 0.000000 0.000000
vn -1.000000 0.000000 0.000000
vn 0.000000 0.000000 -1.000000
vn 0.000000 0.000000 -1.000000
vn 0.000000 0.000000 -1.000000
vn 0.000000 0.000000 -1.000000
vn 0.000000 -1.000000 0.000000
vn 0.000000 -1.000000 0.000000
vn 0.000000 -1.000000 0.000000
vn 0.000000 -1.000000 0.000000
vn 0.000000 0.000000 1.000000
vn 0.000000 0.000000 1.000000
vn 0.000000 0.000000 1.000000
vn 0.000000 0.000000 1.000000
vn 0.000000 1.000000 0.000000
vn 0.000000 1.000000 0.000000
vn 0.000000 1.000000 0.000000
vn 0.000000 1.000000 0.000000
vn 1.000000 0.000000 0.000000
vn 1.000000 0.000000 0.000000
vn 1.000000 0.000000 0.000000
vn 1.000000 0.000000 0.000000
vn -1.000000 0.000000 0.000000
vn -1.000000 0.000000 0.000000
vn -1.000000 0.000000 0.000000
vn -1.000000 0.000000 0.000000
vn 0.000000 -1.000000 0.000000
vn 0.000000 -1.000000 0.000000
vn 0.000000 -1.000000 0.000000
vn 0.000000 -1.000000 0.000000
vn 0.000000 0.000000 1.000000
vn 0.000000 0.000000 1.000000
vn 0.000000 0.000000 1.000000
vn 0.000000 0.000000 1.000000
vn 0.000000 1.000000 0.000000
vn 0.000000 1.000000 0.000000
vn 0.000000 1.000000 0.000000
vn 0.000000 1.000000 0.000000
vn 0.000000 0.000000 -1.000000
vn 0.000000 0.000000 -1.000000
vn 0.000000 0.000000 -1.000000
vn 0.000000 0.000000 -1.000000
vn 1.000000 0.000000 0.000000
vn 1.000000 0.000000 0.000000
vn 1.000000 0.000000 0.000000
vn 1.000000 0.000000 0.000000
vn -1.000000 0.000000 0.000000
vn -1.000000 0.000000 0.000000
vn -1.000000 0.000000 0.000000
vn -1.000000 0.000000 0.000000
vn 0.000000 0.707107 0.707107
vn 0.000000 0.707107 0.707107
vn 0.000000 0.707107 0.707107
vn 0.000000 0.707107 0.707107
vn 0.000000 0.707107 -0.707107
vn 0.000000 0.707107 -0.707107
vn 0.000000 0.707107 -0.707107
vn 0.000000 0.707107 -0.707107
vn 0.000000 -0.707107 -0.707107
vn 0.000000 -0.707107 -0.707107
vn 0.000000 -0.707107 -0.707107
vn 0.000000 -0.707107 -0.707107
vn 0.000000 -0.707107 0.707107
vn 0.000000 -0.707107 0.707107
vn 0.000000 -0.707107 0.707107
vn 0.000000 -0.707107 0.707107
vn 1.000000 0.000000 0.000000
vn 1.000000 0.000000 0.000000
vn 1.000000 0.000000 0.000000
vn 1.000000 0.000000 0.000000
vn -1.000000 0.000000 0.000000
vn -1.000000 0.000000 0.000000
vn -1.000000 0.000000 0.000000
vn -1.000000 0.000000 0.000000
vn 0.000000 0.707107 -0.707107
vn 0.000000 0.707107 -0.707107
vn 0.000000 0.707107 -0.707107
vn 0.000000 0.707107 -0.707107
vn 0.000000 -0.707107 -0.707107
vn 0.000000 -0.707107 -0.707107
vn 0.000000 -0.707107 -0.707107
vn 0.000000 -0.707107 -0.707107
vn 0.000000 -0.707107 0.707107
vn 0.000000 -0.707107 0.707107
vn 0.000000 -0.707107 0.707107
vn 0.000000 -0.707107 0.707107
vn 0.000000 0.707107 0.707107
vn 0.000000 0.707107 0.707107
vn 0.000000 0.707107 0.707107
vn 0.000000 0.707107 0.707107
vn 1.000000 0.000000 0.000000
vn 1.000000 0.000000 0.000000
vn 1.000000 0.000000 0.000000
vn 1.000000 0.000000 0.000000
vn -1.000000 0.000000 0.000000
vn -1.000000 0.000000 0.000000
vn -1.000000 0.000000 0.000000
vn -1.000000 0.000000 0.000000
vn 0.000000 -0.707107 -0.707107
vn 0.000000 -0.707107 -0.707107
vn 0.000000 -0.707107 -0.707107
vn 0.000000 -0.707107 -0.707107
vn 0.000000 -0.707107 0.707107
vn 0.000000 -0.707107 0.707107
vn 0.000000 -0.707107 0.707107
vn 0.000000 -0.707107 0.707107
vn 0.000000 0.707107 0.707107
vn 0.000000 0.707107 0.707107
vn 0.000000 0.707107 0.707107
vn 0.000000 0.707107 0.707107
vn 0.000000 0.707107 -0.707107
vn 0.000000 0.707107 -0.707107
vn 0.000000 0.707107 -0.707107
vn 0.000000 0.707107 -0.707107
vn 1.000000 0.000000 0.000000
vn 1.000000 0.000000 0.000000
vn 1.000000 0.000000 0.000000
vn 1.000000 0.000000 0.000000
vn -1.000000 0.000000 0.000000
vn -1.000000 0.000000 0.000000
vn -1.000000 0.000000 0.000000
vn -1.000000 0.000000 0.000000
vn 0.000000 -0.707107 0.707107
vn 0.000000 -0.707107 0.707107
vn 0.000000 -0.707107 0.707107
vn 0.000000 -0.707107 0.707107
vn 0.000000 0.707107 0.707107
vn 0.000000 0.707107 0.707107
vn 0.000000 0.707107 0.707107
vn 0.000000 0.707107 0.707107
vn 0.000000 0.707107 -0.707107
vn 0.000000 0.707107 -0.707107
vn 0.000000 0.707107 -0.707107
vn 0.000000 0.707107 -0.707107
vn 0.000000 -0.707107 -0.707107
vn 0.000000 -0.707107 -0.707107
vn 0.000000 -0.707107 -0.707107
vn 0.000000 -0.707107 -0.707107
vn 1.000000 0.000000 0.000000
vn 1.000000 0.000000 0.000000
vn 1.000000 0.000000 0.000000
vn 1.000000 0.000000 0.000000
vn -1.000000 0.000000 0.000000
vn -1.000000 0.000000 0.000000
vn -1.000000 0.000000 0.000000
vn -1.000000 0.000000 0.000000
vn -1.000000 0.000001 0.000001
vn -0.999324 -0.032301 -0.017535
vn -0.999324 -0.033174 -0.015826
vn -0.022974 -0.878424 -0.477329
vn 0.022974 -0.878424 -0.477329
vn 0.022974 -0.902492 -0.430093
vn -0.022974 -0.902492 -0.430093
vn 0.022974 -0.982934 -0.182517
vn 0.022974 -0.991227 -0.130156
vn -0.022974 -0.991227 -0.130156
vn -0.022974 -0.982934 -0.182517
vn -0.999324 -0.036441 -0.004802
vn -1.000000 -0.000000 -0.000001
vn -0.999324 -0.036141 -0.006695
vn -1.000000 -0.000001 -0.000000
vn -0.999324 -0.025303 -0.026660
vn -0.999324 -0.026661 -0.025303
vn -0.022974 -0.687928 -0.725415
vn 0.022974 -0.687928 -0.725415
vn 0.022974 -0.725415 -0.687928
vn -0.022974 -0.725415 -0.687928
vn -1.000000 0.000001 0.000000
vn -0.999324 -0.015827 -0.033174
vn -0.999324 -0.017534 -0.032303
vn -0.022974 -0.430093 -0.902492
vn 0.022974 -0.430093 -0.902492
vn 0.022974 -0.477329 -0.878424
vn -0.022974 -0.477329 -0.878424
vn -1.000000 -0.000001 0.000000
vn -0.999324 -0.004801 -0.036441
vn -0.999324 -0.006695 -0.036141
vn -0.022974 -0.130158 -0.991227
vn 0.022974 -0.130158 -0.991227
vn 0.022974 -0.182519 -0.982934
vn -0.022974 -0.182519 -0.982934
vn -1.000000 0.000004 0.000000
vn -0.999324 0.006699 -0.036140
vn -0.999324 0.004801 -0.036441
vn -0.022974 0.182519 -0.982934
vn 0.022974 0.182519 -0.982934
vn 0.022974 0.130158 -0.991227
vn -0.022974 0.130158 -0.991227
vn -1.000000 -0.000003 -0.000001
vn -0.999324 0.017533 -0.032303
vn -0.999324 0.015825 -0.033173
vn -0.022974 0.477330 -0.878424
vn 0.022974 0.477330 -0.878424
vn 0.022974 0.430093 -0.902492
vn -0.022974 0.430093 -0.902492
vn -1.000000 0.000001 0.000000
vn -0.999324 0.026658 -0.025303
vn -0.999324 0.025303 -0.026659
vn -0.022974 0.725415 -0.687928
vn 0.022974 0.725415 -0.687928
vn 0.022974 0.687929 -0.725415
vn -0.022974 0.687929 -0.725415
vn -1.000000 -0.000000 0.000001
vn -0.999324 0.033173 -0.015826
vn -0.999324 0.032304 -0.017534
vn -0.022974 0.902493 -0.430092
vn 0.022974 0.902493 -0.430092
vn 0.022974 0.878425 -0.477328
vn -0.022974 0.878425 -0.477328
vn -1.000000 0.000000 0.000000
vn -0.999324 0.036440 -0.004800
vn -0.999324 0.036141 -0.006696
vn -0.022974 0.991227 -0.130158
vn 0.022974 0.991227 -0.130158
vn 0.022974 0.982934 -0.182519
vn -0.022974 0.982934 -0.182519
vn -1.000000 0.000000 -0.000000
vn -0.999324 0.036140 0.006696
vn -0.999324 0.036440 0.004800
vn -0.022974 0.982934 0.182519
vn 0.022974 0.982934 0.182519
vn 0.022974 0.991227 0.130158
vn -0.022974 0.991227 0.130158
vn -1.000000 0.000002 0.000000
vn -0.999324 0.032304 0.017535
vn -0.999324 0.033173 0.015826
vn -0.022974 0.878425 0.477329
vn 0.022974 0.878425 0.477328
vn 0.022974 0.902493 0.430092
vn -0.022974 0.902493 0.430092
vn -1.000000 -0.000001 -0.000000
vn -0.999324 0.025304 0.026660
vn -0.999324 0.026659 0.025302
vn -0.022974 0.687928 0.725415
vn 0.022974 0.687928 0.725415
vn 0.022974 0.725415 0.687929
vn -0.022974 0.725415 0.687929
vn -1.000000 -0.000002 0.000000
vn -0.999324 0.015825 0.033173
vn -0.999324 0.017533 0.032303
vn -0.022974 0.430092 0.902493
vn 0.022974 0.430092 0.902493
vn 0.022974 0.477329 0.878425
vn -0.022974 0.477329 0.878425
vn -1.000000 0.000003 -0.000000
vn -0.999324 0.004801 0.036440
vn -0.999324 0.006697 0.036140
vn -0.022974 0.130157 0.991227
vn 0.022974 0.130157 0.991227
vn 0.022974 0.182519 0.982934
vn -0.022974 0.182519 0.982934
vn -1.000000 -0.000003 0.000000
vn -0.999324 -0.006697 0.036141
vn -0.999324 -0.004801 0.036440
vn -0.022974 -0.182519 0.982934
vn 0.022974 -0.182519 0.982934
vn 0.022974 -0.130157 0.991227
vn -0.022974 -0.130157 0.991227
vn -1.000000 0.000001 0.000000
vn -0.999324 -0.017535 0.032303
vn -0.999324 -0.015825 0.033173
vn -0.022974 -0.477329 0.878425
vn 0.022974 -0.477329 0.878424
vn 0.022974 -0.430093 0.902493
vn -0.022974 -0.430093 0.902492
vn -1.000000 0.000001 0.000000
vn -0.999324 -0.026659 0.025303
vn -0.999324 -0.025301 0.026659
vn -0.022974 -0.725415 0.687928
vn 0.022974 -0.725415 0.687928
vn 0.022974 -0.687928 0.725415
vn -0.022974 -0.687928 0.725415
vn -1.000000 -0.000001 0.000000
vn -0.999324 -0.033173 0.015827
vn -0.999324 -0.032303 0.017535
vn -0.022974 -0.902492 0.430093
vn 0.022974 -0.902492 0.430093
vn 0.022974 -0.878424 0.477329
vn -0.022974 -0.878424 0.477329
vn -1.000000 -0.000000 0.000000
vn -0.999324 -0.036440 0.004801
vn -0.999324 -0.036140 0.006694
vn -0.022974 -0.991227 0.130158
vn 0.022974 -0.991227 0.130158
vn 0.022974 -0.982934 0.182519
vn -0.022974 -0.982934 0.182519
vn 1.000000 0.000000 0.000000
vn 0.999324 -0.036440 -0.004801
vn 0.999324 -0.036140 -0.006695
vn 0.999324 -0.032303 -0.017535
vn 1.000000 0.000000 0.000000
vn 0.999324 -0.033174 -0.015827
vn 0.999324 -0.025303 -0.026659
vn 1.000000 0.000001 0.000000
vn 0.999324 -0.026658 -0.025303
vn 0.999324 -0.015826 -0.033173
vn 1.000000 0.000000 0.000000
vn 0.999324 -0.017535 -0.032302
vn 0.999324 -0.004801 -0.036441
vn 1.000000 0.000001 0.000000
vn 0.999324 -0.006694 -0.036140
vn 0.999324 0.006695 -0.036140
vn 1.000000 0.000000 0.000000
vn 0.999324 0.004801 -0.036441
vn 0.999324 0.017535 -0.032303
vn 1.000000 0.000001 0.000000
vn 0.999324 0.015827 -0.033173
vn 0.999324 0.026659 -0.025303
vn 1.000000 0.000001 0.000000
vn 0.999324 0.025304 -0.026659
vn 0.999324 0.033173 -0.015827
vn 1.000000 -0.000000 0.000000
vn 0.999324 0.032301 -0.017535
vn 0.999324 0.036441 -0.004801
vn 1.000000 0.000000 0.000000
vn 0.999324 0.036141 -0.006695
vn 0.999324 0.036142 0.006695
vn 1.000000 0.000001 0.000000
vn 0.999324 0.036441 0.004801
vn 0.999324 0.032303 0.017535
vn 1.000000 -0.000001 0.000000
vn 0.999324 0.033173 0.015827
vn 0.999324 0.025304 0.026659
vn 1.000000 0.000000 0.000000
vn 0.999324 0.026660 0.025303
vn 0.999324 0.015826 0.033173
vn 1.000000 -0.000001 0.000000
vn 0.999324 0.017536 0.032303
vn 0.999324 0.004800 0.036440
vn 1.000000 0.000000 0.000000
vn 0.999324 0.006695 0.036141
vn 0.999324 -0.006694 0.036141
vn 1.000000 0.000000 0.000000
vn 0.999324 -0.004800 0.036440
vn 0.999324 -0.017535 0.032302
vn 1.000000 0.000001 0.000000
vn 0.999324 -0.015825 0.033173
vn 0.999324 -0.026660 0.025303
vn 1.000000 -0.000000 0.000000
vn 0.999324 -0.025303 0.026659
vn 0.999324 -0.033173 0.015827
vn 1.000000 0.000001 0.000000
vn 0.999324 -0.032303 0.017535
vn 0.999324 -0.036441 0.004801
vn 1.000000 -0.000001 0.000000
vn 0.999324 -0.036141 0.006695
vn -0.999666 -0.024579 -0.007985
vn -1.000000 0.000000 0.000000
vn -0.631542 -0.699443 -0.334567
vn -0.631540 -0.681794 -0.369207
vn -0.978646 -0.186029 -0.087438
vn -0.978646 -0.180083 -0.099107
vn -0.023685 -0.950790 -0.308929
vn 0.023685 -0.950790 -0.308929
vn -0.978645 -0.201899 -0.038606
vn -0.978646 -0.203944 -0.025672
vn -0.631541 -0.762515 -0.140451
vn -0.631537 -0.768600 -0.102051
vn -0.999666 -0.020908 -0.015190
vn -1.000000 0.000000 0.000001
vn -0.631541 -0.561825 -0.534331
vn -0.631541 -0.534333 -0.561823
vn -0.978646 -0.149906 -0.140645
vn -0.978646 -0.140645 -0.149905
vn -0.023685 -0.808791 -0.587620
vn 0.023685 -0.808791 -0.587620
vn -0.999666 -0.015188 -0.020907
vn -1.000000 0.000001 -0.000000
vn -0.631541 -0.369206 -0.681794
vn -0.631543 -0.334564 -0.699443
vn -0.978646 -0.099108 -0.180084
vn -0.978646 -0.087438 -0.186031
vn -0.023685 -0.587620 -0.808790
vn 0.023685 -0.587620 -0.808790
vn -0.999666 -0.007986 -0.024577
vn -1.000000 -0.000001 0.000000
vn -0.631544 -0.140454 -0.762513
vn -0.631544 -0.102053 -0.768594
vn -0.978646 -0.038609 -0.201897
vn -0.978646 -0.025671 -0.203945
vn -0.023685 -0.308930 -0.950790
vn 0.023685 -0.308930 -0.950790
vn -0.999666 0.000000 -0.025842
vn -1.000000 0.000000 0.000000
vn -0.631544 0.102053 -0.768595
vn -0.631543 0.140453 -0.762513
vn -0.978646 0.025672 -0.203945
vn -0.978646 0.038608 -0.201895
vn -0.023685 -0.000000 -0.999720
vn 0.023685 0.000000 -0.999720
vn -0.999666 0.007988 -0.024577
vn -1.000000 0.000002 -0.000000
vn -0.631542 0.334568 -0.699442
vn -0.631542 0.369210 -0.681791
vn -0.978646 0.087438 -0.186029
vn -0.978646 0.099107 -0.180085
vn -0.023685 0.308930 -0.950790
vn 0.023685 0.308930 -0.950790
vn -0.999666 0.015189 -0.020907
vn -1.000000 0.000000 -0.000001
vn -0.631540 0.534336 -0.561820
vn -0.631540 0.561827 -0.534329
vn -0.978646 0.140640 -0.149906
vn -0.978646 0.149903 -0.140645
vn -0.023685 0.587620 -0.808790
vn 0.023685 0.587620 -0.808790
vn -0.999666 0.020907 -0.015189
vn -1.000000 -0.000000 0.000000
vn -0.631540 0.681794 -0.369208
vn -0.631540 0.699444 -0.334567
vn -0.978646 0.180083 -0.099107
vn -0.978646 0.186030 -0.087437
vn -0.023685 0.808790 -0.587621
vn 0.023685 0.808790 -0.587621
vn -0.999666 0.024578 -0.007986
vn -1.000000 -0.000001 0.000000
vn -0.631537 0.762519 -0.140452
vn -0.631536 0.768601 -0.102052
vn -0.978646 0.201894 -0.038607
vn -0.978646 0.203943 -0.025672
vn -0.023685 0.950790 -0.308931
vn 0.023685 0.950790 -0.308931
vn -0.999666 0.025842 0.000000
vn -1.000000 0.000000 0.000000
vn -0.631536 0.768601 0.102052
vn -0.631536 0.762519 0.140452
vn -0.978646 0.203943 0.025672
vn -0.978646 0.201895 0.038607
vn -0.023685 0.999720 -0.000000
vn 0.023685 0.999720 0.000000
vn -0.999666 0.024577 0.007986
vn -1.000000 0.000001 0.000000
vn -0.631541 0.699443 0.334566
vn -0.631542 0.681793 0.369208
vn -0.978646 0.186030 0.087437
vn -0.978646 0.180083 0.099107
vn -0.023685 0.950790 0.308931
vn 0.023685 0.950790 0.308931
vn -0.999666 0.020907 0.015189
vn -1.000000 0.000001 -0.000000
vn -0.631543 0.561822 0.534331
vn -0.631542 0.534331 0.561823
vn -0.978646 0.149905 0.140645
vn -0.978646 0.140645 0.149905
vn -0.023685 0.808789 0.587621
vn 0.023685 0.808790 0.587621
vn -0.999666 0.015189 0.020907
vn -1.000000 -0.000002 0.000000
vn -0.631540 0.369210 0.681792
vn -0.631542 0.334568 0.699442
vn -0.978646 0.099107 0.180083
vn -0.978646 0.087436 0.186029
vn -0.023685 0.587620 0.808790
vn 0.023685 0.587621 0.808790
vn -0.999666 0.007988 0.024577
vn -1.000000 0.000001 0.000000
vn -0.631544 0.140452 0.762513
vn -0.631544 0.102052 0.768595
vn -0.978646 0.038609 0.201896
vn -0.978646 0.025671 0.203945
vn -0.023685 0.308931 0.950790
vn 0.023685 0.308931 0.950790
vn -0.999666 -0.000000 0.025842
vn -1.000000 -0.000000 -0.000000
vn -0.631543 -0.102052 0.768596
vn -0.631541 -0.140452 0.762515
vn -0.978646 -0.025673 0.203944
vn -0.978646 -0.038606 0.201894
vn -0.023685 0.000000 0.999720
vn 0.023685 -0.000000 0.999720
vn -0.999666 -0.007985 0.024578
vn -1.000000 -0.000001 0.000000
vn -0.631544 -0.334565 0.699442
vn -0.631545 -0.369205 0.681791
vn -0.978646 -0.087439 0.186029
vn -0.978646 -0.099104 0.180083
vn -0.023685 -0.308931 0.950790
vn 0.023685 -0.308931 0.950790
vn -0.999666 -0.015187 0.020907
vn -1.000000 0.000001 0.000000
vn -0.631546 -0.534328 0.561821
vn -0.631546 -0.561819 0.534330
vn -0.978646 -0.140645 0.149905
vn -0.978646 -0.149906 0.140645
vn -0.023685 -0.587620 0.808790
vn 0.023685 -0.587620 0.808790
vn -0.999666 -0.020907 0.015190
vn -1.000000 -0.000001 0.000000
vn -0.631542 -0.681792 0.369208
vn -0.631541 -0.699443 0.334568
vn -0.978646 -0.180084 0.099107
vn -0.978646 -0.186029 0.087438
vn -0.023685 -0.808790 0.587620
vn 0.023685 -0.808791 0.587620
vn -0.999666 -0.024578 0.007986
vn -1.000000 -0.000001 0.000000
vn -0.631535 -0.762520 0.140451
vn -0.631534 -0.768603 0.102051
vn -0.978646 -0.201896 0.038606
vn -0.978646 -0.203943 0.025672
vn -0.023685 -0.950790 0.308930
vn 0.023685 -0.950790 0.308930
vn -0.999666 -0.025842 0.000001
vn -1.000000 -0.000000 -0.000000
vn -0.023685 -0.999720 0.000001
vn 0.023685 -0.999720 0.000001
vn 0.999666 -0.024577 -0.007986
vn 1.000000 -0.000000 0.000000
vn 0.631536 -0.762519 -0.140450
vn 0.631536 -0.768602 -0.102050
vn 0.978646 -0.201894 -0.038607
vn 0.978646 -0.203943 -0.025672
vn 0.978645 -0.186031 -0.087438
vn 0.978646 -0.180086 -0.099107
vn 0.631544 -0.699442 -0.334566
vn 0.631544 -0.681791 -0.369207
vn 0.999666 -0.020906 -0.015190
vn 1.000000 0.000001 0.000000
vn 0.978646 -0.149904 -0.140645
vn 0.978646 -0.140645 -0.149905
vn 0.631542 -0.561823 -0.534331
vn 0.631542 -0.534333 -0.561821
vn 0.999666 -0.015190 -0.020907
vn 1.000000 0.000001 0.000000
vn 0.978646 -0.099107 -0.180083
vn 0.978646 -0.087436 -0.186028
vn 0.631542 -0.369209 -0.681791
vn 0.631542 -0.334568 -0.699442
vn 0.999666 -0.007985 -0.024577
vn 1.000000 0.000000 0.000000
vn 0.978646 -0.038607 -0.201896
vn 0.978646 -0.025672 -0.203945
vn 0.631546 -0.140452 -0.762511
vn 0.631546 -0.102053 -0.768593
vn 0.999666 -0.000000 -0.025842
vn 1.000000 0.000000 0.000000
vn 0.978646 0.025672 -0.203945
vn 0.978646 0.038606 -0.201896
vn 0.631544 0.102052 -0.768595
vn 0.631544 0.140452 -0.762513
vn 0.999666 0.007986 -0.024577
vn 1.000000 0.000000 0.000000
vn 0.978646 0.087438 -0.186030
vn 0.978646 0.099106 -0.180085
vn 0.631544 0.334566 -0.699441
vn 0.631543 0.369207 -0.681792
vn 0.999666 0.015190 -0.020907
vn 1.000000 0.000000 0.000000
vn 0.978646 0.140645 -0.149905
vn 0.978646 0.149905 -0.140645
vn 0.631541 0.534332 -0.561824
vn 0.631542 0.561823 -0.534332
vn 0.999666 0.020906 -0.015190
vn 1.000000 -0.000000 0.000000
vn 0.978646 0.180082 -0.099107
vn 0.978646 0.186029 -0.087438
vn 0.631540 0.681795 -0.369206
vn 0.631541 0.699444 -0.334565
vn 0.999666 0.024578 -0.007986
vn 1.000000 0.000000 0.000000
vn 0.978646 0.201897 -0.038607
vn 0.978646 0.203946 -0.025672
vn 0.631544 0.762512 -0.140452
vn 0.631545 0.768593 -0.102052
vn 0.999666 0.025842 -0.000000
vn 1.000000 0.000000 0.000000
vn 0.978645 0.203948 0.025672
vn 0.978645 0.201900 0.038607
vn 0.631545 0.768593 0.102052
vn 0.631544 0.762513 0.140452
vn 0.999666 0.024578 0.007986
vn 1.000000 -0.000000 0.000000
vn 0.978646 0.186029 0.087438
vn 0.978646 0.180083 0.099107
vn 0.631542 0.699443 0.334565
vn 0.631542 0.681794 0.369205
vn 0.999666 0.020907 0.015190
vn 1.000000 -0.000000 0.000000
vn 0.978645 0.149907 0.140645
vn 0.978646 0.140646 0.149905
vn 0.631541 0.561822 0.534333
vn 0.631541 0.534331 0.561823
vn 0.999666 0.015190 0.020907
vn 1.000000 0.000000 0.000000
vn 0.978646 0.099109 0.180085
vn 0.978646 0.087439 0.186030
vn 0.631542 0.369207 0.681792
vn 0.631540 0.334568 0.699443
vn 0.999666 0.007986 0.024577
vn 1.000000 -0.000001 0.000000
vn 0.978646 0.038607 0.201896
vn 0.978646 0.025672 0.203945
vn 0.631544 0.140452 0.762513
vn 0.631544 0.102052 0.768594
vn 0.999666 -0.000000 0.025842
vn 1.000000 -0.000001 0.000000
vn 0.978646 -0.025673 0.203945
vn 0.978646 -0.038606 0.201896
vn 0.631544 -0.102052 0.768595
vn 0.631544 -0.140452 0.762513
vn 0.999666 -0.007985 0.024577
vn 1.000000 0.000000 0.000000
vn 0.978646 -0.087438 0.186029
vn 0.978646 -0.099107 0.180082
vn 0.631540 -0.334567 0.699444
vn 0.631541 -0.369207 0.681793
vn 0.999666 -0.015190 0.020906
vn 1.000000 0.000000 0.000000
vn 0.978646 -0.140645 0.149903
vn 0.978646 -0.149906 0.140644
vn 0.631543 -0.534330 0.561823
vn 0.631542 -0.561822 0.534332
vn 0.999666 -0.020907 0.015190
vn 1.000000 0.000001 0.000000
vn 0.978645 -0.180086 0.099107
vn 0.978645 -0.186032 0.087438
vn 0.631543 -0.681791 0.369207
vn 0.631544 -0.699441 0.334566
vn 0.999666 -0.024578 0.007986
vn 1.000000 0.000000 0.000000
vn 0.978646 -0.201897 0.038607
vn 0.978646 -0.203945 0.025672
vn 0.631543 -0.762513 0.140453
vn 0.631541 -0.768597 0.102052
vn 0.999666 -0.025842 0.000000
vn 1.000000 -0.000001 0.000000
vn -0.978980 -0.193974 -0.063024
vn -0.635302 -0.734467 -0.238642
vn -0.978981 -0.165002 -0.119881
vn -0.635298 -0.624779 -0.453925
vn -0.978981 -0.119883 -0.165000
vn -0.635299 -0.453926 -0.624777
vn -0.978980 -0.063027 -0.193973
vn -0.635303 -0.238643 -0.734466
vn -0.978981 0.000001 -0.203954
vn -0.635303 -0.000000 -0.772263
vn -0.978981 0.063026 -0.193969
vn -0.635300 0.238643 -0.734468
vn -0.978980 0.119879 -0.165004
vn -0.635299 0.453929 -0.624775
vn -0.978981 0.165002 -0.119881
vn -0.635300 0.624777 -0.453925
vn -0.978981 0.193972 -0.063024
vn -0.635298 0.734470 -0.238642
vn -0.978981 0.203954 0.000000
vn -0.635296 0.772269 -0.000000
vn -0.978980 0.193972 0.063025
vn -0.635298 0.734470 0.238642
vn -0.978981 0.165001 0.119881
vn -0.635301 0.624775 0.453926
vn -0.978981 0.119883 0.165000
vn -0.635299 0.453926 0.624778
vn -0.978981 0.063026 0.193970
vn -0.635303 0.238641 0.734466
vn -0.978981 -0.000001 0.203954
vn -0.635302 -0.000000 0.772264
vn -0.978981 -0.063022 0.193970
vn -0.635298 -0.238646 0.734469
vn -0.978981 -0.119876 0.165001
vn -0.635303 -0.453926 0.624774
vn -0.978980 -0.165002 0.119881
vn -0.635302 -0.624775 0.453924
vn -0.978980 -0.193973 0.063025
vn -0.635298 -0.734470 0.238643
vn -0.978981 -0.203952 0.000001
vn -0.635293 -0.772271 0.000001
vn 0.978981 -0.193971 -0.063025
vn 0.635299 -0.734470 -0.238641
vn 0.978981 -0.165000 -0.119881
vn 0.635301 -0.624776 -0.453925
vn 0.978981 -0.119881 -0.165002
vn 0.635301 -0.453926 -0.624775
vn 0.978981 -0.063024 -0.193971
vn 0.635302 -0.238642 -0.734467
vn 0.978981 -0.000000 -0.203954
vn 0.635303 0.000000 -0.772263
vn 0.978981 0.063024 -0.193972
vn 0.635302 0.238644 -0.734466
vn 0.978981 0.119880 -0.165002
vn 0.635299 0.453927 -0.624777
vn 0.978981 0.165001 -0.119881
vn 0.635299 0.624778 -0.453925
vn 0.978980 0.193973 -0.063025
vn 0.635299 0.734469 -0.238643
vn 0.978980 0.203954 -0.000000
vn 0.635303 0.772263 0.000000
vn 0.978980 0.193973 0.063025
vn 0.635300 0.734468 0.238643
vn 0.978980 0.165003 0.119881
vn 0.635299 0.624778 0.453925
vn 0.978980 0.119882 0.165002
vn 0.635302 0.453925 0.624775
vn 0.978981 0.063025 0.193971
vn 0.635299 0.238646 0.734468
vn 0.978981 -0.000000 0.203954
vn 0.635302 -0.000000 0.772264
vn 0.978981 -0.063024 0.193971
vn 0.635300 -0.238646 0.734468
vn 0.978981 -0.119881 0.165000
vn 0.635301 -0.453925 0.624776
vn 0.978980 -0.165003 0.119881
vn 0.635299 -0.624777 0.453925
vn 0.978980 -0.193973 0.063025
vn 0.635301 -0.734467 0.238644
vn 0.978981 -0.203953 0.000000
vn 0.635296 -0.772268 -0.000000
vn -1.000000 -0.000000 0.000000
vn 1.000000 0.000000 0.000000
usemtl VRayMtl1SG
f 65/113/193 66/114/194 67/115/195
f 68/116/196 69/117/197 70/118/198 71/119/199
f 72/120/200 73/121/201 74/122/202 75/123/203
f 76/124/204 77/125/205 78/126/206
f 79/127/207 80/128/208 81/129/209
f 82/130/210 83/131/211 84/132/212 85/133/213
f 86/134/214 87/135/215 88/136/216
f 89/137/217 90/138/218 91/139/219 92/140/220
f 93/141/221 94/142/222 95/143/223
f 96/144/224 97/145/225 98/146/226 99/147/227
f 100/148/228 101/149/229 102/150/230
f 103/151/231 104/152/232 105/153/233 106/154/234
f 107/155/235 108/156/236 109/157/237
f 110/158/238 111/159/239 112/160/240 113/161/241
f 114/162/242 115/163/243 116/164/244
f 117/165/245 118/166/246 119/167/247 120/168/248
f 121/169/249 122/170/250 123/171/251
f 124/172/252 125/173/253 126/174/254 127/175/255
f 128/176/256 129/177/257 130/178/258
f 131/179/259 132/180/260 133/181/261 134/182/262
f 135/183/263 136/184/264 137/185/265
f 138/186/266 139/187/267 140/188/268 141/189/269
f 142/190/270 143/191/271 144/192/272
f 145/193/273 146/194/274 147/195/275 148/196/276
f 149/197/277 150/198/278 151/199/279
f 152/200/280 153/201/281 154/202/282 155/203/283
f 156/204/284 157/205/285 158/206/286
f 159/207/287 160/208/288 161/209/289 162/210/290
f 163/211/291 164/212/292 165/213/293
f 166/214/294 167/215/295 168/216/296 169/217/297
f 170/218/298 171/219/299 172/220/300
f 173/221/301 174/222/302 175/223/303 176/224/304
f 177/225/305 178/226/306 179/227/307
f 180/228/308 181/229/309 182/230/310 183/231/311
f 184/232/312 185/233/313 186/234/314
f 187/235/315 188/236/316 189/237/317 190/238/318
f 191/239/319 192/240/320 193/241/321
f 194/242/322 195/243/323 196/244/324 197/245/325
f 198/246/326 199/247/327 200/248/328
f 201/249/329 202/250/330 203/251/331 204/252/332
f 205/253/333 206/254/334 207/255/335
f 208/256/336 209/257/337 210/258/338
f 211/259/339 212/260/340 213/261/341
f 214/262/342 215/263/343 216/264/344
f 217/265/345 218/266/346 219/267/347
f 220/268/348 221/269/349 222/270/350
f 223/271/351 224/272/352 225/273/353
f 226/274/354 227/275/355 228/276/356
f 229/277/357 230/278/358 231/279/359
f 232/280/360 233/281/361 234/282/362
f 235/283/363 236/284/364 237/285/365
f 238/286/366 239/287/367 240/288/368
f 241/289/369 242/290/370 243/291/371
f 244/292/372 245/293/373 246/294/374
f 247/295/375 248/296/376 249/297/377
f 250/298/378 251/299/379 252/300/380
f 253/301/381 254/302/382 255/303/383
f 256/304/384 257/305/385 258/306/386
f 259/307/387 260/308/388 261/309/389
f 262/310/390 263/311/391 264/312/392
f 67/115/195 265/313/393 266/314/394 65/113/193
f 265/313/393 78/126/206 77/125/205 266/314/394
f 71/119/199 267/315/395 268/316/396 68/116/196
f 267/317/397 67/115/195 66/114/194 268/318/398
f 75/123/203 269/319/399 270/320/400 72/120/200
f 269/321/399 71/119/199 70/118/198 270/322/400
f 78/126/206 271/323/401 272/324/402 76/124/204
f 271/325/403 75/123/203 74/122/202 272/326/404
f 81/129/209 273/327/405 274/328/406 79/127/207
f 273/327/405 66/114/194 65/113/193 274/328/406
f 85/133/213 275/329/407 276/330/408 82/130/210
f 275/331/409 81/129/209 80/128/208 276/332/410
f 68/116/196 277/333/411 278/334/412 69/117/197
f 277/335/411 85/133/213 84/132/212 278/336/412
f 88/136/216 279/337/413 280/338/414 86/134/214
f 279/337/413 80/128/208 79/127/207 280/338/414
f 92/140/220 281/339/415 282/340/416 89/137/217
f 281/341/417 88/136/216 87/135/215 282/342/418
f 82/130/210 283/343/419 284/344/420 83/131/211
f 283/345/419 92/140/220 91/139/219 284/346/420
f 95/143/223 285/347/421 286/348/422 93/141/221
f 285/347/421 87/135/215 86/134/214 286/348/422
f 99/147/227 287/349/423 288/350/424 96/144/224
f 287/351/425 95/143/223 94/142/222 288/352/426
f 89/137/217 289/353/427 290/354/428 90/138/218
f 289/355/427 99/147/227 98/146/226 290/356/428
f 102/150/230 291/357/429 292/358/430 100/148/228
f 291/357/429 94/142/222 93/141/221 292/358/430
f 106/154/234 293/359/431 294/360/432 103/151/231
f 293/361/433 102/150/230 101/149/229 294/362/434
f 96/144/224 295/363/435 296/364/436 97/145/225
f 295/365/435 106/154/234 105/153/233 296/366/436
f 109/157/237 297/367/437 298/368/438 107/155/235
f 297/367/437 101/149/229 100/148/228 298/368/438
f 113/161/241 299/369/439 300/370/440 110/158/238
f 299/371/441 109/157/237 108/156/236 300/372/442
f 103/151/231 301/373/443 302/374/444 104/152/232
f 301/375/443 113/161/241 112/160/240 302/376/444
f 116/164/244 303/377/445 304/378/446 114/162/242
f 303/377/445 108/156/236 107/155/235 304/378/446
f 120/168/248 305/379/447 306/380/448 117/165/245
f 305/381/449 116/164/244 115/163/243 306/382/450
f 110/158/238 307/383/451 308/384/452 111/159/239
f 307/385/451 120/168/248 119/167/247 308/386/452
f 123/171/251 309/387/453 310/388/454 121/169/249
f 309/387/453 115/163/243 114/162/242 310/388/454
f 127/175/255 311/389/455 312/390/456 124/172/252
f 311/391/457 123/171/251 122/170/250 312/392/458
f 117/165/245 313/393/459 314/394/460 118/166/246
f 313/395/459 127/175/255 126/174/254 314/396/460
f 130/178/258 315/397/461 316/398/462 128/176/256
f 315/397/461 122/170/250 121/169/249 316/398/462
f 134/182/262 317/399/463 318/400/464 131/179/259
f 317/401/465 130/178/258 129/177/257 318/402/466
f 124/172/252 319/403/467 320/404/468 125/173/253
f 319/405/467 134/182/262 133/181/261 320/406/468
f 137/185/265 321/407/469 322/408/470 135/183/263
f 321/407/469 129/177/257 128/176/256 322/408/470
f 141/189/269 323/409/471 324/410/472 138/186/266
f 323/411/473 137/185/265 136/184/264 324/412/474
f 131/179/259 325/413/475 326/414/476 132/180/260
f 325/415/475 141/189/269 140/188/268 326/416/476
f 144/192/272 327/417/477 328/418/478 142/190/270
f 327/417/477 136/184/264 135/183/263 328/418/478
f 148/196/276 329/419/479 330/420/480 145/193/273
f 329/421/481 144/192/272 143/191/271 330/422/482
f 138/186/266 331/423/483 332/424/484 139/187/267
f 331/425/483 148/196/276 147/195/275 332/426/484
f 151/199/279 333/427/485 334/428/486 149/197/277
f 333/427/485 143/191/271 142/190/270 334/428/486
f 155/203/283 335/429/487 336/430/488 152/200/280
f 335/431/489 151/199/279 150/198/278 336/432/490
f 145/193/273 337/433/491 338/434/492 146/194/274
f 337/435/491 155/203/283 154/202/282 338/436/492
f 158/206/286 339/437/493 340/438/494 156/204/284
f 339/437/493 150/198/278 149/197/277 340/438/494
f 162/210/290 341/439/495 342/440/496 159/207/287
f 341/441/497 158/206/286 157/205/285 342/442/498
f 152/200/280 343/443/499 344/444/500 153/201/281
f 343/445/499 162/210/290 161/209/289 344/446/500
f 165/213/293 345/447/501 346/448/502 163/211/291
f 345/447/501 157/205/285 156/204/284 346/448/502
f 169/217/297 347/449/503 348/450/504 166/214/294
f 347/451/505 165/213/293 164/212/292 348/452/506
f 159/207/287 349/453/507 350/454/508 160/208/288
f 349/455/507 169/217/297 168/216/296 350/456/508
f 172/220/300 351/457/509 352/458/510 170/218/298
f 351/457/509 164/212/292 163/211/291 352/458/510
f 176/224/304 353/459/511 354/460/512 173/221/301
f 353/461/513 172/220/300 171/219/299 354/462/514
f 166/214/294 355/463/515 356/464/516 167/215/295
f 355/465/515 176/224/304 175/223/303 356/466/516
f 179/227/307 357/467/517 358/468/518 177/225/305
f 357/467/517 171/219/299 170/218/298 358/468/518
f 183/231/311 359/469/519 360/470/520 180/228/308
f 359/471/521 179/227/307 178/226/306 360/472/522
f 173/221/301 361/473/523 362/474/524 174/222/302
f 361/475/523 183/231/311 182/230/310 362/476/524
f 186/234/314 363/477/525 364/478/526 184/232/312
f 363/477/525 178/226/306 177/225/305 364/478/526
f 190/238/318 365/479/527 366/480/528 187/235/315
f 365/481/529 186/234/314 185/233/313 366/482/530
f 180/228/308 367/483/531 368/484/532 181/229/309
f 367/485/531 190/238/318 189/237/317 368/486/532
f 193/241/321 369/487/533 370/488/534 191/239/319
f 369/487/533 185/233/313 184/232/312 370/488/534
f 197/245/325 371/489/535 372/490/536 194/242/322
f 371/491/537 193/241/321 192/240/320 372/492/538
f 187/235/315 373/493/539 374/494/540 188/236/316
f 373/495/539 197/245/325 196/244/324 374/496/540
f 200/248/328 375/497/541 376/498/542 198/246/326
f 375/497/541 192/240/320 191/239/319 376/498/542
f 204/252/332 377/499/543 378/500/544 201/249/329
f 377/501/545 200/248/328 199/247/327 378/502/546
f 194/242/322 379/503/547 380/504/548 195/243/323
f 379/505/547 204/252/332 203/251/331 380/506/548
f 76/124/204 381/507/549 382/508/550 77/125/205
f 381/507/549 199/247/327 198/246/326 382/508/550
f 201/249/329 383/509/551 384/510/552 202/250/330
f 383/511/551 74/122/202 73/121/201 384/512/552
f 207/255/335 385/513/553 386/514/554 205/253/333
f 385/513/553 210/258/338 209/257/337 386/514/554
f 72/120/200 387/515/555 388/516/556 73/121/201
f 387/517/557 207/255/335 206/254/334 388/518/558
f 210/258/338 389/519/559 390/520/560 208/256/336
f 389/521/561 70/118/198 69/117/197 390/522/562
f 208/256/336 391/523/563 392/524/564 209/257/337
f 391/523/563 213/261/341 212/260/340 392/524/564
f 213/261/341 393/525/565 394/526/566 211/259/339
f 393/527/567 84/132/212 83/131/211 394/528/568
f 211/259/339 395/529/569 396/530/570 212/260/340
f 395/529/569 216/264/344 215/263/343 396/530/570
f 216/264/344 397/531/571 398/532/572 214/262/342
f 397/533/573 91/139/219 90/138/218 398/534/574
f 214/262/342 399/535/575 400/536/576 215/263/343
f 399/535/575 219/267/347 218/266/346 400/536/576
f 219/267/347 401/537/577 402/538/578 217/265/345
f 401/539/579 98/146/226 97/145/225 402/540/580
f 217/265/345 403/541/581 404/542/582 218/266/346
f 403/541/581 222/270/350 221/269/349 404/542/582
f 222/270/350 405/543/583 406/544/584 220/268/348
f 405/545/585 105/153/233 104/152/232 406/546/586
f 220/268/348 407/547/587 408/548/588 221/269/349
f 407/547/587 225/273/353 224/272/352 408/548/588
f 225/273/353 409/549/589 410/550/590 223/271/351
f 409/551/591 112/160/240 111/159/239 410/552/592
f 223/271/351 411/553/593 412/554/594 224/272/352
f 411/553/593 228/276/356 227/275/355 412/554/594
f 228/276/356 413/555/595 414/556/596 226/274/354
f 413/557/597 119/167/247 118/166/246 414/558/598
f 226/274/354 415/559/599 416/560/600 227/275/355
f 415/559/599 231/279/359 230/278/358 416/560/600
f 231/279/359 417/561/601 418/562/602 229/277/357
f 417/563/603 126/174/254 125/173/253 418/564/604
f 229/277/357 419/565/605 420/566/606 230/278/358
f 419/565/605 234/282/362 233/281/361 420/566/606
f 234/282/362 421/567/607 422/568/608 232/280/360
f 421/569/609 133/181/261 132/180/260 422/570/610
f 232/280/360 423/571/611 424/572/612 233/281/361
f 423/571/611 237/285/365 236/284/364 424/572/612
f 237/285/365 425/573/613 426/574/614 235/283/363
f 425/575/615 140/188/268 139/187/267 426/576/616
f 235/283/363 427/577/617 428/578/618 236/284/364
f 427/577/617 240/288/368 239/287/367 428/578/618
f 240/288/368 429/579/619 430/580/620 238/286/366
f 429/581/621 147/195/275 146/194/274 430/582/622
f 238/286/366 431/583/623 432/584/624 239/287/367
f 431/583/623 243/291/371 242/290/370 432/584/624
f 243/291/371 433/585/625 434/586/626 241/289/369
f 433/587/627 154/202/282 153/201/281 434/588/628
f 241/289/369 435/589/629 436/590/630 242/290/370
f 435/589/629 246/294/374 245/293/373 436/590/630
f 246/294/374 437/591/631 438/592/632 244/292/372
f 437/593/633 161/209/289 160/208/288 438/594/634
f 244/292/372 439/595/635 440/596/636 245/293/373
f 439/595/635 249/297/377 248/296/376 440/596/636
f 249/297/377 441/597/637 442/598/638 247/295/375
f 441/599/639 168/216/296 167/215/295 442/600/640
f 247/295/375 443/601/641 444/602/642 248/296/376
f 443/601/641 252/300/380 251/299/379 444/602/642
f 252/300/380 445/603/643 446/604/644 250/298/378
f 445/605/645 175/223/303 174/222/302 446/606/646
f 250/298/378 447/607/647 448/608/648 251/299/379
f 447/607/647 255/303/383 254/302/382 448/608/648
f 255/303/383 449/609/649 450/610/650 253/301/381
f 449/611/651 182/230/310 181/229/309 450/612/652
f 253/301/381 451/613/653 452/614/654 254/302/382
f 451/613/653 258/306/386 257/305/385 452/614/654
f 258/306/386 453/615/655 454/616/656 256/304/384
f 453/617/657 189/237/317 188/236/316 454/618/658
f 256/304/384 455/619/659 456/620/660 257/305/385
f 455/619/659 261/309/389 260/308/388 456/620/660
f 261/309/389 457/621/661 458/622/662 259/307/387
f 457/623/663 196/244/324 195/243/323 458/624/664
f 259/307/387 459/625/665 460/626/666 260/308/388
f 459/625/665 264/312/392 263/311/391 460/626/666
f 264/312/392 461/627/667 462/628/668 262/310/390
f 461/629/669 203/251/331 202/250/330 462/630/670
f 262/310/390 463/631/671 464/632/672 263/311/391
f 463/631/671 206/254/334 205/253/333 464/632/672
f 271/323/401 78/126/206 265/313/393 465/633/673
f 265/313/393 67/115/195 267/317/397 465/633/673
f 267/315/395 71/119/199 269/321/399 465/634/674
f 269/319/399 75/123/203 271/325/403 465/635/674
f 268/318/398 66/114/194 273/327/405 466/636/675
f 273/327/405 81/129/209 275/331/409 466/636/675
f 275/329/407 85/133/213 277/335/411 466/637/676
f 277/333/411 68/116/196 268/316/396 466/638/676
f 276/332/410 80/128/208 279/337/413 467/639/677
f 279/337/413 88/136/216 281/341/417 467/639/677
f 281/339/415 92/140/220 283/345/419 467/640/678
f 283/343/419 82/130/210 276/330/408 467/641/678
f 282/342/418 87/135/215 285/347/421 468/642/679
f 285/347/421 95/143/223 287/351/425 468/642/679
f 287/349/423 99/147/227 289/355/427 468/643/680
f 289/353/427 89/137/217 282/340/416 468/644/680
f 288/352/426 94/142/222 291/357/429 469/645/681
f 291/357/429 102/150/230 293/361/433 469/645/681
f 293/359/431 106/154/234 295/365/435 469/646/682
f 295/363/435 96/144/224 288/350/424 469/647/682
f 294/362/434 101/149/229 297/367/437 470/648/683
f 297/367/437 109/157/237 299/371/441 470/648/683
f 299/369/439 113/161/241 301/375/443 470/649/684
f 301/373/443 103/151/231 294/360/432 470/650/684
f 300/372/442 108/156/236 303/377/445 471/651/685
f 303/377/445 116/164/244 305/381/449 471/651/685
f 305/379/447 120/168/248 307/385/451 471/652/686
f 307/383/451 110/158/238 300/370/440 471/653/686
f 306/382/450 115/163/243 309/387/453 472/654/687
f 309/387/453 123/171/251 311/391/457 472/654/687
f 311/389/455 127/175/255 313/395/459 472/655/688
f 313/393/459 117/165/245 306/380/448 472/656/688
f 312/392/458 122/170/250 315/397/461 473/657/689
f 315/397/461 130/178/258 317/401/465 473/657/689
f 317/399/463 134/182/262 319/405/467 473/658/690
f 319/403/467 124/172/252 312/390/456 473/659/690
f 318/402/466 129/177/257 321/407/469 474/660/691
f 321/407/469 137/185/265 323/411/473 474/660/691
f 323/409/471 141/189/269 325/415/475 474/661/692
f 325/413/475 131/179/259 318/400/464 474/662/692
f 324/412/474 136/184/264 327/417/477 475/663/693
f 327/417/477 144/192/272 329/421/481 475/663/693
f 329/419/479 148/196/276 331/425/483 475/664/694
f 331/423/483 138/186/266 324/410/472 475/665/694
f 330/422/482 143/191/271 333/427/485 476/666/695
f 333/427/485 151/199/279 335/431/489 476/666/695
f 335/429/487 155/203/283 337/435/491 476/667/696
f 337/433/491 145/193/273 330/420/480 476/668/696
f 336/432/490 150/198/278 339/437/493 477/669/697
f 339/437/493 158/206/286 341/441/497 477/669/697
f 341/439/495 162/210/290 343/445/499 477/670/698
f 343/443/499 152/200/280 336/430/488 477/671/698
f 342/442/498 157/205/285 345/447/501 478/672/699
f 345/447/501 165/213/293 347/451/505 478/672/699
f 347/449/503 169/217/297 349/455/507 478/673/700
f 349/453/507 159/207/287 342/440/496 478/674/700
f 348/452/506 164/212/292 351/457/509 479/675/701
f 351/457/509 172/220/300 353/461/513 479/675/701
f 353/459/511 176/224/304 355/465/515 479/676/702
f 355/463/515 166/214/294 348/450/504 479/677/702
f 354/462/514 171/219/299 357/467/517 480/678/703
f 357/467/517 179/227/307 359/471/521 480/678/703
f 359/469/519 183/231/311 361/475/523 480/679/704
f 361/473/523 173/221/301 354/460/512 480/680/704
f 360/472/522 178/226/306 363/477/525 481/681/705
f 363/477/525 186/234/314 365/481/529 481/681/705
f 365/479/527 190/238/318 367/485/531 481/682/706
f 367/483/531 180/228/308 360/470/520 481/683/706
f 366/482/530 185/233/313 369/487/533 482/684/707
f 369/487/533 193/241/321 371/491/537 482/684/707
f 371/489/535 197/245/325 373/495/539 482/685/708
f 373/493/539 187/235/315 366/480/528 482/686/708
f 372/492/538 192/240/320 375/497/541 483/687/709
f 375/497/541 200/248/328 377/501/545 483/687/709
f 377/499/543 204/252/332 379/505/547 483/688/710
f 379/503/547 194/242/322 372/490/536 483/689/710
f 378/502/546 199/247/327 381/507/549 484/690/711
f 381/507/549 76/124/204 272/324/402 484/690/711
f 272/326/404 74/122/202 383/511/551 484/691/712
f 383/509/551 201/249/329 378/500/544 484/692/712
f 389/519/559 210/258/338 385/513/553 485/693/713
f 385/513/553 207/255/335 387/517/557 485/693/713
f 387/515/555 72/120/200 270/320/400 485/694/714
f 270/322/400 70/118/198 389/521/561 485/695/714
f 393/525/565 213/261/341 391/523/563 486/696/715
f 391/523/563 208/256/336 390/520/560 486/696/715
f 390/522/562 69/117/197 278/334/412 486/697/716
f 278/336/412 84/132/212 393/527/567 486/698/716
f 397/531/571 216/264/344 395/529/569 487/699/717
f 395/529/569 211/259/339 394/526/566 487/699/717
f 394/528/568 83/131/211 284/344/420 487/700/718
f 284/346/420 91/139/219 397/533/573 487/701/718
f 401/537/577 219/267/347 399/535/575 488/702/719
f 399/535/575 214/262/342 398/532/572 488/702/719
f 398/534/574 90/138/218 290/354/428 488/703/720
f 290/356/428 98/146/226 401/539/579 488/704/720
f 405/543/583 222/270/350 403/541/581 489/705/721
f 403/541/581 217/265/345 402/538/578 489/705/721
f 402/540/580 97/145/225 296/364/436 489/706/722
f 296/366/436 105/153/233 405/545/585 489/707/722
f 409/549/589 225/273/353 407/547/587 490/708/723
f 407/547/587 220/268/348 406/544/584 490/708/723
f 406/546/586 104/152/232 302/374/444 490/709/724
f 302/376/444 112/160/240 409/551/591 490/710/724
f 413/555/595 228/276/356 411/553/593 491/711/725
f 411/553/593 223/271/351 410/550/590 491/711/725
f 410/552/592 111/159/239 308/384/452 491/712/726
f 308/386/452 119/167/247 413/557/597 491/713/726
f 417/561/601 231/279/359 415/559/599 492/714/727
f 415/559/599 226/274/354 414/556/596 492/714/727
f 414/558/598 118/166/246 314/394/460 492/715/728
f 314/396/460 126/174/254 417/563/603 492/716/728
f 421/567/607 234/282/362 419/565/605 493/717/729
f 419/565/605 229/277/357 418/562/602 493/717/729
f 418/564/604 125/173/253 320/404/468 493/718/730
f 320/406/468 133/181/261 421/569/609 493/719/730
f 425/573/613 237/285/365 423/571/611 494/720/731
f 423/571/611 232/280/360 422/568/608 494/720/731
f 422/570/610 132/180/260 326/414/476 494/721/732
f 326/416/476 140/188/268 425/575/615 494/722/732
f 429/579/619 240/288/368 427/577/617 495/723/733
f 427/577/617 235/283/363 426/574/614 495/723/733
f 426/576/616 139/187/267 332/424/484 495/724/734
f 332/426/484 147/195/275 429/581/621 495/725/734
f 433/585/625 243/291/371 431/583/623 496/726/735
f 431/583/623 238/286/366 430/580/620 496/726/735
f 430/582/622 146/194/274 338/434/492 496/727/736
f 338/436/492 154/202/282 433/587/627 496/728/736
f 437/591/631 246/294/374 435/589/629 497/729/737
f 435/589/629 241/289/369 434/586/626 497/729/737
f 434/588/628 153/201/281 344/444/500 497/730/738
f 344/446/500 161/209/289 437/593/633 497/731/738
f 441/597/637 249/297/377 439/595/635 498/732/739
f 439/595/635 244/292/372 438/592/632 498/732/739
f 438/594/634 160/208/288 350/454/508 498/733/740
f 350/456/508 168/216/296 441/599/639 498/734/740
f 445/603/643 252/300/380 443/601/641 499/735/741
f 443/601/641 247/295/375 442/598/638 499/735/741
f 442/600/640 167/215/295 356/464/516 499/736/742
f 356/466/516 175/223/303 445/605/645 499/737/742
f 449/609/649 255/303/383 447/607/647 500/738/743
f 447/607/647 250/298/378 446/604/644 500/738/743
f 446/606/646 174/222/302 362/474/524 500/739/744
f 362/476/524 182/230/310 449/611/651 500/740/744
f 453/615/655 258/306/386 451/613/653 501/741/745
f 451/613/653 253/301/381 450/610/650 501/741/745
f 450/612/652 181/229/309 368/484/532 501/742/746
f 368/486/532 189/237/317 453/617/657 501/743/746
f 457/621/661 261/309/389 455/619/659 502/744/747
f 455/619/659 256/304/384 454/616/656 502/744/747
f 454/618/658 188/236/316 374/494/540 502/745/748
f 374/496/540 196/244/324 457/623/663 502/746/748
f 461/627/667 264/312/392 459/625/665 503/747/749
f 459/625/665 259/307/387 458/622/662 503/747/749
f 458/624/664 195/243/323 380/504/548 503/748/750
f 380/506/548 203/251/331 461/629/669 503/749/750
f 388/518/558 206/254/334 463/631/671 504/750/751
f 463/631/671 262/310/390 462/628/668 504/750/751
f 462/630/670 202/250/330 384/510/552 504/751/752
f 384/512/552 73/121/201 388/516/556 504/752/752
f 266/314/394 77/125/205 382/508/550 505/753/753
f 382/508/550 198/246/326 376/498/542 505/753/753
f 376/498/542 191/239/319 370/488/534 505/753/753
f 370/488/534 184/232/312 364/478/526 505/753/753
f 364/478/526 177/225/305 358/468/518 505/753/753
f 358/468/518 170/218/298 352/458/510 505/753/753
f 352/458/510 163/211/291 346/448/502 505/753/753
f 346/448/502 156/204/284 340/438/494 505/753/753
f 340/438/494 149/197/277 334/428/486 505/753/753
f 334/428/486 142/190/270 328/418/478 505/753/753
f 328/418/478 135/183/263 322/408/470 505/753/753
f 322/408/470 128/176/256 316/398/462 505/753/753
f 316/398/462 121/169/249 310/388/454 505/753/753
f 310/388/454 114/162/242 304/378/446 505/753/753
f 304/378/446 107/155/235 298/368/438 505/753/753
f 298/368/438 100/148/228 292/358/430 505/753/753
f 292/358/430 93/141/221 286/348/422 505/753/753
f 286/348/422 86/134/214 280/338/414 505/753/753
f 280/338/414 79/127/207 274/328/406 505/753/753
f 274/328/406 65/113/193 266/314/394 505/753/753
f 460/626/666 263/311/391 464/632/672 506/754/754
f 464/632/672 205/253/333 386/514/554 506/754/754
f 386/514/554 209/257/337 392/524/564 506/754/754
f 392/524/564 212/260/340 396/530/570 506/754/754
f 396/530/570 215/263/343 400/536/576 506/754/754
f 400/536/576 218/266/346 404/542/582 506/754/754
f 404/542/582 221/269/349 408/548/588 506/754/754
f 408/548/588 224/272/352 412/554/594 506/754/754
f 412/554/594 227/275/355 416/560/600 506/754/754
f 416/560/600 230/278/358 420/566/606 506/754/754
f 420/566/606 233/281/361 424/572/612 506/754/754
f 424/572/612 236/284/364 428/578/618 506/754/754
f 428/578/618 239/287/367 432/584/624 506/754/754
f 432/584/624 242/290/370 436/590/630 506/754/754
f 436/590/630 245/293/373 440/596/636 506/754/754
f 440/596/636 248/296/376 444/602/642 506/754/754
f 444/602/642 251/299/379 448/608/648 506/754/754
f 448/608/648 254/302/382 452/614/654 506/754/754
f 452/614/654 257/305/385 456/620/660 506/754/754
f 456/620/660 260/308/388 460/626/666 506/754/754
usemtl VRayMtl2SG
f 1/1/1 2/2/2 3/3/3 4/4/4
f 4/4/5 3/3/6 5/5/7 6/6/8
f 6/6/9 5/5/10 7/7/11 8/8/12
f 8/8/13 7/7/14 2/9/15 1/10/16
f 2/2/17 7/11/18 5/12/19 3/3/20
f 8/13/21 1/1/22 4/4/23 6/14/24
f 9/15/25 10/16/26 11/17/27 12/18/28
f 12/18/29 11/17/30 13/19/31 14/20/32
f 14/20/33 13/19/34 15/21/35 16/22/36
f 16/22/37 15/21/38 10/23/39 9/24/40
f 10/16/41 15/25/42 13/26/43 11/17/44
f 16/27/45 9/15/46 12/18/47 14/28/48
f 17/29/49 18/30/50 19/31/51 20/32/52
f 20/32/53 19/31/54 21/33/55 22/34/56
f 22/34/57 21/33/58 23/35/59 24/36/60
f 24/36/61 23/35/62 18/37/63 17/38/64
f 18/30/65 23/39/66 21/40/67 19/31/68
f 24/41/69 17/29/70 20/32/71 22/42/72
f 25/43/73 26/44/74 27/45/75 28/46/76
f 28/46/77 27/45/78 29/47/79 30/48/80
f 30/48/81 29/47/82 31/49/83 32/50/84
f 32/50/85 31/49/86 26/51/87 25/52/88
f 26/44/89 31/53/90 29/54/91 27/45/92
f 32/55/93 25/43/94 28/46/95 30/56/96
f 33/57/97 34/58/98 35/59/99 36/60/100
f 36/60/101 35/59/102 37/61/103 38/62/104
f 38/62/105 37/61/106 39/63/107 40/64/108
f 40/64/109 39/63/110 34/65/111 33/66/112
f 34/58/113 39/67/114 37/68/115 35/59/116
f 40/69/117 33/57/118 36/60/119 38/70/120
f 41/71/121 42/72/122 43/73/123 44/74/124
f 44/74/125 43/73/126 45/75/127 46/76/128
f 46/76/129 45/75/130 47/77/131 48/78/132
f 48/78/133 47/77/134 42/79/135 41/80/136
f 42/72/137 47/81/138 45/82/139 43/73/140
f 48/83/141 41/71/142 44/74/143 46/84/144
f 49/85/145 50/86/146 51/87/147 52/88/148
f 52/88/149 51/87/150 53/89/151 54/90/152
f 54/90/153 53/89/154 55/91/155 56/92/156
f 56/92/157 55/91/158 50/93/159 49/94/160
f 50/86/161 55/95/162 53/96/163 51/87/164
f 56/97/165 49/85/166 52/88/167 54/98/168
f 57/99/169 58/100/170 59/101/171 60/102/172
f 60/102/173 59/101/174 61/103/175 62/104/176
f 62/104/177 61/103/178 63/105/179 64/106/180
f 64/106/181 63/105/182 58/107/183 57/108/184
f 58/100/185 63/109/186 61/110/187 59/101/188
f 64/111/189 57/99/190 60/102/191 62/112/192
